%TF.GenerationSoftware,KiCad,Pcbnew,8.0.6*%
%TF.CreationDate,2025-02-17T14:25:19+01:00*%
%TF.ProjectId,KWLcontrol,4b574c63-6f6e-4747-926f-6c2e6b696361,rev?*%
%TF.SameCoordinates,Original*%
%TF.FileFunction,Legend,Bot*%
%TF.FilePolarity,Positive*%
%FSLAX46Y46*%
G04 Gerber Fmt 4.6, Leading zero omitted, Abs format (unit mm)*
G04 Created by KiCad (PCBNEW 8.0.6) date 2025-02-17 14:25:19*
%MOMM*%
%LPD*%
G01*
G04 APERTURE LIST*
%ADD10C,0.100000*%
%ADD11C,0.152400*%
G04 APERTURE END LIST*
D10*
X131896115Y-124472419D02*
X131896115Y-123472419D01*
X131896115Y-123472419D02*
X131658020Y-123472419D01*
X131658020Y-123472419D02*
X131515163Y-123520038D01*
X131515163Y-123520038D02*
X131419925Y-123615276D01*
X131419925Y-123615276D02*
X131372306Y-123710514D01*
X131372306Y-123710514D02*
X131324687Y-123900990D01*
X131324687Y-123900990D02*
X131324687Y-124043847D01*
X131324687Y-124043847D02*
X131372306Y-124234323D01*
X131372306Y-124234323D02*
X131419925Y-124329561D01*
X131419925Y-124329561D02*
X131515163Y-124424800D01*
X131515163Y-124424800D02*
X131658020Y-124472419D01*
X131658020Y-124472419D02*
X131896115Y-124472419D01*
X130943734Y-124186704D02*
X130467544Y-124186704D01*
X131038972Y-124472419D02*
X130705639Y-123472419D01*
X130705639Y-123472419D02*
X130372306Y-124472419D01*
X130038972Y-124472419D02*
X130038972Y-123472419D01*
X130038972Y-123472419D02*
X129467544Y-124472419D01*
X129467544Y-124472419D02*
X129467544Y-123472419D01*
X128467544Y-123520038D02*
X128562782Y-123472419D01*
X128562782Y-123472419D02*
X128705639Y-123472419D01*
X128705639Y-123472419D02*
X128848496Y-123520038D01*
X128848496Y-123520038D02*
X128943734Y-123615276D01*
X128943734Y-123615276D02*
X128991353Y-123710514D01*
X128991353Y-123710514D02*
X129038972Y-123900990D01*
X129038972Y-123900990D02*
X129038972Y-124043847D01*
X129038972Y-124043847D02*
X128991353Y-124234323D01*
X128991353Y-124234323D02*
X128943734Y-124329561D01*
X128943734Y-124329561D02*
X128848496Y-124424800D01*
X128848496Y-124424800D02*
X128705639Y-124472419D01*
X128705639Y-124472419D02*
X128610401Y-124472419D01*
X128610401Y-124472419D02*
X128467544Y-124424800D01*
X128467544Y-124424800D02*
X128419925Y-124377180D01*
X128419925Y-124377180D02*
X128419925Y-124043847D01*
X128419925Y-124043847D02*
X128610401Y-124043847D01*
X127991353Y-123948609D02*
X127658020Y-123948609D01*
X127515163Y-124472419D02*
X127991353Y-124472419D01*
X127991353Y-124472419D02*
X127991353Y-123472419D01*
X127991353Y-123472419D02*
X127515163Y-123472419D01*
X126515163Y-124472419D02*
X126848496Y-123996228D01*
X127086591Y-124472419D02*
X127086591Y-123472419D01*
X127086591Y-123472419D02*
X126705639Y-123472419D01*
X126705639Y-123472419D02*
X126610401Y-123520038D01*
X126610401Y-123520038D02*
X126562782Y-123567657D01*
X126562782Y-123567657D02*
X126515163Y-123662895D01*
X126515163Y-123662895D02*
X126515163Y-123805752D01*
X126515163Y-123805752D02*
X126562782Y-123900990D01*
X126562782Y-123900990D02*
X126610401Y-123948609D01*
X126610401Y-123948609D02*
X126705639Y-123996228D01*
X126705639Y-123996228D02*
X127086591Y-123996228D01*
X125324686Y-124472419D02*
X125324686Y-123472419D01*
X125324686Y-123948609D02*
X124753258Y-123948609D01*
X124753258Y-124472419D02*
X124753258Y-123472419D01*
X124277067Y-124472419D02*
X124277067Y-123472419D01*
X123277068Y-123520038D02*
X123372306Y-123472419D01*
X123372306Y-123472419D02*
X123515163Y-123472419D01*
X123515163Y-123472419D02*
X123658020Y-123520038D01*
X123658020Y-123520038D02*
X123753258Y-123615276D01*
X123753258Y-123615276D02*
X123800877Y-123710514D01*
X123800877Y-123710514D02*
X123848496Y-123900990D01*
X123848496Y-123900990D02*
X123848496Y-124043847D01*
X123848496Y-124043847D02*
X123800877Y-124234323D01*
X123800877Y-124234323D02*
X123753258Y-124329561D01*
X123753258Y-124329561D02*
X123658020Y-124424800D01*
X123658020Y-124424800D02*
X123515163Y-124472419D01*
X123515163Y-124472419D02*
X123419925Y-124472419D01*
X123419925Y-124472419D02*
X123277068Y-124424800D01*
X123277068Y-124424800D02*
X123229449Y-124377180D01*
X123229449Y-124377180D02*
X123229449Y-124043847D01*
X123229449Y-124043847D02*
X123419925Y-124043847D01*
X122800877Y-124472419D02*
X122800877Y-123472419D01*
X122800877Y-123948609D02*
X122229449Y-123948609D01*
X122229449Y-124472419D02*
X122229449Y-123472419D01*
X121134210Y-123472419D02*
X120800877Y-124472419D01*
X120800877Y-124472419D02*
X120467544Y-123472419D01*
X119943734Y-123472419D02*
X119753258Y-123472419D01*
X119753258Y-123472419D02*
X119658020Y-123520038D01*
X119658020Y-123520038D02*
X119562782Y-123615276D01*
X119562782Y-123615276D02*
X119515163Y-123805752D01*
X119515163Y-123805752D02*
X119515163Y-124139085D01*
X119515163Y-124139085D02*
X119562782Y-124329561D01*
X119562782Y-124329561D02*
X119658020Y-124424800D01*
X119658020Y-124424800D02*
X119753258Y-124472419D01*
X119753258Y-124472419D02*
X119943734Y-124472419D01*
X119943734Y-124472419D02*
X120038972Y-124424800D01*
X120038972Y-124424800D02*
X120134210Y-124329561D01*
X120134210Y-124329561D02*
X120181829Y-124139085D01*
X120181829Y-124139085D02*
X120181829Y-123805752D01*
X120181829Y-123805752D02*
X120134210Y-123615276D01*
X120134210Y-123615276D02*
X120038972Y-123520038D01*
X120038972Y-123520038D02*
X119943734Y-123472419D01*
X118610401Y-124472419D02*
X119086591Y-124472419D01*
X119086591Y-124472419D02*
X119086591Y-123472419D01*
X118419924Y-123472419D02*
X117848496Y-123472419D01*
X118134210Y-124472419D02*
X118134210Y-123472419D01*
X117562781Y-124186704D02*
X117086591Y-124186704D01*
X117658019Y-124472419D02*
X117324686Y-123472419D01*
X117324686Y-123472419D02*
X116991353Y-124472419D01*
X116134210Y-123520038D02*
X116229448Y-123472419D01*
X116229448Y-123472419D02*
X116372305Y-123472419D01*
X116372305Y-123472419D02*
X116515162Y-123520038D01*
X116515162Y-123520038D02*
X116610400Y-123615276D01*
X116610400Y-123615276D02*
X116658019Y-123710514D01*
X116658019Y-123710514D02*
X116705638Y-123900990D01*
X116705638Y-123900990D02*
X116705638Y-124043847D01*
X116705638Y-124043847D02*
X116658019Y-124234323D01*
X116658019Y-124234323D02*
X116610400Y-124329561D01*
X116610400Y-124329561D02*
X116515162Y-124424800D01*
X116515162Y-124424800D02*
X116372305Y-124472419D01*
X116372305Y-124472419D02*
X116277067Y-124472419D01*
X116277067Y-124472419D02*
X116134210Y-124424800D01*
X116134210Y-124424800D02*
X116086591Y-124377180D01*
X116086591Y-124377180D02*
X116086591Y-124043847D01*
X116086591Y-124043847D02*
X116277067Y-124043847D01*
X115658019Y-123948609D02*
X115324686Y-123948609D01*
X115181829Y-124472419D02*
X115658019Y-124472419D01*
X115658019Y-124472419D02*
X115658019Y-123472419D01*
X115658019Y-123472419D02*
X115181829Y-123472419D01*
X134696115Y-136158833D02*
X134362782Y-136158833D01*
X134219925Y-136682643D02*
X134696115Y-136682643D01*
X134696115Y-136682643D02*
X134696115Y-135682643D01*
X134696115Y-135682643D02*
X134219925Y-135682643D01*
X133838972Y-136635024D02*
X133696115Y-136682643D01*
X133696115Y-136682643D02*
X133458020Y-136682643D01*
X133458020Y-136682643D02*
X133362782Y-136635024D01*
X133362782Y-136635024D02*
X133315163Y-136587404D01*
X133315163Y-136587404D02*
X133267544Y-136492166D01*
X133267544Y-136492166D02*
X133267544Y-136396928D01*
X133267544Y-136396928D02*
X133315163Y-136301690D01*
X133315163Y-136301690D02*
X133362782Y-136254071D01*
X133362782Y-136254071D02*
X133458020Y-136206452D01*
X133458020Y-136206452D02*
X133648496Y-136158833D01*
X133648496Y-136158833D02*
X133743734Y-136111214D01*
X133743734Y-136111214D02*
X133791353Y-136063595D01*
X133791353Y-136063595D02*
X133838972Y-135968357D01*
X133838972Y-135968357D02*
X133838972Y-135873119D01*
X133838972Y-135873119D02*
X133791353Y-135777881D01*
X133791353Y-135777881D02*
X133743734Y-135730262D01*
X133743734Y-135730262D02*
X133648496Y-135682643D01*
X133648496Y-135682643D02*
X133410401Y-135682643D01*
X133410401Y-135682643D02*
X133267544Y-135730262D01*
X132838972Y-136682643D02*
X132838972Y-135682643D01*
X132838972Y-135682643D02*
X132458020Y-135682643D01*
X132458020Y-135682643D02*
X132362782Y-135730262D01*
X132362782Y-135730262D02*
X132315163Y-135777881D01*
X132315163Y-135777881D02*
X132267544Y-135873119D01*
X132267544Y-135873119D02*
X132267544Y-136015976D01*
X132267544Y-136015976D02*
X132315163Y-136111214D01*
X132315163Y-136111214D02*
X132362782Y-136158833D01*
X132362782Y-136158833D02*
X132458020Y-136206452D01*
X132458020Y-136206452D02*
X132838972Y-136206452D01*
X131838972Y-136682643D02*
X131838972Y-135682643D01*
X131838972Y-136158833D02*
X131267544Y-136158833D01*
X131267544Y-136682643D02*
X131267544Y-135682643D01*
X130648496Y-136682643D02*
X130743734Y-136635024D01*
X130743734Y-136635024D02*
X130791353Y-136587404D01*
X130791353Y-136587404D02*
X130838972Y-136492166D01*
X130838972Y-136492166D02*
X130838972Y-136206452D01*
X130838972Y-136206452D02*
X130791353Y-136111214D01*
X130791353Y-136111214D02*
X130743734Y-136063595D01*
X130743734Y-136063595D02*
X130648496Y-136015976D01*
X130648496Y-136015976D02*
X130505639Y-136015976D01*
X130505639Y-136015976D02*
X130410401Y-136063595D01*
X130410401Y-136063595D02*
X130362782Y-136111214D01*
X130362782Y-136111214D02*
X130315163Y-136206452D01*
X130315163Y-136206452D02*
X130315163Y-136492166D01*
X130315163Y-136492166D02*
X130362782Y-136587404D01*
X130362782Y-136587404D02*
X130410401Y-136635024D01*
X130410401Y-136635024D02*
X130505639Y-136682643D01*
X130505639Y-136682643D02*
X130648496Y-136682643D01*
X129886591Y-136682643D02*
X129886591Y-136015976D01*
X129886591Y-136111214D02*
X129838972Y-136063595D01*
X129838972Y-136063595D02*
X129743734Y-136015976D01*
X129743734Y-136015976D02*
X129600877Y-136015976D01*
X129600877Y-136015976D02*
X129505639Y-136063595D01*
X129505639Y-136063595D02*
X129458020Y-136158833D01*
X129458020Y-136158833D02*
X129458020Y-136682643D01*
X129458020Y-136158833D02*
X129410401Y-136063595D01*
X129410401Y-136063595D02*
X129315163Y-136015976D01*
X129315163Y-136015976D02*
X129172306Y-136015976D01*
X129172306Y-136015976D02*
X129077067Y-136063595D01*
X129077067Y-136063595D02*
X129029448Y-136158833D01*
X129029448Y-136158833D02*
X129029448Y-136682643D01*
X128172306Y-136635024D02*
X128267544Y-136682643D01*
X128267544Y-136682643D02*
X128458020Y-136682643D01*
X128458020Y-136682643D02*
X128553258Y-136635024D01*
X128553258Y-136635024D02*
X128600877Y-136539785D01*
X128600877Y-136539785D02*
X128600877Y-136158833D01*
X128600877Y-136158833D02*
X128553258Y-136063595D01*
X128553258Y-136063595D02*
X128458020Y-136015976D01*
X128458020Y-136015976D02*
X128267544Y-136015976D01*
X128267544Y-136015976D02*
X128172306Y-136063595D01*
X128172306Y-136063595D02*
X128124687Y-136158833D01*
X128124687Y-136158833D02*
X128124687Y-136254071D01*
X128124687Y-136254071D02*
X128600877Y-136349309D01*
X134791353Y-137625920D02*
X134553258Y-138292587D01*
X134553258Y-138292587D02*
X134315163Y-137625920D01*
X133553258Y-138244968D02*
X133648496Y-138292587D01*
X133648496Y-138292587D02*
X133838972Y-138292587D01*
X133838972Y-138292587D02*
X133934210Y-138244968D01*
X133934210Y-138244968D02*
X133981829Y-138149729D01*
X133981829Y-138149729D02*
X133981829Y-137768777D01*
X133981829Y-137768777D02*
X133934210Y-137673539D01*
X133934210Y-137673539D02*
X133838972Y-137625920D01*
X133838972Y-137625920D02*
X133648496Y-137625920D01*
X133648496Y-137625920D02*
X133553258Y-137673539D01*
X133553258Y-137673539D02*
X133505639Y-137768777D01*
X133505639Y-137768777D02*
X133505639Y-137864015D01*
X133505639Y-137864015D02*
X133981829Y-137959253D01*
X133077067Y-137625920D02*
X133077067Y-138292587D01*
X133077067Y-137721158D02*
X133029448Y-137673539D01*
X133029448Y-137673539D02*
X132934210Y-137625920D01*
X132934210Y-137625920D02*
X132791353Y-137625920D01*
X132791353Y-137625920D02*
X132696115Y-137673539D01*
X132696115Y-137673539D02*
X132648496Y-137768777D01*
X132648496Y-137768777D02*
X132648496Y-138292587D01*
X132315162Y-137625920D02*
X131934210Y-137625920D01*
X132172305Y-137292587D02*
X132172305Y-138149729D01*
X132172305Y-138149729D02*
X132124686Y-138244968D01*
X132124686Y-138244968D02*
X132029448Y-138292587D01*
X132029448Y-138292587D02*
X131934210Y-138292587D01*
X131600876Y-138292587D02*
X131600876Y-137625920D01*
X131600876Y-137292587D02*
X131648495Y-137340206D01*
X131648495Y-137340206D02*
X131600876Y-137387825D01*
X131600876Y-137387825D02*
X131553257Y-137340206D01*
X131553257Y-137340206D02*
X131600876Y-137292587D01*
X131600876Y-137292587D02*
X131600876Y-137387825D01*
X130981829Y-138292587D02*
X131077067Y-138244968D01*
X131077067Y-138244968D02*
X131124686Y-138149729D01*
X131124686Y-138149729D02*
X131124686Y-137292587D01*
X130172305Y-138292587D02*
X130172305Y-137768777D01*
X130172305Y-137768777D02*
X130219924Y-137673539D01*
X130219924Y-137673539D02*
X130315162Y-137625920D01*
X130315162Y-137625920D02*
X130505638Y-137625920D01*
X130505638Y-137625920D02*
X130600876Y-137673539D01*
X130172305Y-138244968D02*
X130267543Y-138292587D01*
X130267543Y-138292587D02*
X130505638Y-138292587D01*
X130505638Y-138292587D02*
X130600876Y-138244968D01*
X130600876Y-138244968D02*
X130648495Y-138149729D01*
X130648495Y-138149729D02*
X130648495Y-138054491D01*
X130648495Y-138054491D02*
X130600876Y-137959253D01*
X130600876Y-137959253D02*
X130505638Y-137911634D01*
X130505638Y-137911634D02*
X130267543Y-137911634D01*
X130267543Y-137911634D02*
X130172305Y-137864015D01*
X129838971Y-137625920D02*
X129458019Y-137625920D01*
X129696114Y-137292587D02*
X129696114Y-138149729D01*
X129696114Y-138149729D02*
X129648495Y-138244968D01*
X129648495Y-138244968D02*
X129553257Y-138292587D01*
X129553257Y-138292587D02*
X129458019Y-138292587D01*
X129124685Y-138292587D02*
X129124685Y-137625920D01*
X129124685Y-137292587D02*
X129172304Y-137340206D01*
X129172304Y-137340206D02*
X129124685Y-137387825D01*
X129124685Y-137387825D02*
X129077066Y-137340206D01*
X129077066Y-137340206D02*
X129124685Y-137292587D01*
X129124685Y-137292587D02*
X129124685Y-137387825D01*
X128505638Y-138292587D02*
X128600876Y-138244968D01*
X128600876Y-138244968D02*
X128648495Y-138197348D01*
X128648495Y-138197348D02*
X128696114Y-138102110D01*
X128696114Y-138102110D02*
X128696114Y-137816396D01*
X128696114Y-137816396D02*
X128648495Y-137721158D01*
X128648495Y-137721158D02*
X128600876Y-137673539D01*
X128600876Y-137673539D02*
X128505638Y-137625920D01*
X128505638Y-137625920D02*
X128362781Y-137625920D01*
X128362781Y-137625920D02*
X128267543Y-137673539D01*
X128267543Y-137673539D02*
X128219924Y-137721158D01*
X128219924Y-137721158D02*
X128172305Y-137816396D01*
X128172305Y-137816396D02*
X128172305Y-138102110D01*
X128172305Y-138102110D02*
X128219924Y-138197348D01*
X128219924Y-138197348D02*
X128267543Y-138244968D01*
X128267543Y-138244968D02*
X128362781Y-138292587D01*
X128362781Y-138292587D02*
X128505638Y-138292587D01*
X127743733Y-137625920D02*
X127743733Y-138292587D01*
X127743733Y-137721158D02*
X127696114Y-137673539D01*
X127696114Y-137673539D02*
X127600876Y-137625920D01*
X127600876Y-137625920D02*
X127458019Y-137625920D01*
X127458019Y-137625920D02*
X127362781Y-137673539D01*
X127362781Y-137673539D02*
X127315162Y-137768777D01*
X127315162Y-137768777D02*
X127315162Y-138292587D01*
X126124685Y-138244968D02*
X126029447Y-138292587D01*
X126029447Y-138292587D02*
X125838971Y-138292587D01*
X125838971Y-138292587D02*
X125743733Y-138244968D01*
X125743733Y-138244968D02*
X125696114Y-138149729D01*
X125696114Y-138149729D02*
X125696114Y-138102110D01*
X125696114Y-138102110D02*
X125743733Y-138006872D01*
X125743733Y-138006872D02*
X125838971Y-137959253D01*
X125838971Y-137959253D02*
X125981828Y-137959253D01*
X125981828Y-137959253D02*
X126077066Y-137911634D01*
X126077066Y-137911634D02*
X126124685Y-137816396D01*
X126124685Y-137816396D02*
X126124685Y-137768777D01*
X126124685Y-137768777D02*
X126077066Y-137673539D01*
X126077066Y-137673539D02*
X125981828Y-137625920D01*
X125981828Y-137625920D02*
X125838971Y-137625920D01*
X125838971Y-137625920D02*
X125743733Y-137673539D01*
X125362780Y-137625920D02*
X125124685Y-138292587D01*
X124886590Y-137625920D02*
X125124685Y-138292587D01*
X125124685Y-138292587D02*
X125219923Y-138530682D01*
X125219923Y-138530682D02*
X125267542Y-138578301D01*
X125267542Y-138578301D02*
X125362780Y-138625920D01*
X124553256Y-138244968D02*
X124458018Y-138292587D01*
X124458018Y-138292587D02*
X124267542Y-138292587D01*
X124267542Y-138292587D02*
X124172304Y-138244968D01*
X124172304Y-138244968D02*
X124124685Y-138149729D01*
X124124685Y-138149729D02*
X124124685Y-138102110D01*
X124124685Y-138102110D02*
X124172304Y-138006872D01*
X124172304Y-138006872D02*
X124267542Y-137959253D01*
X124267542Y-137959253D02*
X124410399Y-137959253D01*
X124410399Y-137959253D02*
X124505637Y-137911634D01*
X124505637Y-137911634D02*
X124553256Y-137816396D01*
X124553256Y-137816396D02*
X124553256Y-137768777D01*
X124553256Y-137768777D02*
X124505637Y-137673539D01*
X124505637Y-137673539D02*
X124410399Y-137625920D01*
X124410399Y-137625920D02*
X124267542Y-137625920D01*
X124267542Y-137625920D02*
X124172304Y-137673539D01*
X123838970Y-137625920D02*
X123458018Y-137625920D01*
X123696113Y-137292587D02*
X123696113Y-138149729D01*
X123696113Y-138149729D02*
X123648494Y-138244968D01*
X123648494Y-138244968D02*
X123553256Y-138292587D01*
X123553256Y-138292587D02*
X123458018Y-138292587D01*
X122743732Y-138244968D02*
X122838970Y-138292587D01*
X122838970Y-138292587D02*
X123029446Y-138292587D01*
X123029446Y-138292587D02*
X123124684Y-138244968D01*
X123124684Y-138244968D02*
X123172303Y-138149729D01*
X123172303Y-138149729D02*
X123172303Y-137768777D01*
X123172303Y-137768777D02*
X123124684Y-137673539D01*
X123124684Y-137673539D02*
X123029446Y-137625920D01*
X123029446Y-137625920D02*
X122838970Y-137625920D01*
X122838970Y-137625920D02*
X122743732Y-137673539D01*
X122743732Y-137673539D02*
X122696113Y-137768777D01*
X122696113Y-137768777D02*
X122696113Y-137864015D01*
X122696113Y-137864015D02*
X123172303Y-137959253D01*
X122267541Y-138292587D02*
X122267541Y-137625920D01*
X122267541Y-137721158D02*
X122219922Y-137673539D01*
X122219922Y-137673539D02*
X122124684Y-137625920D01*
X122124684Y-137625920D02*
X121981827Y-137625920D01*
X121981827Y-137625920D02*
X121886589Y-137673539D01*
X121886589Y-137673539D02*
X121838970Y-137768777D01*
X121838970Y-137768777D02*
X121838970Y-138292587D01*
X121838970Y-137768777D02*
X121791351Y-137673539D01*
X121791351Y-137673539D02*
X121696113Y-137625920D01*
X121696113Y-137625920D02*
X121553256Y-137625920D01*
X121553256Y-137625920D02*
X121458017Y-137673539D01*
X121458017Y-137673539D02*
X121410398Y-137768777D01*
X121410398Y-137768777D02*
X121410398Y-138292587D01*
X119743732Y-138244968D02*
X119838970Y-138292587D01*
X119838970Y-138292587D02*
X120029446Y-138292587D01*
X120029446Y-138292587D02*
X120124684Y-138244968D01*
X120124684Y-138244968D02*
X120172303Y-138197348D01*
X120172303Y-138197348D02*
X120219922Y-138102110D01*
X120219922Y-138102110D02*
X120219922Y-137816396D01*
X120219922Y-137816396D02*
X120172303Y-137721158D01*
X120172303Y-137721158D02*
X120124684Y-137673539D01*
X120124684Y-137673539D02*
X120029446Y-137625920D01*
X120029446Y-137625920D02*
X119838970Y-137625920D01*
X119838970Y-137625920D02*
X119743732Y-137673539D01*
X119172303Y-138292587D02*
X119267541Y-138244968D01*
X119267541Y-138244968D02*
X119315160Y-138197348D01*
X119315160Y-138197348D02*
X119362779Y-138102110D01*
X119362779Y-138102110D02*
X119362779Y-137816396D01*
X119362779Y-137816396D02*
X119315160Y-137721158D01*
X119315160Y-137721158D02*
X119267541Y-137673539D01*
X119267541Y-137673539D02*
X119172303Y-137625920D01*
X119172303Y-137625920D02*
X119029446Y-137625920D01*
X119029446Y-137625920D02*
X118934208Y-137673539D01*
X118934208Y-137673539D02*
X118886589Y-137721158D01*
X118886589Y-137721158D02*
X118838970Y-137816396D01*
X118838970Y-137816396D02*
X118838970Y-138102110D01*
X118838970Y-138102110D02*
X118886589Y-138197348D01*
X118886589Y-138197348D02*
X118934208Y-138244968D01*
X118934208Y-138244968D02*
X119029446Y-138292587D01*
X119029446Y-138292587D02*
X119172303Y-138292587D01*
X118410398Y-137625920D02*
X118410398Y-138292587D01*
X118410398Y-137721158D02*
X118362779Y-137673539D01*
X118362779Y-137673539D02*
X118267541Y-137625920D01*
X118267541Y-137625920D02*
X118124684Y-137625920D01*
X118124684Y-137625920D02*
X118029446Y-137673539D01*
X118029446Y-137673539D02*
X117981827Y-137768777D01*
X117981827Y-137768777D02*
X117981827Y-138292587D01*
X117648493Y-137625920D02*
X117267541Y-137625920D01*
X117505636Y-137292587D02*
X117505636Y-138149729D01*
X117505636Y-138149729D02*
X117458017Y-138244968D01*
X117458017Y-138244968D02*
X117362779Y-138292587D01*
X117362779Y-138292587D02*
X117267541Y-138292587D01*
X116934207Y-138292587D02*
X116934207Y-137625920D01*
X116934207Y-137816396D02*
X116886588Y-137721158D01*
X116886588Y-137721158D02*
X116838969Y-137673539D01*
X116838969Y-137673539D02*
X116743731Y-137625920D01*
X116743731Y-137625920D02*
X116648493Y-137625920D01*
X116172302Y-138292587D02*
X116267540Y-138244968D01*
X116267540Y-138244968D02*
X116315159Y-138197348D01*
X116315159Y-138197348D02*
X116362778Y-138102110D01*
X116362778Y-138102110D02*
X116362778Y-137816396D01*
X116362778Y-137816396D02*
X116315159Y-137721158D01*
X116315159Y-137721158D02*
X116267540Y-137673539D01*
X116267540Y-137673539D02*
X116172302Y-137625920D01*
X116172302Y-137625920D02*
X116029445Y-137625920D01*
X116029445Y-137625920D02*
X115934207Y-137673539D01*
X115934207Y-137673539D02*
X115886588Y-137721158D01*
X115886588Y-137721158D02*
X115838969Y-137816396D01*
X115838969Y-137816396D02*
X115838969Y-138102110D01*
X115838969Y-138102110D02*
X115886588Y-138197348D01*
X115886588Y-138197348D02*
X115934207Y-138244968D01*
X115934207Y-138244968D02*
X116029445Y-138292587D01*
X116029445Y-138292587D02*
X116172302Y-138292587D01*
X115267540Y-138292587D02*
X115362778Y-138244968D01*
X115362778Y-138244968D02*
X115410397Y-138149729D01*
X115410397Y-138149729D02*
X115410397Y-137292587D01*
X134838972Y-138902531D02*
X134505639Y-139902531D01*
X134505639Y-139902531D02*
X134172306Y-138902531D01*
X133886591Y-138997769D02*
X133838972Y-138950150D01*
X133838972Y-138950150D02*
X133743734Y-138902531D01*
X133743734Y-138902531D02*
X133505639Y-138902531D01*
X133505639Y-138902531D02*
X133410401Y-138950150D01*
X133410401Y-138950150D02*
X133362782Y-138997769D01*
X133362782Y-138997769D02*
X133315163Y-139093007D01*
X133315163Y-139093007D02*
X133315163Y-139188245D01*
X133315163Y-139188245D02*
X133362782Y-139331102D01*
X133362782Y-139331102D02*
X133934210Y-139902531D01*
X133934210Y-139902531D02*
X133315163Y-139902531D01*
X134696115Y-141512475D02*
X134696115Y-140512475D01*
X134696115Y-140512475D02*
X134362782Y-141226760D01*
X134362782Y-141226760D02*
X134029449Y-140512475D01*
X134029449Y-140512475D02*
X134029449Y-141512475D01*
X133124687Y-141512475D02*
X133124687Y-140988665D01*
X133124687Y-140988665D02*
X133172306Y-140893427D01*
X133172306Y-140893427D02*
X133267544Y-140845808D01*
X133267544Y-140845808D02*
X133458020Y-140845808D01*
X133458020Y-140845808D02*
X133553258Y-140893427D01*
X133124687Y-141464856D02*
X133219925Y-141512475D01*
X133219925Y-141512475D02*
X133458020Y-141512475D01*
X133458020Y-141512475D02*
X133553258Y-141464856D01*
X133553258Y-141464856D02*
X133600877Y-141369617D01*
X133600877Y-141369617D02*
X133600877Y-141274379D01*
X133600877Y-141274379D02*
X133553258Y-141179141D01*
X133553258Y-141179141D02*
X133458020Y-141131522D01*
X133458020Y-141131522D02*
X133219925Y-141131522D01*
X133219925Y-141131522D02*
X133124687Y-141083903D01*
X132648496Y-141512475D02*
X132648496Y-140845808D01*
X132648496Y-141036284D02*
X132600877Y-140941046D01*
X132600877Y-140941046D02*
X132553258Y-140893427D01*
X132553258Y-140893427D02*
X132458020Y-140845808D01*
X132458020Y-140845808D02*
X132362782Y-140845808D01*
X132172305Y-140845808D02*
X131791353Y-140845808D01*
X132029448Y-140512475D02*
X132029448Y-141369617D01*
X132029448Y-141369617D02*
X131981829Y-141464856D01*
X131981829Y-141464856D02*
X131886591Y-141512475D01*
X131886591Y-141512475D02*
X131791353Y-141512475D01*
X131458019Y-141512475D02*
X131458019Y-140845808D01*
X131458019Y-140512475D02*
X131505638Y-140560094D01*
X131505638Y-140560094D02*
X131458019Y-140607713D01*
X131458019Y-140607713D02*
X131410400Y-140560094D01*
X131410400Y-140560094D02*
X131458019Y-140512475D01*
X131458019Y-140512475D02*
X131458019Y-140607713D01*
X130981829Y-140845808D02*
X130981829Y-141512475D01*
X130981829Y-140941046D02*
X130934210Y-140893427D01*
X130934210Y-140893427D02*
X130838972Y-140845808D01*
X130838972Y-140845808D02*
X130696115Y-140845808D01*
X130696115Y-140845808D02*
X130600877Y-140893427D01*
X130600877Y-140893427D02*
X130553258Y-140988665D01*
X130553258Y-140988665D02*
X130553258Y-141512475D01*
X129362781Y-141464856D02*
X129219924Y-141512475D01*
X129219924Y-141512475D02*
X128981829Y-141512475D01*
X128981829Y-141512475D02*
X128886591Y-141464856D01*
X128886591Y-141464856D02*
X128838972Y-141417236D01*
X128838972Y-141417236D02*
X128791353Y-141321998D01*
X128791353Y-141321998D02*
X128791353Y-141226760D01*
X128791353Y-141226760D02*
X128838972Y-141131522D01*
X128838972Y-141131522D02*
X128886591Y-141083903D01*
X128886591Y-141083903D02*
X128981829Y-141036284D01*
X128981829Y-141036284D02*
X129172305Y-140988665D01*
X129172305Y-140988665D02*
X129267543Y-140941046D01*
X129267543Y-140941046D02*
X129315162Y-140893427D01*
X129315162Y-140893427D02*
X129362781Y-140798189D01*
X129362781Y-140798189D02*
X129362781Y-140702951D01*
X129362781Y-140702951D02*
X129315162Y-140607713D01*
X129315162Y-140607713D02*
X129267543Y-140560094D01*
X129267543Y-140560094D02*
X129172305Y-140512475D01*
X129172305Y-140512475D02*
X128934210Y-140512475D01*
X128934210Y-140512475D02*
X128791353Y-140560094D01*
X127934210Y-141464856D02*
X128029448Y-141512475D01*
X128029448Y-141512475D02*
X128219924Y-141512475D01*
X128219924Y-141512475D02*
X128315162Y-141464856D01*
X128315162Y-141464856D02*
X128362781Y-141417236D01*
X128362781Y-141417236D02*
X128410400Y-141321998D01*
X128410400Y-141321998D02*
X128410400Y-141036284D01*
X128410400Y-141036284D02*
X128362781Y-140941046D01*
X128362781Y-140941046D02*
X128315162Y-140893427D01*
X128315162Y-140893427D02*
X128219924Y-140845808D01*
X128219924Y-140845808D02*
X128029448Y-140845808D01*
X128029448Y-140845808D02*
X127934210Y-140893427D01*
X127505638Y-141512475D02*
X127505638Y-140512475D01*
X127077067Y-141512475D02*
X127077067Y-140988665D01*
X127077067Y-140988665D02*
X127124686Y-140893427D01*
X127124686Y-140893427D02*
X127219924Y-140845808D01*
X127219924Y-140845808D02*
X127362781Y-140845808D01*
X127362781Y-140845808D02*
X127458019Y-140893427D01*
X127458019Y-140893427D02*
X127505638Y-140941046D01*
X126172305Y-140845808D02*
X126172305Y-141512475D01*
X126600876Y-140845808D02*
X126600876Y-141369617D01*
X126600876Y-141369617D02*
X126553257Y-141464856D01*
X126553257Y-141464856D02*
X126458019Y-141512475D01*
X126458019Y-141512475D02*
X126315162Y-141512475D01*
X126315162Y-141512475D02*
X126219924Y-141464856D01*
X126219924Y-141464856D02*
X126172305Y-141417236D01*
X126553257Y-140512475D02*
X126505638Y-140560094D01*
X126505638Y-140560094D02*
X126553257Y-140607713D01*
X126553257Y-140607713D02*
X126600876Y-140560094D01*
X126600876Y-140560094D02*
X126553257Y-140512475D01*
X126553257Y-140512475D02*
X126553257Y-140607713D01*
X126172305Y-140512475D02*
X126124686Y-140560094D01*
X126124686Y-140560094D02*
X126172305Y-140607713D01*
X126172305Y-140607713D02*
X126219924Y-140560094D01*
X126219924Y-140560094D02*
X126172305Y-140512475D01*
X126172305Y-140512475D02*
X126172305Y-140607713D01*
X125838971Y-140845808D02*
X125458019Y-140845808D01*
X125696114Y-140512475D02*
X125696114Y-141369617D01*
X125696114Y-141369617D02*
X125648495Y-141464856D01*
X125648495Y-141464856D02*
X125553257Y-141512475D01*
X125553257Y-141512475D02*
X125458019Y-141512475D01*
X125219923Y-140845808D02*
X124696114Y-140845808D01*
X124696114Y-140845808D02*
X125219923Y-141512475D01*
X125219923Y-141512475D02*
X124696114Y-141512475D01*
X134696115Y-143122419D02*
X134696115Y-142455752D01*
X134696115Y-142550990D02*
X134648496Y-142503371D01*
X134648496Y-142503371D02*
X134553258Y-142455752D01*
X134553258Y-142455752D02*
X134410401Y-142455752D01*
X134410401Y-142455752D02*
X134315163Y-142503371D01*
X134315163Y-142503371D02*
X134267544Y-142598609D01*
X134267544Y-142598609D02*
X134267544Y-143122419D01*
X134267544Y-142598609D02*
X134219925Y-142503371D01*
X134219925Y-142503371D02*
X134124687Y-142455752D01*
X134124687Y-142455752D02*
X133981830Y-142455752D01*
X133981830Y-142455752D02*
X133886591Y-142503371D01*
X133886591Y-142503371D02*
X133838972Y-142598609D01*
X133838972Y-142598609D02*
X133838972Y-143122419D01*
X133410401Y-143074800D02*
X133315163Y-143122419D01*
X133315163Y-143122419D02*
X133124687Y-143122419D01*
X133124687Y-143122419D02*
X133029449Y-143074800D01*
X133029449Y-143074800D02*
X132981830Y-142979561D01*
X132981830Y-142979561D02*
X132981830Y-142931942D01*
X132981830Y-142931942D02*
X133029449Y-142836704D01*
X133029449Y-142836704D02*
X133124687Y-142789085D01*
X133124687Y-142789085D02*
X133267544Y-142789085D01*
X133267544Y-142789085D02*
X133362782Y-142741466D01*
X133362782Y-142741466D02*
X133410401Y-142646228D01*
X133410401Y-142646228D02*
X133410401Y-142598609D01*
X133410401Y-142598609D02*
X133362782Y-142503371D01*
X133362782Y-142503371D02*
X133267544Y-142455752D01*
X133267544Y-142455752D02*
X133124687Y-142455752D01*
X133124687Y-142455752D02*
X133029449Y-142503371D01*
X131934211Y-142646228D02*
X131981830Y-142598609D01*
X131981830Y-142598609D02*
X132077068Y-142550990D01*
X132077068Y-142550990D02*
X132172306Y-142550990D01*
X132172306Y-142550990D02*
X132267544Y-142598609D01*
X132267544Y-142598609D02*
X132315163Y-142646228D01*
X132315163Y-142646228D02*
X132362782Y-142741466D01*
X132362782Y-142741466D02*
X132362782Y-142836704D01*
X132362782Y-142836704D02*
X132315163Y-142931942D01*
X132315163Y-142931942D02*
X132267544Y-142979561D01*
X132267544Y-142979561D02*
X132172306Y-143027180D01*
X132172306Y-143027180D02*
X132077068Y-143027180D01*
X132077068Y-143027180D02*
X131981830Y-142979561D01*
X131981830Y-142979561D02*
X131934211Y-142931942D01*
X131934211Y-142550990D02*
X131934211Y-142931942D01*
X131934211Y-142931942D02*
X131886592Y-142979561D01*
X131886592Y-142979561D02*
X131838973Y-142979561D01*
X131838973Y-142979561D02*
X131743734Y-142931942D01*
X131743734Y-142931942D02*
X131696115Y-142836704D01*
X131696115Y-142836704D02*
X131696115Y-142598609D01*
X131696115Y-142598609D02*
X131791354Y-142455752D01*
X131791354Y-142455752D02*
X131934211Y-142360514D01*
X131934211Y-142360514D02*
X132124687Y-142312895D01*
X132124687Y-142312895D02*
X132315163Y-142360514D01*
X132315163Y-142360514D02*
X132458020Y-142455752D01*
X132458020Y-142455752D02*
X132553258Y-142598609D01*
X132553258Y-142598609D02*
X132600877Y-142789085D01*
X132600877Y-142789085D02*
X132553258Y-142979561D01*
X132553258Y-142979561D02*
X132458020Y-143122419D01*
X132458020Y-143122419D02*
X132315163Y-143217657D01*
X132315163Y-143217657D02*
X132124687Y-143265276D01*
X132124687Y-143265276D02*
X131934211Y-143217657D01*
X131934211Y-143217657D02*
X131791354Y-143122419D01*
X131267544Y-143122419D02*
X131267544Y-142455752D01*
X131267544Y-142550990D02*
X131219925Y-142503371D01*
X131219925Y-142503371D02*
X131124687Y-142455752D01*
X131124687Y-142455752D02*
X130981830Y-142455752D01*
X130981830Y-142455752D02*
X130886592Y-142503371D01*
X130886592Y-142503371D02*
X130838973Y-142598609D01*
X130838973Y-142598609D02*
X130838973Y-143122419D01*
X130838973Y-142598609D02*
X130791354Y-142503371D01*
X130791354Y-142503371D02*
X130696116Y-142455752D01*
X130696116Y-142455752D02*
X130553259Y-142455752D01*
X130553259Y-142455752D02*
X130458020Y-142503371D01*
X130458020Y-142503371D02*
X130410401Y-142598609D01*
X130410401Y-142598609D02*
X130410401Y-143122419D01*
X129981830Y-143074800D02*
X129886592Y-143122419D01*
X129886592Y-143122419D02*
X129696116Y-143122419D01*
X129696116Y-143122419D02*
X129600878Y-143074800D01*
X129600878Y-143074800D02*
X129553259Y-142979561D01*
X129553259Y-142979561D02*
X129553259Y-142931942D01*
X129553259Y-142931942D02*
X129600878Y-142836704D01*
X129600878Y-142836704D02*
X129696116Y-142789085D01*
X129696116Y-142789085D02*
X129838973Y-142789085D01*
X129838973Y-142789085D02*
X129934211Y-142741466D01*
X129934211Y-142741466D02*
X129981830Y-142646228D01*
X129981830Y-142646228D02*
X129981830Y-142598609D01*
X129981830Y-142598609D02*
X129934211Y-142503371D01*
X129934211Y-142503371D02*
X129838973Y-142455752D01*
X129838973Y-142455752D02*
X129696116Y-142455752D01*
X129696116Y-142455752D02*
X129600878Y-142503371D01*
X128696116Y-143074800D02*
X128791354Y-143122419D01*
X128791354Y-143122419D02*
X128981830Y-143122419D01*
X128981830Y-143122419D02*
X129077068Y-143074800D01*
X129077068Y-143074800D02*
X129124687Y-143027180D01*
X129124687Y-143027180D02*
X129172306Y-142931942D01*
X129172306Y-142931942D02*
X129172306Y-142646228D01*
X129172306Y-142646228D02*
X129124687Y-142550990D01*
X129124687Y-142550990D02*
X129077068Y-142503371D01*
X129077068Y-142503371D02*
X128981830Y-142455752D01*
X128981830Y-142455752D02*
X128791354Y-142455752D01*
X128791354Y-142455752D02*
X128696116Y-142503371D01*
X128267544Y-143122419D02*
X128267544Y-142122419D01*
X127838973Y-143122419D02*
X127838973Y-142598609D01*
X127838973Y-142598609D02*
X127886592Y-142503371D01*
X127886592Y-142503371D02*
X127981830Y-142455752D01*
X127981830Y-142455752D02*
X128124687Y-142455752D01*
X128124687Y-142455752D02*
X128219925Y-142503371D01*
X128219925Y-142503371D02*
X128267544Y-142550990D01*
X126934211Y-142455752D02*
X126934211Y-143122419D01*
X127362782Y-142455752D02*
X127362782Y-142979561D01*
X127362782Y-142979561D02*
X127315163Y-143074800D01*
X127315163Y-143074800D02*
X127219925Y-143122419D01*
X127219925Y-143122419D02*
X127077068Y-143122419D01*
X127077068Y-143122419D02*
X126981830Y-143074800D01*
X126981830Y-143074800D02*
X126934211Y-143027180D01*
X126077068Y-143074800D02*
X126172306Y-143122419D01*
X126172306Y-143122419D02*
X126362782Y-143122419D01*
X126362782Y-143122419D02*
X126458020Y-143074800D01*
X126458020Y-143074800D02*
X126505639Y-142979561D01*
X126505639Y-142979561D02*
X126505639Y-142598609D01*
X126505639Y-142598609D02*
X126458020Y-142503371D01*
X126458020Y-142503371D02*
X126362782Y-142455752D01*
X126362782Y-142455752D02*
X126172306Y-142455752D01*
X126172306Y-142455752D02*
X126077068Y-142503371D01*
X126077068Y-142503371D02*
X126029449Y-142598609D01*
X126029449Y-142598609D02*
X126029449Y-142693847D01*
X126029449Y-142693847D02*
X126505639Y-142789085D01*
X125743734Y-142455752D02*
X125362782Y-142455752D01*
X125600877Y-142122419D02*
X125600877Y-142979561D01*
X125600877Y-142979561D02*
X125553258Y-143074800D01*
X125553258Y-143074800D02*
X125458020Y-143122419D01*
X125458020Y-143122419D02*
X125362782Y-143122419D01*
X125124686Y-142455752D02*
X124600877Y-142455752D01*
X124600877Y-142455752D02*
X125124686Y-143122419D01*
X125124686Y-143122419D02*
X124600877Y-143122419D01*
X124219924Y-143027180D02*
X124172305Y-143074800D01*
X124172305Y-143074800D02*
X124219924Y-143122419D01*
X124219924Y-143122419D02*
X124267543Y-143074800D01*
X124267543Y-143074800D02*
X124219924Y-143027180D01*
X124219924Y-143027180D02*
X124219924Y-143122419D01*
X123315163Y-143074800D02*
X123410401Y-143122419D01*
X123410401Y-143122419D02*
X123600877Y-143122419D01*
X123600877Y-143122419D02*
X123696115Y-143074800D01*
X123696115Y-143074800D02*
X123743734Y-143027180D01*
X123743734Y-143027180D02*
X123791353Y-142931942D01*
X123791353Y-142931942D02*
X123791353Y-142646228D01*
X123791353Y-142646228D02*
X123743734Y-142550990D01*
X123743734Y-142550990D02*
X123696115Y-142503371D01*
X123696115Y-142503371D02*
X123600877Y-142455752D01*
X123600877Y-142455752D02*
X123410401Y-142455752D01*
X123410401Y-142455752D02*
X123315163Y-142503371D01*
X122743734Y-143122419D02*
X122838972Y-143074800D01*
X122838972Y-143074800D02*
X122886591Y-143027180D01*
X122886591Y-143027180D02*
X122934210Y-142931942D01*
X122934210Y-142931942D02*
X122934210Y-142646228D01*
X122934210Y-142646228D02*
X122886591Y-142550990D01*
X122886591Y-142550990D02*
X122838972Y-142503371D01*
X122838972Y-142503371D02*
X122743734Y-142455752D01*
X122743734Y-142455752D02*
X122600877Y-142455752D01*
X122600877Y-142455752D02*
X122505639Y-142503371D01*
X122505639Y-142503371D02*
X122458020Y-142550990D01*
X122458020Y-142550990D02*
X122410401Y-142646228D01*
X122410401Y-142646228D02*
X122410401Y-142931942D01*
X122410401Y-142931942D02*
X122458020Y-143027180D01*
X122458020Y-143027180D02*
X122505639Y-143074800D01*
X122505639Y-143074800D02*
X122600877Y-143122419D01*
X122600877Y-143122419D02*
X122743734Y-143122419D01*
X121981829Y-143122419D02*
X121981829Y-142455752D01*
X121981829Y-142550990D02*
X121934210Y-142503371D01*
X121934210Y-142503371D02*
X121838972Y-142455752D01*
X121838972Y-142455752D02*
X121696115Y-142455752D01*
X121696115Y-142455752D02*
X121600877Y-142503371D01*
X121600877Y-142503371D02*
X121553258Y-142598609D01*
X121553258Y-142598609D02*
X121553258Y-143122419D01*
X121553258Y-142598609D02*
X121505639Y-142503371D01*
X121505639Y-142503371D02*
X121410401Y-142455752D01*
X121410401Y-142455752D02*
X121267544Y-142455752D01*
X121267544Y-142455752D02*
X121172305Y-142503371D01*
X121172305Y-142503371D02*
X121124686Y-142598609D01*
X121124686Y-142598609D02*
X121124686Y-143122419D01*
X158696115Y-140422419D02*
X158696115Y-139422419D01*
X158696115Y-139422419D02*
X158315163Y-139422419D01*
X158315163Y-139422419D02*
X158219925Y-139470038D01*
X158219925Y-139470038D02*
X158172306Y-139517657D01*
X158172306Y-139517657D02*
X158124687Y-139612895D01*
X158124687Y-139612895D02*
X158124687Y-139755752D01*
X158124687Y-139755752D02*
X158172306Y-139850990D01*
X158172306Y-139850990D02*
X158219925Y-139898609D01*
X158219925Y-139898609D02*
X158315163Y-139946228D01*
X158315163Y-139946228D02*
X158696115Y-139946228D01*
X157791353Y-139422419D02*
X157553258Y-140422419D01*
X157553258Y-140422419D02*
X157362782Y-139708133D01*
X157362782Y-139708133D02*
X157172306Y-140422419D01*
X157172306Y-140422419D02*
X156934211Y-139422419D01*
X156553258Y-140422419D02*
X156553258Y-139422419D01*
X156553258Y-139422419D02*
X156219925Y-140136704D01*
X156219925Y-140136704D02*
X155886592Y-139422419D01*
X155886592Y-139422419D02*
X155886592Y-140422419D01*
X131419925Y-114472419D02*
X131896115Y-114472419D01*
X131896115Y-114472419D02*
X131896115Y-113472419D01*
X129610401Y-113424800D02*
X130467543Y-114710514D01*
X128515162Y-114472419D02*
X128515162Y-113472419D01*
X128515162Y-113472419D02*
X128134210Y-113472419D01*
X128134210Y-113472419D02*
X128038972Y-113520038D01*
X128038972Y-113520038D02*
X127991353Y-113567657D01*
X127991353Y-113567657D02*
X127943734Y-113662895D01*
X127943734Y-113662895D02*
X127943734Y-113805752D01*
X127943734Y-113805752D02*
X127991353Y-113900990D01*
X127991353Y-113900990D02*
X128038972Y-113948609D01*
X128038972Y-113948609D02*
X128134210Y-113996228D01*
X128134210Y-113996228D02*
X128515162Y-113996228D01*
X127515162Y-114472419D02*
X127515162Y-113472419D01*
X127086591Y-114472419D02*
X127086591Y-113948609D01*
X127086591Y-113948609D02*
X127134210Y-113853371D01*
X127134210Y-113853371D02*
X127229448Y-113805752D01*
X127229448Y-113805752D02*
X127372305Y-113805752D01*
X127372305Y-113805752D02*
X127467543Y-113853371D01*
X127467543Y-113853371D02*
X127515162Y-113900990D01*
X126181829Y-114472419D02*
X126181829Y-113948609D01*
X126181829Y-113948609D02*
X126229448Y-113853371D01*
X126229448Y-113853371D02*
X126324686Y-113805752D01*
X126324686Y-113805752D02*
X126515162Y-113805752D01*
X126515162Y-113805752D02*
X126610400Y-113853371D01*
X126181829Y-114424800D02*
X126277067Y-114472419D01*
X126277067Y-114472419D02*
X126515162Y-114472419D01*
X126515162Y-114472419D02*
X126610400Y-114424800D01*
X126610400Y-114424800D02*
X126658019Y-114329561D01*
X126658019Y-114329561D02*
X126658019Y-114234323D01*
X126658019Y-114234323D02*
X126610400Y-114139085D01*
X126610400Y-114139085D02*
X126515162Y-114091466D01*
X126515162Y-114091466D02*
X126277067Y-114091466D01*
X126277067Y-114091466D02*
X126181829Y-114043847D01*
X125753257Y-114424800D02*
X125658019Y-114472419D01*
X125658019Y-114472419D02*
X125467543Y-114472419D01*
X125467543Y-114472419D02*
X125372305Y-114424800D01*
X125372305Y-114424800D02*
X125324686Y-114329561D01*
X125324686Y-114329561D02*
X125324686Y-114281942D01*
X125324686Y-114281942D02*
X125372305Y-114186704D01*
X125372305Y-114186704D02*
X125467543Y-114139085D01*
X125467543Y-114139085D02*
X125610400Y-114139085D01*
X125610400Y-114139085D02*
X125705638Y-114091466D01*
X125705638Y-114091466D02*
X125753257Y-113996228D01*
X125753257Y-113996228D02*
X125753257Y-113948609D01*
X125753257Y-113948609D02*
X125705638Y-113853371D01*
X125705638Y-113853371D02*
X125610400Y-113805752D01*
X125610400Y-113805752D02*
X125467543Y-113805752D01*
X125467543Y-113805752D02*
X125372305Y-113853371D01*
X124515162Y-114424800D02*
X124610400Y-114472419D01*
X124610400Y-114472419D02*
X124800876Y-114472419D01*
X124800876Y-114472419D02*
X124896114Y-114424800D01*
X124896114Y-114424800D02*
X124943733Y-114329561D01*
X124943733Y-114329561D02*
X124943733Y-113948609D01*
X124943733Y-113948609D02*
X124896114Y-113853371D01*
X124896114Y-113853371D02*
X124800876Y-113805752D01*
X124800876Y-113805752D02*
X124610400Y-113805752D01*
X124610400Y-113805752D02*
X124515162Y-113853371D01*
X124515162Y-113853371D02*
X124467543Y-113948609D01*
X124467543Y-113948609D02*
X124467543Y-114043847D01*
X124467543Y-114043847D02*
X124943733Y-114139085D01*
X131896115Y-117372419D02*
X131896115Y-116372419D01*
X131896115Y-116372419D02*
X131324687Y-117372419D01*
X131324687Y-117372419D02*
X131324687Y-116372419D01*
X129372306Y-116324800D02*
X130229448Y-117610514D01*
X128277067Y-117372419D02*
X128277067Y-116372419D01*
X128277067Y-116372419D02*
X127705639Y-117372419D01*
X127705639Y-117372419D02*
X127705639Y-116372419D01*
X126848496Y-117324800D02*
X126943734Y-117372419D01*
X126943734Y-117372419D02*
X127134210Y-117372419D01*
X127134210Y-117372419D02*
X127229448Y-117324800D01*
X127229448Y-117324800D02*
X127277067Y-117229561D01*
X127277067Y-117229561D02*
X127277067Y-116848609D01*
X127277067Y-116848609D02*
X127229448Y-116753371D01*
X127229448Y-116753371D02*
X127134210Y-116705752D01*
X127134210Y-116705752D02*
X126943734Y-116705752D01*
X126943734Y-116705752D02*
X126848496Y-116753371D01*
X126848496Y-116753371D02*
X126800877Y-116848609D01*
X126800877Y-116848609D02*
X126800877Y-116943847D01*
X126800877Y-116943847D02*
X127277067Y-117039085D01*
X125943734Y-116705752D02*
X125943734Y-117372419D01*
X126372305Y-116705752D02*
X126372305Y-117229561D01*
X126372305Y-117229561D02*
X126324686Y-117324800D01*
X126324686Y-117324800D02*
X126229448Y-117372419D01*
X126229448Y-117372419D02*
X126086591Y-117372419D01*
X126086591Y-117372419D02*
X125991353Y-117324800D01*
X125991353Y-117324800D02*
X125943734Y-117277180D01*
X125610400Y-116705752D02*
X125229448Y-116705752D01*
X125467543Y-116372419D02*
X125467543Y-117229561D01*
X125467543Y-117229561D02*
X125419924Y-117324800D01*
X125419924Y-117324800D02*
X125324686Y-117372419D01*
X125324686Y-117372419D02*
X125229448Y-117372419D01*
X124896114Y-117372419D02*
X124896114Y-116705752D01*
X124896114Y-116896228D02*
X124848495Y-116800990D01*
X124848495Y-116800990D02*
X124800876Y-116753371D01*
X124800876Y-116753371D02*
X124705638Y-116705752D01*
X124705638Y-116705752D02*
X124610400Y-116705752D01*
X123848495Y-117372419D02*
X123848495Y-116848609D01*
X123848495Y-116848609D02*
X123896114Y-116753371D01*
X123896114Y-116753371D02*
X123991352Y-116705752D01*
X123991352Y-116705752D02*
X124181828Y-116705752D01*
X124181828Y-116705752D02*
X124277066Y-116753371D01*
X123848495Y-117324800D02*
X123943733Y-117372419D01*
X123943733Y-117372419D02*
X124181828Y-117372419D01*
X124181828Y-117372419D02*
X124277066Y-117324800D01*
X124277066Y-117324800D02*
X124324685Y-117229561D01*
X124324685Y-117229561D02*
X124324685Y-117134323D01*
X124324685Y-117134323D02*
X124277066Y-117039085D01*
X124277066Y-117039085D02*
X124181828Y-116991466D01*
X124181828Y-116991466D02*
X123943733Y-116991466D01*
X123943733Y-116991466D02*
X123848495Y-116943847D01*
X123229447Y-117372419D02*
X123324685Y-117324800D01*
X123324685Y-117324800D02*
X123372304Y-117229561D01*
X123372304Y-117229561D02*
X123372304Y-116372419D01*
X131896115Y-110972419D02*
X131896115Y-109972419D01*
X131419925Y-110972419D02*
X131419925Y-109972419D01*
X131419925Y-109972419D02*
X130848497Y-110972419D01*
X130848497Y-110972419D02*
X130848497Y-109972419D01*
X130372306Y-110877180D02*
X130324687Y-110924800D01*
X130324687Y-110924800D02*
X130372306Y-110972419D01*
X130372306Y-110972419D02*
X130419925Y-110924800D01*
X130419925Y-110924800D02*
X130372306Y-110877180D01*
X130372306Y-110877180D02*
X130372306Y-110972419D01*
X130372306Y-110353371D02*
X130324687Y-110400990D01*
X130324687Y-110400990D02*
X130372306Y-110448609D01*
X130372306Y-110448609D02*
X130419925Y-110400990D01*
X130419925Y-110400990D02*
X130372306Y-110353371D01*
X130372306Y-110353371D02*
X130372306Y-110448609D01*
X128991354Y-110400990D02*
X129086592Y-110353371D01*
X129086592Y-110353371D02*
X129134211Y-110305752D01*
X129134211Y-110305752D02*
X129181830Y-110210514D01*
X129181830Y-110210514D02*
X129181830Y-110162895D01*
X129181830Y-110162895D02*
X129134211Y-110067657D01*
X129134211Y-110067657D02*
X129086592Y-110020038D01*
X129086592Y-110020038D02*
X128991354Y-109972419D01*
X128991354Y-109972419D02*
X128800878Y-109972419D01*
X128800878Y-109972419D02*
X128705640Y-110020038D01*
X128705640Y-110020038D02*
X128658021Y-110067657D01*
X128658021Y-110067657D02*
X128610402Y-110162895D01*
X128610402Y-110162895D02*
X128610402Y-110210514D01*
X128610402Y-110210514D02*
X128658021Y-110305752D01*
X128658021Y-110305752D02*
X128705640Y-110353371D01*
X128705640Y-110353371D02*
X128800878Y-110400990D01*
X128800878Y-110400990D02*
X128991354Y-110400990D01*
X128991354Y-110400990D02*
X129086592Y-110448609D01*
X129086592Y-110448609D02*
X129134211Y-110496228D01*
X129134211Y-110496228D02*
X129181830Y-110591466D01*
X129181830Y-110591466D02*
X129181830Y-110781942D01*
X129181830Y-110781942D02*
X129134211Y-110877180D01*
X129134211Y-110877180D02*
X129086592Y-110924800D01*
X129086592Y-110924800D02*
X128991354Y-110972419D01*
X128991354Y-110972419D02*
X128800878Y-110972419D01*
X128800878Y-110972419D02*
X128705640Y-110924800D01*
X128705640Y-110924800D02*
X128658021Y-110877180D01*
X128658021Y-110877180D02*
X128610402Y-110781942D01*
X128610402Y-110781942D02*
X128610402Y-110591466D01*
X128610402Y-110591466D02*
X128658021Y-110496228D01*
X128658021Y-110496228D02*
X128705640Y-110448609D01*
X128705640Y-110448609D02*
X128800878Y-110400990D01*
X127705640Y-109972419D02*
X128181830Y-109972419D01*
X128181830Y-109972419D02*
X128229449Y-110448609D01*
X128229449Y-110448609D02*
X128181830Y-110400990D01*
X128181830Y-110400990D02*
X128086592Y-110353371D01*
X128086592Y-110353371D02*
X127848497Y-110353371D01*
X127848497Y-110353371D02*
X127753259Y-110400990D01*
X127753259Y-110400990D02*
X127705640Y-110448609D01*
X127705640Y-110448609D02*
X127658021Y-110543847D01*
X127658021Y-110543847D02*
X127658021Y-110781942D01*
X127658021Y-110781942D02*
X127705640Y-110877180D01*
X127705640Y-110877180D02*
X127753259Y-110924800D01*
X127753259Y-110924800D02*
X127848497Y-110972419D01*
X127848497Y-110972419D02*
X128086592Y-110972419D01*
X128086592Y-110972419D02*
X128181830Y-110924800D01*
X128181830Y-110924800D02*
X128229449Y-110877180D01*
X126467544Y-110591466D02*
X125705640Y-110591466D01*
X124562782Y-109972419D02*
X123943735Y-109972419D01*
X123943735Y-109972419D02*
X124277068Y-110353371D01*
X124277068Y-110353371D02*
X124134211Y-110353371D01*
X124134211Y-110353371D02*
X124038973Y-110400990D01*
X124038973Y-110400990D02*
X123991354Y-110448609D01*
X123991354Y-110448609D02*
X123943735Y-110543847D01*
X123943735Y-110543847D02*
X123943735Y-110781942D01*
X123943735Y-110781942D02*
X123991354Y-110877180D01*
X123991354Y-110877180D02*
X124038973Y-110924800D01*
X124038973Y-110924800D02*
X124134211Y-110972419D01*
X124134211Y-110972419D02*
X124419925Y-110972419D01*
X124419925Y-110972419D02*
X124515163Y-110924800D01*
X124515163Y-110924800D02*
X124562782Y-110877180D01*
X123324687Y-109972419D02*
X123229449Y-109972419D01*
X123229449Y-109972419D02*
X123134211Y-110020038D01*
X123134211Y-110020038D02*
X123086592Y-110067657D01*
X123086592Y-110067657D02*
X123038973Y-110162895D01*
X123038973Y-110162895D02*
X122991354Y-110353371D01*
X122991354Y-110353371D02*
X122991354Y-110591466D01*
X122991354Y-110591466D02*
X123038973Y-110781942D01*
X123038973Y-110781942D02*
X123086592Y-110877180D01*
X123086592Y-110877180D02*
X123134211Y-110924800D01*
X123134211Y-110924800D02*
X123229449Y-110972419D01*
X123229449Y-110972419D02*
X123324687Y-110972419D01*
X123324687Y-110972419D02*
X123419925Y-110924800D01*
X123419925Y-110924800D02*
X123467544Y-110877180D01*
X123467544Y-110877180D02*
X123515163Y-110781942D01*
X123515163Y-110781942D02*
X123562782Y-110591466D01*
X123562782Y-110591466D02*
X123562782Y-110353371D01*
X123562782Y-110353371D02*
X123515163Y-110162895D01*
X123515163Y-110162895D02*
X123467544Y-110067657D01*
X123467544Y-110067657D02*
X123419925Y-110020038D01*
X123419925Y-110020038D02*
X123324687Y-109972419D01*
X122086592Y-109972419D02*
X122562782Y-109972419D01*
X122562782Y-109972419D02*
X122610401Y-110448609D01*
X122610401Y-110448609D02*
X122562782Y-110400990D01*
X122562782Y-110400990D02*
X122467544Y-110353371D01*
X122467544Y-110353371D02*
X122229449Y-110353371D01*
X122229449Y-110353371D02*
X122134211Y-110400990D01*
X122134211Y-110400990D02*
X122086592Y-110448609D01*
X122086592Y-110448609D02*
X122038973Y-110543847D01*
X122038973Y-110543847D02*
X122038973Y-110781942D01*
X122038973Y-110781942D02*
X122086592Y-110877180D01*
X122086592Y-110877180D02*
X122134211Y-110924800D01*
X122134211Y-110924800D02*
X122229449Y-110972419D01*
X122229449Y-110972419D02*
X122467544Y-110972419D01*
X122467544Y-110972419D02*
X122562782Y-110924800D01*
X122562782Y-110924800D02*
X122610401Y-110877180D01*
X120991353Y-109972419D02*
X120658020Y-110972419D01*
X120658020Y-110972419D02*
X120324687Y-109972419D01*
X119848496Y-110972419D02*
X119943734Y-110924800D01*
X119943734Y-110924800D02*
X119991353Y-110877180D01*
X119991353Y-110877180D02*
X120038972Y-110781942D01*
X120038972Y-110781942D02*
X120038972Y-110496228D01*
X120038972Y-110496228D02*
X119991353Y-110400990D01*
X119991353Y-110400990D02*
X119943734Y-110353371D01*
X119943734Y-110353371D02*
X119848496Y-110305752D01*
X119848496Y-110305752D02*
X119705639Y-110305752D01*
X119705639Y-110305752D02*
X119610401Y-110353371D01*
X119610401Y-110353371D02*
X119562782Y-110400990D01*
X119562782Y-110400990D02*
X119515163Y-110496228D01*
X119515163Y-110496228D02*
X119515163Y-110781942D01*
X119515163Y-110781942D02*
X119562782Y-110877180D01*
X119562782Y-110877180D02*
X119610401Y-110924800D01*
X119610401Y-110924800D02*
X119705639Y-110972419D01*
X119705639Y-110972419D02*
X119848496Y-110972419D01*
X118943734Y-110972419D02*
X119038972Y-110924800D01*
X119038972Y-110924800D02*
X119086591Y-110829561D01*
X119086591Y-110829561D02*
X119086591Y-109972419D01*
X118705638Y-110305752D02*
X118324686Y-110305752D01*
X118562781Y-109972419D02*
X118562781Y-110829561D01*
X118562781Y-110829561D02*
X118515162Y-110924800D01*
X118515162Y-110924800D02*
X118419924Y-110972419D01*
X118419924Y-110972419D02*
X118324686Y-110972419D01*
X117277066Y-110686704D02*
X116800876Y-110686704D01*
X117372304Y-110972419D02*
X117038971Y-109972419D01*
X117038971Y-109972419D02*
X116705638Y-110972419D01*
X115800876Y-110877180D02*
X115848495Y-110924800D01*
X115848495Y-110924800D02*
X115991352Y-110972419D01*
X115991352Y-110972419D02*
X116086590Y-110972419D01*
X116086590Y-110972419D02*
X116229447Y-110924800D01*
X116229447Y-110924800D02*
X116324685Y-110829561D01*
X116324685Y-110829561D02*
X116372304Y-110734323D01*
X116372304Y-110734323D02*
X116419923Y-110543847D01*
X116419923Y-110543847D02*
X116419923Y-110400990D01*
X116419923Y-110400990D02*
X116372304Y-110210514D01*
X116372304Y-110210514D02*
X116324685Y-110115276D01*
X116324685Y-110115276D02*
X116229447Y-110020038D01*
X116229447Y-110020038D02*
X116086590Y-109972419D01*
X116086590Y-109972419D02*
X115991352Y-109972419D01*
X115991352Y-109972419D02*
X115848495Y-110020038D01*
X115848495Y-110020038D02*
X115800876Y-110067657D01*
X131896115Y-120472419D02*
X131896115Y-119472419D01*
X131896115Y-119472419D02*
X131515163Y-119472419D01*
X131515163Y-119472419D02*
X131419925Y-119520038D01*
X131419925Y-119520038D02*
X131372306Y-119567657D01*
X131372306Y-119567657D02*
X131324687Y-119662895D01*
X131324687Y-119662895D02*
X131324687Y-119805752D01*
X131324687Y-119805752D02*
X131372306Y-119900990D01*
X131372306Y-119900990D02*
X131419925Y-119948609D01*
X131419925Y-119948609D02*
X131515163Y-119996228D01*
X131515163Y-119996228D02*
X131896115Y-119996228D01*
X130896115Y-119948609D02*
X130562782Y-119948609D01*
X130419925Y-120472419D02*
X130896115Y-120472419D01*
X130896115Y-120472419D02*
X130896115Y-119472419D01*
X130896115Y-119472419D02*
X130419925Y-119472419D01*
X128515163Y-119424800D02*
X129372305Y-120710514D01*
X127419924Y-119948609D02*
X127086591Y-119948609D01*
X126943734Y-120472419D02*
X127419924Y-120472419D01*
X127419924Y-120472419D02*
X127419924Y-119472419D01*
X127419924Y-119472419D02*
X126943734Y-119472419D01*
X126086591Y-120472419D02*
X126086591Y-119948609D01*
X126086591Y-119948609D02*
X126134210Y-119853371D01*
X126134210Y-119853371D02*
X126229448Y-119805752D01*
X126229448Y-119805752D02*
X126419924Y-119805752D01*
X126419924Y-119805752D02*
X126515162Y-119853371D01*
X126086591Y-120424800D02*
X126181829Y-120472419D01*
X126181829Y-120472419D02*
X126419924Y-120472419D01*
X126419924Y-120472419D02*
X126515162Y-120424800D01*
X126515162Y-120424800D02*
X126562781Y-120329561D01*
X126562781Y-120329561D02*
X126562781Y-120234323D01*
X126562781Y-120234323D02*
X126515162Y-120139085D01*
X126515162Y-120139085D02*
X126419924Y-120091466D01*
X126419924Y-120091466D02*
X126181829Y-120091466D01*
X126181829Y-120091466D02*
X126086591Y-120043847D01*
X125610400Y-120472419D02*
X125610400Y-119805752D01*
X125610400Y-119996228D02*
X125562781Y-119900990D01*
X125562781Y-119900990D02*
X125515162Y-119853371D01*
X125515162Y-119853371D02*
X125419924Y-119805752D01*
X125419924Y-119805752D02*
X125324686Y-119805752D01*
X125134209Y-119805752D02*
X124753257Y-119805752D01*
X124991352Y-119472419D02*
X124991352Y-120329561D01*
X124991352Y-120329561D02*
X124943733Y-120424800D01*
X124943733Y-120424800D02*
X124848495Y-120472419D01*
X124848495Y-120472419D02*
X124753257Y-120472419D01*
X124419923Y-120472419D02*
X124419923Y-119472419D01*
X123991352Y-120472419D02*
X123991352Y-119948609D01*
X123991352Y-119948609D02*
X124038971Y-119853371D01*
X124038971Y-119853371D02*
X124134209Y-119805752D01*
X124134209Y-119805752D02*
X124277066Y-119805752D01*
X124277066Y-119805752D02*
X124372304Y-119853371D01*
X124372304Y-119853371D02*
X124419923Y-119900990D01*
X158172306Y-136722419D02*
X158743734Y-136722419D01*
X158458020Y-136722419D02*
X158458020Y-135722419D01*
X158458020Y-135722419D02*
X158553258Y-135865276D01*
X158553258Y-135865276D02*
X158648496Y-135960514D01*
X158648496Y-135960514D02*
X158743734Y-136008133D01*
X157791353Y-135817657D02*
X157743734Y-135770038D01*
X157743734Y-135770038D02*
X157648496Y-135722419D01*
X157648496Y-135722419D02*
X157410401Y-135722419D01*
X157410401Y-135722419D02*
X157315163Y-135770038D01*
X157315163Y-135770038D02*
X157267544Y-135817657D01*
X157267544Y-135817657D02*
X157219925Y-135912895D01*
X157219925Y-135912895D02*
X157219925Y-136008133D01*
X157219925Y-136008133D02*
X157267544Y-136150990D01*
X157267544Y-136150990D02*
X157838972Y-136722419D01*
X157838972Y-136722419D02*
X157219925Y-136722419D01*
X156934210Y-135722419D02*
X156600877Y-136722419D01*
X156600877Y-136722419D02*
X156267544Y-135722419D01*
X158172306Y-143170038D02*
X158267544Y-143122419D01*
X158267544Y-143122419D02*
X158410401Y-143122419D01*
X158410401Y-143122419D02*
X158553258Y-143170038D01*
X158553258Y-143170038D02*
X158648496Y-143265276D01*
X158648496Y-143265276D02*
X158696115Y-143360514D01*
X158696115Y-143360514D02*
X158743734Y-143550990D01*
X158743734Y-143550990D02*
X158743734Y-143693847D01*
X158743734Y-143693847D02*
X158696115Y-143884323D01*
X158696115Y-143884323D02*
X158648496Y-143979561D01*
X158648496Y-143979561D02*
X158553258Y-144074800D01*
X158553258Y-144074800D02*
X158410401Y-144122419D01*
X158410401Y-144122419D02*
X158315163Y-144122419D01*
X158315163Y-144122419D02*
X158172306Y-144074800D01*
X158172306Y-144074800D02*
X158124687Y-144027180D01*
X158124687Y-144027180D02*
X158124687Y-143693847D01*
X158124687Y-143693847D02*
X158315163Y-143693847D01*
X157696115Y-144122419D02*
X157696115Y-143122419D01*
X157696115Y-143122419D02*
X157124687Y-144122419D01*
X157124687Y-144122419D02*
X157124687Y-143122419D01*
X156648496Y-144122419D02*
X156648496Y-143122419D01*
X156648496Y-143122419D02*
X156410401Y-143122419D01*
X156410401Y-143122419D02*
X156267544Y-143170038D01*
X156267544Y-143170038D02*
X156172306Y-143265276D01*
X156172306Y-143265276D02*
X156124687Y-143360514D01*
X156124687Y-143360514D02*
X156077068Y-143550990D01*
X156077068Y-143550990D02*
X156077068Y-143693847D01*
X156077068Y-143693847D02*
X156124687Y-143884323D01*
X156124687Y-143884323D02*
X156172306Y-143979561D01*
X156172306Y-143979561D02*
X156267544Y-144074800D01*
X156267544Y-144074800D02*
X156410401Y-144122419D01*
X156410401Y-144122419D02*
X156648496Y-144122419D01*
D11*
%TO.C,J4*%
X113273000Y-112822999D02*
X113273000Y-113368762D01*
X113273000Y-115431242D02*
X113273000Y-116368761D01*
X113273000Y-118431241D02*
X113273000Y-119368760D01*
D10*
X113273000Y-121431240D02*
X113273000Y-121977002D01*
D11*
X113273000Y-121431240D02*
X113273000Y-121977002D01*
X113273000Y-121977002D02*
X120927000Y-121977002D01*
D10*
X114100000Y-121900002D02*
X113273000Y-121431240D01*
D11*
X120927000Y-112822999D02*
X113273000Y-112822999D01*
X120927000Y-113368762D02*
X120927000Y-112822999D01*
X120927000Y-116368761D02*
X120927000Y-115431242D01*
X120927000Y-119368760D02*
X120927000Y-118431241D01*
X120927000Y-121977002D02*
X120927000Y-121431240D01*
%TD*%
M02*
