%TF.GenerationSoftware,KiCad,Pcbnew,8.0.6*%
%TF.CreationDate,2025-02-11T20:42:11+01:00*%
%TF.ProjectId,KWLcontrol,4b574c63-6f6e-4747-926f-6c2e6b696361,rev?*%
%TF.SameCoordinates,Original*%
%TF.FileFunction,Copper,L2,Bot*%
%TF.FilePolarity,Positive*%
%FSLAX46Y46*%
G04 Gerber Fmt 4.6, Leading zero omitted, Abs format (unit mm)*
G04 Created by KiCad (PCBNEW 8.0.6) date 2025-02-11 20:42:11*
%MOMM*%
%LPD*%
G01*
G04 APERTURE LIST*
G04 Aperture macros list*
%AMRoundRect*
0 Rectangle with rounded corners*
0 $1 Rounding radius*
0 $2 $3 $4 $5 $6 $7 $8 $9 X,Y pos of 4 corners*
0 Add a 4 corners polygon primitive as box body*
4,1,4,$2,$3,$4,$5,$6,$7,$8,$9,$2,$3,0*
0 Add four circle primitives for the rounded corners*
1,1,$1+$1,$2,$3*
1,1,$1+$1,$4,$5*
1,1,$1+$1,$6,$7*
1,1,$1+$1,$8,$9*
0 Add four rect primitives between the rounded corners*
20,1,$1+$1,$2,$3,$4,$5,0*
20,1,$1+$1,$4,$5,$6,$7,0*
20,1,$1+$1,$6,$7,$8,$9,0*
20,1,$1+$1,$8,$9,$2,$3,0*%
G04 Aperture macros list end*
%TA.AperFunction,ComponentPad*%
%ADD10RoundRect,0.250000X1.550000X-0.650000X1.550000X0.650000X-1.550000X0.650000X-1.550000X-0.650000X0*%
%TD*%
%TA.AperFunction,ComponentPad*%
%ADD11O,3.600000X1.800000*%
%TD*%
%TA.AperFunction,ComponentPad*%
%ADD12R,0.850000X0.850000*%
%TD*%
%TA.AperFunction,ComponentPad*%
%ADD13O,0.850000X0.850000*%
%TD*%
%TA.AperFunction,ComponentPad*%
%ADD14C,0.600000*%
%TD*%
%TA.AperFunction,SMDPad,CuDef*%
%ADD15R,1.600000X0.900000*%
%TD*%
%TA.AperFunction,HeatsinkPad*%
%ADD16C,0.600000*%
%TD*%
%TA.AperFunction,SMDPad,CuDef*%
%ADD17R,2.500000X1.397000*%
%TD*%
%TA.AperFunction,ViaPad*%
%ADD18C,1.000000*%
%TD*%
%TA.AperFunction,ViaPad*%
%ADD19C,0.600000*%
%TD*%
%TA.AperFunction,Conductor*%
%ADD20C,0.200000*%
%TD*%
G04 APERTURE END LIST*
D10*
%TO.P,J2,1,Pin_1*%
%TO.N,GNDREF*%
X161500000Y-144000000D03*
D11*
%TO.P,J2,2,Pin_2*%
%TO.N,Net-(J2-Pin_2)*%
X161500000Y-140190000D03*
%TO.P,J2,3,Pin_3*%
%TO.N,+12V*%
X161500000Y-136380000D03*
%TD*%
D12*
%TO.P,J3,1,Pin_1*%
%TO.N,GNDREF*%
X160830000Y-131100000D03*
D13*
%TO.P,J3,2,Pin_2*%
%TO.N,Net-(J3-Pin_2)*%
X161830000Y-131100000D03*
%TO.P,J3,3,Pin_3*%
%TO.N,Net-(J3-Pin_3)*%
X162830000Y-131100000D03*
%TD*%
D14*
%TO.P,U2,9,PAD*%
%TO.N,GNDREF*%
X146450000Y-139250000D03*
D15*
X146950000Y-139250000D03*
D14*
X147450000Y-139250000D03*
%TD*%
%TO.P,U3,9,PAD*%
%TO.N,GNDREF*%
X156050000Y-139350000D03*
D15*
X156550000Y-139350000D03*
D14*
X157050000Y-139350000D03*
%TD*%
D16*
%TO.P,U1,39,GND*%
%TO.N,GNDREF*%
X155050000Y-116437500D03*
X155050000Y-117962500D03*
X155812500Y-115675000D03*
X155812500Y-117200000D03*
X155812500Y-118725000D03*
X156575000Y-116437500D03*
X156575000Y-117962500D03*
X157337500Y-115675000D03*
X157337500Y-117200000D03*
X157337500Y-118725000D03*
X158100000Y-116437500D03*
X158100000Y-117962500D03*
%TD*%
D17*
%TO.P,J4,1,1_1*%
%TO.N,/AC_PE*%
X114250001Y-120400000D03*
%TO.P,J4,2,1_2*%
X120449998Y-120400000D03*
%TO.P,J4,3,2_1*%
%TO.N,/AC_N*%
X114250001Y-117400002D03*
%TO.P,J4,4,2_2*%
X120449998Y-117400002D03*
%TO.P,J4,5,3_1*%
%TO.N,/AC_L*%
X114250001Y-114400002D03*
%TO.P,J4,6,3_2*%
X120449998Y-114400002D03*
%TD*%
D18*
%TO.N,/AC_L*%
X117400000Y-114400000D03*
%TO.N,/AC_N*%
X117400000Y-117400000D03*
%TO.N,GNDREF*%
X142400000Y-145000000D03*
X151900000Y-141100000D03*
X141800000Y-109700000D03*
X146600000Y-120600000D03*
X163800000Y-109900000D03*
%TO.N,/AC_PE*%
X117400000Y-120400000D03*
D19*
%TO.N,Net-(J2-Pin_2)*%
X154300000Y-129800000D03*
%TD*%
D20*
%TO.N,/AC_L*%
X114250001Y-114400002D02*
X120449998Y-114400002D01*
%TO.N,/AC_N*%
X114250001Y-117400002D02*
X120449998Y-117400002D01*
%TO.N,Net-(J2-Pin_2)*%
X154300000Y-129800000D02*
X157800000Y-133300000D01*
X166800000Y-139100000D02*
X165710000Y-140190000D01*
X166800000Y-135200000D02*
X166800000Y-139100000D01*
X165710000Y-140190000D02*
X161500000Y-140190000D01*
X157800000Y-133300000D02*
X164900000Y-133300000D01*
X164900000Y-133300000D02*
X166800000Y-135200000D01*
%TD*%
%TA.AperFunction,Conductor*%
%TO.N,/AC_PE*%
G36*
X139340776Y-108820185D02*
G01*
X139386531Y-108872989D01*
X139397735Y-108923856D01*
X139397755Y-108927767D01*
X139397755Y-108927770D01*
X139421060Y-113413975D01*
X139430016Y-115138060D01*
X139432819Y-115677626D01*
X139433977Y-115900560D01*
X139436780Y-116440126D01*
X139439583Y-116979691D01*
X139440741Y-117202624D01*
X139441899Y-117425560D01*
X139444702Y-117965126D01*
X139447505Y-118504691D01*
X139448663Y-118727624D01*
X139451466Y-119267191D01*
X139506182Y-129799999D01*
X139512935Y-131099999D01*
X139532541Y-134874121D01*
X139539907Y-136292074D01*
X139540100Y-136329230D01*
X139552821Y-138777997D01*
X139553338Y-138877609D01*
X139553338Y-138877675D01*
X139555157Y-139227762D01*
X139557752Y-139727254D01*
X139559892Y-140139230D01*
X139576336Y-143304781D01*
X139579551Y-143923635D01*
X139579883Y-143987561D01*
X139583586Y-144700470D01*
X139585935Y-145152626D01*
X139591246Y-146174856D01*
X139571910Y-146241997D01*
X139519345Y-146288025D01*
X139467248Y-146299500D01*
X111924500Y-146299500D01*
X111857461Y-146279815D01*
X111811706Y-146227011D01*
X111800500Y-146175500D01*
X111800500Y-121146344D01*
X112500001Y-121146344D01*
X112506402Y-121205872D01*
X112506404Y-121205879D01*
X112556646Y-121340586D01*
X112556650Y-121340593D01*
X112642810Y-121455687D01*
X112642813Y-121455690D01*
X112757907Y-121541850D01*
X112757914Y-121541854D01*
X112892621Y-121592096D01*
X112892628Y-121592098D01*
X112952156Y-121598499D01*
X112952173Y-121598500D01*
X113750001Y-121598500D01*
X114750001Y-121598500D01*
X115547829Y-121598500D01*
X115547845Y-121598499D01*
X115607373Y-121592098D01*
X115607380Y-121592096D01*
X115742087Y-121541854D01*
X115742094Y-121541850D01*
X115857188Y-121455690D01*
X115857191Y-121455687D01*
X115943351Y-121340593D01*
X115943355Y-121340586D01*
X115993597Y-121205879D01*
X115993599Y-121205872D01*
X116000000Y-121146344D01*
X118699998Y-121146344D01*
X118706399Y-121205872D01*
X118706401Y-121205879D01*
X118756643Y-121340586D01*
X118756647Y-121340593D01*
X118842807Y-121455687D01*
X118842810Y-121455690D01*
X118957904Y-121541850D01*
X118957911Y-121541854D01*
X119092618Y-121592096D01*
X119092625Y-121592098D01*
X119152153Y-121598499D01*
X119152170Y-121598500D01*
X119949998Y-121598500D01*
X120949998Y-121598500D01*
X121747826Y-121598500D01*
X121747842Y-121598499D01*
X121807370Y-121592098D01*
X121807377Y-121592096D01*
X121942084Y-121541854D01*
X121942091Y-121541850D01*
X122057185Y-121455690D01*
X122057188Y-121455687D01*
X122143348Y-121340593D01*
X122143352Y-121340586D01*
X122193594Y-121205879D01*
X122193596Y-121205872D01*
X122199997Y-121146344D01*
X122199998Y-121146327D01*
X122199998Y-120900000D01*
X120949998Y-120900000D01*
X120949998Y-121598500D01*
X119949998Y-121598500D01*
X119949998Y-120900000D01*
X118699998Y-120900000D01*
X118699998Y-121146344D01*
X116000000Y-121146344D01*
X116000001Y-121146327D01*
X116000001Y-120900000D01*
X114750001Y-120900000D01*
X114750001Y-121598500D01*
X113750001Y-121598500D01*
X113750001Y-120900000D01*
X112500001Y-120900000D01*
X112500001Y-121146344D01*
X111800500Y-121146344D01*
X111800500Y-119653655D01*
X112500001Y-119653655D01*
X112500001Y-119900000D01*
X113750001Y-119900000D01*
X114750001Y-119900000D01*
X116000001Y-119900000D01*
X116000001Y-119653672D01*
X116000000Y-119653655D01*
X118699998Y-119653655D01*
X118699998Y-119900000D01*
X119949998Y-119900000D01*
X120949998Y-119900000D01*
X122199998Y-119900000D01*
X122199998Y-119653672D01*
X122199997Y-119653655D01*
X122193596Y-119594127D01*
X122193594Y-119594120D01*
X122143352Y-119459413D01*
X122143348Y-119459406D01*
X122057188Y-119344312D01*
X122057185Y-119344309D01*
X121942091Y-119258149D01*
X121942084Y-119258145D01*
X121807377Y-119207903D01*
X121807370Y-119207901D01*
X121747842Y-119201500D01*
X120949998Y-119201500D01*
X120949998Y-119900000D01*
X119949998Y-119900000D01*
X119949998Y-119201500D01*
X119152153Y-119201500D01*
X119092625Y-119207901D01*
X119092618Y-119207903D01*
X118957911Y-119258145D01*
X118957904Y-119258149D01*
X118842810Y-119344309D01*
X118842807Y-119344312D01*
X118756647Y-119459406D01*
X118756643Y-119459413D01*
X118706401Y-119594120D01*
X118706399Y-119594127D01*
X118699998Y-119653655D01*
X116000000Y-119653655D01*
X115993599Y-119594127D01*
X115993597Y-119594120D01*
X115943355Y-119459413D01*
X115943351Y-119459406D01*
X115857191Y-119344312D01*
X115857188Y-119344309D01*
X115742094Y-119258149D01*
X115742087Y-119258145D01*
X115607380Y-119207903D01*
X115607373Y-119207901D01*
X115547845Y-119201500D01*
X114750001Y-119201500D01*
X114750001Y-119900000D01*
X113750001Y-119900000D01*
X113750001Y-119201500D01*
X112952156Y-119201500D01*
X112892628Y-119207901D01*
X112892621Y-119207903D01*
X112757914Y-119258145D01*
X112757907Y-119258149D01*
X112642813Y-119344309D01*
X112642810Y-119344312D01*
X112556650Y-119459406D01*
X112556646Y-119459413D01*
X112506404Y-119594120D01*
X112506402Y-119594127D01*
X112500001Y-119653655D01*
X111800500Y-119653655D01*
X111800500Y-116653637D01*
X112499501Y-116653637D01*
X112499501Y-118146372D01*
X112499502Y-118146378D01*
X112505909Y-118205985D01*
X112556203Y-118340830D01*
X112556207Y-118340837D01*
X112642453Y-118456046D01*
X112642456Y-118456049D01*
X112757665Y-118542295D01*
X112757672Y-118542299D01*
X112892518Y-118592593D01*
X112892517Y-118592593D01*
X112899445Y-118593337D01*
X112952128Y-118599002D01*
X115547873Y-118599001D01*
X115607484Y-118592593D01*
X115742332Y-118542298D01*
X115857547Y-118456048D01*
X115943797Y-118340833D01*
X115994092Y-118205985D01*
X116000501Y-118146375D01*
X116000501Y-118124502D01*
X116020186Y-118057463D01*
X116072990Y-118011708D01*
X116124501Y-118000502D01*
X116539882Y-118000502D01*
X116606921Y-118020187D01*
X116635736Y-118045838D01*
X116689117Y-118110883D01*
X116841460Y-118235909D01*
X116841467Y-118235913D01*
X117015266Y-118328811D01*
X117015269Y-118328811D01*
X117015273Y-118328814D01*
X117203868Y-118386024D01*
X117400000Y-118405341D01*
X117596132Y-118386024D01*
X117784727Y-118328814D01*
X117958538Y-118235910D01*
X118110883Y-118110883D01*
X118164264Y-118045837D01*
X118222010Y-118006503D01*
X118260118Y-118000502D01*
X118575499Y-118000502D01*
X118642538Y-118020187D01*
X118688293Y-118072991D01*
X118699499Y-118124502D01*
X118699499Y-118146378D01*
X118705906Y-118205985D01*
X118756200Y-118340830D01*
X118756204Y-118340837D01*
X118842450Y-118456046D01*
X118842453Y-118456049D01*
X118957662Y-118542295D01*
X118957669Y-118542299D01*
X119092515Y-118592593D01*
X119092514Y-118592593D01*
X119099442Y-118593337D01*
X119152125Y-118599002D01*
X121747870Y-118599001D01*
X121807481Y-118592593D01*
X121942329Y-118542298D01*
X122057544Y-118456048D01*
X122143794Y-118340833D01*
X122194089Y-118205985D01*
X122200498Y-118146375D01*
X122200497Y-116653630D01*
X122194089Y-116594019D01*
X122182926Y-116564090D01*
X122143795Y-116459173D01*
X122143791Y-116459166D01*
X122057545Y-116343957D01*
X122057542Y-116343954D01*
X121942333Y-116257708D01*
X121942326Y-116257704D01*
X121807480Y-116207410D01*
X121807481Y-116207410D01*
X121747881Y-116201003D01*
X121747879Y-116201002D01*
X121747871Y-116201002D01*
X121747862Y-116201002D01*
X119152127Y-116201002D01*
X119152121Y-116201003D01*
X119092514Y-116207410D01*
X118957669Y-116257704D01*
X118957662Y-116257708D01*
X118842453Y-116343954D01*
X118842450Y-116343957D01*
X118756204Y-116459166D01*
X118756200Y-116459173D01*
X118705906Y-116594019D01*
X118699499Y-116653618D01*
X118699499Y-116653625D01*
X118699498Y-116653637D01*
X118699498Y-116675502D01*
X118679813Y-116742541D01*
X118627009Y-116788296D01*
X118575498Y-116799502D01*
X118260122Y-116799502D01*
X118193083Y-116779817D01*
X118164269Y-116754167D01*
X118110883Y-116689116D01*
X117958539Y-116564090D01*
X117958532Y-116564086D01*
X117784733Y-116471188D01*
X117784727Y-116471186D01*
X117596132Y-116413976D01*
X117596129Y-116413975D01*
X117400000Y-116394659D01*
X117203870Y-116413975D01*
X117015266Y-116471188D01*
X116841467Y-116564086D01*
X116841460Y-116564090D01*
X116689116Y-116689116D01*
X116635731Y-116754167D01*
X116577985Y-116793501D01*
X116539878Y-116799502D01*
X116124500Y-116799502D01*
X116057461Y-116779817D01*
X116011706Y-116727013D01*
X116000500Y-116675502D01*
X116000500Y-116653631D01*
X116000499Y-116653625D01*
X116000498Y-116653618D01*
X115994092Y-116594019D01*
X115982929Y-116564090D01*
X115943798Y-116459173D01*
X115943794Y-116459166D01*
X115857548Y-116343957D01*
X115857545Y-116343954D01*
X115742336Y-116257708D01*
X115742329Y-116257704D01*
X115607483Y-116207410D01*
X115607484Y-116207410D01*
X115547884Y-116201003D01*
X115547882Y-116201002D01*
X115547874Y-116201002D01*
X115547865Y-116201002D01*
X112952130Y-116201002D01*
X112952124Y-116201003D01*
X112892517Y-116207410D01*
X112757672Y-116257704D01*
X112757665Y-116257708D01*
X112642456Y-116343954D01*
X112642453Y-116343957D01*
X112556207Y-116459166D01*
X112556203Y-116459173D01*
X112505909Y-116594019D01*
X112499502Y-116653618D01*
X112499502Y-116653625D01*
X112499501Y-116653637D01*
X111800500Y-116653637D01*
X111800500Y-113653637D01*
X112499501Y-113653637D01*
X112499501Y-115146372D01*
X112499502Y-115146378D01*
X112505909Y-115205985D01*
X112556203Y-115340830D01*
X112556207Y-115340837D01*
X112642453Y-115456046D01*
X112642456Y-115456049D01*
X112757665Y-115542295D01*
X112757672Y-115542299D01*
X112892518Y-115592593D01*
X112892517Y-115592593D01*
X112899445Y-115593337D01*
X112952128Y-115599002D01*
X115547873Y-115599001D01*
X115607484Y-115592593D01*
X115742332Y-115542298D01*
X115857547Y-115456048D01*
X115943797Y-115340833D01*
X115994092Y-115205985D01*
X116000501Y-115146375D01*
X116000501Y-115124502D01*
X116020186Y-115057463D01*
X116072990Y-115011708D01*
X116124501Y-115000502D01*
X116539882Y-115000502D01*
X116606921Y-115020187D01*
X116635736Y-115045838D01*
X116689117Y-115110883D01*
X116841460Y-115235909D01*
X116841467Y-115235913D01*
X117015266Y-115328811D01*
X117015269Y-115328811D01*
X117015273Y-115328814D01*
X117203868Y-115386024D01*
X117400000Y-115405341D01*
X117596132Y-115386024D01*
X117784727Y-115328814D01*
X117958538Y-115235910D01*
X118110883Y-115110883D01*
X118164264Y-115045837D01*
X118222010Y-115006503D01*
X118260118Y-115000502D01*
X118575499Y-115000502D01*
X118642538Y-115020187D01*
X118688293Y-115072991D01*
X118699499Y-115124502D01*
X118699499Y-115146378D01*
X118705906Y-115205985D01*
X118756200Y-115340830D01*
X118756204Y-115340837D01*
X118842450Y-115456046D01*
X118842453Y-115456049D01*
X118957662Y-115542295D01*
X118957669Y-115542299D01*
X119092515Y-115592593D01*
X119092514Y-115592593D01*
X119099442Y-115593337D01*
X119152125Y-115599002D01*
X121747870Y-115599001D01*
X121807481Y-115592593D01*
X121942329Y-115542298D01*
X122057544Y-115456048D01*
X122143794Y-115340833D01*
X122194089Y-115205985D01*
X122200498Y-115146375D01*
X122200497Y-113653630D01*
X122194089Y-113594019D01*
X122182926Y-113564090D01*
X122143795Y-113459173D01*
X122143791Y-113459166D01*
X122057545Y-113343957D01*
X122057542Y-113343954D01*
X121942333Y-113257708D01*
X121942326Y-113257704D01*
X121807480Y-113207410D01*
X121807481Y-113207410D01*
X121747881Y-113201003D01*
X121747879Y-113201002D01*
X121747871Y-113201002D01*
X121747862Y-113201002D01*
X119152127Y-113201002D01*
X119152121Y-113201003D01*
X119092514Y-113207410D01*
X118957669Y-113257704D01*
X118957662Y-113257708D01*
X118842453Y-113343954D01*
X118842450Y-113343957D01*
X118756204Y-113459166D01*
X118756200Y-113459173D01*
X118705906Y-113594019D01*
X118699499Y-113653618D01*
X118699499Y-113653625D01*
X118699498Y-113653637D01*
X118699498Y-113675502D01*
X118679813Y-113742541D01*
X118627009Y-113788296D01*
X118575498Y-113799502D01*
X118260122Y-113799502D01*
X118193083Y-113779817D01*
X118164269Y-113754167D01*
X118110883Y-113689116D01*
X117958539Y-113564090D01*
X117958532Y-113564086D01*
X117784733Y-113471188D01*
X117784727Y-113471186D01*
X117596132Y-113413976D01*
X117596129Y-113413975D01*
X117400000Y-113394659D01*
X117203870Y-113413975D01*
X117015266Y-113471188D01*
X116841467Y-113564086D01*
X116841460Y-113564090D01*
X116689116Y-113689116D01*
X116635731Y-113754167D01*
X116577985Y-113793501D01*
X116539878Y-113799502D01*
X116124500Y-113799502D01*
X116057461Y-113779817D01*
X116011706Y-113727013D01*
X116000500Y-113675502D01*
X116000500Y-113653631D01*
X116000499Y-113653625D01*
X116000498Y-113653618D01*
X115994092Y-113594019D01*
X115982929Y-113564090D01*
X115943798Y-113459173D01*
X115943794Y-113459166D01*
X115857548Y-113343957D01*
X115857545Y-113343954D01*
X115742336Y-113257708D01*
X115742329Y-113257704D01*
X115607483Y-113207410D01*
X115607484Y-113207410D01*
X115547884Y-113201003D01*
X115547882Y-113201002D01*
X115547874Y-113201002D01*
X115547865Y-113201002D01*
X112952130Y-113201002D01*
X112952124Y-113201003D01*
X112892517Y-113207410D01*
X112757672Y-113257704D01*
X112757665Y-113257708D01*
X112642456Y-113343954D01*
X112642453Y-113343957D01*
X112556207Y-113459166D01*
X112556203Y-113459173D01*
X112505909Y-113594019D01*
X112499502Y-113653618D01*
X112499502Y-113653625D01*
X112499501Y-113653637D01*
X111800500Y-113653637D01*
X111800500Y-108924500D01*
X111820185Y-108857461D01*
X111872989Y-108811706D01*
X111924500Y-108800500D01*
X139273737Y-108800500D01*
X139340776Y-108820185D01*
G37*
%TD.AperFunction*%
%TD*%
%TA.AperFunction,Conductor*%
%TO.N,GNDREF*%
G36*
X167142539Y-108820185D02*
G01*
X167188294Y-108872989D01*
X167199500Y-108924500D01*
X167199500Y-134804456D01*
X167179815Y-134871495D01*
X167127011Y-134917250D01*
X167057853Y-134927194D01*
X166994297Y-134898169D01*
X166987819Y-134892137D01*
X165115213Y-133019531D01*
X165115208Y-133019527D01*
X165035290Y-132973387D01*
X165035289Y-132973386D01*
X165035288Y-132973386D01*
X164946144Y-132949500D01*
X164946143Y-132949500D01*
X157996544Y-132949500D01*
X157929505Y-132929815D01*
X157908863Y-132913181D01*
X156545310Y-131549628D01*
X160155000Y-131549628D01*
X160169503Y-131622540D01*
X160169505Y-131622544D01*
X160224760Y-131705239D01*
X160307455Y-131760494D01*
X160307459Y-131760496D01*
X160380371Y-131774999D01*
X160380374Y-131775000D01*
X160405000Y-131775000D01*
X160405000Y-131525000D01*
X160155000Y-131525000D01*
X160155000Y-131549628D01*
X156545310Y-131549628D01*
X156045954Y-131050272D01*
X160580000Y-131050272D01*
X160580000Y-131149728D01*
X160618060Y-131241614D01*
X160688386Y-131311940D01*
X160780272Y-131350000D01*
X160879728Y-131350000D01*
X160971614Y-131311940D01*
X161041940Y-131241614D01*
X161080000Y-131149728D01*
X161080000Y-131099999D01*
X161149539Y-131099999D01*
X161149539Y-131100000D01*
X161169311Y-131262842D01*
X161169312Y-131262848D01*
X161227480Y-131416223D01*
X161227481Y-131416225D01*
X161227482Y-131416226D01*
X161233049Y-131424291D01*
X161254933Y-131490645D01*
X161255000Y-131494732D01*
X161255000Y-131775000D01*
X161279626Y-131775000D01*
X161279628Y-131774999D01*
X161352540Y-131760496D01*
X161352544Y-131760494D01*
X161415498Y-131718431D01*
X161482176Y-131697553D01*
X161542015Y-131711737D01*
X161588705Y-131736242D01*
X161747978Y-131775500D01*
X161747979Y-131775500D01*
X161912022Y-131775500D01*
X162071291Y-131736243D01*
X162071291Y-131736242D01*
X162071295Y-131736242D01*
X162216546Y-131660008D01*
X162247772Y-131632343D01*
X162311004Y-131602622D01*
X162380268Y-131611804D01*
X162412228Y-131632344D01*
X162443451Y-131660006D01*
X162443452Y-131660006D01*
X162443454Y-131660008D01*
X162588705Y-131736242D01*
X162588707Y-131736242D01*
X162588708Y-131736243D01*
X162747978Y-131775500D01*
X162747979Y-131775500D01*
X162912022Y-131775500D01*
X163071291Y-131736243D01*
X163071291Y-131736242D01*
X163071295Y-131736242D01*
X163216546Y-131660008D01*
X163339332Y-131551229D01*
X163432518Y-131416226D01*
X163490688Y-131262845D01*
X163510461Y-131100000D01*
X163490688Y-130937155D01*
X163432518Y-130783774D01*
X163339332Y-130648771D01*
X163339329Y-130648768D01*
X163339327Y-130648766D01*
X163216548Y-130539993D01*
X163071291Y-130463756D01*
X162912022Y-130424500D01*
X162912021Y-130424500D01*
X162747979Y-130424500D01*
X162747978Y-130424500D01*
X162588708Y-130463756D01*
X162443451Y-130539993D01*
X162412225Y-130567657D01*
X162348992Y-130597377D01*
X162279728Y-130588192D01*
X162247775Y-130567657D01*
X162216548Y-130539993D01*
X162071291Y-130463756D01*
X161912022Y-130424500D01*
X161912021Y-130424500D01*
X161747979Y-130424500D01*
X161747978Y-130424500D01*
X161588708Y-130463757D01*
X161588707Y-130463757D01*
X161588705Y-130463758D01*
X161563825Y-130476816D01*
X161542012Y-130488264D01*
X161473503Y-130501987D01*
X161415498Y-130481569D01*
X161352543Y-130439504D01*
X161352540Y-130439503D01*
X161279627Y-130425000D01*
X161255000Y-130425000D01*
X161255000Y-130705267D01*
X161235315Y-130772306D01*
X161233051Y-130775706D01*
X161227483Y-130783772D01*
X161169312Y-130937154D01*
X161169311Y-130937157D01*
X161149539Y-131099999D01*
X161080000Y-131099999D01*
X161080000Y-131050272D01*
X161041940Y-130958386D01*
X160971614Y-130888060D01*
X160879728Y-130850000D01*
X160780272Y-130850000D01*
X160688386Y-130888060D01*
X160618060Y-130958386D01*
X160580000Y-131050272D01*
X156045954Y-131050272D01*
X155646053Y-130650371D01*
X160155000Y-130650371D01*
X160155000Y-130675000D01*
X160405000Y-130675000D01*
X160405000Y-130425000D01*
X160380373Y-130425000D01*
X160307459Y-130439503D01*
X160307455Y-130439505D01*
X160224760Y-130494760D01*
X160169505Y-130577455D01*
X160169503Y-130577459D01*
X160155000Y-130650371D01*
X155646053Y-130650371D01*
X154891560Y-129895878D01*
X154858075Y-129834555D01*
X154856983Y-129808129D01*
X154855250Y-129808129D01*
X154855250Y-129800000D01*
X154855250Y-129799999D01*
X154836330Y-129656291D01*
X154780861Y-129522375D01*
X154692621Y-129407379D01*
X154577625Y-129319139D01*
X154577624Y-129319138D01*
X154577622Y-129319137D01*
X154443712Y-129263671D01*
X154443710Y-129263670D01*
X154443709Y-129263670D01*
X154371854Y-129254210D01*
X154300001Y-129244750D01*
X154299999Y-129244750D01*
X154156291Y-129263670D01*
X154156287Y-129263671D01*
X154022377Y-129319137D01*
X153907379Y-129407379D01*
X153819137Y-129522377D01*
X153763671Y-129656287D01*
X153763670Y-129656291D01*
X153744750Y-129799999D01*
X153744750Y-129800000D01*
X153763670Y-129943708D01*
X153763671Y-129943712D01*
X153819137Y-130077622D01*
X153819138Y-130077624D01*
X153819139Y-130077625D01*
X153907379Y-130192621D01*
X154022375Y-130280861D01*
X154156291Y-130336330D01*
X154300000Y-130355250D01*
X154308129Y-130355250D01*
X154308129Y-130358828D01*
X154360970Y-130367031D01*
X154395878Y-130391560D01*
X157584787Y-133580469D01*
X157664712Y-133626614D01*
X157753856Y-133650500D01*
X164703456Y-133650500D01*
X164770495Y-133670185D01*
X164791137Y-133686819D01*
X166413181Y-135308863D01*
X166446666Y-135370186D01*
X166449500Y-135396544D01*
X166449500Y-138903456D01*
X166429815Y-138970495D01*
X166413181Y-138991137D01*
X165601137Y-139803181D01*
X165539814Y-139836666D01*
X165513456Y-139839500D01*
X163585915Y-139839500D01*
X163518876Y-139819815D01*
X163473121Y-139767011D01*
X163467982Y-139753813D01*
X163466211Y-139748363D01*
X163466211Y-139748361D01*
X163383996Y-139587006D01*
X163370396Y-139568287D01*
X163277558Y-139440505D01*
X163277554Y-139440500D01*
X163149499Y-139312445D01*
X163149494Y-139312441D01*
X163002997Y-139206006D01*
X163002996Y-139206005D01*
X163002994Y-139206004D01*
X162950375Y-139179193D01*
X162841639Y-139123788D01*
X162841636Y-139123787D01*
X162669410Y-139067829D01*
X162490551Y-139039500D01*
X162490546Y-139039500D01*
X160509454Y-139039500D01*
X160509449Y-139039500D01*
X160330589Y-139067829D01*
X160158363Y-139123787D01*
X160158360Y-139123788D01*
X159997002Y-139206006D01*
X159850505Y-139312441D01*
X159850500Y-139312445D01*
X159722445Y-139440500D01*
X159722441Y-139440505D01*
X159616006Y-139587002D01*
X159533788Y-139748360D01*
X159533787Y-139748363D01*
X159477829Y-139920589D01*
X159449500Y-140099448D01*
X159449500Y-140280551D01*
X159477829Y-140459410D01*
X159533787Y-140631636D01*
X159533788Y-140631639D01*
X159616006Y-140792997D01*
X159722441Y-140939494D01*
X159722445Y-140939499D01*
X159850500Y-141067554D01*
X159850505Y-141067558D01*
X159978287Y-141160396D01*
X159997006Y-141173996D01*
X160102484Y-141227740D01*
X160158360Y-141256211D01*
X160158363Y-141256212D01*
X160244476Y-141284191D01*
X160330591Y-141312171D01*
X160413429Y-141325291D01*
X160509449Y-141340500D01*
X160509454Y-141340500D01*
X162490551Y-141340500D01*
X162577259Y-141326765D01*
X162669409Y-141312171D01*
X162841639Y-141256211D01*
X163002994Y-141173996D01*
X163149501Y-141067553D01*
X163277553Y-140939501D01*
X163383996Y-140792994D01*
X163466211Y-140631639D01*
X163467982Y-140626185D01*
X163507418Y-140568510D01*
X163571775Y-140541309D01*
X163585915Y-140540500D01*
X165756142Y-140540500D01*
X165756144Y-140540500D01*
X165845288Y-140516614D01*
X165925212Y-140470470D01*
X166987819Y-139407863D01*
X167049142Y-139374378D01*
X167118834Y-139379362D01*
X167174767Y-139421234D01*
X167199184Y-139486698D01*
X167199500Y-139495544D01*
X167199500Y-146175500D01*
X167179815Y-146242539D01*
X167127011Y-146288294D01*
X167075500Y-146299500D01*
X140220757Y-146299500D01*
X140153718Y-146279815D01*
X140107963Y-146227011D01*
X140096759Y-146176144D01*
X140091428Y-145150000D01*
X140089079Y-144697844D01*
X159450000Y-144697844D01*
X159456401Y-144757372D01*
X159456403Y-144757379D01*
X159506645Y-144892086D01*
X159506649Y-144892093D01*
X159592809Y-145007187D01*
X159592812Y-145007190D01*
X159707906Y-145093350D01*
X159707913Y-145093354D01*
X159842620Y-145143596D01*
X159842627Y-145143598D01*
X159902155Y-145149999D01*
X159902172Y-145150000D01*
X161000000Y-145150000D01*
X162000000Y-145150000D01*
X163097828Y-145150000D01*
X163097844Y-145149999D01*
X163157372Y-145143598D01*
X163157379Y-145143596D01*
X163292086Y-145093354D01*
X163292093Y-145093350D01*
X163407187Y-145007190D01*
X163407190Y-145007187D01*
X163493350Y-144892093D01*
X163493354Y-144892086D01*
X163543596Y-144757379D01*
X163543598Y-144757372D01*
X163549999Y-144697844D01*
X163550000Y-144697827D01*
X163550000Y-144500000D01*
X162000000Y-144500000D01*
X162000000Y-145150000D01*
X161000000Y-145150000D01*
X161000000Y-144500000D01*
X159450000Y-144500000D01*
X159450000Y-144697844D01*
X140089079Y-144697844D01*
X140085044Y-143921009D01*
X160900000Y-143921009D01*
X160900000Y-144078991D01*
X160940889Y-144231591D01*
X161019881Y-144368408D01*
X161131592Y-144480119D01*
X161268409Y-144559111D01*
X161421009Y-144600000D01*
X161578991Y-144600000D01*
X161731591Y-144559111D01*
X161868408Y-144480119D01*
X161980119Y-144368408D01*
X162059111Y-144231591D01*
X162100000Y-144078991D01*
X162100000Y-143921009D01*
X162059111Y-143768409D01*
X161980119Y-143631592D01*
X161868408Y-143519881D01*
X161833973Y-143500000D01*
X162000000Y-143500000D01*
X163550000Y-143500000D01*
X163550000Y-143302172D01*
X163549999Y-143302155D01*
X163543598Y-143242627D01*
X163543596Y-143242620D01*
X163493354Y-143107913D01*
X163493350Y-143107906D01*
X163407190Y-142992812D01*
X163407187Y-142992809D01*
X163292093Y-142906649D01*
X163292086Y-142906645D01*
X163157379Y-142856403D01*
X163157372Y-142856401D01*
X163097844Y-142850000D01*
X162000000Y-142850000D01*
X162000000Y-143500000D01*
X161833973Y-143500000D01*
X161731591Y-143440889D01*
X161578991Y-143400000D01*
X161421009Y-143400000D01*
X161268409Y-143440889D01*
X161131592Y-143519881D01*
X161019881Y-143631592D01*
X160940889Y-143768409D01*
X160900000Y-143921009D01*
X140085044Y-143921009D01*
X140081829Y-143302155D01*
X159450000Y-143302155D01*
X159450000Y-143500000D01*
X161000000Y-143500000D01*
X161000000Y-142850000D01*
X159902155Y-142850000D01*
X159842627Y-142856401D01*
X159842620Y-142856403D01*
X159707913Y-142906645D01*
X159707906Y-142906649D01*
X159592812Y-142992809D01*
X159592809Y-142992812D01*
X159506649Y-143107906D01*
X159506645Y-143107913D01*
X159456403Y-143242620D01*
X159456401Y-143242627D01*
X159450000Y-143302155D01*
X140081829Y-143302155D01*
X140063245Y-139724628D01*
X145900000Y-139724628D01*
X145914503Y-139797540D01*
X145914505Y-139797544D01*
X145969760Y-139880239D01*
X146052455Y-139935494D01*
X146052459Y-139935496D01*
X146125371Y-139949999D01*
X146125374Y-139950000D01*
X146500000Y-139950000D01*
X147400000Y-139950000D01*
X147774626Y-139950000D01*
X147774628Y-139949999D01*
X147847540Y-139935496D01*
X147847544Y-139935494D01*
X147930239Y-139880239D01*
X147967397Y-139824628D01*
X155500000Y-139824628D01*
X155514503Y-139897540D01*
X155514505Y-139897544D01*
X155569760Y-139980239D01*
X155652455Y-140035494D01*
X155652459Y-140035496D01*
X155725371Y-140049999D01*
X155725374Y-140050000D01*
X156100000Y-140050000D01*
X157000000Y-140050000D01*
X157374626Y-140050000D01*
X157374628Y-140049999D01*
X157447540Y-140035496D01*
X157447544Y-140035494D01*
X157530239Y-139980239D01*
X157585494Y-139897544D01*
X157585496Y-139897540D01*
X157599999Y-139824628D01*
X157600000Y-139824626D01*
X157600000Y-139800000D01*
X157000000Y-139800000D01*
X157000000Y-140050000D01*
X156100000Y-140050000D01*
X156100000Y-139800000D01*
X155500000Y-139800000D01*
X155500000Y-139824628D01*
X147967397Y-139824628D01*
X147985494Y-139797544D01*
X147985496Y-139797540D01*
X147999999Y-139724628D01*
X148000000Y-139724626D01*
X148000000Y-139700000D01*
X147400000Y-139700000D01*
X147400000Y-139950000D01*
X146500000Y-139950000D01*
X146500000Y-139700000D01*
X145900000Y-139700000D01*
X145900000Y-139724628D01*
X140063245Y-139724628D01*
X140060650Y-139225136D01*
X146325000Y-139225136D01*
X146325000Y-139274864D01*
X146344030Y-139320807D01*
X146379193Y-139355970D01*
X146425136Y-139375000D01*
X146474864Y-139375000D01*
X146520807Y-139355970D01*
X146555970Y-139320807D01*
X146575000Y-139274864D01*
X146575000Y-139225136D01*
X147325000Y-139225136D01*
X147325000Y-139274864D01*
X147344030Y-139320807D01*
X147379193Y-139355970D01*
X147425136Y-139375000D01*
X147474864Y-139375000D01*
X147520807Y-139355970D01*
X147551641Y-139325136D01*
X155925000Y-139325136D01*
X155925000Y-139374864D01*
X155944030Y-139420807D01*
X155979193Y-139455970D01*
X156025136Y-139475000D01*
X156074864Y-139475000D01*
X156120807Y-139455970D01*
X156155970Y-139420807D01*
X156175000Y-139374864D01*
X156175000Y-139325136D01*
X156925000Y-139325136D01*
X156925000Y-139374864D01*
X156944030Y-139420807D01*
X156979193Y-139455970D01*
X157025136Y-139475000D01*
X157074864Y-139475000D01*
X157120807Y-139455970D01*
X157155970Y-139420807D01*
X157175000Y-139374864D01*
X157175000Y-139325136D01*
X157155970Y-139279193D01*
X157120807Y-139244030D01*
X157074864Y-139225000D01*
X157025136Y-139225000D01*
X156979193Y-139244030D01*
X156944030Y-139279193D01*
X156925000Y-139325136D01*
X156175000Y-139325136D01*
X156155970Y-139279193D01*
X156120807Y-139244030D01*
X156074864Y-139225000D01*
X156025136Y-139225000D01*
X155979193Y-139244030D01*
X155944030Y-139279193D01*
X155925000Y-139325136D01*
X147551641Y-139325136D01*
X147555970Y-139320807D01*
X147575000Y-139274864D01*
X147575000Y-139225136D01*
X147555970Y-139179193D01*
X147520807Y-139144030D01*
X147474864Y-139125000D01*
X147425136Y-139125000D01*
X147379193Y-139144030D01*
X147344030Y-139179193D01*
X147325000Y-139225136D01*
X146575000Y-139225136D01*
X146555970Y-139179193D01*
X146520807Y-139144030D01*
X146474864Y-139125000D01*
X146425136Y-139125000D01*
X146379193Y-139144030D01*
X146344030Y-139179193D01*
X146325000Y-139225136D01*
X140060650Y-139225136D01*
X140058833Y-138875371D01*
X155500000Y-138875371D01*
X155500000Y-138900000D01*
X156100000Y-138900000D01*
X157000000Y-138900000D01*
X157600000Y-138900000D01*
X157600000Y-138875373D01*
X157599999Y-138875371D01*
X157585496Y-138802459D01*
X157585494Y-138802455D01*
X157530239Y-138719760D01*
X157447544Y-138664505D01*
X157447540Y-138664503D01*
X157374627Y-138650000D01*
X157000000Y-138650000D01*
X157000000Y-138900000D01*
X156100000Y-138900000D01*
X156100000Y-138650000D01*
X155725373Y-138650000D01*
X155652459Y-138664503D01*
X155652455Y-138664505D01*
X155569760Y-138719760D01*
X155514505Y-138802455D01*
X155514503Y-138802459D01*
X155500000Y-138875371D01*
X140058833Y-138875371D01*
X140058314Y-138775371D01*
X145900000Y-138775371D01*
X145900000Y-138800000D01*
X146500000Y-138800000D01*
X147400000Y-138800000D01*
X148000000Y-138800000D01*
X148000000Y-138775373D01*
X147999999Y-138775371D01*
X147985496Y-138702459D01*
X147985494Y-138702455D01*
X147930239Y-138619760D01*
X147847544Y-138564505D01*
X147847540Y-138564503D01*
X147774627Y-138550000D01*
X147400000Y-138550000D01*
X147400000Y-138800000D01*
X146500000Y-138800000D01*
X146500000Y-138550000D01*
X146125373Y-138550000D01*
X146052459Y-138564503D01*
X146052455Y-138564505D01*
X145969760Y-138619760D01*
X145914505Y-138702455D01*
X145914503Y-138702459D01*
X145900000Y-138775371D01*
X140058314Y-138775371D01*
X140045400Y-136289448D01*
X159449500Y-136289448D01*
X159449500Y-136470551D01*
X159477829Y-136649410D01*
X159533787Y-136821636D01*
X159533788Y-136821639D01*
X159616006Y-136982997D01*
X159722441Y-137129494D01*
X159722445Y-137129499D01*
X159850500Y-137257554D01*
X159850505Y-137257558D01*
X159978287Y-137350396D01*
X159997006Y-137363996D01*
X160102484Y-137417740D01*
X160158360Y-137446211D01*
X160158363Y-137446212D01*
X160244476Y-137474191D01*
X160330591Y-137502171D01*
X160413429Y-137515291D01*
X160509449Y-137530500D01*
X160509454Y-137530500D01*
X162490551Y-137530500D01*
X162577259Y-137516765D01*
X162669409Y-137502171D01*
X162841639Y-137446211D01*
X163002994Y-137363996D01*
X163149501Y-137257553D01*
X163277553Y-137129501D01*
X163383996Y-136982994D01*
X163466211Y-136821639D01*
X163522171Y-136649409D01*
X163536765Y-136557259D01*
X163550500Y-136470551D01*
X163550500Y-136289448D01*
X163534019Y-136185397D01*
X163522171Y-136110591D01*
X163466211Y-135938361D01*
X163466211Y-135938360D01*
X163437740Y-135882484D01*
X163383996Y-135777006D01*
X163370396Y-135758287D01*
X163277558Y-135630505D01*
X163277554Y-135630500D01*
X163149499Y-135502445D01*
X163149494Y-135502441D01*
X163002997Y-135396006D01*
X163002996Y-135396005D01*
X163002994Y-135396004D01*
X162951300Y-135369664D01*
X162841639Y-135313788D01*
X162841636Y-135313787D01*
X162669410Y-135257829D01*
X162490551Y-135229500D01*
X162490546Y-135229500D01*
X160509454Y-135229500D01*
X160509449Y-135229500D01*
X160330589Y-135257829D01*
X160158363Y-135313787D01*
X160158360Y-135313788D01*
X159997002Y-135396006D01*
X159850505Y-135502441D01*
X159850500Y-135502445D01*
X159722445Y-135630500D01*
X159722441Y-135630505D01*
X159616006Y-135777002D01*
X159533788Y-135938360D01*
X159533787Y-135938363D01*
X159477829Y-136110589D01*
X159449500Y-136289448D01*
X140045400Y-136289448D01*
X140038034Y-134871495D01*
X139956959Y-119264565D01*
X155697198Y-119264565D01*
X155812499Y-119279746D01*
X155812501Y-119279746D01*
X155927800Y-119264565D01*
X157222198Y-119264565D01*
X157337499Y-119279746D01*
X157337501Y-119279746D01*
X157452800Y-119264565D01*
X157452801Y-119264564D01*
X157337501Y-119149264D01*
X157222198Y-119264565D01*
X155927800Y-119264565D01*
X155927801Y-119264564D01*
X155812501Y-119149264D01*
X155697198Y-119264565D01*
X139956959Y-119264565D01*
X139954156Y-118724998D01*
X155257754Y-118724998D01*
X155257754Y-118725000D01*
X155272934Y-118840300D01*
X155388235Y-118724999D01*
X155368345Y-118705109D01*
X155712500Y-118705109D01*
X155712500Y-118744891D01*
X155727724Y-118781645D01*
X155755855Y-118809776D01*
X155792609Y-118825000D01*
X155832391Y-118825000D01*
X155869145Y-118809776D01*
X155897276Y-118781645D01*
X155912500Y-118744891D01*
X155912500Y-118725000D01*
X156236764Y-118725000D01*
X156236764Y-118725001D01*
X156352064Y-118840301D01*
X156352065Y-118840300D01*
X156367246Y-118725000D01*
X156367246Y-118724998D01*
X156782754Y-118724998D01*
X156782754Y-118725000D01*
X156797934Y-118840300D01*
X156913236Y-118724999D01*
X156893346Y-118705109D01*
X157237500Y-118705109D01*
X157237500Y-118744891D01*
X157252724Y-118781645D01*
X157280855Y-118809776D01*
X157317609Y-118825000D01*
X157357391Y-118825000D01*
X157394145Y-118809776D01*
X157422276Y-118781645D01*
X157437500Y-118744891D01*
X157437500Y-118725000D01*
X157761764Y-118725000D01*
X157761764Y-118725001D01*
X157877064Y-118840301D01*
X157877065Y-118840300D01*
X157892245Y-118725000D01*
X157881840Y-118645966D01*
X157889422Y-118597341D01*
X157761764Y-118725000D01*
X157437500Y-118725000D01*
X157437500Y-118705109D01*
X157422276Y-118668355D01*
X157394145Y-118640224D01*
X157357391Y-118625000D01*
X157317609Y-118625000D01*
X157280855Y-118640224D01*
X157252724Y-118668355D01*
X157237500Y-118705109D01*
X156893346Y-118705109D01*
X156784343Y-118596106D01*
X156794211Y-118631253D01*
X156793159Y-118645964D01*
X156782754Y-118724998D01*
X156367246Y-118724998D01*
X156356840Y-118645966D01*
X156364422Y-118597341D01*
X156236764Y-118725000D01*
X155912500Y-118725000D01*
X155912500Y-118705109D01*
X155897276Y-118668355D01*
X155869145Y-118640224D01*
X155832391Y-118625000D01*
X155792609Y-118625000D01*
X155755855Y-118640224D01*
X155727724Y-118668355D01*
X155712500Y-118705109D01*
X155368345Y-118705109D01*
X155259343Y-118596106D01*
X155269211Y-118631253D01*
X155268159Y-118645964D01*
X155257754Y-118724998D01*
X139954156Y-118724998D01*
X139952998Y-118502065D01*
X154934698Y-118502065D01*
X155049999Y-118517245D01*
X155062084Y-118515654D01*
X156446108Y-118515654D01*
X156481253Y-118505788D01*
X156495966Y-118506840D01*
X156574999Y-118517245D01*
X156587084Y-118515654D01*
X157971108Y-118515654D01*
X158006253Y-118505788D01*
X158020966Y-118506840D01*
X158100000Y-118517245D01*
X158215300Y-118502065D01*
X158215301Y-118502064D01*
X158100001Y-118386764D01*
X157971108Y-118515654D01*
X156587084Y-118515654D01*
X156654033Y-118506840D01*
X156702659Y-118514422D01*
X156575001Y-118386764D01*
X156446108Y-118515654D01*
X155062084Y-118515654D01*
X155129033Y-118506840D01*
X155177659Y-118514422D01*
X155050001Y-118386764D01*
X154934698Y-118502065D01*
X139952998Y-118502065D01*
X139950195Y-117962500D01*
X154495254Y-117962500D01*
X154510434Y-118077800D01*
X154625735Y-117962499D01*
X154605845Y-117942609D01*
X154950000Y-117942609D01*
X154950000Y-117982391D01*
X154965224Y-118019145D01*
X154993355Y-118047276D01*
X155030109Y-118062500D01*
X155069891Y-118062500D01*
X155106645Y-118047276D01*
X155134776Y-118019145D01*
X155150000Y-117982391D01*
X155150000Y-117962500D01*
X155474264Y-117962500D01*
X155474264Y-117962501D01*
X155644088Y-118132325D01*
X155812499Y-118300735D01*
X156150735Y-117962499D01*
X156130845Y-117942609D01*
X156475000Y-117942609D01*
X156475000Y-117982391D01*
X156490224Y-118019145D01*
X156518355Y-118047276D01*
X156555109Y-118062500D01*
X156594891Y-118062500D01*
X156631645Y-118047276D01*
X156659776Y-118019145D01*
X156675000Y-117982391D01*
X156675000Y-117962500D01*
X156999264Y-117962500D01*
X156999264Y-117962501D01*
X157169088Y-118132325D01*
X157337499Y-118300735D01*
X157675735Y-117962499D01*
X157655845Y-117942609D01*
X158000000Y-117942609D01*
X158000000Y-117982391D01*
X158015224Y-118019145D01*
X158043355Y-118047276D01*
X158080109Y-118062500D01*
X158119891Y-118062500D01*
X158156645Y-118047276D01*
X158184776Y-118019145D01*
X158200000Y-117982391D01*
X158200000Y-117962500D01*
X158524264Y-117962500D01*
X158524264Y-117962501D01*
X158639564Y-118077801D01*
X158639565Y-118077800D01*
X158654746Y-117962500D01*
X158654746Y-117962499D01*
X158639565Y-117847198D01*
X158524264Y-117962500D01*
X158200000Y-117962500D01*
X158200000Y-117942609D01*
X158184776Y-117905855D01*
X158156645Y-117877724D01*
X158119891Y-117862500D01*
X158080109Y-117862500D01*
X158043355Y-117877724D01*
X158015224Y-117905855D01*
X158000000Y-117942609D01*
X157655845Y-117942609D01*
X157505911Y-117792674D01*
X157337501Y-117624264D01*
X157169088Y-117792675D01*
X156999264Y-117962500D01*
X156675000Y-117962500D01*
X156675000Y-117942609D01*
X156659776Y-117905855D01*
X156631645Y-117877724D01*
X156594891Y-117862500D01*
X156555109Y-117862500D01*
X156518355Y-117877724D01*
X156490224Y-117905855D01*
X156475000Y-117942609D01*
X156130845Y-117942609D01*
X155980911Y-117792674D01*
X155812501Y-117624264D01*
X155644088Y-117792675D01*
X155474264Y-117962500D01*
X155150000Y-117962500D01*
X155150000Y-117942609D01*
X155134776Y-117905855D01*
X155106645Y-117877724D01*
X155069891Y-117862500D01*
X155030109Y-117862500D01*
X154993355Y-117877724D01*
X154965224Y-117905855D01*
X154950000Y-117942609D01*
X154605845Y-117942609D01*
X154510434Y-117847197D01*
X154495254Y-117962500D01*
X139950195Y-117962500D01*
X139947392Y-117422934D01*
X154934697Y-117422934D01*
X155049999Y-117538235D01*
X155178889Y-117409344D01*
X155143745Y-117419211D01*
X155129035Y-117418159D01*
X155050002Y-117407754D01*
X155050000Y-117407754D01*
X154934697Y-117422934D01*
X139947392Y-117422934D01*
X139946234Y-117199998D01*
X155257754Y-117199998D01*
X155257754Y-117200002D01*
X155268159Y-117279035D01*
X155260576Y-117327658D01*
X155388235Y-117199999D01*
X155368345Y-117180109D01*
X155712500Y-117180109D01*
X155712500Y-117219891D01*
X155727724Y-117256645D01*
X155755855Y-117284776D01*
X155792609Y-117300000D01*
X155832391Y-117300000D01*
X155869145Y-117284776D01*
X155897276Y-117256645D01*
X155912500Y-117219891D01*
X155912500Y-117200000D01*
X156236764Y-117200000D01*
X156236764Y-117200001D01*
X156406588Y-117369825D01*
X156574999Y-117538235D01*
X156702659Y-117410575D01*
X157972339Y-117410575D01*
X158099999Y-117538235D01*
X158215300Y-117422934D01*
X158100001Y-117407754D01*
X158099999Y-117407754D01*
X158020964Y-117418159D01*
X157972339Y-117410575D01*
X156702659Y-117410575D01*
X156913235Y-117199999D01*
X156893345Y-117180109D01*
X157237500Y-117180109D01*
X157237500Y-117219891D01*
X157252724Y-117256645D01*
X157280855Y-117284776D01*
X157317609Y-117300000D01*
X157357391Y-117300000D01*
X157394145Y-117284776D01*
X157422276Y-117256645D01*
X157437500Y-117219891D01*
X157437500Y-117200000D01*
X157761764Y-117200000D01*
X157761764Y-117200001D01*
X157890655Y-117328892D01*
X157880788Y-117293744D01*
X157881840Y-117279033D01*
X157892245Y-117199999D01*
X157881840Y-117120966D01*
X157889422Y-117072341D01*
X157761764Y-117200000D01*
X157437500Y-117200000D01*
X157437500Y-117180109D01*
X157422276Y-117143355D01*
X157394145Y-117115224D01*
X157357391Y-117100000D01*
X157317609Y-117100000D01*
X157280855Y-117115224D01*
X157252724Y-117143355D01*
X157237500Y-117180109D01*
X156893345Y-117180109D01*
X156743411Y-117030174D01*
X156703891Y-116990654D01*
X157971108Y-116990654D01*
X158006253Y-116980788D01*
X158020966Y-116981840D01*
X158100000Y-116992245D01*
X158215300Y-116977065D01*
X158215301Y-116977064D01*
X158100001Y-116861764D01*
X157971108Y-116990654D01*
X156703891Y-116990654D01*
X156575001Y-116861764D01*
X156406588Y-117030175D01*
X156236764Y-117200000D01*
X155912500Y-117200000D01*
X155912500Y-117180109D01*
X155897276Y-117143355D01*
X155869145Y-117115224D01*
X155832391Y-117100000D01*
X155792609Y-117100000D01*
X155755855Y-117115224D01*
X155727724Y-117143355D01*
X155712500Y-117180109D01*
X155368345Y-117180109D01*
X155259343Y-117071106D01*
X155269211Y-117106253D01*
X155268159Y-117120964D01*
X155257754Y-117199998D01*
X139946234Y-117199998D01*
X139945076Y-116977065D01*
X154934698Y-116977065D01*
X155049999Y-116992245D01*
X155129033Y-116981840D01*
X155177659Y-116989422D01*
X155050001Y-116861764D01*
X154934698Y-116977065D01*
X139945076Y-116977065D01*
X139942273Y-116437500D01*
X154495254Y-116437500D01*
X154510434Y-116552800D01*
X154625735Y-116437499D01*
X154605845Y-116417609D01*
X154950000Y-116417609D01*
X154950000Y-116457391D01*
X154965224Y-116494145D01*
X154993355Y-116522276D01*
X155030109Y-116537500D01*
X155069891Y-116537500D01*
X155106645Y-116522276D01*
X155134776Y-116494145D01*
X155150000Y-116457391D01*
X155150000Y-116437500D01*
X155474264Y-116437500D01*
X155474264Y-116437501D01*
X155644088Y-116607325D01*
X155812499Y-116775735D01*
X156150735Y-116437499D01*
X156130845Y-116417609D01*
X156475000Y-116417609D01*
X156475000Y-116457391D01*
X156490224Y-116494145D01*
X156518355Y-116522276D01*
X156555109Y-116537500D01*
X156594891Y-116537500D01*
X156631645Y-116522276D01*
X156659776Y-116494145D01*
X156675000Y-116457391D01*
X156675000Y-116437500D01*
X156999264Y-116437500D01*
X156999264Y-116437501D01*
X157169088Y-116607325D01*
X157337499Y-116775735D01*
X157675735Y-116437499D01*
X157655845Y-116417609D01*
X158000000Y-116417609D01*
X158000000Y-116457391D01*
X158015224Y-116494145D01*
X158043355Y-116522276D01*
X158080109Y-116537500D01*
X158119891Y-116537500D01*
X158156645Y-116522276D01*
X158184776Y-116494145D01*
X158200000Y-116457391D01*
X158200000Y-116437500D01*
X158524264Y-116437500D01*
X158524264Y-116437501D01*
X158639564Y-116552801D01*
X158639565Y-116552800D01*
X158654746Y-116437500D01*
X158654746Y-116437499D01*
X158639565Y-116322198D01*
X158524264Y-116437500D01*
X158200000Y-116437500D01*
X158200000Y-116417609D01*
X158184776Y-116380855D01*
X158156645Y-116352724D01*
X158119891Y-116337500D01*
X158080109Y-116337500D01*
X158043355Y-116352724D01*
X158015224Y-116380855D01*
X158000000Y-116417609D01*
X157655845Y-116417609D01*
X157505911Y-116267674D01*
X157337501Y-116099264D01*
X157169088Y-116267675D01*
X156999264Y-116437500D01*
X156675000Y-116437500D01*
X156675000Y-116417609D01*
X156659776Y-116380855D01*
X156631645Y-116352724D01*
X156594891Y-116337500D01*
X156555109Y-116337500D01*
X156518355Y-116352724D01*
X156490224Y-116380855D01*
X156475000Y-116417609D01*
X156130845Y-116417609D01*
X155980911Y-116267674D01*
X155812501Y-116099264D01*
X155644088Y-116267675D01*
X155474264Y-116437500D01*
X155150000Y-116437500D01*
X155150000Y-116417609D01*
X155134776Y-116380855D01*
X155106645Y-116352724D01*
X155069891Y-116337500D01*
X155030109Y-116337500D01*
X154993355Y-116352724D01*
X154965224Y-116380855D01*
X154950000Y-116417609D01*
X154605845Y-116417609D01*
X154510434Y-116322197D01*
X154495254Y-116437500D01*
X139942273Y-116437500D01*
X139939470Y-115897934D01*
X154934697Y-115897934D01*
X155049999Y-116013235D01*
X155177658Y-115885575D01*
X156447339Y-115885575D01*
X156574999Y-116013235D01*
X156702658Y-115885575D01*
X157972339Y-115885575D01*
X158099999Y-116013235D01*
X158215300Y-115897934D01*
X158100001Y-115882754D01*
X158099999Y-115882754D01*
X158020964Y-115893159D01*
X157972339Y-115885575D01*
X156702658Y-115885575D01*
X156703889Y-115884344D01*
X156668745Y-115894211D01*
X156654035Y-115893159D01*
X156575002Y-115882754D01*
X156574999Y-115882754D01*
X156495964Y-115893159D01*
X156447339Y-115885575D01*
X155177658Y-115885575D01*
X155178889Y-115884344D01*
X155143745Y-115894211D01*
X155129035Y-115893159D01*
X155050002Y-115882754D01*
X155050000Y-115882754D01*
X154934697Y-115897934D01*
X139939470Y-115897934D01*
X139938312Y-115675000D01*
X155257754Y-115675000D01*
X155257754Y-115675002D01*
X155268159Y-115754035D01*
X155260576Y-115802658D01*
X155388235Y-115674999D01*
X155368345Y-115655109D01*
X155712500Y-115655109D01*
X155712500Y-115694891D01*
X155727724Y-115731645D01*
X155755855Y-115759776D01*
X155792609Y-115775000D01*
X155832391Y-115775000D01*
X155869145Y-115759776D01*
X155897276Y-115731645D01*
X155912500Y-115694891D01*
X155912500Y-115675000D01*
X156236764Y-115675000D01*
X156236764Y-115675001D01*
X156365655Y-115803892D01*
X156355788Y-115768744D01*
X156356840Y-115754033D01*
X156367245Y-115675000D01*
X156782754Y-115675000D01*
X156782754Y-115675002D01*
X156793159Y-115754035D01*
X156785576Y-115802658D01*
X156913235Y-115674999D01*
X156893345Y-115655109D01*
X157237500Y-115655109D01*
X157237500Y-115694891D01*
X157252724Y-115731645D01*
X157280855Y-115759776D01*
X157317609Y-115775000D01*
X157357391Y-115775000D01*
X157394145Y-115759776D01*
X157422276Y-115731645D01*
X157437500Y-115694891D01*
X157437500Y-115675000D01*
X157761764Y-115675000D01*
X157761764Y-115675001D01*
X157890655Y-115803892D01*
X157880788Y-115768744D01*
X157881840Y-115754033D01*
X157892245Y-115674999D01*
X157877065Y-115559698D01*
X157761764Y-115675000D01*
X157437500Y-115675000D01*
X157437500Y-115655109D01*
X157422276Y-115618355D01*
X157394145Y-115590224D01*
X157357391Y-115575000D01*
X157317609Y-115575000D01*
X157280855Y-115590224D01*
X157252724Y-115618355D01*
X157237500Y-115655109D01*
X156893345Y-115655109D01*
X156797934Y-115559697D01*
X156782754Y-115675000D01*
X156367245Y-115675000D01*
X156367245Y-115674999D01*
X156352065Y-115559698D01*
X156236764Y-115675000D01*
X155912500Y-115675000D01*
X155912500Y-115655109D01*
X155897276Y-115618355D01*
X155869145Y-115590224D01*
X155832391Y-115575000D01*
X155792609Y-115575000D01*
X155755855Y-115590224D01*
X155727724Y-115618355D01*
X155712500Y-115655109D01*
X155368345Y-115655109D01*
X155272934Y-115559697D01*
X155257754Y-115675000D01*
X139938312Y-115675000D01*
X139935509Y-115135434D01*
X155697197Y-115135434D01*
X155812499Y-115250735D01*
X155927800Y-115135434D01*
X157222197Y-115135434D01*
X157337499Y-115250735D01*
X157452800Y-115135434D01*
X157337501Y-115120254D01*
X157337500Y-115120254D01*
X157222197Y-115135434D01*
X155927800Y-115135434D01*
X155812501Y-115120254D01*
X155812500Y-115120254D01*
X155697197Y-115135434D01*
X139935509Y-115135434D01*
X139903248Y-108925144D01*
X139922584Y-108858003D01*
X139975149Y-108811975D01*
X140027246Y-108800500D01*
X167075500Y-108800500D01*
X167142539Y-108820185D01*
G37*
%TD.AperFunction*%
%TD*%
M02*
