%TF.GenerationSoftware,KiCad,Pcbnew,8.0.6*%
%TF.CreationDate,2025-02-11T20:42:11+01:00*%
%TF.ProjectId,KWLcontrol,4b574c63-6f6e-4747-926f-6c2e6b696361,rev?*%
%TF.SameCoordinates,Original*%
%TF.FileFunction,Paste,Top*%
%TF.FilePolarity,Positive*%
%FSLAX46Y46*%
G04 Gerber Fmt 4.6, Leading zero omitted, Abs format (unit mm)*
G04 Created by KiCad (PCBNEW 8.0.6) date 2025-02-11 20:42:11*
%MOMM*%
%LPD*%
G01*
G04 APERTURE LIST*
G04 Aperture macros list*
%AMRoundRect*
0 Rectangle with rounded corners*
0 $1 Rounding radius*
0 $2 $3 $4 $5 $6 $7 $8 $9 X,Y pos of 4 corners*
0 Add a 4 corners polygon primitive as box body*
4,1,4,$2,$3,$4,$5,$6,$7,$8,$9,$2,$3,0*
0 Add four circle primitives for the rounded corners*
1,1,$1+$1,$2,$3*
1,1,$1+$1,$4,$5*
1,1,$1+$1,$6,$7*
1,1,$1+$1,$8,$9*
0 Add four rect primitives between the rounded corners*
20,1,$1+$1,$2,$3,$4,$5,0*
20,1,$1+$1,$4,$5,$6,$7,0*
20,1,$1+$1,$6,$7,$8,$9,0*
20,1,$1+$1,$8,$9,$2,$3,0*%
G04 Aperture macros list end*
%ADD10R,2.030000X1.500000*%
%ADD11RoundRect,0.250000X-0.450000X0.350000X-0.450000X-0.350000X0.450000X-0.350000X0.450000X0.350000X0*%
%ADD12RoundRect,0.237500X-0.237500X0.287500X-0.237500X-0.287500X0.237500X-0.287500X0.237500X0.287500X0*%
%ADD13RoundRect,0.250000X-0.475000X0.337500X-0.475000X-0.337500X0.475000X-0.337500X0.475000X0.337500X0*%
%ADD14RoundRect,0.237500X0.237500X-0.300000X0.237500X0.300000X-0.237500X0.300000X-0.237500X-0.300000X0*%
%ADD15RoundRect,0.237500X0.237500X-0.287500X0.237500X0.287500X-0.237500X0.287500X-0.237500X-0.287500X0*%
%ADD16RoundRect,0.250000X0.475000X-0.337500X0.475000X0.337500X-0.475000X0.337500X-0.475000X-0.337500X0*%
%ADD17R,0.650000X0.750000*%
%ADD18RoundRect,0.062500X0.062500X-0.187500X0.062500X0.187500X-0.062500X0.187500X-0.062500X-0.187500X0*%
%ADD19RoundRect,0.237500X0.237500X-0.250000X0.237500X0.250000X-0.237500X0.250000X-0.237500X-0.250000X0*%
%ADD20RoundRect,0.250000X0.450000X-0.325000X0.450000X0.325000X-0.450000X0.325000X-0.450000X-0.325000X0*%
%ADD21RoundRect,0.150000X0.512500X0.150000X-0.512500X0.150000X-0.512500X-0.150000X0.512500X-0.150000X0*%
%ADD22R,1.500000X0.900000*%
%ADD23R,0.900000X1.500000*%
%ADD24R,1.050000X1.050000*%
G04 APERTURE END LIST*
D10*
%TO.C,PS1*%
X113650000Y-112260000D03*
X113650000Y-117340000D03*
X113650000Y-122420000D03*
X113650000Y-135120000D03*
X113650000Y-137660000D03*
X113650000Y-140200000D03*
X113650000Y-142740000D03*
X142350000Y-142740000D03*
X142350000Y-140200000D03*
X142350000Y-137660000D03*
X142350000Y-135120000D03*
X142350000Y-122420000D03*
X142350000Y-117340000D03*
X142350000Y-112260000D03*
%TD*%
D11*
%TO.C,R1*%
X153036000Y-133550000D03*
X153036000Y-135550000D03*
%TD*%
D12*
%TO.C,D4*%
X146500000Y-122400000D03*
X146500000Y-124150000D03*
%TD*%
D13*
%TO.C,C2*%
X150564000Y-133512500D03*
X150564000Y-135587500D03*
%TD*%
D14*
%TO.C,C3*%
X144800000Y-111162500D03*
X144800000Y-109437500D03*
%TD*%
D15*
%TO.C,D1*%
X153036000Y-139927500D03*
X153036000Y-138177500D03*
%TD*%
D11*
%TO.C,R2*%
X145650000Y-133550000D03*
X145650000Y-135550000D03*
%TD*%
D16*
%TO.C,C5*%
X145680000Y-144637500D03*
X145680000Y-142562500D03*
%TD*%
D17*
%TO.C,U2*%
X146550000Y-139250000D03*
X147350000Y-139250000D03*
D18*
X146200000Y-140200000D03*
X146700000Y-140200000D03*
X147200000Y-140200000D03*
X147700000Y-140200000D03*
X147700000Y-138300000D03*
X147200000Y-138300000D03*
X146700000Y-138300000D03*
X146200000Y-138300000D03*
%TD*%
D19*
%TO.C,R6*%
X153100000Y-131500000D03*
X153100000Y-129675000D03*
%TD*%
D16*
%TO.C,C8*%
X157980000Y-144637500D03*
X157980000Y-142562500D03*
%TD*%
D19*
%TO.C,R4*%
X146600000Y-115025000D03*
X146600000Y-113200000D03*
%TD*%
D16*
%TO.C,C6*%
X148140000Y-144637500D03*
X148140000Y-142562500D03*
%TD*%
D17*
%TO.C,U3*%
X156150000Y-139350000D03*
X156950000Y-139350000D03*
D18*
X155800000Y-140300000D03*
X156300000Y-140300000D03*
X156800000Y-140300000D03*
X157300000Y-140300000D03*
X157300000Y-138400000D03*
X156800000Y-138400000D03*
X156300000Y-138400000D03*
X155800000Y-138400000D03*
%TD*%
D16*
%TO.C,C10*%
X153060000Y-144637500D03*
X153060000Y-142562500D03*
%TD*%
D20*
%TO.C,L2*%
X148092000Y-135575000D03*
X148092000Y-133525000D03*
%TD*%
D14*
%TO.C,C9*%
X146600000Y-118625000D03*
X146600000Y-116900000D03*
%TD*%
D19*
%TO.C,R5*%
X150564000Y-139987500D03*
X150564000Y-138162500D03*
%TD*%
D20*
%TO.C,L1*%
X155478000Y-135575000D03*
X155478000Y-133525000D03*
%TD*%
D16*
%TO.C,C11*%
X155520000Y-144637500D03*
X155520000Y-142562500D03*
%TD*%
D21*
%TO.C,U4*%
X158100000Y-131750000D03*
X158100000Y-130800000D03*
X158100000Y-129850000D03*
X155825000Y-129850000D03*
X155825000Y-130800000D03*
X155825000Y-131750000D03*
%TD*%
D14*
%TO.C,C4*%
X146600000Y-111162500D03*
X146600000Y-109437500D03*
%TD*%
D19*
%TO.C,R7*%
X148100000Y-131600000D03*
X148100000Y-129775000D03*
%TD*%
D15*
%TO.C,D2*%
X150600000Y-131500000D03*
X150600000Y-129750000D03*
%TD*%
D16*
%TO.C,C7*%
X150600000Y-144637500D03*
X150600000Y-142562500D03*
%TD*%
D19*
%TO.C,R8*%
X146500000Y-127900000D03*
X146500000Y-126075000D03*
%TD*%
D15*
%TO.C,D3*%
X145700000Y-131500000D03*
X145700000Y-129750000D03*
%TD*%
D11*
%TO.C,R3*%
X166000000Y-130130000D03*
X166000000Y-132130000D03*
%TD*%
D13*
%TO.C,C1*%
X157950000Y-133512500D03*
X157950000Y-135587500D03*
%TD*%
D22*
%TO.C,U1*%
X148505000Y-109860000D03*
X148505000Y-111130000D03*
X148505000Y-112400000D03*
X148505000Y-113670000D03*
X148505000Y-114940000D03*
X148505000Y-116210000D03*
X148505000Y-117480000D03*
X148505000Y-118750000D03*
X148505000Y-120020000D03*
X148505000Y-121290000D03*
X148505000Y-122560000D03*
X148505000Y-123830000D03*
X148505000Y-125100000D03*
X148505000Y-126370000D03*
D23*
X151545000Y-127620000D03*
X152815000Y-127620000D03*
X154085000Y-127620000D03*
X155355000Y-127620000D03*
X156625000Y-127620000D03*
X157895000Y-127620000D03*
X159165000Y-127620000D03*
X160435000Y-127620000D03*
D22*
X166005000Y-126370000D03*
X166005000Y-125100000D03*
X166005000Y-123830000D03*
X166005000Y-122560000D03*
X166005000Y-121290000D03*
X166005000Y-120020000D03*
X166005000Y-118750000D03*
X166005000Y-117480000D03*
X166005000Y-116210000D03*
X166005000Y-114940000D03*
X166005000Y-113670000D03*
X166005000Y-112400000D03*
X166005000Y-111130000D03*
X166005000Y-109860000D03*
D24*
X155050000Y-115675000D03*
X155050000Y-117200000D03*
X155050000Y-118725000D03*
X156575000Y-115675000D03*
X156575000Y-117200000D03*
X156575000Y-118725000D03*
X158100000Y-115675000D03*
X158100000Y-117200000D03*
X158100000Y-118725000D03*
%TD*%
M02*
