%TF.GenerationSoftware,KiCad,Pcbnew,8.0.6*%
%TF.CreationDate,2025-02-11T20:42:43+01:00*%
%TF.ProjectId,KWLcontrol,4b574c63-6f6e-4747-926f-6c2e6b696361,rev?*%
%TF.SameCoordinates,Original*%
%TF.FileFunction,Drillmap*%
%TF.FilePolarity,Positive*%
%FSLAX45Y45*%
G04 Gerber Fmt 4.5, Leading zero omitted, Abs format (unit mm)*
G04 Created by KiCad (PCBNEW 8.0.6) date 2025-02-11 20:42:43*
%MOMM*%
%LPD*%
G01*
G04 APERTURE LIST*
%ADD10C,0.050000*%
%ADD11C,0.200000*%
%ADD12C,0.100000*%
%ADD13C,0.120000*%
G04 APERTURE END LIST*
D10*
X11130000Y-10830000D02*
X16770000Y-10830000D01*
X16770000Y-14680000D01*
X11130000Y-14680000D01*
X11130000Y-10830000D01*
D11*
D12*
X15495000Y-11633750D02*
X15515000Y-11653750D01*
X15515000Y-11633750D02*
X15495000Y-11653750D01*
X15495000Y-11786250D02*
X15515000Y-11806250D01*
X15515000Y-11786250D02*
X15495000Y-11806250D01*
X15571250Y-11557500D02*
X15591250Y-11577500D01*
X15591250Y-11557500D02*
X15571250Y-11577500D01*
X15571250Y-11710000D02*
X15591250Y-11730000D01*
X15591250Y-11710000D02*
X15571250Y-11730000D01*
X15571250Y-11862500D02*
X15591250Y-11882500D01*
X15591250Y-11862500D02*
X15571250Y-11882500D01*
X15647500Y-11633750D02*
X15667500Y-11653750D01*
X15667500Y-11633750D02*
X15647500Y-11653750D01*
X15647500Y-11786250D02*
X15667500Y-11806250D01*
X15667500Y-11786250D02*
X15647500Y-11806250D01*
X15723750Y-11557500D02*
X15743750Y-11577500D01*
X15743750Y-11557500D02*
X15723750Y-11577500D01*
X15723750Y-11710000D02*
X15743750Y-11730000D01*
X15743750Y-11710000D02*
X15723750Y-11730000D01*
X15723750Y-11862500D02*
X15743750Y-11882500D01*
X15743750Y-11862500D02*
X15723750Y-11882500D01*
X15800000Y-11633750D02*
X15820000Y-11653750D01*
X15820000Y-11633750D02*
X15800000Y-11653750D01*
X15800000Y-11786250D02*
X15820000Y-11806250D01*
X15820000Y-11786250D02*
X15800000Y-11806250D01*
X14657500Y-13925000D02*
G75*
G02*
X14632500Y-13925000I-12500J0D01*
G01*
X14632500Y-13925000D02*
G75*
G02*
X14657500Y-13925000I12500J0D01*
G01*
X14757500Y-13925000D02*
G75*
G02*
X14732500Y-13925000I-12500J0D01*
G01*
X14732500Y-13925000D02*
G75*
G02*
X14757500Y-13925000I12500J0D01*
G01*
X15617500Y-13935000D02*
G75*
G02*
X15592500Y-13935000I-12500J0D01*
G01*
X15592500Y-13935000D02*
G75*
G02*
X15617500Y-13935000I12500J0D01*
G01*
X15717500Y-13935000D02*
G75*
G02*
X15692500Y-13935000I-12500J0D01*
G01*
X15692500Y-13935000D02*
G75*
G02*
X15717500Y-13935000I12500J0D01*
G01*
X15430000Y-12965000D02*
X15430000Y-12995000D01*
X15415000Y-12980000D02*
X15445000Y-12980000D01*
X16100678Y-13127678D02*
X16100678Y-13092322D01*
X16065322Y-13092322D01*
X16065322Y-13127678D01*
X16100678Y-13127678D01*
X16200678Y-13127678D02*
X16200678Y-13092322D01*
X16165322Y-13092322D01*
X16165322Y-13127678D01*
X16200678Y-13127678D01*
X16300678Y-13127678D02*
X16300678Y-13092322D01*
X16265322Y-13092322D01*
X16265322Y-13127678D01*
X16300678Y-13127678D01*
X11740000Y-11475000D02*
X11775000Y-11440000D01*
X11740000Y-11405000D01*
X11705000Y-11440000D01*
X11740000Y-11475000D01*
X11740000Y-11775000D02*
X11775000Y-11740000D01*
X11740000Y-11705000D01*
X11705000Y-11740000D01*
X11740000Y-11775000D01*
X11740000Y-12075000D02*
X11775000Y-12040000D01*
X11740000Y-12005000D01*
X11705000Y-12040000D01*
X11740000Y-12075000D01*
X14180000Y-11005000D02*
X14215000Y-10970000D01*
X14180000Y-10935000D01*
X14145000Y-10970000D01*
X14180000Y-11005000D01*
X14240000Y-14535000D02*
X14275000Y-14500000D01*
X14240000Y-14465000D01*
X14205000Y-14500000D01*
X14240000Y-14535000D01*
X14660000Y-12095000D02*
X14695000Y-12060000D01*
X14660000Y-12025000D01*
X14625000Y-12060000D01*
X14660000Y-12095000D01*
X15190000Y-14145000D02*
X15225000Y-14110000D01*
X15190000Y-14075000D01*
X15155000Y-14110000D01*
X15190000Y-14145000D01*
X16380000Y-11025000D02*
X16415000Y-10990000D01*
X16380000Y-10955000D01*
X16345000Y-10990000D01*
X16380000Y-11025000D01*
D13*
X16090000Y-13578000D02*
X16210000Y-13698000D01*
X16210000Y-13578000D02*
X16090000Y-13698000D01*
X16210000Y-13638000D02*
G75*
G02*
X16090000Y-13638000I-60000J0D01*
G01*
X16090000Y-13638000D02*
G75*
G02*
X16210000Y-13638000I60000J0D01*
G01*
X16090000Y-13959000D02*
X16210000Y-14079000D01*
X16210000Y-13959000D02*
X16090000Y-14079000D01*
X16210000Y-14019000D02*
G75*
G02*
X16090000Y-14019000I-60000J0D01*
G01*
X16090000Y-14019000D02*
G75*
G02*
X16210000Y-14019000I60000J0D01*
G01*
X16090000Y-14340000D02*
X16210000Y-14460000D01*
X16210000Y-14340000D02*
X16090000Y-14460000D01*
X16210000Y-14400000D02*
G75*
G02*
X16090000Y-14400000I-60000J0D01*
G01*
X16090000Y-14400000D02*
G75*
G02*
X16210000Y-14400000I60000J0D01*
G01*
D11*
X11388277Y-14993984D02*
X11388277Y-14793984D01*
X11388277Y-14793984D02*
X11435896Y-14793984D01*
X11435896Y-14793984D02*
X11464467Y-14803508D01*
X11464467Y-14803508D02*
X11483515Y-14822555D01*
X11483515Y-14822555D02*
X11493039Y-14841603D01*
X11493039Y-14841603D02*
X11502562Y-14879698D01*
X11502562Y-14879698D02*
X11502562Y-14908269D01*
X11502562Y-14908269D02*
X11493039Y-14946365D01*
X11493039Y-14946365D02*
X11483515Y-14965412D01*
X11483515Y-14965412D02*
X11464467Y-14984460D01*
X11464467Y-14984460D02*
X11435896Y-14993984D01*
X11435896Y-14993984D02*
X11388277Y-14993984D01*
X11588277Y-14993984D02*
X11588277Y-14860650D01*
X11588277Y-14898746D02*
X11597801Y-14879698D01*
X11597801Y-14879698D02*
X11607324Y-14870174D01*
X11607324Y-14870174D02*
X11626372Y-14860650D01*
X11626372Y-14860650D02*
X11645420Y-14860650D01*
X11712086Y-14993984D02*
X11712086Y-14860650D01*
X11712086Y-14793984D02*
X11702562Y-14803508D01*
X11702562Y-14803508D02*
X11712086Y-14813031D01*
X11712086Y-14813031D02*
X11721610Y-14803508D01*
X11721610Y-14803508D02*
X11712086Y-14793984D01*
X11712086Y-14793984D02*
X11712086Y-14813031D01*
X11835896Y-14993984D02*
X11816848Y-14984460D01*
X11816848Y-14984460D02*
X11807324Y-14965412D01*
X11807324Y-14965412D02*
X11807324Y-14793984D01*
X11940658Y-14993984D02*
X11921610Y-14984460D01*
X11921610Y-14984460D02*
X11912086Y-14965412D01*
X11912086Y-14965412D02*
X11912086Y-14793984D01*
X12169229Y-14993984D02*
X12169229Y-14793984D01*
X12169229Y-14793984D02*
X12235896Y-14936841D01*
X12235896Y-14936841D02*
X12302562Y-14793984D01*
X12302562Y-14793984D02*
X12302562Y-14993984D01*
X12483515Y-14993984D02*
X12483515Y-14889222D01*
X12483515Y-14889222D02*
X12473991Y-14870174D01*
X12473991Y-14870174D02*
X12454943Y-14860650D01*
X12454943Y-14860650D02*
X12416848Y-14860650D01*
X12416848Y-14860650D02*
X12397801Y-14870174D01*
X12483515Y-14984460D02*
X12464467Y-14993984D01*
X12464467Y-14993984D02*
X12416848Y-14993984D01*
X12416848Y-14993984D02*
X12397801Y-14984460D01*
X12397801Y-14984460D02*
X12388277Y-14965412D01*
X12388277Y-14965412D02*
X12388277Y-14946365D01*
X12388277Y-14946365D02*
X12397801Y-14927317D01*
X12397801Y-14927317D02*
X12416848Y-14917793D01*
X12416848Y-14917793D02*
X12464467Y-14917793D01*
X12464467Y-14917793D02*
X12483515Y-14908269D01*
X12578753Y-14860650D02*
X12578753Y-15060650D01*
X12578753Y-14870174D02*
X12597801Y-14860650D01*
X12597801Y-14860650D02*
X12635896Y-14860650D01*
X12635896Y-14860650D02*
X12654943Y-14870174D01*
X12654943Y-14870174D02*
X12664467Y-14879698D01*
X12664467Y-14879698D02*
X12673991Y-14898746D01*
X12673991Y-14898746D02*
X12673991Y-14955888D01*
X12673991Y-14955888D02*
X12664467Y-14974936D01*
X12664467Y-14974936D02*
X12654943Y-14984460D01*
X12654943Y-14984460D02*
X12635896Y-14993984D01*
X12635896Y-14993984D02*
X12597801Y-14993984D01*
X12597801Y-14993984D02*
X12578753Y-14984460D01*
X12759705Y-14974936D02*
X12769229Y-14984460D01*
X12769229Y-14984460D02*
X12759705Y-14993984D01*
X12759705Y-14993984D02*
X12750182Y-14984460D01*
X12750182Y-14984460D02*
X12759705Y-14974936D01*
X12759705Y-14974936D02*
X12759705Y-14993984D01*
X12759705Y-14870174D02*
X12769229Y-14879698D01*
X12769229Y-14879698D02*
X12759705Y-14889222D01*
X12759705Y-14889222D02*
X12750182Y-14879698D01*
X12750182Y-14879698D02*
X12759705Y-14870174D01*
X12759705Y-14870174D02*
X12759705Y-14889222D01*
D12*
X11107500Y-15312500D02*
X11127500Y-15332500D01*
X11127500Y-15312500D02*
X11107500Y-15332500D01*
D11*
X11426372Y-15213984D02*
X11445420Y-15213984D01*
X11445420Y-15213984D02*
X11464467Y-15223508D01*
X11464467Y-15223508D02*
X11473991Y-15233031D01*
X11473991Y-15233031D02*
X11483515Y-15252079D01*
X11483515Y-15252079D02*
X11493039Y-15290174D01*
X11493039Y-15290174D02*
X11493039Y-15337793D01*
X11493039Y-15337793D02*
X11483515Y-15375888D01*
X11483515Y-15375888D02*
X11473991Y-15394936D01*
X11473991Y-15394936D02*
X11464467Y-15404460D01*
X11464467Y-15404460D02*
X11445420Y-15413984D01*
X11445420Y-15413984D02*
X11426372Y-15413984D01*
X11426372Y-15413984D02*
X11407324Y-15404460D01*
X11407324Y-15404460D02*
X11397801Y-15394936D01*
X11397801Y-15394936D02*
X11388277Y-15375888D01*
X11388277Y-15375888D02*
X11378753Y-15337793D01*
X11378753Y-15337793D02*
X11378753Y-15290174D01*
X11378753Y-15290174D02*
X11388277Y-15252079D01*
X11388277Y-15252079D02*
X11397801Y-15233031D01*
X11397801Y-15233031D02*
X11407324Y-15223508D01*
X11407324Y-15223508D02*
X11426372Y-15213984D01*
X11578753Y-15394936D02*
X11588277Y-15404460D01*
X11588277Y-15404460D02*
X11578753Y-15413984D01*
X11578753Y-15413984D02*
X11569229Y-15404460D01*
X11569229Y-15404460D02*
X11578753Y-15394936D01*
X11578753Y-15394936D02*
X11578753Y-15413984D01*
X11664467Y-15233031D02*
X11673991Y-15223508D01*
X11673991Y-15223508D02*
X11693039Y-15213984D01*
X11693039Y-15213984D02*
X11740658Y-15213984D01*
X11740658Y-15213984D02*
X11759705Y-15223508D01*
X11759705Y-15223508D02*
X11769229Y-15233031D01*
X11769229Y-15233031D02*
X11778753Y-15252079D01*
X11778753Y-15252079D02*
X11778753Y-15271127D01*
X11778753Y-15271127D02*
X11769229Y-15299698D01*
X11769229Y-15299698D02*
X11654943Y-15413984D01*
X11654943Y-15413984D02*
X11778753Y-15413984D01*
X11902562Y-15213984D02*
X11921610Y-15213984D01*
X11921610Y-15213984D02*
X11940658Y-15223508D01*
X11940658Y-15223508D02*
X11950182Y-15233031D01*
X11950182Y-15233031D02*
X11959705Y-15252079D01*
X11959705Y-15252079D02*
X11969229Y-15290174D01*
X11969229Y-15290174D02*
X11969229Y-15337793D01*
X11969229Y-15337793D02*
X11959705Y-15375888D01*
X11959705Y-15375888D02*
X11950182Y-15394936D01*
X11950182Y-15394936D02*
X11940658Y-15404460D01*
X11940658Y-15404460D02*
X11921610Y-15413984D01*
X11921610Y-15413984D02*
X11902562Y-15413984D01*
X11902562Y-15413984D02*
X11883515Y-15404460D01*
X11883515Y-15404460D02*
X11873991Y-15394936D01*
X11873991Y-15394936D02*
X11864467Y-15375888D01*
X11864467Y-15375888D02*
X11854943Y-15337793D01*
X11854943Y-15337793D02*
X11854943Y-15290174D01*
X11854943Y-15290174D02*
X11864467Y-15252079D01*
X11864467Y-15252079D02*
X11873991Y-15233031D01*
X11873991Y-15233031D02*
X11883515Y-15223508D01*
X11883515Y-15223508D02*
X11902562Y-15213984D01*
X12093039Y-15213984D02*
X12112086Y-15213984D01*
X12112086Y-15213984D02*
X12131134Y-15223508D01*
X12131134Y-15223508D02*
X12140658Y-15233031D01*
X12140658Y-15233031D02*
X12150182Y-15252079D01*
X12150182Y-15252079D02*
X12159705Y-15290174D01*
X12159705Y-15290174D02*
X12159705Y-15337793D01*
X12159705Y-15337793D02*
X12150182Y-15375888D01*
X12150182Y-15375888D02*
X12140658Y-15394936D01*
X12140658Y-15394936D02*
X12131134Y-15404460D01*
X12131134Y-15404460D02*
X12112086Y-15413984D01*
X12112086Y-15413984D02*
X12093039Y-15413984D01*
X12093039Y-15413984D02*
X12073991Y-15404460D01*
X12073991Y-15404460D02*
X12064467Y-15394936D01*
X12064467Y-15394936D02*
X12054943Y-15375888D01*
X12054943Y-15375888D02*
X12045420Y-15337793D01*
X12045420Y-15337793D02*
X12045420Y-15290174D01*
X12045420Y-15290174D02*
X12054943Y-15252079D01*
X12054943Y-15252079D02*
X12064467Y-15233031D01*
X12064467Y-15233031D02*
X12073991Y-15223508D01*
X12073991Y-15223508D02*
X12093039Y-15213984D01*
X12245420Y-15413984D02*
X12245420Y-15280650D01*
X12245420Y-15299698D02*
X12254943Y-15290174D01*
X12254943Y-15290174D02*
X12273991Y-15280650D01*
X12273991Y-15280650D02*
X12302563Y-15280650D01*
X12302563Y-15280650D02*
X12321610Y-15290174D01*
X12321610Y-15290174D02*
X12331134Y-15309222D01*
X12331134Y-15309222D02*
X12331134Y-15413984D01*
X12331134Y-15309222D02*
X12340658Y-15290174D01*
X12340658Y-15290174D02*
X12359705Y-15280650D01*
X12359705Y-15280650D02*
X12388277Y-15280650D01*
X12388277Y-15280650D02*
X12407324Y-15290174D01*
X12407324Y-15290174D02*
X12416848Y-15309222D01*
X12416848Y-15309222D02*
X12416848Y-15413984D01*
X12512086Y-15413984D02*
X12512086Y-15280650D01*
X12512086Y-15299698D02*
X12521610Y-15290174D01*
X12521610Y-15290174D02*
X12540658Y-15280650D01*
X12540658Y-15280650D02*
X12569229Y-15280650D01*
X12569229Y-15280650D02*
X12588277Y-15290174D01*
X12588277Y-15290174D02*
X12597801Y-15309222D01*
X12597801Y-15309222D02*
X12597801Y-15413984D01*
X12597801Y-15309222D02*
X12607324Y-15290174D01*
X12607324Y-15290174D02*
X12626372Y-15280650D01*
X12626372Y-15280650D02*
X12654943Y-15280650D01*
X12654943Y-15280650D02*
X12673991Y-15290174D01*
X12673991Y-15290174D02*
X12683515Y-15309222D01*
X12683515Y-15309222D02*
X12683515Y-15413984D01*
X13073991Y-15204460D02*
X12902563Y-15461603D01*
X13331134Y-15213984D02*
X13350182Y-15213984D01*
X13350182Y-15213984D02*
X13369229Y-15223508D01*
X13369229Y-15223508D02*
X13378753Y-15233031D01*
X13378753Y-15233031D02*
X13388277Y-15252079D01*
X13388277Y-15252079D02*
X13397801Y-15290174D01*
X13397801Y-15290174D02*
X13397801Y-15337793D01*
X13397801Y-15337793D02*
X13388277Y-15375888D01*
X13388277Y-15375888D02*
X13378753Y-15394936D01*
X13378753Y-15394936D02*
X13369229Y-15404460D01*
X13369229Y-15404460D02*
X13350182Y-15413984D01*
X13350182Y-15413984D02*
X13331134Y-15413984D01*
X13331134Y-15413984D02*
X13312086Y-15404460D01*
X13312086Y-15404460D02*
X13302563Y-15394936D01*
X13302563Y-15394936D02*
X13293039Y-15375888D01*
X13293039Y-15375888D02*
X13283515Y-15337793D01*
X13283515Y-15337793D02*
X13283515Y-15290174D01*
X13283515Y-15290174D02*
X13293039Y-15252079D01*
X13293039Y-15252079D02*
X13302563Y-15233031D01*
X13302563Y-15233031D02*
X13312086Y-15223508D01*
X13312086Y-15223508D02*
X13331134Y-15213984D01*
X13483515Y-15394936D02*
X13493039Y-15404460D01*
X13493039Y-15404460D02*
X13483515Y-15413984D01*
X13483515Y-15413984D02*
X13473991Y-15404460D01*
X13473991Y-15404460D02*
X13483515Y-15394936D01*
X13483515Y-15394936D02*
X13483515Y-15413984D01*
X13616848Y-15213984D02*
X13635896Y-15213984D01*
X13635896Y-15213984D02*
X13654944Y-15223508D01*
X13654944Y-15223508D02*
X13664467Y-15233031D01*
X13664467Y-15233031D02*
X13673991Y-15252079D01*
X13673991Y-15252079D02*
X13683515Y-15290174D01*
X13683515Y-15290174D02*
X13683515Y-15337793D01*
X13683515Y-15337793D02*
X13673991Y-15375888D01*
X13673991Y-15375888D02*
X13664467Y-15394936D01*
X13664467Y-15394936D02*
X13654944Y-15404460D01*
X13654944Y-15404460D02*
X13635896Y-15413984D01*
X13635896Y-15413984D02*
X13616848Y-15413984D01*
X13616848Y-15413984D02*
X13597801Y-15404460D01*
X13597801Y-15404460D02*
X13588277Y-15394936D01*
X13588277Y-15394936D02*
X13578753Y-15375888D01*
X13578753Y-15375888D02*
X13569229Y-15337793D01*
X13569229Y-15337793D02*
X13569229Y-15290174D01*
X13569229Y-15290174D02*
X13578753Y-15252079D01*
X13578753Y-15252079D02*
X13588277Y-15233031D01*
X13588277Y-15233031D02*
X13597801Y-15223508D01*
X13597801Y-15223508D02*
X13616848Y-15213984D01*
X13807325Y-15213984D02*
X13826372Y-15213984D01*
X13826372Y-15213984D02*
X13845420Y-15223508D01*
X13845420Y-15223508D02*
X13854944Y-15233031D01*
X13854944Y-15233031D02*
X13864467Y-15252079D01*
X13864467Y-15252079D02*
X13873991Y-15290174D01*
X13873991Y-15290174D02*
X13873991Y-15337793D01*
X13873991Y-15337793D02*
X13864467Y-15375888D01*
X13864467Y-15375888D02*
X13854944Y-15394936D01*
X13854944Y-15394936D02*
X13845420Y-15404460D01*
X13845420Y-15404460D02*
X13826372Y-15413984D01*
X13826372Y-15413984D02*
X13807325Y-15413984D01*
X13807325Y-15413984D02*
X13788277Y-15404460D01*
X13788277Y-15404460D02*
X13778753Y-15394936D01*
X13778753Y-15394936D02*
X13769229Y-15375888D01*
X13769229Y-15375888D02*
X13759706Y-15337793D01*
X13759706Y-15337793D02*
X13759706Y-15290174D01*
X13759706Y-15290174D02*
X13769229Y-15252079D01*
X13769229Y-15252079D02*
X13778753Y-15233031D01*
X13778753Y-15233031D02*
X13788277Y-15223508D01*
X13788277Y-15223508D02*
X13807325Y-15213984D01*
X13940658Y-15213984D02*
X14073991Y-15213984D01*
X14073991Y-15213984D02*
X13988277Y-15413984D01*
X14159706Y-15413984D02*
X14197801Y-15413984D01*
X14197801Y-15413984D02*
X14216848Y-15404460D01*
X14216848Y-15404460D02*
X14226372Y-15394936D01*
X14226372Y-15394936D02*
X14245420Y-15366365D01*
X14245420Y-15366365D02*
X14254944Y-15328269D01*
X14254944Y-15328269D02*
X14254944Y-15252079D01*
X14254944Y-15252079D02*
X14245420Y-15233031D01*
X14245420Y-15233031D02*
X14235896Y-15223508D01*
X14235896Y-15223508D02*
X14216848Y-15213984D01*
X14216848Y-15213984D02*
X14178753Y-15213984D01*
X14178753Y-15213984D02*
X14159706Y-15223508D01*
X14159706Y-15223508D02*
X14150182Y-15233031D01*
X14150182Y-15233031D02*
X14140658Y-15252079D01*
X14140658Y-15252079D02*
X14140658Y-15299698D01*
X14140658Y-15299698D02*
X14150182Y-15318746D01*
X14150182Y-15318746D02*
X14159706Y-15328269D01*
X14159706Y-15328269D02*
X14178753Y-15337793D01*
X14178753Y-15337793D02*
X14216848Y-15337793D01*
X14216848Y-15337793D02*
X14235896Y-15328269D01*
X14235896Y-15328269D02*
X14245420Y-15318746D01*
X14245420Y-15318746D02*
X14254944Y-15299698D01*
X14331134Y-15213984D02*
X14331134Y-15252079D01*
X14407325Y-15213984D02*
X14407325Y-15252079D01*
X14702563Y-15490174D02*
X14693039Y-15480650D01*
X14693039Y-15480650D02*
X14673991Y-15452079D01*
X14673991Y-15452079D02*
X14664468Y-15433031D01*
X14664468Y-15433031D02*
X14654944Y-15404460D01*
X14654944Y-15404460D02*
X14645420Y-15356841D01*
X14645420Y-15356841D02*
X14645420Y-15318746D01*
X14645420Y-15318746D02*
X14654944Y-15271127D01*
X14654944Y-15271127D02*
X14664468Y-15242555D01*
X14664468Y-15242555D02*
X14673991Y-15223508D01*
X14673991Y-15223508D02*
X14693039Y-15194936D01*
X14693039Y-15194936D02*
X14702563Y-15185412D01*
X14883515Y-15413984D02*
X14769229Y-15413984D01*
X14826372Y-15413984D02*
X14826372Y-15213984D01*
X14826372Y-15213984D02*
X14807325Y-15242555D01*
X14807325Y-15242555D02*
X14788277Y-15261603D01*
X14788277Y-15261603D02*
X14769229Y-15271127D01*
X14959706Y-15233031D02*
X14969229Y-15223508D01*
X14969229Y-15223508D02*
X14988277Y-15213984D01*
X14988277Y-15213984D02*
X15035896Y-15213984D01*
X15035896Y-15213984D02*
X15054944Y-15223508D01*
X15054944Y-15223508D02*
X15064468Y-15233031D01*
X15064468Y-15233031D02*
X15073991Y-15252079D01*
X15073991Y-15252079D02*
X15073991Y-15271127D01*
X15073991Y-15271127D02*
X15064468Y-15299698D01*
X15064468Y-15299698D02*
X14950182Y-15413984D01*
X14950182Y-15413984D02*
X15073991Y-15413984D01*
X15312087Y-15413984D02*
X15312087Y-15213984D01*
X15397801Y-15413984D02*
X15397801Y-15309222D01*
X15397801Y-15309222D02*
X15388277Y-15290174D01*
X15388277Y-15290174D02*
X15369230Y-15280650D01*
X15369230Y-15280650D02*
X15340658Y-15280650D01*
X15340658Y-15280650D02*
X15321610Y-15290174D01*
X15321610Y-15290174D02*
X15312087Y-15299698D01*
X15521610Y-15413984D02*
X15502563Y-15404460D01*
X15502563Y-15404460D02*
X15493039Y-15394936D01*
X15493039Y-15394936D02*
X15483515Y-15375888D01*
X15483515Y-15375888D02*
X15483515Y-15318746D01*
X15483515Y-15318746D02*
X15493039Y-15299698D01*
X15493039Y-15299698D02*
X15502563Y-15290174D01*
X15502563Y-15290174D02*
X15521610Y-15280650D01*
X15521610Y-15280650D02*
X15550182Y-15280650D01*
X15550182Y-15280650D02*
X15569230Y-15290174D01*
X15569230Y-15290174D02*
X15578753Y-15299698D01*
X15578753Y-15299698D02*
X15588277Y-15318746D01*
X15588277Y-15318746D02*
X15588277Y-15375888D01*
X15588277Y-15375888D02*
X15578753Y-15394936D01*
X15578753Y-15394936D02*
X15569230Y-15404460D01*
X15569230Y-15404460D02*
X15550182Y-15413984D01*
X15550182Y-15413984D02*
X15521610Y-15413984D01*
X15702563Y-15413984D02*
X15683515Y-15404460D01*
X15683515Y-15404460D02*
X15673991Y-15385412D01*
X15673991Y-15385412D02*
X15673991Y-15213984D01*
X15854944Y-15404460D02*
X15835896Y-15413984D01*
X15835896Y-15413984D02*
X15797801Y-15413984D01*
X15797801Y-15413984D02*
X15778753Y-15404460D01*
X15778753Y-15404460D02*
X15769230Y-15385412D01*
X15769230Y-15385412D02*
X15769230Y-15309222D01*
X15769230Y-15309222D02*
X15778753Y-15290174D01*
X15778753Y-15290174D02*
X15797801Y-15280650D01*
X15797801Y-15280650D02*
X15835896Y-15280650D01*
X15835896Y-15280650D02*
X15854944Y-15290174D01*
X15854944Y-15290174D02*
X15864468Y-15309222D01*
X15864468Y-15309222D02*
X15864468Y-15328269D01*
X15864468Y-15328269D02*
X15769230Y-15347317D01*
X15940658Y-15404460D02*
X15959706Y-15413984D01*
X15959706Y-15413984D02*
X15997801Y-15413984D01*
X15997801Y-15413984D02*
X16016849Y-15404460D01*
X16016849Y-15404460D02*
X16026372Y-15385412D01*
X16026372Y-15385412D02*
X16026372Y-15375888D01*
X16026372Y-15375888D02*
X16016849Y-15356841D01*
X16016849Y-15356841D02*
X15997801Y-15347317D01*
X15997801Y-15347317D02*
X15969230Y-15347317D01*
X15969230Y-15347317D02*
X15950182Y-15337793D01*
X15950182Y-15337793D02*
X15940658Y-15318746D01*
X15940658Y-15318746D02*
X15940658Y-15309222D01*
X15940658Y-15309222D02*
X15950182Y-15290174D01*
X15950182Y-15290174D02*
X15969230Y-15280650D01*
X15969230Y-15280650D02*
X15997801Y-15280650D01*
X15997801Y-15280650D02*
X16016849Y-15290174D01*
X16093039Y-15490174D02*
X16102563Y-15480650D01*
X16102563Y-15480650D02*
X16121611Y-15452079D01*
X16121611Y-15452079D02*
X16131134Y-15433031D01*
X16131134Y-15433031D02*
X16140658Y-15404460D01*
X16140658Y-15404460D02*
X16150182Y-15356841D01*
X16150182Y-15356841D02*
X16150182Y-15318746D01*
X16150182Y-15318746D02*
X16140658Y-15271127D01*
X16140658Y-15271127D02*
X16131134Y-15242555D01*
X16131134Y-15242555D02*
X16121611Y-15223508D01*
X16121611Y-15223508D02*
X16102563Y-15194936D01*
X16102563Y-15194936D02*
X16093039Y-15185412D01*
D12*
X11127500Y-15586500D02*
G75*
G02*
X11102500Y-15586500I-12500J0D01*
G01*
X11102500Y-15586500D02*
G75*
G02*
X11127500Y-15586500I12500J0D01*
G01*
D11*
X11426372Y-15477984D02*
X11445420Y-15477984D01*
X11445420Y-15477984D02*
X11464467Y-15487508D01*
X11464467Y-15487508D02*
X11473991Y-15497031D01*
X11473991Y-15497031D02*
X11483515Y-15516079D01*
X11483515Y-15516079D02*
X11493039Y-15554174D01*
X11493039Y-15554174D02*
X11493039Y-15601793D01*
X11493039Y-15601793D02*
X11483515Y-15639888D01*
X11483515Y-15639888D02*
X11473991Y-15658936D01*
X11473991Y-15658936D02*
X11464467Y-15668460D01*
X11464467Y-15668460D02*
X11445420Y-15677984D01*
X11445420Y-15677984D02*
X11426372Y-15677984D01*
X11426372Y-15677984D02*
X11407324Y-15668460D01*
X11407324Y-15668460D02*
X11397801Y-15658936D01*
X11397801Y-15658936D02*
X11388277Y-15639888D01*
X11388277Y-15639888D02*
X11378753Y-15601793D01*
X11378753Y-15601793D02*
X11378753Y-15554174D01*
X11378753Y-15554174D02*
X11388277Y-15516079D01*
X11388277Y-15516079D02*
X11397801Y-15497031D01*
X11397801Y-15497031D02*
X11407324Y-15487508D01*
X11407324Y-15487508D02*
X11426372Y-15477984D01*
X11578753Y-15658936D02*
X11588277Y-15668460D01*
X11588277Y-15668460D02*
X11578753Y-15677984D01*
X11578753Y-15677984D02*
X11569229Y-15668460D01*
X11569229Y-15668460D02*
X11578753Y-15658936D01*
X11578753Y-15658936D02*
X11578753Y-15677984D01*
X11664467Y-15497031D02*
X11673991Y-15487508D01*
X11673991Y-15487508D02*
X11693039Y-15477984D01*
X11693039Y-15477984D02*
X11740658Y-15477984D01*
X11740658Y-15477984D02*
X11759705Y-15487508D01*
X11759705Y-15487508D02*
X11769229Y-15497031D01*
X11769229Y-15497031D02*
X11778753Y-15516079D01*
X11778753Y-15516079D02*
X11778753Y-15535127D01*
X11778753Y-15535127D02*
X11769229Y-15563698D01*
X11769229Y-15563698D02*
X11654943Y-15677984D01*
X11654943Y-15677984D02*
X11778753Y-15677984D01*
X11959705Y-15477984D02*
X11864467Y-15477984D01*
X11864467Y-15477984D02*
X11854943Y-15573222D01*
X11854943Y-15573222D02*
X11864467Y-15563698D01*
X11864467Y-15563698D02*
X11883515Y-15554174D01*
X11883515Y-15554174D02*
X11931134Y-15554174D01*
X11931134Y-15554174D02*
X11950182Y-15563698D01*
X11950182Y-15563698D02*
X11959705Y-15573222D01*
X11959705Y-15573222D02*
X11969229Y-15592269D01*
X11969229Y-15592269D02*
X11969229Y-15639888D01*
X11969229Y-15639888D02*
X11959705Y-15658936D01*
X11959705Y-15658936D02*
X11950182Y-15668460D01*
X11950182Y-15668460D02*
X11931134Y-15677984D01*
X11931134Y-15677984D02*
X11883515Y-15677984D01*
X11883515Y-15677984D02*
X11864467Y-15668460D01*
X11864467Y-15668460D02*
X11854943Y-15658936D01*
X12093039Y-15477984D02*
X12112086Y-15477984D01*
X12112086Y-15477984D02*
X12131134Y-15487508D01*
X12131134Y-15487508D02*
X12140658Y-15497031D01*
X12140658Y-15497031D02*
X12150182Y-15516079D01*
X12150182Y-15516079D02*
X12159705Y-15554174D01*
X12159705Y-15554174D02*
X12159705Y-15601793D01*
X12159705Y-15601793D02*
X12150182Y-15639888D01*
X12150182Y-15639888D02*
X12140658Y-15658936D01*
X12140658Y-15658936D02*
X12131134Y-15668460D01*
X12131134Y-15668460D02*
X12112086Y-15677984D01*
X12112086Y-15677984D02*
X12093039Y-15677984D01*
X12093039Y-15677984D02*
X12073991Y-15668460D01*
X12073991Y-15668460D02*
X12064467Y-15658936D01*
X12064467Y-15658936D02*
X12054943Y-15639888D01*
X12054943Y-15639888D02*
X12045420Y-15601793D01*
X12045420Y-15601793D02*
X12045420Y-15554174D01*
X12045420Y-15554174D02*
X12054943Y-15516079D01*
X12054943Y-15516079D02*
X12064467Y-15497031D01*
X12064467Y-15497031D02*
X12073991Y-15487508D01*
X12073991Y-15487508D02*
X12093039Y-15477984D01*
X12245420Y-15677984D02*
X12245420Y-15544650D01*
X12245420Y-15563698D02*
X12254943Y-15554174D01*
X12254943Y-15554174D02*
X12273991Y-15544650D01*
X12273991Y-15544650D02*
X12302563Y-15544650D01*
X12302563Y-15544650D02*
X12321610Y-15554174D01*
X12321610Y-15554174D02*
X12331134Y-15573222D01*
X12331134Y-15573222D02*
X12331134Y-15677984D01*
X12331134Y-15573222D02*
X12340658Y-15554174D01*
X12340658Y-15554174D02*
X12359705Y-15544650D01*
X12359705Y-15544650D02*
X12388277Y-15544650D01*
X12388277Y-15544650D02*
X12407324Y-15554174D01*
X12407324Y-15554174D02*
X12416848Y-15573222D01*
X12416848Y-15573222D02*
X12416848Y-15677984D01*
X12512086Y-15677984D02*
X12512086Y-15544650D01*
X12512086Y-15563698D02*
X12521610Y-15554174D01*
X12521610Y-15554174D02*
X12540658Y-15544650D01*
X12540658Y-15544650D02*
X12569229Y-15544650D01*
X12569229Y-15544650D02*
X12588277Y-15554174D01*
X12588277Y-15554174D02*
X12597801Y-15573222D01*
X12597801Y-15573222D02*
X12597801Y-15677984D01*
X12597801Y-15573222D02*
X12607324Y-15554174D01*
X12607324Y-15554174D02*
X12626372Y-15544650D01*
X12626372Y-15544650D02*
X12654943Y-15544650D01*
X12654943Y-15544650D02*
X12673991Y-15554174D01*
X12673991Y-15554174D02*
X12683515Y-15573222D01*
X12683515Y-15573222D02*
X12683515Y-15677984D01*
X13073991Y-15468460D02*
X12902563Y-15725603D01*
X13331134Y-15477984D02*
X13350182Y-15477984D01*
X13350182Y-15477984D02*
X13369229Y-15487508D01*
X13369229Y-15487508D02*
X13378753Y-15497031D01*
X13378753Y-15497031D02*
X13388277Y-15516079D01*
X13388277Y-15516079D02*
X13397801Y-15554174D01*
X13397801Y-15554174D02*
X13397801Y-15601793D01*
X13397801Y-15601793D02*
X13388277Y-15639888D01*
X13388277Y-15639888D02*
X13378753Y-15658936D01*
X13378753Y-15658936D02*
X13369229Y-15668460D01*
X13369229Y-15668460D02*
X13350182Y-15677984D01*
X13350182Y-15677984D02*
X13331134Y-15677984D01*
X13331134Y-15677984D02*
X13312086Y-15668460D01*
X13312086Y-15668460D02*
X13302563Y-15658936D01*
X13302563Y-15658936D02*
X13293039Y-15639888D01*
X13293039Y-15639888D02*
X13283515Y-15601793D01*
X13283515Y-15601793D02*
X13283515Y-15554174D01*
X13283515Y-15554174D02*
X13293039Y-15516079D01*
X13293039Y-15516079D02*
X13302563Y-15497031D01*
X13302563Y-15497031D02*
X13312086Y-15487508D01*
X13312086Y-15487508D02*
X13331134Y-15477984D01*
X13483515Y-15658936D02*
X13493039Y-15668460D01*
X13493039Y-15668460D02*
X13483515Y-15677984D01*
X13483515Y-15677984D02*
X13473991Y-15668460D01*
X13473991Y-15668460D02*
X13483515Y-15658936D01*
X13483515Y-15658936D02*
X13483515Y-15677984D01*
X13616848Y-15477984D02*
X13635896Y-15477984D01*
X13635896Y-15477984D02*
X13654944Y-15487508D01*
X13654944Y-15487508D02*
X13664467Y-15497031D01*
X13664467Y-15497031D02*
X13673991Y-15516079D01*
X13673991Y-15516079D02*
X13683515Y-15554174D01*
X13683515Y-15554174D02*
X13683515Y-15601793D01*
X13683515Y-15601793D02*
X13673991Y-15639888D01*
X13673991Y-15639888D02*
X13664467Y-15658936D01*
X13664467Y-15658936D02*
X13654944Y-15668460D01*
X13654944Y-15668460D02*
X13635896Y-15677984D01*
X13635896Y-15677984D02*
X13616848Y-15677984D01*
X13616848Y-15677984D02*
X13597801Y-15668460D01*
X13597801Y-15668460D02*
X13588277Y-15658936D01*
X13588277Y-15658936D02*
X13578753Y-15639888D01*
X13578753Y-15639888D02*
X13569229Y-15601793D01*
X13569229Y-15601793D02*
X13569229Y-15554174D01*
X13569229Y-15554174D02*
X13578753Y-15516079D01*
X13578753Y-15516079D02*
X13588277Y-15497031D01*
X13588277Y-15497031D02*
X13597801Y-15487508D01*
X13597801Y-15487508D02*
X13616848Y-15477984D01*
X13807325Y-15477984D02*
X13826372Y-15477984D01*
X13826372Y-15477984D02*
X13845420Y-15487508D01*
X13845420Y-15487508D02*
X13854944Y-15497031D01*
X13854944Y-15497031D02*
X13864467Y-15516079D01*
X13864467Y-15516079D02*
X13873991Y-15554174D01*
X13873991Y-15554174D02*
X13873991Y-15601793D01*
X13873991Y-15601793D02*
X13864467Y-15639888D01*
X13864467Y-15639888D02*
X13854944Y-15658936D01*
X13854944Y-15658936D02*
X13845420Y-15668460D01*
X13845420Y-15668460D02*
X13826372Y-15677984D01*
X13826372Y-15677984D02*
X13807325Y-15677984D01*
X13807325Y-15677984D02*
X13788277Y-15668460D01*
X13788277Y-15668460D02*
X13778753Y-15658936D01*
X13778753Y-15658936D02*
X13769229Y-15639888D01*
X13769229Y-15639888D02*
X13759706Y-15601793D01*
X13759706Y-15601793D02*
X13759706Y-15554174D01*
X13759706Y-15554174D02*
X13769229Y-15516079D01*
X13769229Y-15516079D02*
X13778753Y-15497031D01*
X13778753Y-15497031D02*
X13788277Y-15487508D01*
X13788277Y-15487508D02*
X13807325Y-15477984D01*
X13969229Y-15677984D02*
X14007325Y-15677984D01*
X14007325Y-15677984D02*
X14026372Y-15668460D01*
X14026372Y-15668460D02*
X14035896Y-15658936D01*
X14035896Y-15658936D02*
X14054944Y-15630365D01*
X14054944Y-15630365D02*
X14064467Y-15592269D01*
X14064467Y-15592269D02*
X14064467Y-15516079D01*
X14064467Y-15516079D02*
X14054944Y-15497031D01*
X14054944Y-15497031D02*
X14045420Y-15487508D01*
X14045420Y-15487508D02*
X14026372Y-15477984D01*
X14026372Y-15477984D02*
X13988277Y-15477984D01*
X13988277Y-15477984D02*
X13969229Y-15487508D01*
X13969229Y-15487508D02*
X13959706Y-15497031D01*
X13959706Y-15497031D02*
X13950182Y-15516079D01*
X13950182Y-15516079D02*
X13950182Y-15563698D01*
X13950182Y-15563698D02*
X13959706Y-15582746D01*
X13959706Y-15582746D02*
X13969229Y-15592269D01*
X13969229Y-15592269D02*
X13988277Y-15601793D01*
X13988277Y-15601793D02*
X14026372Y-15601793D01*
X14026372Y-15601793D02*
X14045420Y-15592269D01*
X14045420Y-15592269D02*
X14054944Y-15582746D01*
X14054944Y-15582746D02*
X14064467Y-15563698D01*
X14178753Y-15563698D02*
X14159706Y-15554174D01*
X14159706Y-15554174D02*
X14150182Y-15544650D01*
X14150182Y-15544650D02*
X14140658Y-15525603D01*
X14140658Y-15525603D02*
X14140658Y-15516079D01*
X14140658Y-15516079D02*
X14150182Y-15497031D01*
X14150182Y-15497031D02*
X14159706Y-15487508D01*
X14159706Y-15487508D02*
X14178753Y-15477984D01*
X14178753Y-15477984D02*
X14216848Y-15477984D01*
X14216848Y-15477984D02*
X14235896Y-15487508D01*
X14235896Y-15487508D02*
X14245420Y-15497031D01*
X14245420Y-15497031D02*
X14254944Y-15516079D01*
X14254944Y-15516079D02*
X14254944Y-15525603D01*
X14254944Y-15525603D02*
X14245420Y-15544650D01*
X14245420Y-15544650D02*
X14235896Y-15554174D01*
X14235896Y-15554174D02*
X14216848Y-15563698D01*
X14216848Y-15563698D02*
X14178753Y-15563698D01*
X14178753Y-15563698D02*
X14159706Y-15573222D01*
X14159706Y-15573222D02*
X14150182Y-15582746D01*
X14150182Y-15582746D02*
X14140658Y-15601793D01*
X14140658Y-15601793D02*
X14140658Y-15639888D01*
X14140658Y-15639888D02*
X14150182Y-15658936D01*
X14150182Y-15658936D02*
X14159706Y-15668460D01*
X14159706Y-15668460D02*
X14178753Y-15677984D01*
X14178753Y-15677984D02*
X14216848Y-15677984D01*
X14216848Y-15677984D02*
X14235896Y-15668460D01*
X14235896Y-15668460D02*
X14245420Y-15658936D01*
X14245420Y-15658936D02*
X14254944Y-15639888D01*
X14254944Y-15639888D02*
X14254944Y-15601793D01*
X14254944Y-15601793D02*
X14245420Y-15582746D01*
X14245420Y-15582746D02*
X14235896Y-15573222D01*
X14235896Y-15573222D02*
X14216848Y-15563698D01*
X14331134Y-15477984D02*
X14331134Y-15516079D01*
X14407325Y-15477984D02*
X14407325Y-15516079D01*
X14702563Y-15754174D02*
X14693039Y-15744650D01*
X14693039Y-15744650D02*
X14673991Y-15716079D01*
X14673991Y-15716079D02*
X14664468Y-15697031D01*
X14664468Y-15697031D02*
X14654944Y-15668460D01*
X14654944Y-15668460D02*
X14645420Y-15620841D01*
X14645420Y-15620841D02*
X14645420Y-15582746D01*
X14645420Y-15582746D02*
X14654944Y-15535127D01*
X14654944Y-15535127D02*
X14664468Y-15506555D01*
X14664468Y-15506555D02*
X14673991Y-15487508D01*
X14673991Y-15487508D02*
X14693039Y-15458936D01*
X14693039Y-15458936D02*
X14702563Y-15449412D01*
X14864468Y-15544650D02*
X14864468Y-15677984D01*
X14816848Y-15468460D02*
X14769229Y-15611317D01*
X14769229Y-15611317D02*
X14893039Y-15611317D01*
X15121610Y-15677984D02*
X15121610Y-15477984D01*
X15207325Y-15677984D02*
X15207325Y-15573222D01*
X15207325Y-15573222D02*
X15197801Y-15554174D01*
X15197801Y-15554174D02*
X15178753Y-15544650D01*
X15178753Y-15544650D02*
X15150182Y-15544650D01*
X15150182Y-15544650D02*
X15131134Y-15554174D01*
X15131134Y-15554174D02*
X15121610Y-15563698D01*
X15331134Y-15677984D02*
X15312087Y-15668460D01*
X15312087Y-15668460D02*
X15302563Y-15658936D01*
X15302563Y-15658936D02*
X15293039Y-15639888D01*
X15293039Y-15639888D02*
X15293039Y-15582746D01*
X15293039Y-15582746D02*
X15302563Y-15563698D01*
X15302563Y-15563698D02*
X15312087Y-15554174D01*
X15312087Y-15554174D02*
X15331134Y-15544650D01*
X15331134Y-15544650D02*
X15359706Y-15544650D01*
X15359706Y-15544650D02*
X15378753Y-15554174D01*
X15378753Y-15554174D02*
X15388277Y-15563698D01*
X15388277Y-15563698D02*
X15397801Y-15582746D01*
X15397801Y-15582746D02*
X15397801Y-15639888D01*
X15397801Y-15639888D02*
X15388277Y-15658936D01*
X15388277Y-15658936D02*
X15378753Y-15668460D01*
X15378753Y-15668460D02*
X15359706Y-15677984D01*
X15359706Y-15677984D02*
X15331134Y-15677984D01*
X15512087Y-15677984D02*
X15493039Y-15668460D01*
X15493039Y-15668460D02*
X15483515Y-15649412D01*
X15483515Y-15649412D02*
X15483515Y-15477984D01*
X15664468Y-15668460D02*
X15645420Y-15677984D01*
X15645420Y-15677984D02*
X15607325Y-15677984D01*
X15607325Y-15677984D02*
X15588277Y-15668460D01*
X15588277Y-15668460D02*
X15578753Y-15649412D01*
X15578753Y-15649412D02*
X15578753Y-15573222D01*
X15578753Y-15573222D02*
X15588277Y-15554174D01*
X15588277Y-15554174D02*
X15607325Y-15544650D01*
X15607325Y-15544650D02*
X15645420Y-15544650D01*
X15645420Y-15544650D02*
X15664468Y-15554174D01*
X15664468Y-15554174D02*
X15673991Y-15573222D01*
X15673991Y-15573222D02*
X15673991Y-15592269D01*
X15673991Y-15592269D02*
X15578753Y-15611317D01*
X15750182Y-15668460D02*
X15769230Y-15677984D01*
X15769230Y-15677984D02*
X15807325Y-15677984D01*
X15807325Y-15677984D02*
X15826372Y-15668460D01*
X15826372Y-15668460D02*
X15835896Y-15649412D01*
X15835896Y-15649412D02*
X15835896Y-15639888D01*
X15835896Y-15639888D02*
X15826372Y-15620841D01*
X15826372Y-15620841D02*
X15807325Y-15611317D01*
X15807325Y-15611317D02*
X15778753Y-15611317D01*
X15778753Y-15611317D02*
X15759706Y-15601793D01*
X15759706Y-15601793D02*
X15750182Y-15582746D01*
X15750182Y-15582746D02*
X15750182Y-15573222D01*
X15750182Y-15573222D02*
X15759706Y-15554174D01*
X15759706Y-15554174D02*
X15778753Y-15544650D01*
X15778753Y-15544650D02*
X15807325Y-15544650D01*
X15807325Y-15544650D02*
X15826372Y-15554174D01*
X15902563Y-15754174D02*
X15912087Y-15744650D01*
X15912087Y-15744650D02*
X15931134Y-15716079D01*
X15931134Y-15716079D02*
X15940658Y-15697031D01*
X15940658Y-15697031D02*
X15950182Y-15668460D01*
X15950182Y-15668460D02*
X15959706Y-15620841D01*
X15959706Y-15620841D02*
X15959706Y-15582746D01*
X15959706Y-15582746D02*
X15950182Y-15535127D01*
X15950182Y-15535127D02*
X15940658Y-15506555D01*
X15940658Y-15506555D02*
X15931134Y-15487508D01*
X15931134Y-15487508D02*
X15912087Y-15458936D01*
X15912087Y-15458936D02*
X15902563Y-15449412D01*
D12*
X11112500Y-15835500D02*
X11112500Y-15865500D01*
X11097500Y-15850500D02*
X11127500Y-15850500D01*
D11*
X11426372Y-15741984D02*
X11445420Y-15741984D01*
X11445420Y-15741984D02*
X11464467Y-15751508D01*
X11464467Y-15751508D02*
X11473991Y-15761031D01*
X11473991Y-15761031D02*
X11483515Y-15780079D01*
X11483515Y-15780079D02*
X11493039Y-15818174D01*
X11493039Y-15818174D02*
X11493039Y-15865793D01*
X11493039Y-15865793D02*
X11483515Y-15903888D01*
X11483515Y-15903888D02*
X11473991Y-15922936D01*
X11473991Y-15922936D02*
X11464467Y-15932460D01*
X11464467Y-15932460D02*
X11445420Y-15941984D01*
X11445420Y-15941984D02*
X11426372Y-15941984D01*
X11426372Y-15941984D02*
X11407324Y-15932460D01*
X11407324Y-15932460D02*
X11397801Y-15922936D01*
X11397801Y-15922936D02*
X11388277Y-15903888D01*
X11388277Y-15903888D02*
X11378753Y-15865793D01*
X11378753Y-15865793D02*
X11378753Y-15818174D01*
X11378753Y-15818174D02*
X11388277Y-15780079D01*
X11388277Y-15780079D02*
X11397801Y-15761031D01*
X11397801Y-15761031D02*
X11407324Y-15751508D01*
X11407324Y-15751508D02*
X11426372Y-15741984D01*
X11578753Y-15922936D02*
X11588277Y-15932460D01*
X11588277Y-15932460D02*
X11578753Y-15941984D01*
X11578753Y-15941984D02*
X11569229Y-15932460D01*
X11569229Y-15932460D02*
X11578753Y-15922936D01*
X11578753Y-15922936D02*
X11578753Y-15941984D01*
X11654943Y-15741984D02*
X11778753Y-15741984D01*
X11778753Y-15741984D02*
X11712086Y-15818174D01*
X11712086Y-15818174D02*
X11740658Y-15818174D01*
X11740658Y-15818174D02*
X11759705Y-15827698D01*
X11759705Y-15827698D02*
X11769229Y-15837222D01*
X11769229Y-15837222D02*
X11778753Y-15856269D01*
X11778753Y-15856269D02*
X11778753Y-15903888D01*
X11778753Y-15903888D02*
X11769229Y-15922936D01*
X11769229Y-15922936D02*
X11759705Y-15932460D01*
X11759705Y-15932460D02*
X11740658Y-15941984D01*
X11740658Y-15941984D02*
X11683515Y-15941984D01*
X11683515Y-15941984D02*
X11664467Y-15932460D01*
X11664467Y-15932460D02*
X11654943Y-15922936D01*
X11902562Y-15741984D02*
X11921610Y-15741984D01*
X11921610Y-15741984D02*
X11940658Y-15751508D01*
X11940658Y-15751508D02*
X11950182Y-15761031D01*
X11950182Y-15761031D02*
X11959705Y-15780079D01*
X11959705Y-15780079D02*
X11969229Y-15818174D01*
X11969229Y-15818174D02*
X11969229Y-15865793D01*
X11969229Y-15865793D02*
X11959705Y-15903888D01*
X11959705Y-15903888D02*
X11950182Y-15922936D01*
X11950182Y-15922936D02*
X11940658Y-15932460D01*
X11940658Y-15932460D02*
X11921610Y-15941984D01*
X11921610Y-15941984D02*
X11902562Y-15941984D01*
X11902562Y-15941984D02*
X11883515Y-15932460D01*
X11883515Y-15932460D02*
X11873991Y-15922936D01*
X11873991Y-15922936D02*
X11864467Y-15903888D01*
X11864467Y-15903888D02*
X11854943Y-15865793D01*
X11854943Y-15865793D02*
X11854943Y-15818174D01*
X11854943Y-15818174D02*
X11864467Y-15780079D01*
X11864467Y-15780079D02*
X11873991Y-15761031D01*
X11873991Y-15761031D02*
X11883515Y-15751508D01*
X11883515Y-15751508D02*
X11902562Y-15741984D01*
X12093039Y-15741984D02*
X12112086Y-15741984D01*
X12112086Y-15741984D02*
X12131134Y-15751508D01*
X12131134Y-15751508D02*
X12140658Y-15761031D01*
X12140658Y-15761031D02*
X12150182Y-15780079D01*
X12150182Y-15780079D02*
X12159705Y-15818174D01*
X12159705Y-15818174D02*
X12159705Y-15865793D01*
X12159705Y-15865793D02*
X12150182Y-15903888D01*
X12150182Y-15903888D02*
X12140658Y-15922936D01*
X12140658Y-15922936D02*
X12131134Y-15932460D01*
X12131134Y-15932460D02*
X12112086Y-15941984D01*
X12112086Y-15941984D02*
X12093039Y-15941984D01*
X12093039Y-15941984D02*
X12073991Y-15932460D01*
X12073991Y-15932460D02*
X12064467Y-15922936D01*
X12064467Y-15922936D02*
X12054943Y-15903888D01*
X12054943Y-15903888D02*
X12045420Y-15865793D01*
X12045420Y-15865793D02*
X12045420Y-15818174D01*
X12045420Y-15818174D02*
X12054943Y-15780079D01*
X12054943Y-15780079D02*
X12064467Y-15761031D01*
X12064467Y-15761031D02*
X12073991Y-15751508D01*
X12073991Y-15751508D02*
X12093039Y-15741984D01*
X12245420Y-15941984D02*
X12245420Y-15808650D01*
X12245420Y-15827698D02*
X12254943Y-15818174D01*
X12254943Y-15818174D02*
X12273991Y-15808650D01*
X12273991Y-15808650D02*
X12302563Y-15808650D01*
X12302563Y-15808650D02*
X12321610Y-15818174D01*
X12321610Y-15818174D02*
X12331134Y-15837222D01*
X12331134Y-15837222D02*
X12331134Y-15941984D01*
X12331134Y-15837222D02*
X12340658Y-15818174D01*
X12340658Y-15818174D02*
X12359705Y-15808650D01*
X12359705Y-15808650D02*
X12388277Y-15808650D01*
X12388277Y-15808650D02*
X12407324Y-15818174D01*
X12407324Y-15818174D02*
X12416848Y-15837222D01*
X12416848Y-15837222D02*
X12416848Y-15941984D01*
X12512086Y-15941984D02*
X12512086Y-15808650D01*
X12512086Y-15827698D02*
X12521610Y-15818174D01*
X12521610Y-15818174D02*
X12540658Y-15808650D01*
X12540658Y-15808650D02*
X12569229Y-15808650D01*
X12569229Y-15808650D02*
X12588277Y-15818174D01*
X12588277Y-15818174D02*
X12597801Y-15837222D01*
X12597801Y-15837222D02*
X12597801Y-15941984D01*
X12597801Y-15837222D02*
X12607324Y-15818174D01*
X12607324Y-15818174D02*
X12626372Y-15808650D01*
X12626372Y-15808650D02*
X12654943Y-15808650D01*
X12654943Y-15808650D02*
X12673991Y-15818174D01*
X12673991Y-15818174D02*
X12683515Y-15837222D01*
X12683515Y-15837222D02*
X12683515Y-15941984D01*
X13073991Y-15732460D02*
X12902563Y-15989603D01*
X13331134Y-15741984D02*
X13350182Y-15741984D01*
X13350182Y-15741984D02*
X13369229Y-15751508D01*
X13369229Y-15751508D02*
X13378753Y-15761031D01*
X13378753Y-15761031D02*
X13388277Y-15780079D01*
X13388277Y-15780079D02*
X13397801Y-15818174D01*
X13397801Y-15818174D02*
X13397801Y-15865793D01*
X13397801Y-15865793D02*
X13388277Y-15903888D01*
X13388277Y-15903888D02*
X13378753Y-15922936D01*
X13378753Y-15922936D02*
X13369229Y-15932460D01*
X13369229Y-15932460D02*
X13350182Y-15941984D01*
X13350182Y-15941984D02*
X13331134Y-15941984D01*
X13331134Y-15941984D02*
X13312086Y-15932460D01*
X13312086Y-15932460D02*
X13302563Y-15922936D01*
X13302563Y-15922936D02*
X13293039Y-15903888D01*
X13293039Y-15903888D02*
X13283515Y-15865793D01*
X13283515Y-15865793D02*
X13283515Y-15818174D01*
X13283515Y-15818174D02*
X13293039Y-15780079D01*
X13293039Y-15780079D02*
X13302563Y-15761031D01*
X13302563Y-15761031D02*
X13312086Y-15751508D01*
X13312086Y-15751508D02*
X13331134Y-15741984D01*
X13483515Y-15922936D02*
X13493039Y-15932460D01*
X13493039Y-15932460D02*
X13483515Y-15941984D01*
X13483515Y-15941984D02*
X13473991Y-15932460D01*
X13473991Y-15932460D02*
X13483515Y-15922936D01*
X13483515Y-15922936D02*
X13483515Y-15941984D01*
X13616848Y-15741984D02*
X13635896Y-15741984D01*
X13635896Y-15741984D02*
X13654944Y-15751508D01*
X13654944Y-15751508D02*
X13664467Y-15761031D01*
X13664467Y-15761031D02*
X13673991Y-15780079D01*
X13673991Y-15780079D02*
X13683515Y-15818174D01*
X13683515Y-15818174D02*
X13683515Y-15865793D01*
X13683515Y-15865793D02*
X13673991Y-15903888D01*
X13673991Y-15903888D02*
X13664467Y-15922936D01*
X13664467Y-15922936D02*
X13654944Y-15932460D01*
X13654944Y-15932460D02*
X13635896Y-15941984D01*
X13635896Y-15941984D02*
X13616848Y-15941984D01*
X13616848Y-15941984D02*
X13597801Y-15932460D01*
X13597801Y-15932460D02*
X13588277Y-15922936D01*
X13588277Y-15922936D02*
X13578753Y-15903888D01*
X13578753Y-15903888D02*
X13569229Y-15865793D01*
X13569229Y-15865793D02*
X13569229Y-15818174D01*
X13569229Y-15818174D02*
X13578753Y-15780079D01*
X13578753Y-15780079D02*
X13588277Y-15761031D01*
X13588277Y-15761031D02*
X13597801Y-15751508D01*
X13597801Y-15751508D02*
X13616848Y-15741984D01*
X13873991Y-15941984D02*
X13759706Y-15941984D01*
X13816848Y-15941984D02*
X13816848Y-15741984D01*
X13816848Y-15741984D02*
X13797801Y-15770555D01*
X13797801Y-15770555D02*
X13778753Y-15789603D01*
X13778753Y-15789603D02*
X13759706Y-15799127D01*
X14064467Y-15941984D02*
X13950182Y-15941984D01*
X14007325Y-15941984D02*
X14007325Y-15741984D01*
X14007325Y-15741984D02*
X13988277Y-15770555D01*
X13988277Y-15770555D02*
X13969229Y-15789603D01*
X13969229Y-15789603D02*
X13950182Y-15799127D01*
X14178753Y-15827698D02*
X14159706Y-15818174D01*
X14159706Y-15818174D02*
X14150182Y-15808650D01*
X14150182Y-15808650D02*
X14140658Y-15789603D01*
X14140658Y-15789603D02*
X14140658Y-15780079D01*
X14140658Y-15780079D02*
X14150182Y-15761031D01*
X14150182Y-15761031D02*
X14159706Y-15751508D01*
X14159706Y-15751508D02*
X14178753Y-15741984D01*
X14178753Y-15741984D02*
X14216848Y-15741984D01*
X14216848Y-15741984D02*
X14235896Y-15751508D01*
X14235896Y-15751508D02*
X14245420Y-15761031D01*
X14245420Y-15761031D02*
X14254944Y-15780079D01*
X14254944Y-15780079D02*
X14254944Y-15789603D01*
X14254944Y-15789603D02*
X14245420Y-15808650D01*
X14245420Y-15808650D02*
X14235896Y-15818174D01*
X14235896Y-15818174D02*
X14216848Y-15827698D01*
X14216848Y-15827698D02*
X14178753Y-15827698D01*
X14178753Y-15827698D02*
X14159706Y-15837222D01*
X14159706Y-15837222D02*
X14150182Y-15846746D01*
X14150182Y-15846746D02*
X14140658Y-15865793D01*
X14140658Y-15865793D02*
X14140658Y-15903888D01*
X14140658Y-15903888D02*
X14150182Y-15922936D01*
X14150182Y-15922936D02*
X14159706Y-15932460D01*
X14159706Y-15932460D02*
X14178753Y-15941984D01*
X14178753Y-15941984D02*
X14216848Y-15941984D01*
X14216848Y-15941984D02*
X14235896Y-15932460D01*
X14235896Y-15932460D02*
X14245420Y-15922936D01*
X14245420Y-15922936D02*
X14254944Y-15903888D01*
X14254944Y-15903888D02*
X14254944Y-15865793D01*
X14254944Y-15865793D02*
X14245420Y-15846746D01*
X14245420Y-15846746D02*
X14235896Y-15837222D01*
X14235896Y-15837222D02*
X14216848Y-15827698D01*
X14331134Y-15741984D02*
X14331134Y-15780079D01*
X14407325Y-15741984D02*
X14407325Y-15780079D01*
X14702563Y-16018174D02*
X14693039Y-16008650D01*
X14693039Y-16008650D02*
X14673991Y-15980079D01*
X14673991Y-15980079D02*
X14664468Y-15961031D01*
X14664468Y-15961031D02*
X14654944Y-15932460D01*
X14654944Y-15932460D02*
X14645420Y-15884841D01*
X14645420Y-15884841D02*
X14645420Y-15846746D01*
X14645420Y-15846746D02*
X14654944Y-15799127D01*
X14654944Y-15799127D02*
X14664468Y-15770555D01*
X14664468Y-15770555D02*
X14673991Y-15751508D01*
X14673991Y-15751508D02*
X14693039Y-15722936D01*
X14693039Y-15722936D02*
X14702563Y-15713412D01*
X14883515Y-15941984D02*
X14769229Y-15941984D01*
X14826372Y-15941984D02*
X14826372Y-15741984D01*
X14826372Y-15741984D02*
X14807325Y-15770555D01*
X14807325Y-15770555D02*
X14788277Y-15789603D01*
X14788277Y-15789603D02*
X14769229Y-15799127D01*
X15121610Y-15941984D02*
X15121610Y-15741984D01*
X15207325Y-15941984D02*
X15207325Y-15837222D01*
X15207325Y-15837222D02*
X15197801Y-15818174D01*
X15197801Y-15818174D02*
X15178753Y-15808650D01*
X15178753Y-15808650D02*
X15150182Y-15808650D01*
X15150182Y-15808650D02*
X15131134Y-15818174D01*
X15131134Y-15818174D02*
X15121610Y-15827698D01*
X15331134Y-15941984D02*
X15312087Y-15932460D01*
X15312087Y-15932460D02*
X15302563Y-15922936D01*
X15302563Y-15922936D02*
X15293039Y-15903888D01*
X15293039Y-15903888D02*
X15293039Y-15846746D01*
X15293039Y-15846746D02*
X15302563Y-15827698D01*
X15302563Y-15827698D02*
X15312087Y-15818174D01*
X15312087Y-15818174D02*
X15331134Y-15808650D01*
X15331134Y-15808650D02*
X15359706Y-15808650D01*
X15359706Y-15808650D02*
X15378753Y-15818174D01*
X15378753Y-15818174D02*
X15388277Y-15827698D01*
X15388277Y-15827698D02*
X15397801Y-15846746D01*
X15397801Y-15846746D02*
X15397801Y-15903888D01*
X15397801Y-15903888D02*
X15388277Y-15922936D01*
X15388277Y-15922936D02*
X15378753Y-15932460D01*
X15378753Y-15932460D02*
X15359706Y-15941984D01*
X15359706Y-15941984D02*
X15331134Y-15941984D01*
X15512087Y-15941984D02*
X15493039Y-15932460D01*
X15493039Y-15932460D02*
X15483515Y-15913412D01*
X15483515Y-15913412D02*
X15483515Y-15741984D01*
X15664468Y-15932460D02*
X15645420Y-15941984D01*
X15645420Y-15941984D02*
X15607325Y-15941984D01*
X15607325Y-15941984D02*
X15588277Y-15932460D01*
X15588277Y-15932460D02*
X15578753Y-15913412D01*
X15578753Y-15913412D02*
X15578753Y-15837222D01*
X15578753Y-15837222D02*
X15588277Y-15818174D01*
X15588277Y-15818174D02*
X15607325Y-15808650D01*
X15607325Y-15808650D02*
X15645420Y-15808650D01*
X15645420Y-15808650D02*
X15664468Y-15818174D01*
X15664468Y-15818174D02*
X15673991Y-15837222D01*
X15673991Y-15837222D02*
X15673991Y-15856269D01*
X15673991Y-15856269D02*
X15578753Y-15875317D01*
X15740658Y-16018174D02*
X15750182Y-16008650D01*
X15750182Y-16008650D02*
X15769230Y-15980079D01*
X15769230Y-15980079D02*
X15778753Y-15961031D01*
X15778753Y-15961031D02*
X15788277Y-15932460D01*
X15788277Y-15932460D02*
X15797801Y-15884841D01*
X15797801Y-15884841D02*
X15797801Y-15846746D01*
X15797801Y-15846746D02*
X15788277Y-15799127D01*
X15788277Y-15799127D02*
X15778753Y-15770555D01*
X15778753Y-15770555D02*
X15769230Y-15751508D01*
X15769230Y-15751508D02*
X15750182Y-15722936D01*
X15750182Y-15722936D02*
X15740658Y-15713412D01*
D12*
X11120178Y-16132178D02*
X11120178Y-16096822D01*
X11084822Y-16096822D01*
X11084822Y-16132178D01*
X11120178Y-16132178D01*
D11*
X11426372Y-16005984D02*
X11445420Y-16005984D01*
X11445420Y-16005984D02*
X11464467Y-16015508D01*
X11464467Y-16015508D02*
X11473991Y-16025031D01*
X11473991Y-16025031D02*
X11483515Y-16044079D01*
X11483515Y-16044079D02*
X11493039Y-16082174D01*
X11493039Y-16082174D02*
X11493039Y-16129793D01*
X11493039Y-16129793D02*
X11483515Y-16167888D01*
X11483515Y-16167888D02*
X11473991Y-16186936D01*
X11473991Y-16186936D02*
X11464467Y-16196460D01*
X11464467Y-16196460D02*
X11445420Y-16205984D01*
X11445420Y-16205984D02*
X11426372Y-16205984D01*
X11426372Y-16205984D02*
X11407324Y-16196460D01*
X11407324Y-16196460D02*
X11397801Y-16186936D01*
X11397801Y-16186936D02*
X11388277Y-16167888D01*
X11388277Y-16167888D02*
X11378753Y-16129793D01*
X11378753Y-16129793D02*
X11378753Y-16082174D01*
X11378753Y-16082174D02*
X11388277Y-16044079D01*
X11388277Y-16044079D02*
X11397801Y-16025031D01*
X11397801Y-16025031D02*
X11407324Y-16015508D01*
X11407324Y-16015508D02*
X11426372Y-16005984D01*
X11578753Y-16186936D02*
X11588277Y-16196460D01*
X11588277Y-16196460D02*
X11578753Y-16205984D01*
X11578753Y-16205984D02*
X11569229Y-16196460D01*
X11569229Y-16196460D02*
X11578753Y-16186936D01*
X11578753Y-16186936D02*
X11578753Y-16205984D01*
X11769229Y-16005984D02*
X11673991Y-16005984D01*
X11673991Y-16005984D02*
X11664467Y-16101222D01*
X11664467Y-16101222D02*
X11673991Y-16091698D01*
X11673991Y-16091698D02*
X11693039Y-16082174D01*
X11693039Y-16082174D02*
X11740658Y-16082174D01*
X11740658Y-16082174D02*
X11759705Y-16091698D01*
X11759705Y-16091698D02*
X11769229Y-16101222D01*
X11769229Y-16101222D02*
X11778753Y-16120269D01*
X11778753Y-16120269D02*
X11778753Y-16167888D01*
X11778753Y-16167888D02*
X11769229Y-16186936D01*
X11769229Y-16186936D02*
X11759705Y-16196460D01*
X11759705Y-16196460D02*
X11740658Y-16205984D01*
X11740658Y-16205984D02*
X11693039Y-16205984D01*
X11693039Y-16205984D02*
X11673991Y-16196460D01*
X11673991Y-16196460D02*
X11664467Y-16186936D01*
X11902562Y-16005984D02*
X11921610Y-16005984D01*
X11921610Y-16005984D02*
X11940658Y-16015508D01*
X11940658Y-16015508D02*
X11950182Y-16025031D01*
X11950182Y-16025031D02*
X11959705Y-16044079D01*
X11959705Y-16044079D02*
X11969229Y-16082174D01*
X11969229Y-16082174D02*
X11969229Y-16129793D01*
X11969229Y-16129793D02*
X11959705Y-16167888D01*
X11959705Y-16167888D02*
X11950182Y-16186936D01*
X11950182Y-16186936D02*
X11940658Y-16196460D01*
X11940658Y-16196460D02*
X11921610Y-16205984D01*
X11921610Y-16205984D02*
X11902562Y-16205984D01*
X11902562Y-16205984D02*
X11883515Y-16196460D01*
X11883515Y-16196460D02*
X11873991Y-16186936D01*
X11873991Y-16186936D02*
X11864467Y-16167888D01*
X11864467Y-16167888D02*
X11854943Y-16129793D01*
X11854943Y-16129793D02*
X11854943Y-16082174D01*
X11854943Y-16082174D02*
X11864467Y-16044079D01*
X11864467Y-16044079D02*
X11873991Y-16025031D01*
X11873991Y-16025031D02*
X11883515Y-16015508D01*
X11883515Y-16015508D02*
X11902562Y-16005984D01*
X12093039Y-16005984D02*
X12112086Y-16005984D01*
X12112086Y-16005984D02*
X12131134Y-16015508D01*
X12131134Y-16015508D02*
X12140658Y-16025031D01*
X12140658Y-16025031D02*
X12150182Y-16044079D01*
X12150182Y-16044079D02*
X12159705Y-16082174D01*
X12159705Y-16082174D02*
X12159705Y-16129793D01*
X12159705Y-16129793D02*
X12150182Y-16167888D01*
X12150182Y-16167888D02*
X12140658Y-16186936D01*
X12140658Y-16186936D02*
X12131134Y-16196460D01*
X12131134Y-16196460D02*
X12112086Y-16205984D01*
X12112086Y-16205984D02*
X12093039Y-16205984D01*
X12093039Y-16205984D02*
X12073991Y-16196460D01*
X12073991Y-16196460D02*
X12064467Y-16186936D01*
X12064467Y-16186936D02*
X12054943Y-16167888D01*
X12054943Y-16167888D02*
X12045420Y-16129793D01*
X12045420Y-16129793D02*
X12045420Y-16082174D01*
X12045420Y-16082174D02*
X12054943Y-16044079D01*
X12054943Y-16044079D02*
X12064467Y-16025031D01*
X12064467Y-16025031D02*
X12073991Y-16015508D01*
X12073991Y-16015508D02*
X12093039Y-16005984D01*
X12245420Y-16205984D02*
X12245420Y-16072650D01*
X12245420Y-16091698D02*
X12254943Y-16082174D01*
X12254943Y-16082174D02*
X12273991Y-16072650D01*
X12273991Y-16072650D02*
X12302563Y-16072650D01*
X12302563Y-16072650D02*
X12321610Y-16082174D01*
X12321610Y-16082174D02*
X12331134Y-16101222D01*
X12331134Y-16101222D02*
X12331134Y-16205984D01*
X12331134Y-16101222D02*
X12340658Y-16082174D01*
X12340658Y-16082174D02*
X12359705Y-16072650D01*
X12359705Y-16072650D02*
X12388277Y-16072650D01*
X12388277Y-16072650D02*
X12407324Y-16082174D01*
X12407324Y-16082174D02*
X12416848Y-16101222D01*
X12416848Y-16101222D02*
X12416848Y-16205984D01*
X12512086Y-16205984D02*
X12512086Y-16072650D01*
X12512086Y-16091698D02*
X12521610Y-16082174D01*
X12521610Y-16082174D02*
X12540658Y-16072650D01*
X12540658Y-16072650D02*
X12569229Y-16072650D01*
X12569229Y-16072650D02*
X12588277Y-16082174D01*
X12588277Y-16082174D02*
X12597801Y-16101222D01*
X12597801Y-16101222D02*
X12597801Y-16205984D01*
X12597801Y-16101222D02*
X12607324Y-16082174D01*
X12607324Y-16082174D02*
X12626372Y-16072650D01*
X12626372Y-16072650D02*
X12654943Y-16072650D01*
X12654943Y-16072650D02*
X12673991Y-16082174D01*
X12673991Y-16082174D02*
X12683515Y-16101222D01*
X12683515Y-16101222D02*
X12683515Y-16205984D01*
X13073991Y-15996460D02*
X12902563Y-16253603D01*
X13331134Y-16005984D02*
X13350182Y-16005984D01*
X13350182Y-16005984D02*
X13369229Y-16015508D01*
X13369229Y-16015508D02*
X13378753Y-16025031D01*
X13378753Y-16025031D02*
X13388277Y-16044079D01*
X13388277Y-16044079D02*
X13397801Y-16082174D01*
X13397801Y-16082174D02*
X13397801Y-16129793D01*
X13397801Y-16129793D02*
X13388277Y-16167888D01*
X13388277Y-16167888D02*
X13378753Y-16186936D01*
X13378753Y-16186936D02*
X13369229Y-16196460D01*
X13369229Y-16196460D02*
X13350182Y-16205984D01*
X13350182Y-16205984D02*
X13331134Y-16205984D01*
X13331134Y-16205984D02*
X13312086Y-16196460D01*
X13312086Y-16196460D02*
X13302563Y-16186936D01*
X13302563Y-16186936D02*
X13293039Y-16167888D01*
X13293039Y-16167888D02*
X13283515Y-16129793D01*
X13283515Y-16129793D02*
X13283515Y-16082174D01*
X13283515Y-16082174D02*
X13293039Y-16044079D01*
X13293039Y-16044079D02*
X13302563Y-16025031D01*
X13302563Y-16025031D02*
X13312086Y-16015508D01*
X13312086Y-16015508D02*
X13331134Y-16005984D01*
X13483515Y-16186936D02*
X13493039Y-16196460D01*
X13493039Y-16196460D02*
X13483515Y-16205984D01*
X13483515Y-16205984D02*
X13473991Y-16196460D01*
X13473991Y-16196460D02*
X13483515Y-16186936D01*
X13483515Y-16186936D02*
X13483515Y-16205984D01*
X13616848Y-16005984D02*
X13635896Y-16005984D01*
X13635896Y-16005984D02*
X13654944Y-16015508D01*
X13654944Y-16015508D02*
X13664467Y-16025031D01*
X13664467Y-16025031D02*
X13673991Y-16044079D01*
X13673991Y-16044079D02*
X13683515Y-16082174D01*
X13683515Y-16082174D02*
X13683515Y-16129793D01*
X13683515Y-16129793D02*
X13673991Y-16167888D01*
X13673991Y-16167888D02*
X13664467Y-16186936D01*
X13664467Y-16186936D02*
X13654944Y-16196460D01*
X13654944Y-16196460D02*
X13635896Y-16205984D01*
X13635896Y-16205984D02*
X13616848Y-16205984D01*
X13616848Y-16205984D02*
X13597801Y-16196460D01*
X13597801Y-16196460D02*
X13588277Y-16186936D01*
X13588277Y-16186936D02*
X13578753Y-16167888D01*
X13578753Y-16167888D02*
X13569229Y-16129793D01*
X13569229Y-16129793D02*
X13569229Y-16082174D01*
X13569229Y-16082174D02*
X13578753Y-16044079D01*
X13578753Y-16044079D02*
X13588277Y-16025031D01*
X13588277Y-16025031D02*
X13597801Y-16015508D01*
X13597801Y-16015508D02*
X13616848Y-16005984D01*
X13873991Y-16205984D02*
X13759706Y-16205984D01*
X13816848Y-16205984D02*
X13816848Y-16005984D01*
X13816848Y-16005984D02*
X13797801Y-16034555D01*
X13797801Y-16034555D02*
X13778753Y-16053603D01*
X13778753Y-16053603D02*
X13759706Y-16063127D01*
X13969229Y-16205984D02*
X14007325Y-16205984D01*
X14007325Y-16205984D02*
X14026372Y-16196460D01*
X14026372Y-16196460D02*
X14035896Y-16186936D01*
X14035896Y-16186936D02*
X14054944Y-16158365D01*
X14054944Y-16158365D02*
X14064467Y-16120269D01*
X14064467Y-16120269D02*
X14064467Y-16044079D01*
X14064467Y-16044079D02*
X14054944Y-16025031D01*
X14054944Y-16025031D02*
X14045420Y-16015508D01*
X14045420Y-16015508D02*
X14026372Y-16005984D01*
X14026372Y-16005984D02*
X13988277Y-16005984D01*
X13988277Y-16005984D02*
X13969229Y-16015508D01*
X13969229Y-16015508D02*
X13959706Y-16025031D01*
X13959706Y-16025031D02*
X13950182Y-16044079D01*
X13950182Y-16044079D02*
X13950182Y-16091698D01*
X13950182Y-16091698D02*
X13959706Y-16110746D01*
X13959706Y-16110746D02*
X13969229Y-16120269D01*
X13969229Y-16120269D02*
X13988277Y-16129793D01*
X13988277Y-16129793D02*
X14026372Y-16129793D01*
X14026372Y-16129793D02*
X14045420Y-16120269D01*
X14045420Y-16120269D02*
X14054944Y-16110746D01*
X14054944Y-16110746D02*
X14064467Y-16091698D01*
X14131134Y-16005984D02*
X14264467Y-16005984D01*
X14264467Y-16005984D02*
X14178753Y-16205984D01*
X14331134Y-16005984D02*
X14331134Y-16044079D01*
X14407325Y-16005984D02*
X14407325Y-16044079D01*
X14702563Y-16282174D02*
X14693039Y-16272650D01*
X14693039Y-16272650D02*
X14673991Y-16244079D01*
X14673991Y-16244079D02*
X14664468Y-16225031D01*
X14664468Y-16225031D02*
X14654944Y-16196460D01*
X14654944Y-16196460D02*
X14645420Y-16148841D01*
X14645420Y-16148841D02*
X14645420Y-16110746D01*
X14645420Y-16110746D02*
X14654944Y-16063127D01*
X14654944Y-16063127D02*
X14664468Y-16034555D01*
X14664468Y-16034555D02*
X14673991Y-16015508D01*
X14673991Y-16015508D02*
X14693039Y-15986936D01*
X14693039Y-15986936D02*
X14702563Y-15977412D01*
X14759706Y-16005984D02*
X14883515Y-16005984D01*
X14883515Y-16005984D02*
X14816848Y-16082174D01*
X14816848Y-16082174D02*
X14845420Y-16082174D01*
X14845420Y-16082174D02*
X14864468Y-16091698D01*
X14864468Y-16091698D02*
X14873991Y-16101222D01*
X14873991Y-16101222D02*
X14883515Y-16120269D01*
X14883515Y-16120269D02*
X14883515Y-16167888D01*
X14883515Y-16167888D02*
X14873991Y-16186936D01*
X14873991Y-16186936D02*
X14864468Y-16196460D01*
X14864468Y-16196460D02*
X14845420Y-16205984D01*
X14845420Y-16205984D02*
X14788277Y-16205984D01*
X14788277Y-16205984D02*
X14769229Y-16196460D01*
X14769229Y-16196460D02*
X14759706Y-16186936D01*
X15121610Y-16205984D02*
X15121610Y-16005984D01*
X15207325Y-16205984D02*
X15207325Y-16101222D01*
X15207325Y-16101222D02*
X15197801Y-16082174D01*
X15197801Y-16082174D02*
X15178753Y-16072650D01*
X15178753Y-16072650D02*
X15150182Y-16072650D01*
X15150182Y-16072650D02*
X15131134Y-16082174D01*
X15131134Y-16082174D02*
X15121610Y-16091698D01*
X15331134Y-16205984D02*
X15312087Y-16196460D01*
X15312087Y-16196460D02*
X15302563Y-16186936D01*
X15302563Y-16186936D02*
X15293039Y-16167888D01*
X15293039Y-16167888D02*
X15293039Y-16110746D01*
X15293039Y-16110746D02*
X15302563Y-16091698D01*
X15302563Y-16091698D02*
X15312087Y-16082174D01*
X15312087Y-16082174D02*
X15331134Y-16072650D01*
X15331134Y-16072650D02*
X15359706Y-16072650D01*
X15359706Y-16072650D02*
X15378753Y-16082174D01*
X15378753Y-16082174D02*
X15388277Y-16091698D01*
X15388277Y-16091698D02*
X15397801Y-16110746D01*
X15397801Y-16110746D02*
X15397801Y-16167888D01*
X15397801Y-16167888D02*
X15388277Y-16186936D01*
X15388277Y-16186936D02*
X15378753Y-16196460D01*
X15378753Y-16196460D02*
X15359706Y-16205984D01*
X15359706Y-16205984D02*
X15331134Y-16205984D01*
X15512087Y-16205984D02*
X15493039Y-16196460D01*
X15493039Y-16196460D02*
X15483515Y-16177412D01*
X15483515Y-16177412D02*
X15483515Y-16005984D01*
X15664468Y-16196460D02*
X15645420Y-16205984D01*
X15645420Y-16205984D02*
X15607325Y-16205984D01*
X15607325Y-16205984D02*
X15588277Y-16196460D01*
X15588277Y-16196460D02*
X15578753Y-16177412D01*
X15578753Y-16177412D02*
X15578753Y-16101222D01*
X15578753Y-16101222D02*
X15588277Y-16082174D01*
X15588277Y-16082174D02*
X15607325Y-16072650D01*
X15607325Y-16072650D02*
X15645420Y-16072650D01*
X15645420Y-16072650D02*
X15664468Y-16082174D01*
X15664468Y-16082174D02*
X15673991Y-16101222D01*
X15673991Y-16101222D02*
X15673991Y-16120269D01*
X15673991Y-16120269D02*
X15578753Y-16139317D01*
X15750182Y-16196460D02*
X15769230Y-16205984D01*
X15769230Y-16205984D02*
X15807325Y-16205984D01*
X15807325Y-16205984D02*
X15826372Y-16196460D01*
X15826372Y-16196460D02*
X15835896Y-16177412D01*
X15835896Y-16177412D02*
X15835896Y-16167888D01*
X15835896Y-16167888D02*
X15826372Y-16148841D01*
X15826372Y-16148841D02*
X15807325Y-16139317D01*
X15807325Y-16139317D02*
X15778753Y-16139317D01*
X15778753Y-16139317D02*
X15759706Y-16129793D01*
X15759706Y-16129793D02*
X15750182Y-16110746D01*
X15750182Y-16110746D02*
X15750182Y-16101222D01*
X15750182Y-16101222D02*
X15759706Y-16082174D01*
X15759706Y-16082174D02*
X15778753Y-16072650D01*
X15778753Y-16072650D02*
X15807325Y-16072650D01*
X15807325Y-16072650D02*
X15826372Y-16082174D01*
X15902563Y-16282174D02*
X15912087Y-16272650D01*
X15912087Y-16272650D02*
X15931134Y-16244079D01*
X15931134Y-16244079D02*
X15940658Y-16225031D01*
X15940658Y-16225031D02*
X15950182Y-16196460D01*
X15950182Y-16196460D02*
X15959706Y-16148841D01*
X15959706Y-16148841D02*
X15959706Y-16110746D01*
X15959706Y-16110746D02*
X15950182Y-16063127D01*
X15950182Y-16063127D02*
X15940658Y-16034555D01*
X15940658Y-16034555D02*
X15931134Y-16015508D01*
X15931134Y-16015508D02*
X15912087Y-15986936D01*
X15912087Y-15986936D02*
X15902563Y-15977412D01*
D12*
X11092500Y-16413500D02*
X11127500Y-16378500D01*
X11092500Y-16343500D01*
X11057500Y-16378500D01*
X11092500Y-16413500D01*
D11*
X11426372Y-16269984D02*
X11445420Y-16269984D01*
X11445420Y-16269984D02*
X11464467Y-16279508D01*
X11464467Y-16279508D02*
X11473991Y-16289031D01*
X11473991Y-16289031D02*
X11483515Y-16308079D01*
X11483515Y-16308079D02*
X11493039Y-16346174D01*
X11493039Y-16346174D02*
X11493039Y-16393793D01*
X11493039Y-16393793D02*
X11483515Y-16431888D01*
X11483515Y-16431888D02*
X11473991Y-16450936D01*
X11473991Y-16450936D02*
X11464467Y-16460460D01*
X11464467Y-16460460D02*
X11445420Y-16469984D01*
X11445420Y-16469984D02*
X11426372Y-16469984D01*
X11426372Y-16469984D02*
X11407324Y-16460460D01*
X11407324Y-16460460D02*
X11397801Y-16450936D01*
X11397801Y-16450936D02*
X11388277Y-16431888D01*
X11388277Y-16431888D02*
X11378753Y-16393793D01*
X11378753Y-16393793D02*
X11378753Y-16346174D01*
X11378753Y-16346174D02*
X11388277Y-16308079D01*
X11388277Y-16308079D02*
X11397801Y-16289031D01*
X11397801Y-16289031D02*
X11407324Y-16279508D01*
X11407324Y-16279508D02*
X11426372Y-16269984D01*
X11578753Y-16450936D02*
X11588277Y-16460460D01*
X11588277Y-16460460D02*
X11578753Y-16469984D01*
X11578753Y-16469984D02*
X11569229Y-16460460D01*
X11569229Y-16460460D02*
X11578753Y-16450936D01*
X11578753Y-16450936D02*
X11578753Y-16469984D01*
X11654943Y-16269984D02*
X11788277Y-16269984D01*
X11788277Y-16269984D02*
X11702562Y-16469984D01*
X11902562Y-16269984D02*
X11921610Y-16269984D01*
X11921610Y-16269984D02*
X11940658Y-16279508D01*
X11940658Y-16279508D02*
X11950182Y-16289031D01*
X11950182Y-16289031D02*
X11959705Y-16308079D01*
X11959705Y-16308079D02*
X11969229Y-16346174D01*
X11969229Y-16346174D02*
X11969229Y-16393793D01*
X11969229Y-16393793D02*
X11959705Y-16431888D01*
X11959705Y-16431888D02*
X11950182Y-16450936D01*
X11950182Y-16450936D02*
X11940658Y-16460460D01*
X11940658Y-16460460D02*
X11921610Y-16469984D01*
X11921610Y-16469984D02*
X11902562Y-16469984D01*
X11902562Y-16469984D02*
X11883515Y-16460460D01*
X11883515Y-16460460D02*
X11873991Y-16450936D01*
X11873991Y-16450936D02*
X11864467Y-16431888D01*
X11864467Y-16431888D02*
X11854943Y-16393793D01*
X11854943Y-16393793D02*
X11854943Y-16346174D01*
X11854943Y-16346174D02*
X11864467Y-16308079D01*
X11864467Y-16308079D02*
X11873991Y-16289031D01*
X11873991Y-16289031D02*
X11883515Y-16279508D01*
X11883515Y-16279508D02*
X11902562Y-16269984D01*
X12093039Y-16269984D02*
X12112086Y-16269984D01*
X12112086Y-16269984D02*
X12131134Y-16279508D01*
X12131134Y-16279508D02*
X12140658Y-16289031D01*
X12140658Y-16289031D02*
X12150182Y-16308079D01*
X12150182Y-16308079D02*
X12159705Y-16346174D01*
X12159705Y-16346174D02*
X12159705Y-16393793D01*
X12159705Y-16393793D02*
X12150182Y-16431888D01*
X12150182Y-16431888D02*
X12140658Y-16450936D01*
X12140658Y-16450936D02*
X12131134Y-16460460D01*
X12131134Y-16460460D02*
X12112086Y-16469984D01*
X12112086Y-16469984D02*
X12093039Y-16469984D01*
X12093039Y-16469984D02*
X12073991Y-16460460D01*
X12073991Y-16460460D02*
X12064467Y-16450936D01*
X12064467Y-16450936D02*
X12054943Y-16431888D01*
X12054943Y-16431888D02*
X12045420Y-16393793D01*
X12045420Y-16393793D02*
X12045420Y-16346174D01*
X12045420Y-16346174D02*
X12054943Y-16308079D01*
X12054943Y-16308079D02*
X12064467Y-16289031D01*
X12064467Y-16289031D02*
X12073991Y-16279508D01*
X12073991Y-16279508D02*
X12093039Y-16269984D01*
X12245420Y-16469984D02*
X12245420Y-16336650D01*
X12245420Y-16355698D02*
X12254943Y-16346174D01*
X12254943Y-16346174D02*
X12273991Y-16336650D01*
X12273991Y-16336650D02*
X12302563Y-16336650D01*
X12302563Y-16336650D02*
X12321610Y-16346174D01*
X12321610Y-16346174D02*
X12331134Y-16365222D01*
X12331134Y-16365222D02*
X12331134Y-16469984D01*
X12331134Y-16365222D02*
X12340658Y-16346174D01*
X12340658Y-16346174D02*
X12359705Y-16336650D01*
X12359705Y-16336650D02*
X12388277Y-16336650D01*
X12388277Y-16336650D02*
X12407324Y-16346174D01*
X12407324Y-16346174D02*
X12416848Y-16365222D01*
X12416848Y-16365222D02*
X12416848Y-16469984D01*
X12512086Y-16469984D02*
X12512086Y-16336650D01*
X12512086Y-16355698D02*
X12521610Y-16346174D01*
X12521610Y-16346174D02*
X12540658Y-16336650D01*
X12540658Y-16336650D02*
X12569229Y-16336650D01*
X12569229Y-16336650D02*
X12588277Y-16346174D01*
X12588277Y-16346174D02*
X12597801Y-16365222D01*
X12597801Y-16365222D02*
X12597801Y-16469984D01*
X12597801Y-16365222D02*
X12607324Y-16346174D01*
X12607324Y-16346174D02*
X12626372Y-16336650D01*
X12626372Y-16336650D02*
X12654943Y-16336650D01*
X12654943Y-16336650D02*
X12673991Y-16346174D01*
X12673991Y-16346174D02*
X12683515Y-16365222D01*
X12683515Y-16365222D02*
X12683515Y-16469984D01*
X13073991Y-16260460D02*
X12902563Y-16517603D01*
X13331134Y-16269984D02*
X13350182Y-16269984D01*
X13350182Y-16269984D02*
X13369229Y-16279508D01*
X13369229Y-16279508D02*
X13378753Y-16289031D01*
X13378753Y-16289031D02*
X13388277Y-16308079D01*
X13388277Y-16308079D02*
X13397801Y-16346174D01*
X13397801Y-16346174D02*
X13397801Y-16393793D01*
X13397801Y-16393793D02*
X13388277Y-16431888D01*
X13388277Y-16431888D02*
X13378753Y-16450936D01*
X13378753Y-16450936D02*
X13369229Y-16460460D01*
X13369229Y-16460460D02*
X13350182Y-16469984D01*
X13350182Y-16469984D02*
X13331134Y-16469984D01*
X13331134Y-16469984D02*
X13312086Y-16460460D01*
X13312086Y-16460460D02*
X13302563Y-16450936D01*
X13302563Y-16450936D02*
X13293039Y-16431888D01*
X13293039Y-16431888D02*
X13283515Y-16393793D01*
X13283515Y-16393793D02*
X13283515Y-16346174D01*
X13283515Y-16346174D02*
X13293039Y-16308079D01*
X13293039Y-16308079D02*
X13302563Y-16289031D01*
X13302563Y-16289031D02*
X13312086Y-16279508D01*
X13312086Y-16279508D02*
X13331134Y-16269984D01*
X13483515Y-16450936D02*
X13493039Y-16460460D01*
X13493039Y-16460460D02*
X13483515Y-16469984D01*
X13483515Y-16469984D02*
X13473991Y-16460460D01*
X13473991Y-16460460D02*
X13483515Y-16450936D01*
X13483515Y-16450936D02*
X13483515Y-16469984D01*
X13616848Y-16269984D02*
X13635896Y-16269984D01*
X13635896Y-16269984D02*
X13654944Y-16279508D01*
X13654944Y-16279508D02*
X13664467Y-16289031D01*
X13664467Y-16289031D02*
X13673991Y-16308079D01*
X13673991Y-16308079D02*
X13683515Y-16346174D01*
X13683515Y-16346174D02*
X13683515Y-16393793D01*
X13683515Y-16393793D02*
X13673991Y-16431888D01*
X13673991Y-16431888D02*
X13664467Y-16450936D01*
X13664467Y-16450936D02*
X13654944Y-16460460D01*
X13654944Y-16460460D02*
X13635896Y-16469984D01*
X13635896Y-16469984D02*
X13616848Y-16469984D01*
X13616848Y-16469984D02*
X13597801Y-16460460D01*
X13597801Y-16460460D02*
X13588277Y-16450936D01*
X13588277Y-16450936D02*
X13578753Y-16431888D01*
X13578753Y-16431888D02*
X13569229Y-16393793D01*
X13569229Y-16393793D02*
X13569229Y-16346174D01*
X13569229Y-16346174D02*
X13578753Y-16308079D01*
X13578753Y-16308079D02*
X13588277Y-16289031D01*
X13588277Y-16289031D02*
X13597801Y-16279508D01*
X13597801Y-16279508D02*
X13616848Y-16269984D01*
X13759706Y-16289031D02*
X13769229Y-16279508D01*
X13769229Y-16279508D02*
X13788277Y-16269984D01*
X13788277Y-16269984D02*
X13835896Y-16269984D01*
X13835896Y-16269984D02*
X13854944Y-16279508D01*
X13854944Y-16279508D02*
X13864467Y-16289031D01*
X13864467Y-16289031D02*
X13873991Y-16308079D01*
X13873991Y-16308079D02*
X13873991Y-16327127D01*
X13873991Y-16327127D02*
X13864467Y-16355698D01*
X13864467Y-16355698D02*
X13750182Y-16469984D01*
X13750182Y-16469984D02*
X13873991Y-16469984D01*
X13940658Y-16269984D02*
X14073991Y-16269984D01*
X14073991Y-16269984D02*
X13988277Y-16469984D01*
X14235896Y-16269984D02*
X14197801Y-16269984D01*
X14197801Y-16269984D02*
X14178753Y-16279508D01*
X14178753Y-16279508D02*
X14169229Y-16289031D01*
X14169229Y-16289031D02*
X14150182Y-16317603D01*
X14150182Y-16317603D02*
X14140658Y-16355698D01*
X14140658Y-16355698D02*
X14140658Y-16431888D01*
X14140658Y-16431888D02*
X14150182Y-16450936D01*
X14150182Y-16450936D02*
X14159706Y-16460460D01*
X14159706Y-16460460D02*
X14178753Y-16469984D01*
X14178753Y-16469984D02*
X14216848Y-16469984D01*
X14216848Y-16469984D02*
X14235896Y-16460460D01*
X14235896Y-16460460D02*
X14245420Y-16450936D01*
X14245420Y-16450936D02*
X14254944Y-16431888D01*
X14254944Y-16431888D02*
X14254944Y-16384269D01*
X14254944Y-16384269D02*
X14245420Y-16365222D01*
X14245420Y-16365222D02*
X14235896Y-16355698D01*
X14235896Y-16355698D02*
X14216848Y-16346174D01*
X14216848Y-16346174D02*
X14178753Y-16346174D01*
X14178753Y-16346174D02*
X14159706Y-16355698D01*
X14159706Y-16355698D02*
X14150182Y-16365222D01*
X14150182Y-16365222D02*
X14140658Y-16384269D01*
X14331134Y-16269984D02*
X14331134Y-16308079D01*
X14407325Y-16269984D02*
X14407325Y-16308079D01*
X14702563Y-16546174D02*
X14693039Y-16536650D01*
X14693039Y-16536650D02*
X14673991Y-16508079D01*
X14673991Y-16508079D02*
X14664468Y-16489031D01*
X14664468Y-16489031D02*
X14654944Y-16460460D01*
X14654944Y-16460460D02*
X14645420Y-16412841D01*
X14645420Y-16412841D02*
X14645420Y-16374746D01*
X14645420Y-16374746D02*
X14654944Y-16327127D01*
X14654944Y-16327127D02*
X14664468Y-16298555D01*
X14664468Y-16298555D02*
X14673991Y-16279508D01*
X14673991Y-16279508D02*
X14693039Y-16250936D01*
X14693039Y-16250936D02*
X14702563Y-16241412D01*
X14807325Y-16355698D02*
X14788277Y-16346174D01*
X14788277Y-16346174D02*
X14778753Y-16336650D01*
X14778753Y-16336650D02*
X14769229Y-16317603D01*
X14769229Y-16317603D02*
X14769229Y-16308079D01*
X14769229Y-16308079D02*
X14778753Y-16289031D01*
X14778753Y-16289031D02*
X14788277Y-16279508D01*
X14788277Y-16279508D02*
X14807325Y-16269984D01*
X14807325Y-16269984D02*
X14845420Y-16269984D01*
X14845420Y-16269984D02*
X14864468Y-16279508D01*
X14864468Y-16279508D02*
X14873991Y-16289031D01*
X14873991Y-16289031D02*
X14883515Y-16308079D01*
X14883515Y-16308079D02*
X14883515Y-16317603D01*
X14883515Y-16317603D02*
X14873991Y-16336650D01*
X14873991Y-16336650D02*
X14864468Y-16346174D01*
X14864468Y-16346174D02*
X14845420Y-16355698D01*
X14845420Y-16355698D02*
X14807325Y-16355698D01*
X14807325Y-16355698D02*
X14788277Y-16365222D01*
X14788277Y-16365222D02*
X14778753Y-16374746D01*
X14778753Y-16374746D02*
X14769229Y-16393793D01*
X14769229Y-16393793D02*
X14769229Y-16431888D01*
X14769229Y-16431888D02*
X14778753Y-16450936D01*
X14778753Y-16450936D02*
X14788277Y-16460460D01*
X14788277Y-16460460D02*
X14807325Y-16469984D01*
X14807325Y-16469984D02*
X14845420Y-16469984D01*
X14845420Y-16469984D02*
X14864468Y-16460460D01*
X14864468Y-16460460D02*
X14873991Y-16450936D01*
X14873991Y-16450936D02*
X14883515Y-16431888D01*
X14883515Y-16431888D02*
X14883515Y-16393793D01*
X14883515Y-16393793D02*
X14873991Y-16374746D01*
X14873991Y-16374746D02*
X14864468Y-16365222D01*
X14864468Y-16365222D02*
X14845420Y-16355698D01*
X15121610Y-16469984D02*
X15121610Y-16269984D01*
X15207325Y-16469984D02*
X15207325Y-16365222D01*
X15207325Y-16365222D02*
X15197801Y-16346174D01*
X15197801Y-16346174D02*
X15178753Y-16336650D01*
X15178753Y-16336650D02*
X15150182Y-16336650D01*
X15150182Y-16336650D02*
X15131134Y-16346174D01*
X15131134Y-16346174D02*
X15121610Y-16355698D01*
X15331134Y-16469984D02*
X15312087Y-16460460D01*
X15312087Y-16460460D02*
X15302563Y-16450936D01*
X15302563Y-16450936D02*
X15293039Y-16431888D01*
X15293039Y-16431888D02*
X15293039Y-16374746D01*
X15293039Y-16374746D02*
X15302563Y-16355698D01*
X15302563Y-16355698D02*
X15312087Y-16346174D01*
X15312087Y-16346174D02*
X15331134Y-16336650D01*
X15331134Y-16336650D02*
X15359706Y-16336650D01*
X15359706Y-16336650D02*
X15378753Y-16346174D01*
X15378753Y-16346174D02*
X15388277Y-16355698D01*
X15388277Y-16355698D02*
X15397801Y-16374746D01*
X15397801Y-16374746D02*
X15397801Y-16431888D01*
X15397801Y-16431888D02*
X15388277Y-16450936D01*
X15388277Y-16450936D02*
X15378753Y-16460460D01*
X15378753Y-16460460D02*
X15359706Y-16469984D01*
X15359706Y-16469984D02*
X15331134Y-16469984D01*
X15512087Y-16469984D02*
X15493039Y-16460460D01*
X15493039Y-16460460D02*
X15483515Y-16441412D01*
X15483515Y-16441412D02*
X15483515Y-16269984D01*
X15664468Y-16460460D02*
X15645420Y-16469984D01*
X15645420Y-16469984D02*
X15607325Y-16469984D01*
X15607325Y-16469984D02*
X15588277Y-16460460D01*
X15588277Y-16460460D02*
X15578753Y-16441412D01*
X15578753Y-16441412D02*
X15578753Y-16365222D01*
X15578753Y-16365222D02*
X15588277Y-16346174D01*
X15588277Y-16346174D02*
X15607325Y-16336650D01*
X15607325Y-16336650D02*
X15645420Y-16336650D01*
X15645420Y-16336650D02*
X15664468Y-16346174D01*
X15664468Y-16346174D02*
X15673991Y-16365222D01*
X15673991Y-16365222D02*
X15673991Y-16384269D01*
X15673991Y-16384269D02*
X15578753Y-16403317D01*
X15750182Y-16460460D02*
X15769230Y-16469984D01*
X15769230Y-16469984D02*
X15807325Y-16469984D01*
X15807325Y-16469984D02*
X15826372Y-16460460D01*
X15826372Y-16460460D02*
X15835896Y-16441412D01*
X15835896Y-16441412D02*
X15835896Y-16431888D01*
X15835896Y-16431888D02*
X15826372Y-16412841D01*
X15826372Y-16412841D02*
X15807325Y-16403317D01*
X15807325Y-16403317D02*
X15778753Y-16403317D01*
X15778753Y-16403317D02*
X15759706Y-16393793D01*
X15759706Y-16393793D02*
X15750182Y-16374746D01*
X15750182Y-16374746D02*
X15750182Y-16365222D01*
X15750182Y-16365222D02*
X15759706Y-16346174D01*
X15759706Y-16346174D02*
X15778753Y-16336650D01*
X15778753Y-16336650D02*
X15807325Y-16336650D01*
X15807325Y-16336650D02*
X15826372Y-16346174D01*
X15902563Y-16546174D02*
X15912087Y-16536650D01*
X15912087Y-16536650D02*
X15931134Y-16508079D01*
X15931134Y-16508079D02*
X15940658Y-16489031D01*
X15940658Y-16489031D02*
X15950182Y-16460460D01*
X15950182Y-16460460D02*
X15959706Y-16412841D01*
X15959706Y-16412841D02*
X15959706Y-16374746D01*
X15959706Y-16374746D02*
X15950182Y-16327127D01*
X15950182Y-16327127D02*
X15940658Y-16298555D01*
X15940658Y-16298555D02*
X15931134Y-16279508D01*
X15931134Y-16279508D02*
X15912087Y-16250936D01*
X15912087Y-16250936D02*
X15902563Y-16241412D01*
D13*
X11007500Y-16582500D02*
X11127500Y-16702500D01*
X11127500Y-16582500D02*
X11007500Y-16702500D01*
X11127500Y-16642500D02*
G75*
G02*
X11007500Y-16642500I-60000J0D01*
G01*
X11007500Y-16642500D02*
G75*
G02*
X11127500Y-16642500I60000J0D01*
G01*
D11*
X11493039Y-16733984D02*
X11378753Y-16733984D01*
X11435896Y-16733984D02*
X11435896Y-16533984D01*
X11435896Y-16533984D02*
X11416848Y-16562555D01*
X11416848Y-16562555D02*
X11397801Y-16581603D01*
X11397801Y-16581603D02*
X11378753Y-16591127D01*
X11578753Y-16714936D02*
X11588277Y-16724460D01*
X11588277Y-16724460D02*
X11578753Y-16733984D01*
X11578753Y-16733984D02*
X11569229Y-16724460D01*
X11569229Y-16724460D02*
X11578753Y-16714936D01*
X11578753Y-16714936D02*
X11578753Y-16733984D01*
X11664467Y-16553031D02*
X11673991Y-16543508D01*
X11673991Y-16543508D02*
X11693039Y-16533984D01*
X11693039Y-16533984D02*
X11740658Y-16533984D01*
X11740658Y-16533984D02*
X11759705Y-16543508D01*
X11759705Y-16543508D02*
X11769229Y-16553031D01*
X11769229Y-16553031D02*
X11778753Y-16572079D01*
X11778753Y-16572079D02*
X11778753Y-16591127D01*
X11778753Y-16591127D02*
X11769229Y-16619698D01*
X11769229Y-16619698D02*
X11654943Y-16733984D01*
X11654943Y-16733984D02*
X11778753Y-16733984D01*
X11902562Y-16533984D02*
X11921610Y-16533984D01*
X11921610Y-16533984D02*
X11940658Y-16543508D01*
X11940658Y-16543508D02*
X11950182Y-16553031D01*
X11950182Y-16553031D02*
X11959705Y-16572079D01*
X11959705Y-16572079D02*
X11969229Y-16610174D01*
X11969229Y-16610174D02*
X11969229Y-16657793D01*
X11969229Y-16657793D02*
X11959705Y-16695888D01*
X11959705Y-16695888D02*
X11950182Y-16714936D01*
X11950182Y-16714936D02*
X11940658Y-16724460D01*
X11940658Y-16724460D02*
X11921610Y-16733984D01*
X11921610Y-16733984D02*
X11902562Y-16733984D01*
X11902562Y-16733984D02*
X11883515Y-16724460D01*
X11883515Y-16724460D02*
X11873991Y-16714936D01*
X11873991Y-16714936D02*
X11864467Y-16695888D01*
X11864467Y-16695888D02*
X11854943Y-16657793D01*
X11854943Y-16657793D02*
X11854943Y-16610174D01*
X11854943Y-16610174D02*
X11864467Y-16572079D01*
X11864467Y-16572079D02*
X11873991Y-16553031D01*
X11873991Y-16553031D02*
X11883515Y-16543508D01*
X11883515Y-16543508D02*
X11902562Y-16533984D01*
X12093039Y-16533984D02*
X12112086Y-16533984D01*
X12112086Y-16533984D02*
X12131134Y-16543508D01*
X12131134Y-16543508D02*
X12140658Y-16553031D01*
X12140658Y-16553031D02*
X12150182Y-16572079D01*
X12150182Y-16572079D02*
X12159705Y-16610174D01*
X12159705Y-16610174D02*
X12159705Y-16657793D01*
X12159705Y-16657793D02*
X12150182Y-16695888D01*
X12150182Y-16695888D02*
X12140658Y-16714936D01*
X12140658Y-16714936D02*
X12131134Y-16724460D01*
X12131134Y-16724460D02*
X12112086Y-16733984D01*
X12112086Y-16733984D02*
X12093039Y-16733984D01*
X12093039Y-16733984D02*
X12073991Y-16724460D01*
X12073991Y-16724460D02*
X12064467Y-16714936D01*
X12064467Y-16714936D02*
X12054943Y-16695888D01*
X12054943Y-16695888D02*
X12045420Y-16657793D01*
X12045420Y-16657793D02*
X12045420Y-16610174D01*
X12045420Y-16610174D02*
X12054943Y-16572079D01*
X12054943Y-16572079D02*
X12064467Y-16553031D01*
X12064467Y-16553031D02*
X12073991Y-16543508D01*
X12073991Y-16543508D02*
X12093039Y-16533984D01*
X12245420Y-16733984D02*
X12245420Y-16600650D01*
X12245420Y-16619698D02*
X12254943Y-16610174D01*
X12254943Y-16610174D02*
X12273991Y-16600650D01*
X12273991Y-16600650D02*
X12302563Y-16600650D01*
X12302563Y-16600650D02*
X12321610Y-16610174D01*
X12321610Y-16610174D02*
X12331134Y-16629222D01*
X12331134Y-16629222D02*
X12331134Y-16733984D01*
X12331134Y-16629222D02*
X12340658Y-16610174D01*
X12340658Y-16610174D02*
X12359705Y-16600650D01*
X12359705Y-16600650D02*
X12388277Y-16600650D01*
X12388277Y-16600650D02*
X12407324Y-16610174D01*
X12407324Y-16610174D02*
X12416848Y-16629222D01*
X12416848Y-16629222D02*
X12416848Y-16733984D01*
X12512086Y-16733984D02*
X12512086Y-16600650D01*
X12512086Y-16619698D02*
X12521610Y-16610174D01*
X12521610Y-16610174D02*
X12540658Y-16600650D01*
X12540658Y-16600650D02*
X12569229Y-16600650D01*
X12569229Y-16600650D02*
X12588277Y-16610174D01*
X12588277Y-16610174D02*
X12597801Y-16629222D01*
X12597801Y-16629222D02*
X12597801Y-16733984D01*
X12597801Y-16629222D02*
X12607324Y-16610174D01*
X12607324Y-16610174D02*
X12626372Y-16600650D01*
X12626372Y-16600650D02*
X12654943Y-16600650D01*
X12654943Y-16600650D02*
X12673991Y-16610174D01*
X12673991Y-16610174D02*
X12683515Y-16629222D01*
X12683515Y-16629222D02*
X12683515Y-16733984D01*
X13073991Y-16524460D02*
X12902563Y-16781603D01*
X13331134Y-16533984D02*
X13350182Y-16533984D01*
X13350182Y-16533984D02*
X13369229Y-16543508D01*
X13369229Y-16543508D02*
X13378753Y-16553031D01*
X13378753Y-16553031D02*
X13388277Y-16572079D01*
X13388277Y-16572079D02*
X13397801Y-16610174D01*
X13397801Y-16610174D02*
X13397801Y-16657793D01*
X13397801Y-16657793D02*
X13388277Y-16695888D01*
X13388277Y-16695888D02*
X13378753Y-16714936D01*
X13378753Y-16714936D02*
X13369229Y-16724460D01*
X13369229Y-16724460D02*
X13350182Y-16733984D01*
X13350182Y-16733984D02*
X13331134Y-16733984D01*
X13331134Y-16733984D02*
X13312086Y-16724460D01*
X13312086Y-16724460D02*
X13302563Y-16714936D01*
X13302563Y-16714936D02*
X13293039Y-16695888D01*
X13293039Y-16695888D02*
X13283515Y-16657793D01*
X13283515Y-16657793D02*
X13283515Y-16610174D01*
X13283515Y-16610174D02*
X13293039Y-16572079D01*
X13293039Y-16572079D02*
X13302563Y-16553031D01*
X13302563Y-16553031D02*
X13312086Y-16543508D01*
X13312086Y-16543508D02*
X13331134Y-16533984D01*
X13483515Y-16714936D02*
X13493039Y-16724460D01*
X13493039Y-16724460D02*
X13483515Y-16733984D01*
X13483515Y-16733984D02*
X13473991Y-16724460D01*
X13473991Y-16724460D02*
X13483515Y-16714936D01*
X13483515Y-16714936D02*
X13483515Y-16733984D01*
X13616848Y-16533984D02*
X13635896Y-16533984D01*
X13635896Y-16533984D02*
X13654944Y-16543508D01*
X13654944Y-16543508D02*
X13664467Y-16553031D01*
X13664467Y-16553031D02*
X13673991Y-16572079D01*
X13673991Y-16572079D02*
X13683515Y-16610174D01*
X13683515Y-16610174D02*
X13683515Y-16657793D01*
X13683515Y-16657793D02*
X13673991Y-16695888D01*
X13673991Y-16695888D02*
X13664467Y-16714936D01*
X13664467Y-16714936D02*
X13654944Y-16724460D01*
X13654944Y-16724460D02*
X13635896Y-16733984D01*
X13635896Y-16733984D02*
X13616848Y-16733984D01*
X13616848Y-16733984D02*
X13597801Y-16724460D01*
X13597801Y-16724460D02*
X13588277Y-16714936D01*
X13588277Y-16714936D02*
X13578753Y-16695888D01*
X13578753Y-16695888D02*
X13569229Y-16657793D01*
X13569229Y-16657793D02*
X13569229Y-16610174D01*
X13569229Y-16610174D02*
X13578753Y-16572079D01*
X13578753Y-16572079D02*
X13588277Y-16553031D01*
X13588277Y-16553031D02*
X13597801Y-16543508D01*
X13597801Y-16543508D02*
X13616848Y-16533984D01*
X13854944Y-16600650D02*
X13854944Y-16733984D01*
X13807325Y-16524460D02*
X13759706Y-16667317D01*
X13759706Y-16667317D02*
X13883515Y-16667317D01*
X13940658Y-16533984D02*
X14073991Y-16533984D01*
X14073991Y-16533984D02*
X13988277Y-16733984D01*
X14140658Y-16553031D02*
X14150182Y-16543508D01*
X14150182Y-16543508D02*
X14169229Y-16533984D01*
X14169229Y-16533984D02*
X14216848Y-16533984D01*
X14216848Y-16533984D02*
X14235896Y-16543508D01*
X14235896Y-16543508D02*
X14245420Y-16553031D01*
X14245420Y-16553031D02*
X14254944Y-16572079D01*
X14254944Y-16572079D02*
X14254944Y-16591127D01*
X14254944Y-16591127D02*
X14245420Y-16619698D01*
X14245420Y-16619698D02*
X14131134Y-16733984D01*
X14131134Y-16733984D02*
X14254944Y-16733984D01*
X14331134Y-16533984D02*
X14331134Y-16572079D01*
X14407325Y-16533984D02*
X14407325Y-16572079D01*
X14702563Y-16810174D02*
X14693039Y-16800650D01*
X14693039Y-16800650D02*
X14673991Y-16772079D01*
X14673991Y-16772079D02*
X14664468Y-16753031D01*
X14664468Y-16753031D02*
X14654944Y-16724460D01*
X14654944Y-16724460D02*
X14645420Y-16676841D01*
X14645420Y-16676841D02*
X14645420Y-16638746D01*
X14645420Y-16638746D02*
X14654944Y-16591127D01*
X14654944Y-16591127D02*
X14664468Y-16562555D01*
X14664468Y-16562555D02*
X14673991Y-16543508D01*
X14673991Y-16543508D02*
X14693039Y-16514936D01*
X14693039Y-16514936D02*
X14702563Y-16505412D01*
X14759706Y-16533984D02*
X14883515Y-16533984D01*
X14883515Y-16533984D02*
X14816848Y-16610174D01*
X14816848Y-16610174D02*
X14845420Y-16610174D01*
X14845420Y-16610174D02*
X14864468Y-16619698D01*
X14864468Y-16619698D02*
X14873991Y-16629222D01*
X14873991Y-16629222D02*
X14883515Y-16648269D01*
X14883515Y-16648269D02*
X14883515Y-16695888D01*
X14883515Y-16695888D02*
X14873991Y-16714936D01*
X14873991Y-16714936D02*
X14864468Y-16724460D01*
X14864468Y-16724460D02*
X14845420Y-16733984D01*
X14845420Y-16733984D02*
X14788277Y-16733984D01*
X14788277Y-16733984D02*
X14769229Y-16724460D01*
X14769229Y-16724460D02*
X14759706Y-16714936D01*
X15121610Y-16733984D02*
X15121610Y-16533984D01*
X15207325Y-16733984D02*
X15207325Y-16629222D01*
X15207325Y-16629222D02*
X15197801Y-16610174D01*
X15197801Y-16610174D02*
X15178753Y-16600650D01*
X15178753Y-16600650D02*
X15150182Y-16600650D01*
X15150182Y-16600650D02*
X15131134Y-16610174D01*
X15131134Y-16610174D02*
X15121610Y-16619698D01*
X15331134Y-16733984D02*
X15312087Y-16724460D01*
X15312087Y-16724460D02*
X15302563Y-16714936D01*
X15302563Y-16714936D02*
X15293039Y-16695888D01*
X15293039Y-16695888D02*
X15293039Y-16638746D01*
X15293039Y-16638746D02*
X15302563Y-16619698D01*
X15302563Y-16619698D02*
X15312087Y-16610174D01*
X15312087Y-16610174D02*
X15331134Y-16600650D01*
X15331134Y-16600650D02*
X15359706Y-16600650D01*
X15359706Y-16600650D02*
X15378753Y-16610174D01*
X15378753Y-16610174D02*
X15388277Y-16619698D01*
X15388277Y-16619698D02*
X15397801Y-16638746D01*
X15397801Y-16638746D02*
X15397801Y-16695888D01*
X15397801Y-16695888D02*
X15388277Y-16714936D01*
X15388277Y-16714936D02*
X15378753Y-16724460D01*
X15378753Y-16724460D02*
X15359706Y-16733984D01*
X15359706Y-16733984D02*
X15331134Y-16733984D01*
X15512087Y-16733984D02*
X15493039Y-16724460D01*
X15493039Y-16724460D02*
X15483515Y-16705412D01*
X15483515Y-16705412D02*
X15483515Y-16533984D01*
X15664468Y-16724460D02*
X15645420Y-16733984D01*
X15645420Y-16733984D02*
X15607325Y-16733984D01*
X15607325Y-16733984D02*
X15588277Y-16724460D01*
X15588277Y-16724460D02*
X15578753Y-16705412D01*
X15578753Y-16705412D02*
X15578753Y-16629222D01*
X15578753Y-16629222D02*
X15588277Y-16610174D01*
X15588277Y-16610174D02*
X15607325Y-16600650D01*
X15607325Y-16600650D02*
X15645420Y-16600650D01*
X15645420Y-16600650D02*
X15664468Y-16610174D01*
X15664468Y-16610174D02*
X15673991Y-16629222D01*
X15673991Y-16629222D02*
X15673991Y-16648269D01*
X15673991Y-16648269D02*
X15578753Y-16667317D01*
X15750182Y-16724460D02*
X15769230Y-16733984D01*
X15769230Y-16733984D02*
X15807325Y-16733984D01*
X15807325Y-16733984D02*
X15826372Y-16724460D01*
X15826372Y-16724460D02*
X15835896Y-16705412D01*
X15835896Y-16705412D02*
X15835896Y-16695888D01*
X15835896Y-16695888D02*
X15826372Y-16676841D01*
X15826372Y-16676841D02*
X15807325Y-16667317D01*
X15807325Y-16667317D02*
X15778753Y-16667317D01*
X15778753Y-16667317D02*
X15759706Y-16657793D01*
X15759706Y-16657793D02*
X15750182Y-16638746D01*
X15750182Y-16638746D02*
X15750182Y-16629222D01*
X15750182Y-16629222D02*
X15759706Y-16610174D01*
X15759706Y-16610174D02*
X15778753Y-16600650D01*
X15778753Y-16600650D02*
X15807325Y-16600650D01*
X15807325Y-16600650D02*
X15826372Y-16610174D01*
X15902563Y-16810174D02*
X15912087Y-16800650D01*
X15912087Y-16800650D02*
X15931134Y-16772079D01*
X15931134Y-16772079D02*
X15940658Y-16753031D01*
X15940658Y-16753031D02*
X15950182Y-16724460D01*
X15950182Y-16724460D02*
X15959706Y-16676841D01*
X15959706Y-16676841D02*
X15959706Y-16638746D01*
X15959706Y-16638746D02*
X15950182Y-16591127D01*
X15950182Y-16591127D02*
X15940658Y-16562555D01*
X15940658Y-16562555D02*
X15931134Y-16543508D01*
X15931134Y-16543508D02*
X15912087Y-16514936D01*
X15912087Y-16514936D02*
X15902563Y-16505412D01*
M02*
