%TF.GenerationSoftware,KiCad,Pcbnew,8.0.6*%
%TF.CreationDate,2025-02-11T20:42:12+01:00*%
%TF.ProjectId,KWLcontrol,4b574c63-6f6e-4747-926f-6c2e6b696361,rev?*%
%TF.SameCoordinates,Original*%
%TF.FileFunction,Legend,Top*%
%TF.FilePolarity,Positive*%
%FSLAX46Y46*%
G04 Gerber Fmt 4.6, Leading zero omitted, Abs format (unit mm)*
G04 Created by KiCad (PCBNEW 8.0.6) date 2025-02-11 20:42:12*
%MOMM*%
%LPD*%
G01*
G04 APERTURE LIST*
%ADD10C,0.120000*%
G04 APERTURE END LIST*
D10*
%TO.C,PS1*%
X115880000Y-108880000D02*
X140120000Y-108880000D01*
X115880000Y-146120000D02*
X115880000Y-108880000D01*
X140120000Y-108880000D02*
X140120000Y-146120000D01*
X140120000Y-146120000D02*
X115880000Y-146120000D01*
%TO.C,R1*%
X152301000Y-134322936D02*
X152301000Y-134777064D01*
X153771000Y-134322936D02*
X153771000Y-134777064D01*
%TO.C,D4*%
X145765000Y-121615000D02*
X145765000Y-124075000D01*
X147235000Y-121615000D02*
X145765000Y-121615000D01*
X147235000Y-124075000D02*
X147235000Y-121615000D01*
%TO.C,C2*%
X149829000Y-134288748D02*
X149829000Y-134811252D01*
X151299000Y-134288748D02*
X151299000Y-134811252D01*
%TO.C,C3*%
X144290000Y-110446267D02*
X144290000Y-110153733D01*
X145310000Y-110446267D02*
X145310000Y-110153733D01*
%TO.C,D1*%
X152301000Y-138252500D02*
X152301000Y-140712500D01*
X152301000Y-140712500D02*
X153771000Y-140712500D01*
X153771000Y-140712500D02*
X153771000Y-138252500D01*
%TO.C,J2*%
X158900000Y-143700000D02*
X159500000Y-144000000D01*
X158900000Y-144300000D02*
X158900000Y-143700000D01*
X159500000Y-144000000D02*
X158900000Y-144300000D01*
X160190000Y-133670000D02*
X160190000Y-135330000D01*
X160190000Y-139140000D02*
X160190000Y-137430000D01*
X160190000Y-142950000D02*
X160190000Y-141240000D01*
X160190000Y-146710000D02*
X160190000Y-145050000D01*
X160190000Y-146710000D02*
X169610000Y-146710000D01*
X166300000Y-146710000D02*
X166300000Y-133670000D01*
X169610000Y-133670000D02*
X160190000Y-133670000D01*
X169610000Y-146710000D02*
X169610000Y-133670000D01*
%TO.C,J3*%
X160145000Y-131795000D02*
X160145000Y-131100000D01*
X160830000Y-131795000D02*
X160145000Y-131795000D01*
X161515000Y-130405000D02*
X163390000Y-130405000D01*
X161515000Y-130491724D02*
X161515000Y-130405000D01*
X161515000Y-131795000D02*
X161515000Y-131708276D01*
X161515000Y-131795000D02*
X163390000Y-131795000D01*
X163390000Y-130705507D02*
X163390000Y-130405000D01*
X163390000Y-131795000D02*
X163390000Y-131494493D01*
%TO.C,R2*%
X144915000Y-134322936D02*
X144915000Y-134777064D01*
X146385000Y-134322936D02*
X146385000Y-134777064D01*
%TO.C,C5*%
X144945000Y-143861252D02*
X144945000Y-143338748D01*
X146415000Y-143861252D02*
X146415000Y-143338748D01*
%TO.C,U2*%
X145810000Y-140260000D02*
X145810000Y-138260000D01*
X148090000Y-140250000D02*
X148090000Y-138250000D01*
X145880000Y-140900000D02*
X145600000Y-140620000D01*
X145880000Y-140620000D01*
X145880000Y-140900000D01*
G36*
X145880000Y-140900000D02*
G01*
X145600000Y-140620000D01*
X145880000Y-140620000D01*
X145880000Y-140900000D01*
G37*
%TO.C,R6*%
X152577500Y-130842224D02*
X152577500Y-130332776D01*
X153622500Y-130842224D02*
X153622500Y-130332776D01*
%TO.C,C8*%
X157245000Y-143861252D02*
X157245000Y-143338748D01*
X158715000Y-143861252D02*
X158715000Y-143338748D01*
%TO.C,R4*%
X146077500Y-114367224D02*
X146077500Y-113857776D01*
X147122500Y-114367224D02*
X147122500Y-113857776D01*
%TO.C,C6*%
X147405000Y-143861252D02*
X147405000Y-143338748D01*
X148875000Y-143861252D02*
X148875000Y-143338748D01*
%TO.C,U3*%
X155410000Y-140360000D02*
X155410000Y-138360000D01*
X157690000Y-140350000D02*
X157690000Y-138350000D01*
X155480000Y-141000000D02*
X155200000Y-140720000D01*
X155480000Y-140720000D01*
X155480000Y-141000000D01*
G36*
X155480000Y-141000000D02*
G01*
X155200000Y-140720000D01*
X155480000Y-140720000D01*
X155480000Y-141000000D01*
G37*
%TO.C,C10*%
X152325000Y-143861252D02*
X152325000Y-143338748D01*
X153795000Y-143861252D02*
X153795000Y-143338748D01*
%TO.C,L2*%
X147382000Y-134811252D02*
X147382000Y-134288748D01*
X148802000Y-134811252D02*
X148802000Y-134288748D01*
%TO.C,C9*%
X146090000Y-117908767D02*
X146090000Y-117616233D01*
X147110000Y-117908767D02*
X147110000Y-117616233D01*
%TO.C,R5*%
X150041500Y-139329724D02*
X150041500Y-138820276D01*
X151086500Y-139329724D02*
X151086500Y-138820276D01*
%TO.C,L1*%
X154768000Y-134811252D02*
X154768000Y-134288748D01*
X156188000Y-134811252D02*
X156188000Y-134288748D01*
%TO.C,C11*%
X154785000Y-143861252D02*
X154785000Y-143338748D01*
X156255000Y-143861252D02*
X156255000Y-143338748D01*
%TO.C,U4*%
X156962500Y-129240000D02*
X156162500Y-129240000D01*
X156962500Y-129240000D02*
X157762500Y-129240000D01*
X156962500Y-132360000D02*
X156162500Y-132360000D01*
X156962500Y-132360000D02*
X157762500Y-132360000D01*
X158502500Y-132640000D02*
X158022500Y-132640000D01*
X158262500Y-132310000D01*
X158502500Y-132640000D01*
G36*
X158502500Y-132640000D02*
G01*
X158022500Y-132640000D01*
X158262500Y-132310000D01*
X158502500Y-132640000D01*
G37*
%TO.C,C4*%
X146090000Y-110446267D02*
X146090000Y-110153733D01*
X147110000Y-110446267D02*
X147110000Y-110153733D01*
%TO.C,R7*%
X147577500Y-130942224D02*
X147577500Y-130432776D01*
X148622500Y-130942224D02*
X148622500Y-130432776D01*
%TO.C,D2*%
X149865000Y-129825000D02*
X149865000Y-132285000D01*
X149865000Y-132285000D02*
X151335000Y-132285000D01*
X151335000Y-132285000D02*
X151335000Y-129825000D01*
%TO.C,C7*%
X149865000Y-143861252D02*
X149865000Y-143338748D01*
X151335000Y-143861252D02*
X151335000Y-143338748D01*
%TO.C,R8*%
X145977500Y-127242224D02*
X145977500Y-126732776D01*
X147022500Y-127242224D02*
X147022500Y-126732776D01*
%TO.C,D3*%
X144965000Y-129825000D02*
X144965000Y-132285000D01*
X144965000Y-132285000D02*
X146435000Y-132285000D01*
X146435000Y-132285000D02*
X146435000Y-129825000D01*
%TO.C,R3*%
X165265000Y-130902936D02*
X165265000Y-131357064D01*
X166735000Y-130902936D02*
X166735000Y-131357064D01*
%TO.C,C1*%
X157215000Y-134288748D02*
X157215000Y-134811252D01*
X158685000Y-134288748D02*
X158685000Y-134811252D01*
%TO.C,U1*%
X148135000Y-102250000D02*
X148135000Y-108410000D01*
X148135000Y-102250000D02*
X166375000Y-102250000D01*
X148135000Y-127210000D02*
X148135000Y-127990000D01*
X148135000Y-127990000D02*
X149135000Y-127990000D01*
X166375000Y-102250000D02*
X166375000Y-108665000D01*
X166375000Y-127210000D02*
X166375000Y-127990000D01*
X166375000Y-127990000D02*
X165375000Y-127990000D01*
X148130000Y-109135000D02*
X147630000Y-109135000D01*
X148130000Y-108635000D01*
X148130000Y-109135000D01*
G36*
X148130000Y-109135000D02*
G01*
X147630000Y-109135000D01*
X148130000Y-108635000D01*
X148130000Y-109135000D01*
G37*
%TD*%
M02*
