%TF.GenerationSoftware,KiCad,Pcbnew,8.0.6*%
%TF.CreationDate,2025-02-11T20:42:11+01:00*%
%TF.ProjectId,KWLcontrol,4b574c63-6f6e-4747-926f-6c2e6b696361,rev?*%
%TF.SameCoordinates,Original*%
%TF.FileFunction,Copper,L1,Top*%
%TF.FilePolarity,Positive*%
%FSLAX46Y46*%
G04 Gerber Fmt 4.6, Leading zero omitted, Abs format (unit mm)*
G04 Created by KiCad (PCBNEW 8.0.6) date 2025-02-11 20:42:11*
%MOMM*%
%LPD*%
G01*
G04 APERTURE LIST*
G04 Aperture macros list*
%AMRoundRect*
0 Rectangle with rounded corners*
0 $1 Rounding radius*
0 $2 $3 $4 $5 $6 $7 $8 $9 X,Y pos of 4 corners*
0 Add a 4 corners polygon primitive as box body*
4,1,4,$2,$3,$4,$5,$6,$7,$8,$9,$2,$3,0*
0 Add four circle primitives for the rounded corners*
1,1,$1+$1,$2,$3*
1,1,$1+$1,$4,$5*
1,1,$1+$1,$6,$7*
1,1,$1+$1,$8,$9*
0 Add four rect primitives between the rounded corners*
20,1,$1+$1,$2,$3,$4,$5,0*
20,1,$1+$1,$4,$5,$6,$7,0*
20,1,$1+$1,$6,$7,$8,$9,0*
20,1,$1+$1,$8,$9,$2,$3,0*%
G04 Aperture macros list end*
%TA.AperFunction,SMDPad,CuDef*%
%ADD10R,2.030000X1.500000*%
%TD*%
%TA.AperFunction,SMDPad,CuDef*%
%ADD11RoundRect,0.250000X-0.450000X0.350000X-0.450000X-0.350000X0.450000X-0.350000X0.450000X0.350000X0*%
%TD*%
%TA.AperFunction,SMDPad,CuDef*%
%ADD12RoundRect,0.237500X-0.237500X0.287500X-0.237500X-0.287500X0.237500X-0.287500X0.237500X0.287500X0*%
%TD*%
%TA.AperFunction,SMDPad,CuDef*%
%ADD13RoundRect,0.250000X-0.475000X0.337500X-0.475000X-0.337500X0.475000X-0.337500X0.475000X0.337500X0*%
%TD*%
%TA.AperFunction,SMDPad,CuDef*%
%ADD14RoundRect,0.237500X0.237500X-0.300000X0.237500X0.300000X-0.237500X0.300000X-0.237500X-0.300000X0*%
%TD*%
%TA.AperFunction,SMDPad,CuDef*%
%ADD15RoundRect,0.237500X0.237500X-0.287500X0.237500X0.287500X-0.237500X0.287500X-0.237500X-0.287500X0*%
%TD*%
%TA.AperFunction,ComponentPad*%
%ADD16RoundRect,0.250000X1.550000X-0.650000X1.550000X0.650000X-1.550000X0.650000X-1.550000X-0.650000X0*%
%TD*%
%TA.AperFunction,ComponentPad*%
%ADD17O,3.600000X1.800000*%
%TD*%
%TA.AperFunction,ComponentPad*%
%ADD18R,0.850000X0.850000*%
%TD*%
%TA.AperFunction,ComponentPad*%
%ADD19O,0.850000X0.850000*%
%TD*%
%TA.AperFunction,SMDPad,CuDef*%
%ADD20RoundRect,0.250000X0.475000X-0.337500X0.475000X0.337500X-0.475000X0.337500X-0.475000X-0.337500X0*%
%TD*%
%TA.AperFunction,SMDPad,CuDef*%
%ADD21RoundRect,0.062500X0.062500X-0.187500X0.062500X0.187500X-0.062500X0.187500X-0.062500X-0.187500X0*%
%TD*%
%TA.AperFunction,ComponentPad*%
%ADD22C,0.600000*%
%TD*%
%TA.AperFunction,SMDPad,CuDef*%
%ADD23R,1.600000X0.900000*%
%TD*%
%TA.AperFunction,SMDPad,CuDef*%
%ADD24RoundRect,0.237500X0.237500X-0.250000X0.237500X0.250000X-0.237500X0.250000X-0.237500X-0.250000X0*%
%TD*%
%TA.AperFunction,SMDPad,CuDef*%
%ADD25RoundRect,0.250000X0.450000X-0.325000X0.450000X0.325000X-0.450000X0.325000X-0.450000X-0.325000X0*%
%TD*%
%TA.AperFunction,SMDPad,CuDef*%
%ADD26RoundRect,0.150000X0.512500X0.150000X-0.512500X0.150000X-0.512500X-0.150000X0.512500X-0.150000X0*%
%TD*%
%TA.AperFunction,SMDPad,CuDef*%
%ADD27R,1.500000X0.900000*%
%TD*%
%TA.AperFunction,SMDPad,CuDef*%
%ADD28R,0.900000X1.500000*%
%TD*%
%TA.AperFunction,SMDPad,CuDef*%
%ADD29R,1.050000X1.050000*%
%TD*%
%TA.AperFunction,HeatsinkPad*%
%ADD30C,0.600000*%
%TD*%
%TA.AperFunction,SMDPad,CuDef*%
%ADD31R,4.200000X4.200000*%
%TD*%
%TA.AperFunction,ViaPad*%
%ADD32C,1.000000*%
%TD*%
%TA.AperFunction,ViaPad*%
%ADD33C,0.600000*%
%TD*%
%TA.AperFunction,Conductor*%
%ADD34C,0.200000*%
%TD*%
G04 APERTURE END LIST*
D10*
%TO.P,PS1,1,AC/L*%
%TO.N,/AC_L*%
X113650000Y-112260000D03*
%TO.P,PS1,3,AC/N*%
%TO.N,/AC_N*%
X113650000Y-117340000D03*
%TO.P,PS1,5*%
%TO.N,N/C*%
X113650000Y-122420000D03*
%TO.P,PS1,10*%
X113650000Y-135120000D03*
%TO.P,PS1,11*%
X113650000Y-137660000D03*
%TO.P,PS1,12*%
X113650000Y-140200000D03*
%TO.P,PS1,13*%
X113650000Y-142740000D03*
%TO.P,PS1,14,-Vo*%
%TO.N,GNDREF*%
X142350000Y-142740000D03*
%TO.P,PS1,15*%
%TO.N,N/C*%
X142350000Y-140200000D03*
%TO.P,PS1,16,+Vo*%
%TO.N,+12V*%
X142350000Y-137660000D03*
%TO.P,PS1,17*%
%TO.N,N/C*%
X142350000Y-135120000D03*
%TO.P,PS1,22*%
X142350000Y-122420000D03*
%TO.P,PS1,24*%
X142350000Y-117340000D03*
%TO.P,PS1,26*%
X142350000Y-112260000D03*
%TD*%
D11*
%TO.P,R1,1*%
%TO.N,+5V*%
X153036000Y-133550000D03*
%TO.P,R1,2*%
%TO.N,Net-(U3-PG)*%
X153036000Y-135550000D03*
%TD*%
D12*
%TO.P,D4,1,K*%
%TO.N,Net-(D4-K)*%
X146500000Y-122400000D03*
%TO.P,D4,2,A*%
%TO.N,Net-(D4-A)*%
X146500000Y-124150000D03*
%TD*%
D13*
%TO.P,C2,1*%
%TO.N,+3.3V*%
X150564000Y-133512500D03*
%TO.P,C2,2*%
%TO.N,GNDREF*%
X150564000Y-135587500D03*
%TD*%
D14*
%TO.P,C3,1*%
%TO.N,+3.3V*%
X144800000Y-111162500D03*
%TO.P,C3,2*%
%TO.N,GNDREF*%
X144800000Y-109437500D03*
%TD*%
D15*
%TO.P,D1,1,K*%
%TO.N,GNDREF*%
X153036000Y-139927500D03*
%TO.P,D1,2,A*%
%TO.N,Net-(D1-A)*%
X153036000Y-138177500D03*
%TD*%
D16*
%TO.P,J2,1,Pin_1*%
%TO.N,GNDREF*%
X161500000Y-144000000D03*
D17*
%TO.P,J2,2,Pin_2*%
%TO.N,Net-(J2-Pin_2)*%
X161500000Y-140190000D03*
%TO.P,J2,3,Pin_3*%
%TO.N,+12V*%
X161500000Y-136380000D03*
%TD*%
D18*
%TO.P,J3,1,Pin_1*%
%TO.N,GNDREF*%
X160830000Y-131100000D03*
D19*
%TO.P,J3,2,Pin_2*%
%TO.N,Net-(J3-Pin_2)*%
X161830000Y-131100000D03*
%TO.P,J3,3,Pin_3*%
%TO.N,Net-(J3-Pin_3)*%
X162830000Y-131100000D03*
%TD*%
D11*
%TO.P,R2,1*%
%TO.N,+3.3V*%
X145650000Y-133550000D03*
%TO.P,R2,2*%
%TO.N,Net-(U2-PG)*%
X145650000Y-135550000D03*
%TD*%
D20*
%TO.P,C5,1*%
%TO.N,GNDREF*%
X145680000Y-144637500D03*
%TO.P,C5,2*%
%TO.N,+12V*%
X145680000Y-142562500D03*
%TD*%
D21*
%TO.P,U2,1,PGND*%
%TO.N,GNDREF*%
X146200000Y-140200000D03*
%TO.P,U2,2,VIN*%
%TO.N,+12V*%
X146700000Y-140200000D03*
%TO.P,U2,3,EN*%
X147200000Y-140200000D03*
%TO.P,U2,4,AGND*%
%TO.N,GNDREF*%
X147700000Y-140200000D03*
%TO.P,U2,5,FB*%
X147700000Y-138300000D03*
%TO.P,U2,6,VOS*%
%TO.N,+3.3V*%
X147200000Y-138300000D03*
%TO.P,U2,7,SW*%
%TO.N,Net-(U2-SW)*%
X146700000Y-138300000D03*
%TO.P,U2,8,PG*%
%TO.N,Net-(U2-PG)*%
X146200000Y-138300000D03*
D22*
%TO.P,U2,9,PAD*%
%TO.N,GNDREF*%
X146450000Y-139250000D03*
D23*
X146950000Y-139250000D03*
D22*
X147450000Y-139250000D03*
%TD*%
D24*
%TO.P,R6,1*%
%TO.N,+5V*%
X153100000Y-131500000D03*
%TO.P,R6,2*%
%TO.N,Net-(D2-A)*%
X153100000Y-129675000D03*
%TD*%
D20*
%TO.P,C8,1*%
%TO.N,GNDREF*%
X157980000Y-144637500D03*
%TO.P,C8,2*%
%TO.N,+12V*%
X157980000Y-142562500D03*
%TD*%
D24*
%TO.P,R4,1*%
%TO.N,+3.3V*%
X146600000Y-115025000D03*
%TO.P,R4,2*%
%TO.N,Net-(U1-EN)*%
X146600000Y-113200000D03*
%TD*%
D20*
%TO.P,C6,1*%
%TO.N,GNDREF*%
X148140000Y-144637500D03*
%TO.P,C6,2*%
%TO.N,+12V*%
X148140000Y-142562500D03*
%TD*%
D21*
%TO.P,U3,1,PGND*%
%TO.N,GNDREF*%
X155800000Y-140300000D03*
%TO.P,U3,2,VIN*%
%TO.N,+12V*%
X156300000Y-140300000D03*
%TO.P,U3,3,EN*%
X156800000Y-140300000D03*
%TO.P,U3,4,AGND*%
%TO.N,GNDREF*%
X157300000Y-140300000D03*
%TO.P,U3,5,FB*%
X157300000Y-138400000D03*
%TO.P,U3,6,VOS*%
%TO.N,+5V*%
X156800000Y-138400000D03*
%TO.P,U3,7,SW*%
%TO.N,Net-(U3-SW)*%
X156300000Y-138400000D03*
%TO.P,U3,8,PG*%
%TO.N,Net-(U3-PG)*%
X155800000Y-138400000D03*
D22*
%TO.P,U3,9,PAD*%
%TO.N,GNDREF*%
X156050000Y-139350000D03*
D23*
X156550000Y-139350000D03*
D22*
X157050000Y-139350000D03*
%TD*%
D20*
%TO.P,C10,1*%
%TO.N,GNDREF*%
X153060000Y-144637500D03*
%TO.P,C10,2*%
%TO.N,+12V*%
X153060000Y-142562500D03*
%TD*%
D25*
%TO.P,L2,1,1*%
%TO.N,Net-(U2-SW)*%
X148092000Y-135575000D03*
%TO.P,L2,2,2*%
%TO.N,+3.3V*%
X148092000Y-133525000D03*
%TD*%
D14*
%TO.P,C9,1*%
%TO.N,GNDREF*%
X146600000Y-118625000D03*
%TO.P,C9,2*%
%TO.N,+3.3V*%
X146600000Y-116900000D03*
%TD*%
D24*
%TO.P,R5,1*%
%TO.N,+12V*%
X150564000Y-139987500D03*
%TO.P,R5,2*%
%TO.N,Net-(D1-A)*%
X150564000Y-138162500D03*
%TD*%
D25*
%TO.P,L1,1,1*%
%TO.N,Net-(U3-SW)*%
X155478000Y-135575000D03*
%TO.P,L1,2,2*%
%TO.N,+5V*%
X155478000Y-133525000D03*
%TD*%
D20*
%TO.P,C11,1*%
%TO.N,GNDREF*%
X155520000Y-144637500D03*
%TO.P,C11,2*%
%TO.N,+12V*%
X155520000Y-142562500D03*
%TD*%
D26*
%TO.P,U4,1,V_{CCA}*%
%TO.N,+3.3V*%
X158100000Y-131750000D03*
%TO.P,U4,2,GND*%
%TO.N,GNDREF*%
X158100000Y-130800000D03*
%TO.P,U4,3,A*%
%TO.N,/FAN_PWM*%
X158100000Y-129850000D03*
%TO.P,U4,4,B*%
%TO.N,Net-(J2-Pin_2)*%
X155825000Y-129850000D03*
%TO.P,U4,5,OE*%
%TO.N,+3.3V*%
X155825000Y-130800000D03*
%TO.P,U4,6,V_{CCB}*%
%TO.N,+5V*%
X155825000Y-131750000D03*
%TD*%
D14*
%TO.P,C4,1*%
%TO.N,+3.3V*%
X146600000Y-111162500D03*
%TO.P,C4,2*%
%TO.N,GNDREF*%
X146600000Y-109437500D03*
%TD*%
D24*
%TO.P,R7,1*%
%TO.N,+3.3V*%
X148100000Y-131600000D03*
%TO.P,R7,2*%
%TO.N,Net-(D3-A)*%
X148100000Y-129775000D03*
%TD*%
D15*
%TO.P,D2,1,K*%
%TO.N,GNDREF*%
X150600000Y-131500000D03*
%TO.P,D2,2,A*%
%TO.N,Net-(D2-A)*%
X150600000Y-129750000D03*
%TD*%
D20*
%TO.P,C7,1*%
%TO.N,GNDREF*%
X150600000Y-144637500D03*
%TO.P,C7,2*%
%TO.N,+12V*%
X150600000Y-142562500D03*
%TD*%
D24*
%TO.P,R8,1*%
%TO.N,+3.3V*%
X146500000Y-127900000D03*
%TO.P,R8,2*%
%TO.N,Net-(D4-A)*%
X146500000Y-126075000D03*
%TD*%
D15*
%TO.P,D3,1,K*%
%TO.N,GNDREF*%
X145700000Y-131500000D03*
%TO.P,D3,2,A*%
%TO.N,Net-(D3-A)*%
X145700000Y-129750000D03*
%TD*%
D11*
%TO.P,R3,1*%
%TO.N,Net-(U1-IO0)*%
X166000000Y-130130000D03*
%TO.P,R3,2*%
%TO.N,GNDREF*%
X166000000Y-132130000D03*
%TD*%
D13*
%TO.P,C1,1*%
%TO.N,+5V*%
X157950000Y-133512500D03*
%TO.P,C1,2*%
%TO.N,GNDREF*%
X157950000Y-135587500D03*
%TD*%
D27*
%TO.P,U1,1,GND*%
%TO.N,GNDREF*%
X148505000Y-109860000D03*
%TO.P,U1,2,VDD*%
%TO.N,+3.3V*%
X148505000Y-111130000D03*
%TO.P,U1,3,EN*%
%TO.N,Net-(U1-EN)*%
X148505000Y-112400000D03*
%TO.P,U1,4,SENSOR_VP*%
%TO.N,unconnected-(U1-SENSOR_VP-Pad4)*%
X148505000Y-113670000D03*
%TO.P,U1,5,SENSOR_VN*%
%TO.N,unconnected-(U1-SENSOR_VN-Pad5)*%
X148505000Y-114940000D03*
%TO.P,U1,6,IO34*%
%TO.N,unconnected-(U1-IO34-Pad6)*%
X148505000Y-116210000D03*
%TO.P,U1,7,IO35*%
%TO.N,unconnected-(U1-IO35-Pad7)*%
X148505000Y-117480000D03*
%TO.P,U1,8,IO32*%
%TO.N,unconnected-(U1-IO32-Pad8)*%
X148505000Y-118750000D03*
%TO.P,U1,9,IO33*%
%TO.N,unconnected-(U1-IO33-Pad9)*%
X148505000Y-120020000D03*
%TO.P,U1,10,IO25*%
%TO.N,Net-(D4-K)*%
X148505000Y-121290000D03*
%TO.P,U1,11,IO26*%
%TO.N,unconnected-(U1-IO26-Pad11)*%
X148505000Y-122560000D03*
%TO.P,U1,12,IO27*%
%TO.N,unconnected-(U1-IO27-Pad12)*%
X148505000Y-123830000D03*
%TO.P,U1,13,IO14*%
%TO.N,unconnected-(U1-IO14-Pad13)*%
X148505000Y-125100000D03*
%TO.P,U1,14,IO12*%
%TO.N,unconnected-(U1-IO12-Pad14)*%
X148505000Y-126370000D03*
D28*
%TO.P,U1,15,GND*%
%TO.N,GNDREF*%
X151545000Y-127620000D03*
%TO.P,U1,16,IO13*%
%TO.N,unconnected-(U1-IO13-Pad16)*%
X152815000Y-127620000D03*
%TO.P,U1,17,SHD/SD2*%
%TO.N,unconnected-(U1-SHD{slash}SD2-Pad17)*%
X154085000Y-127620000D03*
%TO.P,U1,18,SWP/SD3*%
%TO.N,unconnected-(U1-SWP{slash}SD3-Pad18)*%
X155355000Y-127620000D03*
%TO.P,U1,19,SCS/CMD*%
%TO.N,unconnected-(U1-SCS{slash}CMD-Pad19)*%
X156625000Y-127620000D03*
%TO.P,U1,20,SCK/CLK*%
%TO.N,unconnected-(U1-SCK{slash}CLK-Pad20)*%
X157895000Y-127620000D03*
%TO.P,U1,21,SDO/SD0*%
%TO.N,unconnected-(U1-SDO{slash}SD0-Pad21)*%
X159165000Y-127620000D03*
%TO.P,U1,22,SDI/SD1*%
%TO.N,unconnected-(U1-SDI{slash}SD1-Pad22)*%
X160435000Y-127620000D03*
D27*
%TO.P,U1,25,IO0*%
%TO.N,Net-(U1-IO0)*%
X166005000Y-126370000D03*
%TO.P,U1,26,IO4*%
%TO.N,unconnected-(U1-IO4-Pad26)*%
X166005000Y-125100000D03*
%TO.P,U1,27,IO16*%
%TO.N,unconnected-(U1-IO16-Pad27)*%
X166005000Y-123830000D03*
%TO.P,U1,28,IO17*%
%TO.N,unconnected-(U1-IO17-Pad28)*%
X166005000Y-122560000D03*
%TO.P,U1,29,IO5*%
%TO.N,unconnected-(U1-IO5-Pad29)*%
X166005000Y-121290000D03*
%TO.P,U1,30,IO18*%
%TO.N,unconnected-(U1-IO18-Pad30)*%
X166005000Y-120020000D03*
%TO.P,U1,31,IO19*%
%TO.N,unconnected-(U1-IO19-Pad31)*%
X166005000Y-118750000D03*
%TO.P,U1,32,NC*%
%TO.N,unconnected-(U1-NC-Pad32)*%
X166005000Y-117480000D03*
%TO.P,U1,33,IO21*%
%TO.N,unconnected-(U1-IO21-Pad33)*%
X166005000Y-116210000D03*
%TO.P,U1,34,RXD0/IO3*%
%TO.N,Net-(J3-Pin_3)*%
X166005000Y-114940000D03*
%TO.P,U1,35,TXD0/IO1*%
%TO.N,Net-(J3-Pin_2)*%
X166005000Y-113670000D03*
%TO.P,U1,36,IO22*%
%TO.N,/FAN_PWM*%
X166005000Y-112400000D03*
%TO.P,U1,37,IO23*%
%TO.N,unconnected-(U1-IO23-Pad37)*%
X166005000Y-111130000D03*
%TO.P,U1,38,GND*%
%TO.N,GNDREF*%
X166005000Y-109860000D03*
D29*
%TO.P,U1,39,GND*%
X155050000Y-115675000D03*
D30*
X155050000Y-116437500D03*
D29*
X155050000Y-117200000D03*
D30*
X155050000Y-117962500D03*
D29*
X155050000Y-118725000D03*
D30*
X155812500Y-115675000D03*
X155812500Y-117200000D03*
X155812500Y-118725000D03*
D29*
X156575000Y-115675000D03*
D30*
X156575000Y-116437500D03*
D29*
X156575000Y-117200000D03*
D31*
X156575000Y-117200000D03*
D30*
X156575000Y-117962500D03*
D29*
X156575000Y-118725000D03*
D30*
X157337500Y-115675000D03*
X157337500Y-117200000D03*
X157337500Y-118725000D03*
D29*
X158100000Y-115675000D03*
D30*
X158100000Y-116437500D03*
D29*
X158100000Y-117200000D03*
D30*
X158100000Y-117962500D03*
D29*
X158100000Y-118725000D03*
%TD*%
D32*
%TO.N,/AC_L*%
X117400000Y-114400000D03*
%TO.N,/AC_N*%
X117400000Y-117400000D03*
%TO.N,GNDREF*%
X142400000Y-145000000D03*
X151900000Y-141100000D03*
X141800000Y-109700000D03*
X146600000Y-120600000D03*
X163800000Y-109900000D03*
%TO.N,/AC_PE*%
X117400000Y-120400000D03*
D33*
%TO.N,Net-(J2-Pin_2)*%
X154300000Y-129800000D03*
%TD*%
D34*
%TO.N,/AC_L*%
X117400000Y-114400000D02*
X117400000Y-113400000D01*
X117400000Y-113400000D02*
X116260000Y-112260000D01*
X116260000Y-112260000D02*
X113650000Y-112260000D01*
%TO.N,/AC_N*%
X113650000Y-117340000D02*
X117340000Y-117340000D01*
X117340000Y-117340000D02*
X117400000Y-117400000D01*
%TO.N,+12V*%
X157980000Y-142562500D02*
X145680000Y-142562500D01*
X145680000Y-142562500D02*
X144700000Y-141582500D01*
X156800000Y-140300000D02*
X156800000Y-141382500D01*
X159200000Y-141342500D02*
X159200000Y-137700000D01*
X146700000Y-141542500D02*
X145680000Y-142562500D01*
X147200000Y-141622500D02*
X148140000Y-142562500D01*
X156300000Y-140300000D02*
X156300000Y-141300000D01*
X156300000Y-141300000D02*
X155520000Y-142080000D01*
X150600000Y-142562500D02*
X150600000Y-140023500D01*
X144160000Y-137660000D02*
X142350000Y-137660000D01*
X159200000Y-137700000D02*
X160100000Y-136800000D01*
X146700000Y-140200000D02*
X146700000Y-141542500D01*
X144700000Y-138200000D02*
X144160000Y-137660000D01*
X150600000Y-140023500D02*
X150564000Y-139987500D01*
X156800000Y-141382500D02*
X157980000Y-142562500D01*
X144700000Y-141582500D02*
X144700000Y-138200000D01*
X155520000Y-142080000D02*
X155520000Y-142562500D01*
X160100000Y-136800000D02*
X163000000Y-136800000D01*
X157980000Y-142562500D02*
X159200000Y-141342500D01*
X147200000Y-140200000D02*
X147200000Y-141622500D01*
%TO.N,+5V*%
X155825000Y-133178000D02*
X155478000Y-133525000D01*
X156800000Y-133512500D02*
X153073500Y-133512500D01*
X157950000Y-133512500D02*
X156800000Y-133512500D01*
X156800000Y-138400000D02*
X156800000Y-133512500D01*
X153073500Y-133512500D02*
X153036000Y-133550000D01*
X153100000Y-131500000D02*
X153100000Y-133486000D01*
X155825000Y-131750000D02*
X155825000Y-133178000D01*
X153100000Y-133486000D02*
X153036000Y-133550000D01*
%TO.N,Net-(U2-PG)*%
X145650000Y-135550000D02*
X145650000Y-137750000D01*
X145650000Y-137750000D02*
X146200000Y-138300000D01*
%TO.N,Net-(U2-SW)*%
X148092000Y-135575000D02*
X148092000Y-135608000D01*
X148092000Y-135608000D02*
X146700000Y-137000000D01*
X146700000Y-137000000D02*
X146700000Y-138300000D01*
%TO.N,+3.3V*%
X148600000Y-137300000D02*
X147935614Y-137300000D01*
X149300000Y-133525000D02*
X149300000Y-136600000D01*
X148092000Y-133525000D02*
X150551500Y-133525000D01*
X157746948Y-131750000D02*
X156796948Y-130800000D01*
X145650000Y-133550000D02*
X143800000Y-131700000D01*
X143800000Y-127900000D02*
X143800000Y-124900000D01*
X144800000Y-114800000D02*
X144800000Y-111162500D01*
X146600000Y-115025000D02*
X144800000Y-115025000D01*
X152100000Y-130600000D02*
X151800000Y-130900000D01*
X151800000Y-132276500D02*
X150564000Y-133512500D01*
X147935614Y-137300000D02*
X147200000Y-138035614D01*
X146600000Y-115025000D02*
X146600000Y-116900000D01*
X146600000Y-111162500D02*
X144800000Y-111162500D01*
X155625000Y-130600000D02*
X152100000Y-130600000D01*
X146632500Y-111130000D02*
X146600000Y-111162500D01*
X155825000Y-130800000D02*
X155625000Y-130600000D01*
X148092000Y-133525000D02*
X145675000Y-133525000D01*
X148100000Y-131600000D02*
X148100000Y-133517000D01*
X149300000Y-136600000D02*
X148600000Y-137300000D01*
X145675000Y-133525000D02*
X145650000Y-133550000D01*
X148505000Y-111130000D02*
X146632500Y-111130000D01*
X143800000Y-124900000D02*
X144800000Y-123900000D01*
X158100000Y-131750000D02*
X157746948Y-131750000D01*
X144800000Y-115025000D02*
X144800000Y-114800000D01*
X156796948Y-130800000D02*
X155825000Y-130800000D01*
X150551500Y-133525000D02*
X150564000Y-133512500D01*
X148104500Y-133512500D02*
X148092000Y-133525000D01*
X146500000Y-127900000D02*
X143800000Y-127900000D01*
X143800000Y-131700000D02*
X143800000Y-127900000D01*
X144800000Y-123900000D02*
X144800000Y-114800000D01*
X148100000Y-133517000D02*
X148092000Y-133525000D01*
X147200000Y-138035614D02*
X147200000Y-138300000D01*
X151800000Y-130900000D02*
X151800000Y-132276500D01*
%TO.N,Net-(U3-SW)*%
X155478000Y-136878000D02*
X156300000Y-137700000D01*
X155478000Y-135575000D02*
X155478000Y-136878000D01*
X156300000Y-137700000D02*
X156300000Y-138400000D01*
%TO.N,Net-(U3-PG)*%
X153036000Y-135636000D02*
X155800000Y-138400000D01*
X153036000Y-135550000D02*
X153036000Y-135636000D01*
%TO.N,Net-(J2-Pin_2)*%
X154300000Y-129800000D02*
X154350000Y-129850000D01*
X154350000Y-129850000D02*
X155825000Y-129850000D01*
%TO.N,Net-(J3-Pin_2)*%
X166015000Y-113660000D02*
X166005000Y-113670000D01*
X163600000Y-129400000D02*
X162100000Y-130900000D01*
X163600000Y-115125000D02*
X163600000Y-129400000D01*
X166005000Y-113670000D02*
X165055000Y-113670000D01*
X162100000Y-130900000D02*
X162100000Y-131100000D01*
X165055000Y-113670000D02*
X163600000Y-115125000D01*
%TO.N,Net-(U1-IO0)*%
X166005000Y-126370000D02*
X166005000Y-130125000D01*
X166005000Y-130125000D02*
X166000000Y-130130000D01*
%TO.N,/FAN_PWM*%
X165200000Y-112400000D02*
X162900000Y-114700000D01*
X162900000Y-128000000D02*
X161050000Y-129850000D01*
X162900000Y-114700000D02*
X162900000Y-128000000D01*
X166005000Y-112400000D02*
X165200000Y-112400000D01*
X161050000Y-129850000D02*
X158100000Y-129850000D01*
%TO.N,Net-(U1-EN)*%
X148505000Y-112400000D02*
X147400000Y-112400000D01*
X148467500Y-112362500D02*
X148505000Y-112400000D01*
X147400000Y-112400000D02*
X146600000Y-113200000D01*
%TO.N,Net-(D1-A)*%
X150564000Y-138162500D02*
X153021000Y-138162500D01*
X153021000Y-138162500D02*
X153036000Y-138177500D01*
%TO.N,Net-(D2-A)*%
X150675000Y-129675000D02*
X150600000Y-129750000D01*
X153100000Y-129675000D02*
X150675000Y-129675000D01*
%TO.N,Net-(D3-A)*%
X148100000Y-129775000D02*
X145725000Y-129775000D01*
X145725000Y-129775000D02*
X145700000Y-129750000D01*
%TO.N,Net-(J3-Pin_3)*%
X164300000Y-130200000D02*
X163400000Y-131100000D01*
X166005000Y-114940000D02*
X164890000Y-114940000D01*
X163400000Y-131100000D02*
X162830000Y-131100000D01*
X164890000Y-114940000D02*
X164300000Y-115530000D01*
X164300000Y-115530000D02*
X164300000Y-130200000D01*
%TO.N,Net-(D4-K)*%
X147610000Y-121290000D02*
X148505000Y-121290000D01*
X146500000Y-122400000D02*
X147610000Y-121290000D01*
%TO.N,Net-(D4-A)*%
X146500000Y-124150000D02*
X146500000Y-126075000D01*
%TD*%
%TA.AperFunction,Conductor*%
%TO.N,/AC_PE*%
G36*
X139340776Y-108820185D02*
G01*
X139386531Y-108872989D01*
X139397735Y-108923856D01*
X139397755Y-108927767D01*
X139397755Y-108927770D01*
X139407455Y-110795023D01*
X139407859Y-110872724D01*
X139411055Y-111487947D01*
X139417637Y-112755000D01*
X139418741Y-112967500D01*
X139429436Y-115026299D01*
X139437444Y-116567947D01*
X139437667Y-116610874D01*
X139444026Y-117835000D01*
X139463834Y-121647947D01*
X139470416Y-122915000D01*
X139475401Y-123874649D01*
X139485589Y-125835874D01*
X139496319Y-127901299D01*
X139507353Y-130025349D01*
X139516786Y-131841239D01*
X139520836Y-132620936D01*
X139527454Y-133894999D01*
X139529807Y-134347947D01*
X139536389Y-135615000D01*
X139537852Y-135896528D01*
X139540100Y-136329230D01*
X139549584Y-138155000D01*
X139550211Y-138275722D01*
X139550831Y-138395000D01*
X139550831Y-138395001D01*
X139556197Y-139427947D01*
X139562779Y-140695000D01*
X139569392Y-141967997D01*
X139570609Y-142202287D01*
X139577440Y-143517254D01*
X139579883Y-143987560D01*
X139580676Y-144140126D01*
X139580676Y-144140127D01*
X139583584Y-144700083D01*
X139583584Y-144700148D01*
X139585870Y-145140126D01*
X139587590Y-145471224D01*
X139591246Y-146174856D01*
X139571910Y-146241997D01*
X139519345Y-146288025D01*
X139467248Y-146299500D01*
X111924500Y-146299500D01*
X111857461Y-146279815D01*
X111811706Y-146227011D01*
X111800500Y-146175500D01*
X111800500Y-134322135D01*
X112134500Y-134322135D01*
X112134500Y-135917870D01*
X112134501Y-135917876D01*
X112140908Y-135977483D01*
X112191202Y-136112328D01*
X112191206Y-136112335D01*
X112277452Y-136227544D01*
X112277455Y-136227547D01*
X112361861Y-136290734D01*
X112403732Y-136346668D01*
X112408716Y-136416359D01*
X112375230Y-136477682D01*
X112361861Y-136489266D01*
X112277455Y-136552452D01*
X112277452Y-136552455D01*
X112191206Y-136667664D01*
X112191202Y-136667671D01*
X112140908Y-136802517D01*
X112134501Y-136862116D01*
X112134501Y-136862123D01*
X112134500Y-136862135D01*
X112134500Y-138457870D01*
X112134501Y-138457876D01*
X112140908Y-138517483D01*
X112191202Y-138652328D01*
X112191206Y-138652335D01*
X112277452Y-138767544D01*
X112277455Y-138767547D01*
X112361861Y-138830734D01*
X112403732Y-138886668D01*
X112408716Y-138956359D01*
X112375230Y-139017682D01*
X112361861Y-139029266D01*
X112277455Y-139092452D01*
X112277452Y-139092455D01*
X112191206Y-139207664D01*
X112191202Y-139207671D01*
X112140908Y-139342517D01*
X112134501Y-139402116D01*
X112134501Y-139402123D01*
X112134500Y-139402135D01*
X112134500Y-140997870D01*
X112134501Y-140997876D01*
X112140908Y-141057483D01*
X112191202Y-141192328D01*
X112191206Y-141192335D01*
X112277452Y-141307544D01*
X112277455Y-141307547D01*
X112361861Y-141370734D01*
X112403732Y-141426668D01*
X112408716Y-141496359D01*
X112375230Y-141557682D01*
X112361861Y-141569266D01*
X112277455Y-141632452D01*
X112277452Y-141632455D01*
X112191206Y-141747664D01*
X112191202Y-141747671D01*
X112140908Y-141882517D01*
X112134501Y-141942116D01*
X112134501Y-141942123D01*
X112134500Y-141942135D01*
X112134500Y-143537870D01*
X112134501Y-143537876D01*
X112140908Y-143597483D01*
X112191202Y-143732328D01*
X112191206Y-143732335D01*
X112277452Y-143847544D01*
X112277455Y-143847547D01*
X112392664Y-143933793D01*
X112392671Y-143933797D01*
X112527517Y-143984091D01*
X112527516Y-143984091D01*
X112534444Y-143984835D01*
X112587127Y-143990500D01*
X114712872Y-143990499D01*
X114772483Y-143984091D01*
X114907331Y-143933796D01*
X115022546Y-143847546D01*
X115108796Y-143732331D01*
X115159091Y-143597483D01*
X115165500Y-143537873D01*
X115165499Y-141942128D01*
X115159091Y-141882517D01*
X115124986Y-141791078D01*
X115108797Y-141747671D01*
X115108793Y-141747664D01*
X115022547Y-141632456D01*
X115022548Y-141632456D01*
X115022546Y-141632454D01*
X114938136Y-141569265D01*
X114896267Y-141513333D01*
X114891283Y-141443641D01*
X114924768Y-141382318D01*
X114938130Y-141370739D01*
X115022546Y-141307546D01*
X115108796Y-141192331D01*
X115159091Y-141057483D01*
X115165500Y-140997873D01*
X115165499Y-139402128D01*
X115159091Y-139342517D01*
X115108796Y-139207669D01*
X115108795Y-139207668D01*
X115108793Y-139207664D01*
X115022547Y-139092456D01*
X115022548Y-139092456D01*
X115022546Y-139092454D01*
X114938136Y-139029265D01*
X114896267Y-138973333D01*
X114891283Y-138903641D01*
X114924768Y-138842318D01*
X114938130Y-138830739D01*
X115022546Y-138767546D01*
X115108796Y-138652331D01*
X115159091Y-138517483D01*
X115165500Y-138457873D01*
X115165499Y-136862128D01*
X115159091Y-136802517D01*
X115158224Y-136800193D01*
X115108797Y-136667671D01*
X115108793Y-136667664D01*
X115022547Y-136552456D01*
X115022548Y-136552456D01*
X115022546Y-136552454D01*
X114938136Y-136489265D01*
X114896267Y-136433333D01*
X114891283Y-136363641D01*
X114924768Y-136302318D01*
X114938130Y-136290739D01*
X115022546Y-136227546D01*
X115108796Y-136112331D01*
X115159091Y-135977483D01*
X115165500Y-135917873D01*
X115165499Y-134322128D01*
X115159091Y-134262517D01*
X115108796Y-134127669D01*
X115108795Y-134127668D01*
X115108793Y-134127664D01*
X115022547Y-134012455D01*
X115022544Y-134012452D01*
X114907335Y-133926206D01*
X114907328Y-133926202D01*
X114772482Y-133875908D01*
X114772483Y-133875908D01*
X114712883Y-133869501D01*
X114712881Y-133869500D01*
X114712873Y-133869500D01*
X114712864Y-133869500D01*
X112587129Y-133869500D01*
X112587123Y-133869501D01*
X112527516Y-133875908D01*
X112392671Y-133926202D01*
X112392664Y-133926206D01*
X112277455Y-134012452D01*
X112277452Y-134012455D01*
X112191206Y-134127664D01*
X112191202Y-134127671D01*
X112140908Y-134262517D01*
X112134501Y-134322116D01*
X112134501Y-134322123D01*
X112134500Y-134322135D01*
X111800500Y-134322135D01*
X111800500Y-121622135D01*
X112134500Y-121622135D01*
X112134500Y-123217870D01*
X112134501Y-123217876D01*
X112140908Y-123277483D01*
X112191202Y-123412328D01*
X112191206Y-123412335D01*
X112277452Y-123527544D01*
X112277455Y-123527547D01*
X112392664Y-123613793D01*
X112392671Y-123613797D01*
X112527517Y-123664091D01*
X112527516Y-123664091D01*
X112534444Y-123664835D01*
X112587127Y-123670500D01*
X114712872Y-123670499D01*
X114772483Y-123664091D01*
X114907331Y-123613796D01*
X115022546Y-123527546D01*
X115108796Y-123412331D01*
X115159091Y-123277483D01*
X115165500Y-123217873D01*
X115165499Y-121622128D01*
X115159091Y-121562517D01*
X115108796Y-121427669D01*
X115108795Y-121427668D01*
X115108793Y-121427664D01*
X115022547Y-121312455D01*
X115022544Y-121312452D01*
X114907335Y-121226206D01*
X114907328Y-121226202D01*
X114772482Y-121175908D01*
X114772483Y-121175908D01*
X114712883Y-121169501D01*
X114712881Y-121169500D01*
X114712873Y-121169500D01*
X114712864Y-121169500D01*
X112587129Y-121169500D01*
X112587123Y-121169501D01*
X112527516Y-121175908D01*
X112392671Y-121226202D01*
X112392664Y-121226206D01*
X112277455Y-121312452D01*
X112277452Y-121312455D01*
X112191206Y-121427664D01*
X112191202Y-121427671D01*
X112140908Y-121562517D01*
X112136800Y-121600732D01*
X112134501Y-121622123D01*
X112134500Y-121622135D01*
X111800500Y-121622135D01*
X111800500Y-116542135D01*
X112134500Y-116542135D01*
X112134500Y-118137870D01*
X112134501Y-118137876D01*
X112140908Y-118197483D01*
X112191202Y-118332328D01*
X112191206Y-118332335D01*
X112277452Y-118447544D01*
X112277455Y-118447547D01*
X112392664Y-118533793D01*
X112392671Y-118533797D01*
X112527517Y-118584091D01*
X112527516Y-118584091D01*
X112534444Y-118584835D01*
X112587127Y-118590500D01*
X114712872Y-118590499D01*
X114772483Y-118584091D01*
X114907331Y-118533796D01*
X115022546Y-118447546D01*
X115108796Y-118332331D01*
X115159091Y-118197483D01*
X115165500Y-118137873D01*
X115165500Y-118064500D01*
X115185185Y-117997461D01*
X115237989Y-117951706D01*
X115289500Y-117940500D01*
X116490639Y-117940500D01*
X116557678Y-117960185D01*
X116586492Y-117985835D01*
X116689116Y-118110883D01*
X116841460Y-118235909D01*
X116841467Y-118235913D01*
X117015266Y-118328811D01*
X117015269Y-118328811D01*
X117015273Y-118328814D01*
X117203868Y-118386024D01*
X117400000Y-118405341D01*
X117596132Y-118386024D01*
X117784727Y-118328814D01*
X117958538Y-118235910D01*
X118110883Y-118110883D01*
X118235910Y-117958538D01*
X118282362Y-117871632D01*
X118328811Y-117784733D01*
X118328811Y-117784732D01*
X118328814Y-117784727D01*
X118386024Y-117596132D01*
X118405341Y-117400000D01*
X118386024Y-117203868D01*
X118328814Y-117015273D01*
X118328811Y-117015269D01*
X118328811Y-117015266D01*
X118235913Y-116841467D01*
X118235909Y-116841460D01*
X118110883Y-116689116D01*
X117958539Y-116564090D01*
X117958532Y-116564086D01*
X117784733Y-116471188D01*
X117784727Y-116471186D01*
X117596132Y-116413976D01*
X117596129Y-116413975D01*
X117400000Y-116394659D01*
X117203870Y-116413975D01*
X117015266Y-116471188D01*
X116841467Y-116564086D01*
X116841460Y-116564090D01*
X116689117Y-116689115D01*
X116689117Y-116689116D01*
X116684972Y-116694167D01*
X116627225Y-116733500D01*
X116589121Y-116739500D01*
X115289499Y-116739500D01*
X115222460Y-116719815D01*
X115176705Y-116667011D01*
X115165499Y-116615500D01*
X115165499Y-116542129D01*
X115165498Y-116542123D01*
X115165497Y-116542116D01*
X115159091Y-116482517D01*
X115143455Y-116440596D01*
X115108797Y-116347671D01*
X115108793Y-116347664D01*
X115022547Y-116232455D01*
X115022544Y-116232452D01*
X114907335Y-116146206D01*
X114907328Y-116146202D01*
X114772482Y-116095908D01*
X114772483Y-116095908D01*
X114712883Y-116089501D01*
X114712881Y-116089500D01*
X114712873Y-116089500D01*
X114712864Y-116089500D01*
X112587129Y-116089500D01*
X112587123Y-116089501D01*
X112527516Y-116095908D01*
X112392671Y-116146202D01*
X112392664Y-116146206D01*
X112277455Y-116232452D01*
X112277452Y-116232455D01*
X112191206Y-116347664D01*
X112191202Y-116347671D01*
X112140908Y-116482517D01*
X112135800Y-116530037D01*
X112134501Y-116542123D01*
X112134500Y-116542135D01*
X111800500Y-116542135D01*
X111800500Y-111462135D01*
X112134500Y-111462135D01*
X112134500Y-113057870D01*
X112134501Y-113057876D01*
X112140908Y-113117483D01*
X112191202Y-113252328D01*
X112191206Y-113252335D01*
X112277452Y-113367544D01*
X112277455Y-113367547D01*
X112392664Y-113453793D01*
X112392671Y-113453797D01*
X112527517Y-113504091D01*
X112527516Y-113504091D01*
X112534444Y-113504835D01*
X112587127Y-113510500D01*
X114712872Y-113510499D01*
X114772483Y-113504091D01*
X114907331Y-113453796D01*
X115022546Y-113367546D01*
X115108796Y-113252331D01*
X115159091Y-113117483D01*
X115165500Y-113057873D01*
X115165500Y-112984500D01*
X115185185Y-112917461D01*
X115237989Y-112871706D01*
X115289500Y-112860500D01*
X115959903Y-112860500D01*
X116026942Y-112880185D01*
X116047584Y-112896819D01*
X116677605Y-113526840D01*
X116711090Y-113588163D01*
X116706106Y-113657855D01*
X116685777Y-113693186D01*
X116564090Y-113841460D01*
X116564086Y-113841467D01*
X116471188Y-114015266D01*
X116413975Y-114203870D01*
X116394659Y-114400000D01*
X116413975Y-114596129D01*
X116413976Y-114596132D01*
X116464959Y-114764201D01*
X116471188Y-114784733D01*
X116564086Y-114958532D01*
X116564090Y-114958539D01*
X116689116Y-115110883D01*
X116841460Y-115235909D01*
X116841467Y-115235913D01*
X117015266Y-115328811D01*
X117015269Y-115328811D01*
X117015273Y-115328814D01*
X117203868Y-115386024D01*
X117400000Y-115405341D01*
X117596132Y-115386024D01*
X117784727Y-115328814D01*
X117958538Y-115235910D01*
X118110883Y-115110883D01*
X118235910Y-114958538D01*
X118298710Y-114841047D01*
X118328811Y-114784733D01*
X118328811Y-114784732D01*
X118328814Y-114784727D01*
X118386024Y-114596132D01*
X118405341Y-114400000D01*
X118386024Y-114203868D01*
X118328814Y-114015273D01*
X118328811Y-114015269D01*
X118328811Y-114015266D01*
X118235913Y-113841467D01*
X118235909Y-113841460D01*
X118110887Y-113689122D01*
X118110883Y-113689117D01*
X118045832Y-113635730D01*
X118006500Y-113577987D01*
X118000500Y-113539880D01*
X118000500Y-113320945D01*
X118000500Y-113320943D01*
X117959577Y-113168216D01*
X117946586Y-113145714D01*
X117880524Y-113031290D01*
X117880521Y-113031286D01*
X117880520Y-113031284D01*
X117768716Y-112919480D01*
X117768715Y-112919479D01*
X117764385Y-112915149D01*
X117764374Y-112915139D01*
X116747590Y-111898355D01*
X116747588Y-111898352D01*
X116628717Y-111779481D01*
X116628716Y-111779480D01*
X116541904Y-111729360D01*
X116541904Y-111729359D01*
X116541900Y-111729358D01*
X116491785Y-111700423D01*
X116339057Y-111659499D01*
X116180943Y-111659499D01*
X116173347Y-111659499D01*
X116173331Y-111659500D01*
X115289499Y-111659500D01*
X115222460Y-111639815D01*
X115176705Y-111587011D01*
X115165499Y-111535500D01*
X115165499Y-111462129D01*
X115165498Y-111462123D01*
X115165497Y-111462116D01*
X115159091Y-111402517D01*
X115155177Y-111392024D01*
X115108797Y-111267671D01*
X115108793Y-111267664D01*
X115022547Y-111152455D01*
X115022544Y-111152452D01*
X114907335Y-111066206D01*
X114907328Y-111066202D01*
X114772482Y-111015908D01*
X114772483Y-111015908D01*
X114712883Y-111009501D01*
X114712881Y-111009500D01*
X114712873Y-111009500D01*
X114712864Y-111009500D01*
X112587129Y-111009500D01*
X112587123Y-111009501D01*
X112527516Y-111015908D01*
X112392671Y-111066202D01*
X112392664Y-111066206D01*
X112277455Y-111152452D01*
X112277452Y-111152455D01*
X112191206Y-111267664D01*
X112191202Y-111267671D01*
X112140908Y-111402517D01*
X112136341Y-111445000D01*
X112134501Y-111462123D01*
X112134500Y-111462135D01*
X111800500Y-111462135D01*
X111800500Y-108924500D01*
X111820185Y-108857461D01*
X111872989Y-108811706D01*
X111924500Y-108800500D01*
X139273737Y-108800500D01*
X139340776Y-108820185D01*
G37*
%TD.AperFunction*%
%TD*%
%TA.AperFunction,Conductor*%
%TO.N,GNDREF*%
G36*
X144056334Y-108820185D02*
G01*
X144102089Y-108872989D01*
X144112033Y-108942147D01*
X144107007Y-108961838D01*
X144107466Y-108962500D01*
X145492534Y-108962500D01*
X145493991Y-108960400D01*
X145489539Y-108898143D01*
X145523023Y-108836819D01*
X145584346Y-108803334D01*
X145610705Y-108800500D01*
X145789295Y-108800500D01*
X145856334Y-108820185D01*
X145902089Y-108872989D01*
X145912033Y-108942147D01*
X145907007Y-108961838D01*
X145907466Y-108962500D01*
X146951000Y-108962500D01*
X147018039Y-108982185D01*
X147063794Y-109034989D01*
X147075000Y-109086500D01*
X147075000Y-109788500D01*
X147055315Y-109855539D01*
X147002511Y-109901294D01*
X146951000Y-109912500D01*
X145907466Y-109912500D01*
X145930229Y-109973531D01*
X145930232Y-109973536D01*
X146014241Y-110085758D01*
X146126463Y-110169767D01*
X146126465Y-110169768D01*
X146163416Y-110183550D01*
X146219350Y-110225420D01*
X146243768Y-110290885D01*
X146228917Y-110359158D01*
X146179512Y-110408564D01*
X146163421Y-110415913D01*
X146138311Y-110425278D01*
X146126222Y-110429788D01*
X146126221Y-110429788D01*
X146126220Y-110429789D01*
X146013884Y-110513884D01*
X145929788Y-110626221D01*
X145890582Y-110731335D01*
X145848711Y-110787268D01*
X145783246Y-110811684D01*
X145774401Y-110812000D01*
X145625599Y-110812000D01*
X145558560Y-110792315D01*
X145512805Y-110739511D01*
X145509418Y-110731335D01*
X145481065Y-110655321D01*
X145470212Y-110626222D01*
X145386116Y-110513884D01*
X145273778Y-110429788D01*
X145273006Y-110429500D01*
X145236579Y-110415913D01*
X145180646Y-110374040D01*
X145156231Y-110308575D01*
X145171084Y-110240303D01*
X145220491Y-110190898D01*
X145236584Y-110183549D01*
X145273537Y-110169766D01*
X145385758Y-110085758D01*
X145469767Y-109973536D01*
X145469770Y-109973531D01*
X145492534Y-109912500D01*
X144107466Y-109912500D01*
X144130229Y-109973531D01*
X144130232Y-109973536D01*
X144214241Y-110085758D01*
X144326463Y-110169767D01*
X144326465Y-110169768D01*
X144363416Y-110183550D01*
X144419350Y-110225420D01*
X144443768Y-110290885D01*
X144428917Y-110359158D01*
X144379512Y-110408564D01*
X144363421Y-110415913D01*
X144338311Y-110425278D01*
X144326222Y-110429788D01*
X144326221Y-110429788D01*
X144326220Y-110429789D01*
X144213884Y-110513884D01*
X144129789Y-110626219D01*
X144080748Y-110757700D01*
X144074500Y-110815809D01*
X144074500Y-111509190D01*
X144080748Y-111567299D01*
X144129789Y-111698780D01*
X144163351Y-111743612D01*
X144213884Y-111811116D01*
X144268847Y-111852261D01*
X144326222Y-111895212D01*
X144326226Y-111895214D01*
X144368832Y-111911105D01*
X144424766Y-111952976D01*
X144449184Y-112018440D01*
X144449500Y-112027287D01*
X144449500Y-123703456D01*
X144429815Y-123770495D01*
X144413181Y-123791137D01*
X143519531Y-124684786D01*
X143519527Y-124684791D01*
X143473387Y-124764709D01*
X143473386Y-124764712D01*
X143449500Y-124853856D01*
X143449500Y-127853856D01*
X143449500Y-131746144D01*
X143464474Y-131802026D01*
X143473386Y-131835287D01*
X143473387Y-131835290D01*
X143519527Y-131915208D01*
X143519531Y-131915213D01*
X144663296Y-133058978D01*
X144696781Y-133120301D01*
X144699077Y-133148806D01*
X144699500Y-133148806D01*
X144699500Y-133947870D01*
X144699501Y-133947876D01*
X144705908Y-134007483D01*
X144756202Y-134142328D01*
X144756206Y-134142335D01*
X144842452Y-134257544D01*
X144842455Y-134257547D01*
X144957664Y-134343793D01*
X144957671Y-134343797D01*
X145092517Y-134394091D01*
X145092516Y-134394091D01*
X145097865Y-134394666D01*
X145152127Y-134400500D01*
X146147872Y-134400499D01*
X146207483Y-134394091D01*
X146342331Y-134343796D01*
X146457546Y-134257546D01*
X146543796Y-134142331D01*
X146594091Y-134007483D01*
X146596375Y-133986243D01*
X146623114Y-133921692D01*
X146680507Y-133881845D01*
X146719664Y-133875500D01*
X147031236Y-133875500D01*
X147098275Y-133895185D01*
X147144030Y-133947989D01*
X147147418Y-133956167D01*
X147198202Y-134092328D01*
X147198206Y-134092335D01*
X147284452Y-134207544D01*
X147284455Y-134207547D01*
X147399664Y-134293793D01*
X147399671Y-134293797D01*
X147534517Y-134344091D01*
X147534516Y-134344091D01*
X147541444Y-134344835D01*
X147594127Y-134350500D01*
X148589872Y-134350499D01*
X148649483Y-134344091D01*
X148782167Y-134294602D01*
X148851858Y-134289619D01*
X148913181Y-134323104D01*
X148946666Y-134384427D01*
X148949500Y-134410785D01*
X148949500Y-134689214D01*
X148929815Y-134756253D01*
X148877011Y-134802008D01*
X148807853Y-134811952D01*
X148782167Y-134805396D01*
X148649482Y-134755908D01*
X148649483Y-134755908D01*
X148589883Y-134749501D01*
X148589881Y-134749500D01*
X148589873Y-134749500D01*
X148589864Y-134749500D01*
X147594129Y-134749500D01*
X147594123Y-134749501D01*
X147534516Y-134755908D01*
X147399671Y-134806202D01*
X147399664Y-134806206D01*
X147284455Y-134892452D01*
X147284452Y-134892455D01*
X147198206Y-135007664D01*
X147198202Y-135007671D01*
X147147910Y-135142513D01*
X147147909Y-135142517D01*
X147141500Y-135202127D01*
X147141500Y-135202134D01*
X147141500Y-135202135D01*
X147141500Y-135947870D01*
X147141501Y-135947876D01*
X147146317Y-135992675D01*
X147133910Y-136061434D01*
X147110708Y-136093609D01*
X146419532Y-136784785D01*
X146419528Y-136784791D01*
X146384106Y-136846142D01*
X146384107Y-136846143D01*
X146373386Y-136864711D01*
X146373386Y-136864712D01*
X146349500Y-136953856D01*
X146349500Y-137654456D01*
X146329815Y-137721495D01*
X146277011Y-137767250D01*
X146207853Y-137777194D01*
X146144297Y-137748169D01*
X146137819Y-137742137D01*
X146036819Y-137641137D01*
X146003334Y-137579814D01*
X146000500Y-137553456D01*
X146000500Y-136524499D01*
X146020185Y-136457460D01*
X146072989Y-136411705D01*
X146124500Y-136400499D01*
X146147871Y-136400499D01*
X146147872Y-136400499D01*
X146207483Y-136394091D01*
X146342331Y-136343796D01*
X146457546Y-136257546D01*
X146543796Y-136142331D01*
X146594091Y-136007483D01*
X146600500Y-135947873D01*
X146600499Y-135152128D01*
X146594091Y-135092517D01*
X146543796Y-134957669D01*
X146543795Y-134957668D01*
X146543793Y-134957664D01*
X146457547Y-134842455D01*
X146457544Y-134842452D01*
X146342335Y-134756206D01*
X146342328Y-134756202D01*
X146207482Y-134705908D01*
X146207483Y-134705908D01*
X146147883Y-134699501D01*
X146147881Y-134699500D01*
X146147873Y-134699500D01*
X146147864Y-134699500D01*
X145152129Y-134699500D01*
X145152123Y-134699501D01*
X145092516Y-134705908D01*
X144957671Y-134756202D01*
X144957664Y-134756206D01*
X144842455Y-134842452D01*
X144842452Y-134842455D01*
X144756206Y-134957664D01*
X144756202Y-134957671D01*
X144705908Y-135092517D01*
X144700533Y-135142517D01*
X144699501Y-135152123D01*
X144699500Y-135152135D01*
X144699500Y-135947870D01*
X144699501Y-135947876D01*
X144705908Y-136007483D01*
X144756202Y-136142328D01*
X144756206Y-136142335D01*
X144842452Y-136257544D01*
X144842455Y-136257547D01*
X144957664Y-136343793D01*
X144957671Y-136343797D01*
X145002618Y-136360561D01*
X145092517Y-136394091D01*
X145152127Y-136400500D01*
X145175497Y-136400499D01*
X145242536Y-136420181D01*
X145288292Y-136472983D01*
X145299500Y-136524499D01*
X145299500Y-137796144D01*
X145313797Y-137849501D01*
X145323385Y-137885286D01*
X145369527Y-137965208D01*
X145369531Y-137965213D01*
X145788181Y-138383863D01*
X145821666Y-138445186D01*
X145824500Y-138471542D01*
X145824500Y-138524179D01*
X145830500Y-138569756D01*
X145830502Y-138569763D01*
X145877149Y-138669798D01*
X145880924Y-138675188D01*
X145903253Y-138741394D01*
X145900969Y-138770501D01*
X145900000Y-138775371D01*
X145900000Y-138800000D01*
X146089134Y-138800000D01*
X146097245Y-138800266D01*
X146100812Y-138800498D01*
X146100821Y-138800500D01*
X146299178Y-138800499D01*
X146299183Y-138800499D01*
X146302738Y-138800266D01*
X146310849Y-138800000D01*
X146589134Y-138800000D01*
X146597245Y-138800266D01*
X146600812Y-138800498D01*
X146600821Y-138800500D01*
X146799178Y-138800499D01*
X146799183Y-138800499D01*
X146802738Y-138800266D01*
X146810849Y-138800000D01*
X147089134Y-138800000D01*
X147097245Y-138800266D01*
X147100812Y-138800498D01*
X147100821Y-138800500D01*
X147299178Y-138800499D01*
X147299183Y-138800499D01*
X147302738Y-138800266D01*
X147310849Y-138800000D01*
X148000000Y-138800000D01*
X148000000Y-138775377D01*
X147998895Y-138769824D01*
X148005118Y-138700232D01*
X148018942Y-138674493D01*
X148022436Y-138669503D01*
X148069009Y-138569626D01*
X148075000Y-138524122D01*
X148075000Y-138425000D01*
X147699500Y-138425000D01*
X147632461Y-138405315D01*
X147586706Y-138352511D01*
X147575500Y-138301062D01*
X147575499Y-138299062D01*
X147595150Y-138232013D01*
X147647931Y-138186231D01*
X147699499Y-138175000D01*
X148074999Y-138175000D01*
X148074999Y-138075885D01*
X148069007Y-138030369D01*
X148022432Y-137930490D01*
X147999299Y-137907357D01*
X147976612Y-137865809D01*
X149838500Y-137865809D01*
X149838500Y-138459190D01*
X149844748Y-138517299D01*
X149893789Y-138648780D01*
X149909524Y-138669799D01*
X149977884Y-138761116D01*
X150090222Y-138845212D01*
X150156210Y-138869824D01*
X150221700Y-138894251D01*
X150279809Y-138900499D01*
X150279826Y-138900500D01*
X150848174Y-138900500D01*
X150848190Y-138900499D01*
X150906299Y-138894251D01*
X151037778Y-138845212D01*
X151150116Y-138761116D01*
X151234212Y-138648778D01*
X151254768Y-138593664D01*
X151296639Y-138537733D01*
X151362103Y-138513316D01*
X151370949Y-138513000D01*
X152209469Y-138513000D01*
X152276508Y-138532685D01*
X152322263Y-138585489D01*
X152325650Y-138593663D01*
X152365788Y-138701278D01*
X152449884Y-138813616D01*
X152525873Y-138870501D01*
X152557598Y-138894251D01*
X152562222Y-138897712D01*
X152666445Y-138936585D01*
X152722379Y-138978457D01*
X152746795Y-139043922D01*
X152731943Y-139112194D01*
X152682537Y-139161600D01*
X152666445Y-139168949D01*
X152562462Y-139207732D01*
X152450241Y-139291741D01*
X152366233Y-139403961D01*
X152348130Y-139452500D01*
X153723870Y-139452500D01*
X153705766Y-139403961D01*
X153646758Y-139325136D01*
X155925000Y-139325136D01*
X155925000Y-139374864D01*
X155944030Y-139420807D01*
X155979193Y-139455970D01*
X156025136Y-139475000D01*
X156074864Y-139475000D01*
X156120807Y-139455970D01*
X156155970Y-139420807D01*
X156175000Y-139374864D01*
X156175000Y-139325136D01*
X156925000Y-139325136D01*
X156925000Y-139374864D01*
X156944030Y-139420807D01*
X156979193Y-139455970D01*
X157025136Y-139475000D01*
X157074864Y-139475000D01*
X157120807Y-139455970D01*
X157155970Y-139420807D01*
X157175000Y-139374864D01*
X157175000Y-139325136D01*
X157155970Y-139279193D01*
X157120807Y-139244030D01*
X157074864Y-139225000D01*
X157025136Y-139225000D01*
X156979193Y-139244030D01*
X156944030Y-139279193D01*
X156925000Y-139325136D01*
X156175000Y-139325136D01*
X156155970Y-139279193D01*
X156120807Y-139244030D01*
X156074864Y-139225000D01*
X156025136Y-139225000D01*
X155979193Y-139244030D01*
X155944030Y-139279193D01*
X155925000Y-139325136D01*
X153646758Y-139325136D01*
X153621758Y-139291741D01*
X153509537Y-139207732D01*
X153405554Y-139168949D01*
X153349621Y-139127077D01*
X153325204Y-139061613D01*
X153340056Y-138993340D01*
X153389461Y-138943935D01*
X153405548Y-138936587D01*
X153509778Y-138897712D01*
X153622116Y-138813616D01*
X153706212Y-138701278D01*
X153755251Y-138569799D01*
X153755270Y-138569626D01*
X153761499Y-138511690D01*
X153761500Y-138511673D01*
X153761500Y-137843326D01*
X153761499Y-137843309D01*
X153755251Y-137785200D01*
X153739189Y-137742137D01*
X153706212Y-137653722D01*
X153622116Y-137541384D01*
X153519252Y-137464380D01*
X153509780Y-137457289D01*
X153509778Y-137457288D01*
X153461832Y-137439405D01*
X153378299Y-137408248D01*
X153320190Y-137402000D01*
X153320174Y-137402000D01*
X152751826Y-137402000D01*
X152751809Y-137402000D01*
X152693700Y-137408248D01*
X152562219Y-137457289D01*
X152449884Y-137541384D01*
X152365789Y-137653719D01*
X152365788Y-137653722D01*
X152336839Y-137731335D01*
X152294969Y-137787267D01*
X152229505Y-137811684D01*
X152220659Y-137812000D01*
X151370949Y-137812000D01*
X151303910Y-137792315D01*
X151258155Y-137739511D01*
X151254773Y-137731349D01*
X151234212Y-137676222D01*
X151150116Y-137563884D01*
X151079787Y-137511236D01*
X151037780Y-137479789D01*
X151037778Y-137479788D01*
X151011144Y-137469854D01*
X150906299Y-137430748D01*
X150848190Y-137424500D01*
X150848174Y-137424500D01*
X150279826Y-137424500D01*
X150279809Y-137424500D01*
X150221700Y-137430748D01*
X150090219Y-137479789D01*
X149977884Y-137563884D01*
X149893789Y-137676219D01*
X149844748Y-137807700D01*
X149838500Y-137865809D01*
X147976612Y-137865809D01*
X147965814Y-137846034D01*
X147970798Y-137776342D01*
X147999298Y-137731996D01*
X148044477Y-137686818D01*
X148105800Y-137653333D01*
X148132157Y-137650500D01*
X148646142Y-137650500D01*
X148646144Y-137650500D01*
X148735288Y-137626614D01*
X148815212Y-137580470D01*
X149580469Y-136815213D01*
X149626614Y-136735288D01*
X149630836Y-136719531D01*
X149650500Y-136646144D01*
X149650500Y-136469042D01*
X149670185Y-136402003D01*
X149722989Y-136356248D01*
X149792147Y-136346304D01*
X149838387Y-136365458D01*
X149839128Y-136364103D01*
X149846913Y-136368354D01*
X149981620Y-136418596D01*
X149981627Y-136418598D01*
X150041155Y-136424999D01*
X150041172Y-136425000D01*
X150064000Y-136425000D01*
X151064000Y-136425000D01*
X151086828Y-136425000D01*
X151086844Y-136424999D01*
X151146372Y-136418598D01*
X151146379Y-136418596D01*
X151281086Y-136368354D01*
X151281093Y-136368350D01*
X151396187Y-136282190D01*
X151396190Y-136282187D01*
X151482350Y-136167093D01*
X151512037Y-136087500D01*
X151064000Y-136087500D01*
X151064000Y-136425000D01*
X150064000Y-136425000D01*
X150064000Y-135087500D01*
X151064000Y-135087500D01*
X151512037Y-135087500D01*
X151482350Y-135007906D01*
X151396190Y-134892812D01*
X151396187Y-134892809D01*
X151281093Y-134806649D01*
X151281086Y-134806645D01*
X151146379Y-134756403D01*
X151146372Y-134756401D01*
X151086844Y-134750000D01*
X151064000Y-134750000D01*
X151064000Y-135087500D01*
X150064000Y-135087500D01*
X150064000Y-134750000D01*
X150041155Y-134750000D01*
X149981627Y-134756401D01*
X149981620Y-134756403D01*
X149846913Y-134806645D01*
X149839128Y-134810897D01*
X149838193Y-134809185D01*
X149783336Y-134829642D01*
X149715064Y-134814784D01*
X149665663Y-134765375D01*
X149650500Y-134705957D01*
X149650500Y-134394666D01*
X149670185Y-134327627D01*
X149722989Y-134281872D01*
X149792147Y-134271928D01*
X149838109Y-134290968D01*
X149838886Y-134289546D01*
X149846671Y-134293797D01*
X149981517Y-134344091D01*
X149981516Y-134344091D01*
X149988444Y-134344835D01*
X150041127Y-134350500D01*
X151086872Y-134350499D01*
X151146483Y-134344091D01*
X151281331Y-134293796D01*
X151396546Y-134207546D01*
X151482796Y-134092331D01*
X151533091Y-133957483D01*
X151539500Y-133897873D01*
X151539499Y-133127128D01*
X151536673Y-133100835D01*
X151549078Y-133032076D01*
X151572278Y-132999902D01*
X152080470Y-132491712D01*
X152126614Y-132411788D01*
X152146385Y-132338000D01*
X152150500Y-132322644D01*
X152150500Y-131924764D01*
X152170185Y-131857725D01*
X152222989Y-131811970D01*
X152292147Y-131802026D01*
X152355703Y-131831051D01*
X152390681Y-131881429D01*
X152403280Y-131915208D01*
X152429789Y-131986280D01*
X152459001Y-132025302D01*
X152513884Y-132098616D01*
X152626222Y-132182712D01*
X152626226Y-132182714D01*
X152668832Y-132198605D01*
X152724766Y-132240476D01*
X152749184Y-132305940D01*
X152749500Y-132314787D01*
X152749500Y-132575500D01*
X152729815Y-132642539D01*
X152677011Y-132688294D01*
X152625501Y-132699500D01*
X152538130Y-132699500D01*
X152538123Y-132699501D01*
X152478516Y-132705908D01*
X152343671Y-132756202D01*
X152343664Y-132756206D01*
X152228455Y-132842452D01*
X152228452Y-132842455D01*
X152142206Y-132957664D01*
X152142202Y-132957671D01*
X152091908Y-133092517D01*
X152085501Y-133152116D01*
X152085500Y-133152135D01*
X152085500Y-133947870D01*
X152085501Y-133947876D01*
X152091908Y-134007483D01*
X152142202Y-134142328D01*
X152142206Y-134142335D01*
X152228452Y-134257544D01*
X152228455Y-134257547D01*
X152343664Y-134343793D01*
X152343671Y-134343797D01*
X152478517Y-134394091D01*
X152478516Y-134394091D01*
X152483865Y-134394666D01*
X152538127Y-134400500D01*
X153533872Y-134400499D01*
X153593483Y-134394091D01*
X153728331Y-134343796D01*
X153843546Y-134257546D01*
X153929796Y-134142331D01*
X153980091Y-134007483D01*
X153983719Y-133973743D01*
X154010457Y-133909193D01*
X154067850Y-133869345D01*
X154107008Y-133863000D01*
X154413469Y-133863000D01*
X154480508Y-133882685D01*
X154526263Y-133935489D01*
X154532591Y-133953951D01*
X154584202Y-134092328D01*
X154584206Y-134092335D01*
X154670452Y-134207544D01*
X154670455Y-134207547D01*
X154785664Y-134293793D01*
X154785671Y-134293797D01*
X154920517Y-134344091D01*
X154920516Y-134344091D01*
X154927444Y-134344835D01*
X154980127Y-134350500D01*
X155975872Y-134350499D01*
X156035483Y-134344091D01*
X156170331Y-134293796D01*
X156199094Y-134272264D01*
X156251189Y-134233266D01*
X156316653Y-134208848D01*
X156384926Y-134223699D01*
X156434332Y-134273104D01*
X156449500Y-134332532D01*
X156449500Y-134767467D01*
X156429815Y-134834506D01*
X156377011Y-134880261D01*
X156307853Y-134890205D01*
X156251189Y-134866734D01*
X156170331Y-134806204D01*
X156170328Y-134806202D01*
X156035482Y-134755908D01*
X156035483Y-134755908D01*
X155975883Y-134749501D01*
X155975881Y-134749500D01*
X155975873Y-134749500D01*
X155975864Y-134749500D01*
X154980129Y-134749500D01*
X154980123Y-134749501D01*
X154920516Y-134755908D01*
X154785671Y-134806202D01*
X154785664Y-134806206D01*
X154670455Y-134892452D01*
X154670452Y-134892455D01*
X154584206Y-135007664D01*
X154584202Y-135007671D01*
X154533910Y-135142513D01*
X154533909Y-135142517D01*
X154527500Y-135202127D01*
X154527500Y-135202134D01*
X154527500Y-135202135D01*
X154527500Y-135947870D01*
X154527501Y-135947876D01*
X154533908Y-136007483D01*
X154584202Y-136142328D01*
X154584206Y-136142335D01*
X154670452Y-136257544D01*
X154670455Y-136257547D01*
X154785664Y-136343793D01*
X154785671Y-136343797D01*
X154830618Y-136360561D01*
X154920517Y-136394091D01*
X154980127Y-136400500D01*
X155003497Y-136400499D01*
X155070536Y-136420181D01*
X155116292Y-136472983D01*
X155127500Y-136524499D01*
X155127500Y-136932271D01*
X155123980Y-136932271D01*
X155115691Y-136985356D01*
X155069301Y-137037603D01*
X155002028Y-137056475D01*
X154935232Y-137035981D01*
X154915847Y-137020165D01*
X154014285Y-136118603D01*
X153980800Y-136057280D01*
X153981181Y-136015402D01*
X153979262Y-136015196D01*
X153981683Y-135992675D01*
X153986500Y-135947873D01*
X153986499Y-135152128D01*
X153980091Y-135092517D01*
X153929796Y-134957669D01*
X153929795Y-134957668D01*
X153929793Y-134957664D01*
X153843547Y-134842455D01*
X153843544Y-134842452D01*
X153728335Y-134756206D01*
X153728328Y-134756202D01*
X153593482Y-134705908D01*
X153593483Y-134705908D01*
X153533883Y-134699501D01*
X153533881Y-134699500D01*
X153533873Y-134699500D01*
X153533864Y-134699500D01*
X152538129Y-134699500D01*
X152538123Y-134699501D01*
X152478516Y-134705908D01*
X152343671Y-134756202D01*
X152343664Y-134756206D01*
X152228455Y-134842452D01*
X152228452Y-134842455D01*
X152142206Y-134957664D01*
X152142202Y-134957671D01*
X152091908Y-135092517D01*
X152086533Y-135142517D01*
X152085501Y-135152123D01*
X152085500Y-135152135D01*
X152085500Y-135947870D01*
X152085501Y-135947876D01*
X152091908Y-136007483D01*
X152142202Y-136142328D01*
X152142206Y-136142335D01*
X152228452Y-136257544D01*
X152228455Y-136257547D01*
X152343664Y-136343793D01*
X152343671Y-136343797D01*
X152388618Y-136360561D01*
X152478517Y-136394091D01*
X152538127Y-136400500D01*
X153253455Y-136400499D01*
X153320494Y-136420183D01*
X153341136Y-136436818D01*
X155388181Y-138483862D01*
X155421666Y-138545185D01*
X155424500Y-138571541D01*
X155424500Y-138624179D01*
X155430500Y-138669756D01*
X155430502Y-138669763D01*
X155477149Y-138769798D01*
X155480924Y-138775188D01*
X155503253Y-138841394D01*
X155500969Y-138870501D01*
X155500000Y-138875371D01*
X155500000Y-138900000D01*
X155689134Y-138900000D01*
X155697245Y-138900266D01*
X155700812Y-138900498D01*
X155700821Y-138900500D01*
X155899178Y-138900499D01*
X155899183Y-138900499D01*
X155902738Y-138900266D01*
X155910849Y-138900000D01*
X156189134Y-138900000D01*
X156197245Y-138900266D01*
X156200812Y-138900498D01*
X156200821Y-138900500D01*
X156399178Y-138900499D01*
X156399183Y-138900499D01*
X156402738Y-138900266D01*
X156410849Y-138900000D01*
X156689134Y-138900000D01*
X156697245Y-138900266D01*
X156700812Y-138900498D01*
X156700821Y-138900500D01*
X156899178Y-138900499D01*
X156899183Y-138900499D01*
X156902738Y-138900266D01*
X156910849Y-138900000D01*
X157600000Y-138900000D01*
X157600000Y-138875377D01*
X157598895Y-138869824D01*
X157605118Y-138800232D01*
X157618942Y-138774493D01*
X157622436Y-138769503D01*
X157669009Y-138669626D01*
X157675000Y-138624122D01*
X157675000Y-138525000D01*
X157299500Y-138525000D01*
X157232461Y-138505315D01*
X157186706Y-138452511D01*
X157175500Y-138401001D01*
X157175499Y-138275000D01*
X157425000Y-138275000D01*
X157674999Y-138275000D01*
X157674999Y-138175885D01*
X157669007Y-138130369D01*
X157622432Y-138030490D01*
X157544509Y-137952567D01*
X157444629Y-137905991D01*
X157425000Y-137903406D01*
X157425000Y-138275000D01*
X157175499Y-138275000D01*
X157175499Y-138175818D01*
X157175266Y-138172264D01*
X157175000Y-138164152D01*
X157175000Y-137890994D01*
X157155316Y-137859960D01*
X157150500Y-137825737D01*
X157150500Y-136516209D01*
X157170185Y-136449170D01*
X157222989Y-136403415D01*
X157292147Y-136393471D01*
X157317834Y-136400027D01*
X157367623Y-136418597D01*
X157367627Y-136418598D01*
X157427155Y-136424999D01*
X157427172Y-136425000D01*
X157450000Y-136425000D01*
X158450000Y-136425000D01*
X158472828Y-136425000D01*
X158472844Y-136424999D01*
X158532372Y-136418598D01*
X158532379Y-136418596D01*
X158667086Y-136368354D01*
X158667093Y-136368350D01*
X158782187Y-136282190D01*
X158782190Y-136282187D01*
X158868350Y-136167093D01*
X158898037Y-136087500D01*
X158450000Y-136087500D01*
X158450000Y-136425000D01*
X157450000Y-136425000D01*
X157450000Y-135087500D01*
X158450000Y-135087500D01*
X158898037Y-135087500D01*
X158868350Y-135007906D01*
X158782190Y-134892812D01*
X158782187Y-134892809D01*
X158667093Y-134806649D01*
X158667086Y-134806645D01*
X158532379Y-134756403D01*
X158532372Y-134756401D01*
X158472844Y-134750000D01*
X158450000Y-134750000D01*
X158450000Y-135087500D01*
X157450000Y-135087500D01*
X157450000Y-134750000D01*
X157427155Y-134750000D01*
X157367627Y-134756401D01*
X157367616Y-134756404D01*
X157317832Y-134774972D01*
X157248140Y-134779956D01*
X157186818Y-134746470D01*
X157153333Y-134685146D01*
X157150500Y-134658790D01*
X157150500Y-134441742D01*
X157170185Y-134374703D01*
X157222989Y-134328948D01*
X157292147Y-134319004D01*
X157317830Y-134325559D01*
X157367517Y-134344091D01*
X157427127Y-134350500D01*
X158472872Y-134350499D01*
X158532483Y-134344091D01*
X158667331Y-134293796D01*
X158782546Y-134207546D01*
X158868796Y-134092331D01*
X158919091Y-133957483D01*
X158925500Y-133897873D01*
X158925499Y-133127128D01*
X158919091Y-133067517D01*
X158915906Y-133058978D01*
X158868797Y-132932671D01*
X158868793Y-132932664D01*
X158782547Y-132817455D01*
X158782544Y-132817452D01*
X158667335Y-132731206D01*
X158667328Y-132731202D01*
X158532482Y-132680908D01*
X158532483Y-132680908D01*
X158472883Y-132674501D01*
X158472881Y-132674500D01*
X158472873Y-132674500D01*
X158472864Y-132674500D01*
X157427129Y-132674500D01*
X157427123Y-132674501D01*
X157367516Y-132680908D01*
X157232671Y-132731202D01*
X157232664Y-132731206D01*
X157117455Y-132817452D01*
X157117452Y-132817455D01*
X157031206Y-132932664D01*
X157031202Y-132932671D01*
X156978198Y-133074785D01*
X156976744Y-133074242D01*
X156946576Y-133127228D01*
X156884666Y-133159616D01*
X156860469Y-133162000D01*
X156534102Y-133162000D01*
X156467063Y-133142315D01*
X156421308Y-133089511D01*
X156417920Y-133081333D01*
X156371797Y-132957671D01*
X156371793Y-132957664D01*
X156285548Y-132842457D01*
X156285546Y-132842454D01*
X156285544Y-132842452D01*
X156285542Y-132842450D01*
X156225188Y-132797269D01*
X156183318Y-132741335D01*
X156175500Y-132698003D01*
X156175500Y-132630000D01*
X165072300Y-132630000D01*
X165106645Y-132722086D01*
X165106649Y-132722093D01*
X165192809Y-132837187D01*
X165192812Y-132837190D01*
X165307906Y-132923350D01*
X165307913Y-132923354D01*
X165442624Y-132973598D01*
X165500000Y-132979765D01*
X166500000Y-132979765D01*
X166557375Y-132973598D01*
X166692086Y-132923354D01*
X166692093Y-132923350D01*
X166807187Y-132837190D01*
X166807190Y-132837187D01*
X166893350Y-132722093D01*
X166893354Y-132722086D01*
X166927700Y-132630000D01*
X166500000Y-132630000D01*
X166500000Y-132979765D01*
X165500000Y-132979765D01*
X165500000Y-132630000D01*
X165072300Y-132630000D01*
X156175500Y-132630000D01*
X156175500Y-132424499D01*
X156195185Y-132357460D01*
X156247989Y-132311705D01*
X156299500Y-132300499D01*
X156369017Y-132300499D01*
X156369018Y-132300499D01*
X156462804Y-132285646D01*
X156575842Y-132228050D01*
X156665550Y-132138342D01*
X156723146Y-132025304D01*
X156723146Y-132025302D01*
X156723147Y-132025301D01*
X156737999Y-131931524D01*
X156738000Y-131931519D01*
X156737999Y-131568482D01*
X156737999Y-131568481D01*
X156737999Y-131568477D01*
X156735268Y-131551235D01*
X156744222Y-131481942D01*
X156789219Y-131428490D01*
X156855970Y-131407850D01*
X156923284Y-131426575D01*
X156945422Y-131444156D01*
X157150681Y-131649415D01*
X157184166Y-131710738D01*
X157187000Y-131737095D01*
X157187000Y-131931517D01*
X157193887Y-131975000D01*
X157201854Y-132025304D01*
X157259450Y-132138342D01*
X157259452Y-132138344D01*
X157259454Y-132138347D01*
X157349152Y-132228045D01*
X157349154Y-132228046D01*
X157349158Y-132228050D01*
X157456438Y-132282712D01*
X157462198Y-132285647D01*
X157555975Y-132300499D01*
X157555981Y-132300500D01*
X158644018Y-132300499D01*
X158737804Y-132285646D01*
X158850842Y-132228050D01*
X158940550Y-132138342D01*
X158998146Y-132025304D01*
X158998146Y-132025302D01*
X158998147Y-132025301D01*
X159012999Y-131931524D01*
X159013000Y-131931519D01*
X159012999Y-131568482D01*
X159010013Y-131549628D01*
X160155000Y-131549628D01*
X160169503Y-131622540D01*
X160169505Y-131622544D01*
X160224760Y-131705239D01*
X160307455Y-131760494D01*
X160307459Y-131760496D01*
X160380371Y-131774999D01*
X160380374Y-131775000D01*
X160405000Y-131775000D01*
X160405000Y-131525000D01*
X160155000Y-131525000D01*
X160155000Y-131549628D01*
X159010013Y-131549628D01*
X158998146Y-131474696D01*
X158940550Y-131361658D01*
X158940545Y-131361653D01*
X158934811Y-131353759D01*
X158936051Y-131352858D01*
X158907737Y-131301015D01*
X158912716Y-131231323D01*
X158935117Y-131196464D01*
X158934402Y-131195944D01*
X158940139Y-131188046D01*
X158985001Y-131100000D01*
X157924000Y-131100000D01*
X157856961Y-131080315D01*
X157830929Y-131050272D01*
X160580000Y-131050272D01*
X160580000Y-131149728D01*
X160618060Y-131241614D01*
X160688386Y-131311940D01*
X160780272Y-131350000D01*
X160879728Y-131350000D01*
X160971614Y-131311940D01*
X161041940Y-131241614D01*
X161080000Y-131149728D01*
X161080000Y-131050272D01*
X161041940Y-130958386D01*
X160971614Y-130888060D01*
X160879728Y-130850000D01*
X160780272Y-130850000D01*
X160688386Y-130888060D01*
X160618060Y-130958386D01*
X160580000Y-131050272D01*
X157830929Y-131050272D01*
X157811206Y-131027511D01*
X157800000Y-130976000D01*
X157800000Y-130624000D01*
X157819685Y-130556961D01*
X157872489Y-130511206D01*
X157924000Y-130500000D01*
X158985001Y-130500000D01*
X158940139Y-130411953D01*
X158934402Y-130404056D01*
X158935773Y-130403059D01*
X158907735Y-130351710D01*
X158912719Y-130282018D01*
X158941323Y-130237568D01*
X158942177Y-130236716D01*
X159003539Y-130203303D01*
X159029755Y-130200500D01*
X160261074Y-130200500D01*
X160328113Y-130220185D01*
X160373868Y-130272989D01*
X160383812Y-130342147D01*
X160354787Y-130405703D01*
X160317516Y-130432579D01*
X160317610Y-130432720D01*
X160313685Y-130435342D01*
X160308530Y-130439060D01*
X160307455Y-130439505D01*
X160224760Y-130494760D01*
X160169505Y-130577455D01*
X160169503Y-130577459D01*
X160155000Y-130650371D01*
X160155000Y-130675000D01*
X161089090Y-130675000D01*
X161156129Y-130694685D01*
X161201884Y-130747489D01*
X161211828Y-130816647D01*
X161205034Y-130842964D01*
X161174378Y-130923797D01*
X161169312Y-130937155D01*
X161169311Y-130937157D01*
X161149539Y-131099999D01*
X161149539Y-131100000D01*
X161169311Y-131262842D01*
X161169312Y-131262848D01*
X161227480Y-131416223D01*
X161227483Y-131416227D01*
X161233049Y-131424291D01*
X161254933Y-131490645D01*
X161255000Y-131494732D01*
X161255000Y-131775000D01*
X161279626Y-131775000D01*
X161279628Y-131774999D01*
X161352540Y-131760496D01*
X161352544Y-131760494D01*
X161415498Y-131718431D01*
X161482176Y-131697553D01*
X161542015Y-131711737D01*
X161588705Y-131736242D01*
X161747978Y-131775500D01*
X161747979Y-131775500D01*
X161912022Y-131775500D01*
X162071291Y-131736243D01*
X162071291Y-131736242D01*
X162071295Y-131736242D01*
X162216546Y-131660008D01*
X162247772Y-131632343D01*
X162311004Y-131602622D01*
X162380268Y-131611804D01*
X162412228Y-131632344D01*
X162443451Y-131660006D01*
X162443452Y-131660006D01*
X162443454Y-131660008D01*
X162588705Y-131736242D01*
X162588707Y-131736242D01*
X162588708Y-131736243D01*
X162747978Y-131775500D01*
X162747979Y-131775500D01*
X162912022Y-131775500D01*
X163071291Y-131736243D01*
X163071291Y-131736242D01*
X163071295Y-131736242D01*
X163216546Y-131660008D01*
X163250419Y-131629999D01*
X165072299Y-131629999D01*
X165072300Y-131630000D01*
X165500000Y-131630000D01*
X166500000Y-131630000D01*
X166927700Y-131630000D01*
X166927700Y-131629999D01*
X166893354Y-131537913D01*
X166893350Y-131537906D01*
X166807190Y-131422812D01*
X166807187Y-131422809D01*
X166692093Y-131336649D01*
X166692086Y-131336645D01*
X166557380Y-131286403D01*
X166557373Y-131286401D01*
X166500000Y-131280232D01*
X166500000Y-131630000D01*
X165500000Y-131630000D01*
X165500000Y-131280233D01*
X165499999Y-131280232D01*
X165442626Y-131286401D01*
X165442619Y-131286403D01*
X165307913Y-131336645D01*
X165307906Y-131336649D01*
X165192812Y-131422809D01*
X165192809Y-131422812D01*
X165106649Y-131537906D01*
X165106645Y-131537913D01*
X165072299Y-131629999D01*
X163250419Y-131629999D01*
X163339332Y-131551229D01*
X163374494Y-131500286D01*
X163428775Y-131456298D01*
X163444450Y-131450953D01*
X163446141Y-131450500D01*
X163446144Y-131450500D01*
X163535288Y-131426614D01*
X163547558Y-131419530D01*
X163615212Y-131380470D01*
X164580470Y-130415212D01*
X164626614Y-130335288D01*
X164630836Y-130319530D01*
X164650500Y-130246144D01*
X164650500Y-115726544D01*
X164670185Y-115659505D01*
X164686813Y-115638868D01*
X164839661Y-115486020D01*
X164900981Y-115452538D01*
X164970672Y-115457522D01*
X165026606Y-115499393D01*
X165030440Y-115504811D01*
X165031306Y-115506107D01*
X165052185Y-115572784D01*
X165033702Y-115640165D01*
X165031309Y-115643889D01*
X165019033Y-115662261D01*
X165019032Y-115662264D01*
X165004500Y-115735321D01*
X165004500Y-116684678D01*
X165019032Y-116757735D01*
X165019033Y-116757738D01*
X165031309Y-116776111D01*
X165052185Y-116842789D01*
X165033699Y-116910169D01*
X165031309Y-116913889D01*
X165019033Y-116932261D01*
X165019032Y-116932264D01*
X165004500Y-117005321D01*
X165004500Y-117954678D01*
X165019032Y-118027735D01*
X165019033Y-118027738D01*
X165019033Y-118027739D01*
X165019034Y-118027740D01*
X165026047Y-118038236D01*
X165031309Y-118046111D01*
X165052185Y-118112789D01*
X165033699Y-118180169D01*
X165031309Y-118183889D01*
X165019033Y-118202261D01*
X165019032Y-118202264D01*
X165004500Y-118275321D01*
X165004500Y-119224678D01*
X165019032Y-119297735D01*
X165019033Y-119297738D01*
X165019033Y-119297739D01*
X165019034Y-119297740D01*
X165031308Y-119316109D01*
X165031309Y-119316111D01*
X165052185Y-119382789D01*
X165033699Y-119450169D01*
X165031309Y-119453889D01*
X165019033Y-119472261D01*
X165019032Y-119472264D01*
X165004500Y-119545321D01*
X165004500Y-120494678D01*
X165019032Y-120567735D01*
X165019033Y-120567738D01*
X165031309Y-120586111D01*
X165052185Y-120652789D01*
X165033699Y-120720169D01*
X165031309Y-120723889D01*
X165019033Y-120742261D01*
X165019032Y-120742264D01*
X165004500Y-120815321D01*
X165004500Y-121764678D01*
X165019032Y-121837735D01*
X165019033Y-121837738D01*
X165031309Y-121856111D01*
X165052185Y-121922789D01*
X165033699Y-121990169D01*
X165031309Y-121993889D01*
X165019033Y-122012261D01*
X165019032Y-122012264D01*
X165004500Y-122085321D01*
X165004500Y-123034678D01*
X165019032Y-123107735D01*
X165019033Y-123107738D01*
X165019033Y-123107739D01*
X165019034Y-123107740D01*
X165031308Y-123126109D01*
X165031309Y-123126111D01*
X165052185Y-123192789D01*
X165033699Y-123260169D01*
X165031309Y-123263889D01*
X165019033Y-123282261D01*
X165019032Y-123282264D01*
X165004500Y-123355321D01*
X165004500Y-124304678D01*
X165019032Y-124377735D01*
X165019033Y-124377738D01*
X165031309Y-124396111D01*
X165052185Y-124462789D01*
X165033699Y-124530169D01*
X165031309Y-124533889D01*
X165019033Y-124552261D01*
X165019032Y-124552264D01*
X165004500Y-124625321D01*
X165004500Y-125574678D01*
X165019032Y-125647735D01*
X165019033Y-125647738D01*
X165031309Y-125666111D01*
X165052185Y-125732789D01*
X165033699Y-125800169D01*
X165031309Y-125803889D01*
X165019033Y-125822261D01*
X165019032Y-125822264D01*
X165004500Y-125895321D01*
X165004500Y-126844678D01*
X165019032Y-126917735D01*
X165019033Y-126917739D01*
X165037405Y-126945235D01*
X165074399Y-127000601D01*
X165157260Y-127055966D01*
X165157264Y-127055967D01*
X165230321Y-127070499D01*
X165230324Y-127070500D01*
X165230326Y-127070500D01*
X165530500Y-127070500D01*
X165597539Y-127090185D01*
X165643294Y-127142989D01*
X165654500Y-127194500D01*
X165654500Y-129155500D01*
X165634815Y-129222539D01*
X165582011Y-129268294D01*
X165530504Y-129279500D01*
X165502131Y-129279500D01*
X165502123Y-129279501D01*
X165442516Y-129285908D01*
X165307671Y-129336202D01*
X165307664Y-129336206D01*
X165192455Y-129422452D01*
X165192452Y-129422455D01*
X165106206Y-129537664D01*
X165106202Y-129537671D01*
X165055908Y-129672517D01*
X165050333Y-129724377D01*
X165049501Y-129732123D01*
X165049500Y-129732135D01*
X165049500Y-130527870D01*
X165049501Y-130527876D01*
X165055908Y-130587483D01*
X165106202Y-130722328D01*
X165106206Y-130722335D01*
X165192452Y-130837544D01*
X165192455Y-130837547D01*
X165307664Y-130923793D01*
X165307671Y-130923797D01*
X165442517Y-130974091D01*
X165442516Y-130974091D01*
X165449444Y-130974835D01*
X165502127Y-130980500D01*
X166497872Y-130980499D01*
X166557483Y-130974091D01*
X166692331Y-130923796D01*
X166807546Y-130837546D01*
X166893796Y-130722331D01*
X166944091Y-130587483D01*
X166950500Y-130527873D01*
X166950499Y-129732128D01*
X166944091Y-129672517D01*
X166942583Y-129668475D01*
X166893797Y-129537671D01*
X166893793Y-129537664D01*
X166807547Y-129422455D01*
X166807544Y-129422452D01*
X166692335Y-129336206D01*
X166692328Y-129336202D01*
X166557482Y-129285908D01*
X166557483Y-129285908D01*
X166497883Y-129279501D01*
X166497881Y-129279500D01*
X166497873Y-129279500D01*
X166497865Y-129279500D01*
X166479500Y-129279500D01*
X166412461Y-129259815D01*
X166366706Y-129207011D01*
X166355500Y-129155500D01*
X166355500Y-127194500D01*
X166375185Y-127127461D01*
X166427989Y-127081706D01*
X166479500Y-127070500D01*
X166779676Y-127070500D01*
X166779677Y-127070499D01*
X166852740Y-127055966D01*
X166935601Y-127000601D01*
X166972398Y-126945528D01*
X167026009Y-126900724D01*
X167095334Y-126892017D01*
X167158362Y-126922171D01*
X167195082Y-126981614D01*
X167199500Y-127014420D01*
X167199500Y-146175500D01*
X167179815Y-146242539D01*
X167127011Y-146288294D01*
X167075500Y-146299500D01*
X140220757Y-146299500D01*
X140153718Y-146279815D01*
X140107963Y-146227011D01*
X140096759Y-146176144D01*
X140093083Y-145468598D01*
X140091363Y-145137500D01*
X144731963Y-145137500D01*
X144761649Y-145217093D01*
X144847809Y-145332187D01*
X144847812Y-145332190D01*
X144962906Y-145418350D01*
X144962913Y-145418354D01*
X145097620Y-145468596D01*
X145097627Y-145468598D01*
X145157155Y-145474999D01*
X145157172Y-145475000D01*
X145180000Y-145475000D01*
X146180000Y-145475000D01*
X146202828Y-145475000D01*
X146202844Y-145474999D01*
X146262372Y-145468598D01*
X146262379Y-145468596D01*
X146397086Y-145418354D01*
X146397093Y-145418350D01*
X146512187Y-145332190D01*
X146512190Y-145332187D01*
X146598350Y-145217093D01*
X146628037Y-145137500D01*
X147191963Y-145137500D01*
X147221649Y-145217093D01*
X147307809Y-145332187D01*
X147307812Y-145332190D01*
X147422906Y-145418350D01*
X147422913Y-145418354D01*
X147557620Y-145468596D01*
X147557627Y-145468598D01*
X147617155Y-145474999D01*
X147617172Y-145475000D01*
X147640000Y-145475000D01*
X148640000Y-145475000D01*
X148662828Y-145475000D01*
X148662844Y-145474999D01*
X148722372Y-145468598D01*
X148722379Y-145468596D01*
X148857086Y-145418354D01*
X148857093Y-145418350D01*
X148972187Y-145332190D01*
X148972190Y-145332187D01*
X149058350Y-145217093D01*
X149088037Y-145137500D01*
X149651963Y-145137500D01*
X149681649Y-145217093D01*
X149767809Y-145332187D01*
X149767812Y-145332190D01*
X149882906Y-145418350D01*
X149882913Y-145418354D01*
X150017620Y-145468596D01*
X150017627Y-145468598D01*
X150077155Y-145474999D01*
X150077172Y-145475000D01*
X150100000Y-145475000D01*
X151100000Y-145475000D01*
X151122828Y-145475000D01*
X151122844Y-145474999D01*
X151182372Y-145468598D01*
X151182379Y-145468596D01*
X151317086Y-145418354D01*
X151317093Y-145418350D01*
X151432187Y-145332190D01*
X151432190Y-145332187D01*
X151518350Y-145217093D01*
X151548037Y-145137500D01*
X152111963Y-145137500D01*
X152141649Y-145217093D01*
X152227809Y-145332187D01*
X152227812Y-145332190D01*
X152342906Y-145418350D01*
X152342913Y-145418354D01*
X152477620Y-145468596D01*
X152477627Y-145468598D01*
X152537155Y-145474999D01*
X152537172Y-145475000D01*
X152560000Y-145475000D01*
X153560000Y-145475000D01*
X153582828Y-145475000D01*
X153582844Y-145474999D01*
X153642372Y-145468598D01*
X153642379Y-145468596D01*
X153777086Y-145418354D01*
X153777093Y-145418350D01*
X153892187Y-145332190D01*
X153892190Y-145332187D01*
X153978350Y-145217093D01*
X154008037Y-145137500D01*
X154571963Y-145137500D01*
X154601649Y-145217093D01*
X154687809Y-145332187D01*
X154687812Y-145332190D01*
X154802906Y-145418350D01*
X154802913Y-145418354D01*
X154937620Y-145468596D01*
X154937627Y-145468598D01*
X154997155Y-145474999D01*
X154997172Y-145475000D01*
X155020000Y-145475000D01*
X156020000Y-145475000D01*
X156042828Y-145475000D01*
X156042844Y-145474999D01*
X156102372Y-145468598D01*
X156102379Y-145468596D01*
X156237086Y-145418354D01*
X156237093Y-145418350D01*
X156352187Y-145332190D01*
X156352190Y-145332187D01*
X156438350Y-145217093D01*
X156468037Y-145137500D01*
X157031963Y-145137500D01*
X157061649Y-145217093D01*
X157147809Y-145332187D01*
X157147812Y-145332190D01*
X157262906Y-145418350D01*
X157262913Y-145418354D01*
X157397620Y-145468596D01*
X157397627Y-145468598D01*
X157457155Y-145474999D01*
X157457172Y-145475000D01*
X157480000Y-145475000D01*
X158480000Y-145475000D01*
X158502828Y-145475000D01*
X158502844Y-145474999D01*
X158562372Y-145468598D01*
X158562379Y-145468596D01*
X158697086Y-145418354D01*
X158697093Y-145418350D01*
X158812187Y-145332190D01*
X158812190Y-145332187D01*
X158898350Y-145217093D01*
X158928037Y-145137500D01*
X158480000Y-145137500D01*
X158480000Y-145475000D01*
X157480000Y-145475000D01*
X157480000Y-145137500D01*
X157031963Y-145137500D01*
X156468037Y-145137500D01*
X156020000Y-145137500D01*
X156020000Y-145475000D01*
X155020000Y-145475000D01*
X155020000Y-145137500D01*
X154571963Y-145137500D01*
X154008037Y-145137500D01*
X153560000Y-145137500D01*
X153560000Y-145475000D01*
X152560000Y-145475000D01*
X152560000Y-145137500D01*
X152111963Y-145137500D01*
X151548037Y-145137500D01*
X151100000Y-145137500D01*
X151100000Y-145475000D01*
X150100000Y-145475000D01*
X150100000Y-145137500D01*
X149651963Y-145137500D01*
X149088037Y-145137500D01*
X148640000Y-145137500D01*
X148640000Y-145475000D01*
X147640000Y-145475000D01*
X147640000Y-145137500D01*
X147191963Y-145137500D01*
X146628037Y-145137500D01*
X146180000Y-145137500D01*
X146180000Y-145475000D01*
X145180000Y-145475000D01*
X145180000Y-145137500D01*
X144731963Y-145137500D01*
X140091363Y-145137500D01*
X140089079Y-144697844D01*
X159450000Y-144697844D01*
X159456401Y-144757372D01*
X159456403Y-144757379D01*
X159506645Y-144892086D01*
X159506649Y-144892093D01*
X159592809Y-145007187D01*
X159592812Y-145007190D01*
X159707906Y-145093350D01*
X159707913Y-145093354D01*
X159842620Y-145143596D01*
X159842627Y-145143598D01*
X159902155Y-145149999D01*
X159902172Y-145150000D01*
X161000000Y-145150000D01*
X162000000Y-145150000D01*
X163097828Y-145150000D01*
X163097844Y-145149999D01*
X163157372Y-145143598D01*
X163157379Y-145143596D01*
X163292086Y-145093354D01*
X163292093Y-145093350D01*
X163407187Y-145007190D01*
X163407190Y-145007187D01*
X163493350Y-144892093D01*
X163493354Y-144892086D01*
X163543596Y-144757379D01*
X163543598Y-144757372D01*
X163549999Y-144697844D01*
X163550000Y-144697827D01*
X163550000Y-144500000D01*
X162000000Y-144500000D01*
X162000000Y-145150000D01*
X161000000Y-145150000D01*
X161000000Y-144500000D01*
X159450000Y-144500000D01*
X159450000Y-144697844D01*
X140089079Y-144697844D01*
X140086169Y-144137500D01*
X144731963Y-144137500D01*
X145180000Y-144137500D01*
X146180000Y-144137500D01*
X146628037Y-144137500D01*
X147191963Y-144137500D01*
X147640000Y-144137500D01*
X148640000Y-144137500D01*
X149088037Y-144137500D01*
X149651963Y-144137500D01*
X150100000Y-144137500D01*
X151100000Y-144137500D01*
X151548037Y-144137500D01*
X152111963Y-144137500D01*
X152560000Y-144137500D01*
X153560000Y-144137500D01*
X154008037Y-144137500D01*
X154571963Y-144137500D01*
X155020000Y-144137500D01*
X156020000Y-144137500D01*
X156468037Y-144137500D01*
X157031963Y-144137500D01*
X157480000Y-144137500D01*
X158480000Y-144137500D01*
X158928037Y-144137500D01*
X158898350Y-144057906D01*
X158812190Y-143942812D01*
X158812187Y-143942809D01*
X158783066Y-143921009D01*
X160900000Y-143921009D01*
X160900000Y-144078991D01*
X160940889Y-144231591D01*
X161019881Y-144368408D01*
X161131592Y-144480119D01*
X161268409Y-144559111D01*
X161421009Y-144600000D01*
X161578991Y-144600000D01*
X161731591Y-144559111D01*
X161868408Y-144480119D01*
X161980119Y-144368408D01*
X162059111Y-144231591D01*
X162100000Y-144078991D01*
X162100000Y-143921009D01*
X162059111Y-143768409D01*
X161980119Y-143631592D01*
X161868408Y-143519881D01*
X161833973Y-143500000D01*
X162000000Y-143500000D01*
X163550000Y-143500000D01*
X163550000Y-143302172D01*
X163549999Y-143302155D01*
X163543598Y-143242627D01*
X163543596Y-143242620D01*
X163493354Y-143107913D01*
X163493350Y-143107906D01*
X163407190Y-142992812D01*
X163407187Y-142992809D01*
X163292093Y-142906649D01*
X163292086Y-142906645D01*
X163157379Y-142856403D01*
X163157372Y-142856401D01*
X163097844Y-142850000D01*
X162000000Y-142850000D01*
X162000000Y-143500000D01*
X161833973Y-143500000D01*
X161731591Y-143440889D01*
X161578991Y-143400000D01*
X161421009Y-143400000D01*
X161268409Y-143440889D01*
X161131592Y-143519881D01*
X161019881Y-143631592D01*
X160940889Y-143768409D01*
X160900000Y-143921009D01*
X158783066Y-143921009D01*
X158697093Y-143856649D01*
X158697086Y-143856645D01*
X158562379Y-143806403D01*
X158562372Y-143806401D01*
X158502844Y-143800000D01*
X158480000Y-143800000D01*
X158480000Y-144137500D01*
X157480000Y-144137500D01*
X157480000Y-143800000D01*
X157457155Y-143800000D01*
X157397627Y-143806401D01*
X157397620Y-143806403D01*
X157262913Y-143856645D01*
X157262906Y-143856649D01*
X157147812Y-143942809D01*
X157147809Y-143942812D01*
X157061649Y-144057906D01*
X157031963Y-144137500D01*
X156468037Y-144137500D01*
X156438350Y-144057906D01*
X156352190Y-143942812D01*
X156352187Y-143942809D01*
X156237093Y-143856649D01*
X156237086Y-143856645D01*
X156102379Y-143806403D01*
X156102372Y-143806401D01*
X156042844Y-143800000D01*
X156020000Y-143800000D01*
X156020000Y-144137500D01*
X155020000Y-144137500D01*
X155020000Y-143800000D01*
X154997155Y-143800000D01*
X154937627Y-143806401D01*
X154937620Y-143806403D01*
X154802913Y-143856645D01*
X154802906Y-143856649D01*
X154687812Y-143942809D01*
X154687809Y-143942812D01*
X154601649Y-144057906D01*
X154571963Y-144137500D01*
X154008037Y-144137500D01*
X153978350Y-144057906D01*
X153892190Y-143942812D01*
X153892187Y-143942809D01*
X153777093Y-143856649D01*
X153777086Y-143856645D01*
X153642379Y-143806403D01*
X153642372Y-143806401D01*
X153582844Y-143800000D01*
X153560000Y-143800000D01*
X153560000Y-144137500D01*
X152560000Y-144137500D01*
X152560000Y-143800000D01*
X152537155Y-143800000D01*
X152477627Y-143806401D01*
X152477620Y-143806403D01*
X152342913Y-143856645D01*
X152342906Y-143856649D01*
X152227812Y-143942809D01*
X152227809Y-143942812D01*
X152141649Y-144057906D01*
X152111963Y-144137500D01*
X151548037Y-144137500D01*
X151518350Y-144057906D01*
X151432190Y-143942812D01*
X151432187Y-143942809D01*
X151317093Y-143856649D01*
X151317086Y-143856645D01*
X151182379Y-143806403D01*
X151182372Y-143806401D01*
X151122844Y-143800000D01*
X151100000Y-143800000D01*
X151100000Y-144137500D01*
X150100000Y-144137500D01*
X150100000Y-143800000D01*
X150077155Y-143800000D01*
X150017627Y-143806401D01*
X150017620Y-143806403D01*
X149882913Y-143856645D01*
X149882906Y-143856649D01*
X149767812Y-143942809D01*
X149767809Y-143942812D01*
X149681649Y-144057906D01*
X149651963Y-144137500D01*
X149088037Y-144137500D01*
X149058350Y-144057906D01*
X148972190Y-143942812D01*
X148972187Y-143942809D01*
X148857093Y-143856649D01*
X148857086Y-143856645D01*
X148722379Y-143806403D01*
X148722372Y-143806401D01*
X148662844Y-143800000D01*
X148640000Y-143800000D01*
X148640000Y-144137500D01*
X147640000Y-144137500D01*
X147640000Y-143800000D01*
X147617155Y-143800000D01*
X147557627Y-143806401D01*
X147557620Y-143806403D01*
X147422913Y-143856645D01*
X147422906Y-143856649D01*
X147307812Y-143942809D01*
X147307809Y-143942812D01*
X147221649Y-144057906D01*
X147191963Y-144137500D01*
X146628037Y-144137500D01*
X146598350Y-144057906D01*
X146512190Y-143942812D01*
X146512187Y-143942809D01*
X146397093Y-143856649D01*
X146397086Y-143856645D01*
X146262379Y-143806403D01*
X146262372Y-143806401D01*
X146202844Y-143800000D01*
X146180000Y-143800000D01*
X146180000Y-144137500D01*
X145180000Y-144137500D01*
X145180000Y-143800000D01*
X145157155Y-143800000D01*
X145097627Y-143806401D01*
X145097620Y-143806403D01*
X144962913Y-143856645D01*
X144962906Y-143856649D01*
X144847812Y-143942809D01*
X144847809Y-143942812D01*
X144761649Y-144057906D01*
X144731963Y-144137500D01*
X140086169Y-144137500D01*
X140082933Y-143514628D01*
X141085000Y-143514628D01*
X141099503Y-143587540D01*
X141099505Y-143587544D01*
X141154760Y-143670239D01*
X141237455Y-143725494D01*
X141237459Y-143725496D01*
X141310371Y-143739999D01*
X141310374Y-143740000D01*
X141850000Y-143740000D01*
X142850000Y-143740000D01*
X143389626Y-143740000D01*
X143389628Y-143739999D01*
X143462540Y-143725496D01*
X143462544Y-143725494D01*
X143545239Y-143670239D01*
X143600494Y-143587544D01*
X143600496Y-143587540D01*
X143614999Y-143514628D01*
X143615000Y-143514626D01*
X143615000Y-143240000D01*
X142850000Y-143240000D01*
X142850000Y-143740000D01*
X141850000Y-143740000D01*
X141850000Y-143240000D01*
X141085000Y-143240000D01*
X141085000Y-143514628D01*
X140082933Y-143514628D01*
X140074885Y-141965371D01*
X141085000Y-141965371D01*
X141085000Y-142240000D01*
X141850000Y-142240000D01*
X142850000Y-142240000D01*
X143615000Y-142240000D01*
X143615000Y-141965373D01*
X143614999Y-141965371D01*
X143600496Y-141892459D01*
X143600494Y-141892455D01*
X143545239Y-141809760D01*
X143462544Y-141754505D01*
X143462540Y-141754503D01*
X143389627Y-141740000D01*
X142850000Y-141740000D01*
X142850000Y-142240000D01*
X141850000Y-142240000D01*
X141850000Y-141740000D01*
X141310373Y-141740000D01*
X141237459Y-141754503D01*
X141237455Y-141754505D01*
X141154760Y-141809760D01*
X141099505Y-141892455D01*
X141099503Y-141892459D01*
X141085000Y-141965371D01*
X140074885Y-141965371D01*
X140061690Y-139425321D01*
X141084500Y-139425321D01*
X141084500Y-140974678D01*
X141099032Y-141047735D01*
X141099033Y-141047739D01*
X141099034Y-141047740D01*
X141154399Y-141130601D01*
X141237245Y-141185956D01*
X141237260Y-141185966D01*
X141237264Y-141185967D01*
X141310321Y-141200499D01*
X141310324Y-141200500D01*
X141310326Y-141200500D01*
X143389676Y-141200500D01*
X143389677Y-141200499D01*
X143462740Y-141185966D01*
X143545601Y-141130601D01*
X143600966Y-141047740D01*
X143615500Y-140974674D01*
X143615500Y-139425326D01*
X143615500Y-139425323D01*
X143615499Y-139425321D01*
X143600967Y-139352264D01*
X143600966Y-139352260D01*
X143545601Y-139269399D01*
X143462740Y-139214034D01*
X143462739Y-139214033D01*
X143462735Y-139214032D01*
X143389677Y-139199500D01*
X143389674Y-139199500D01*
X141310326Y-139199500D01*
X141310323Y-139199500D01*
X141237264Y-139214032D01*
X141237260Y-139214033D01*
X141154399Y-139269399D01*
X141099033Y-139352260D01*
X141099032Y-139352264D01*
X141084500Y-139425321D01*
X140061690Y-139425321D01*
X140048495Y-136885321D01*
X141084500Y-136885321D01*
X141084500Y-138434678D01*
X141099032Y-138507735D01*
X141099033Y-138507739D01*
X141115701Y-138532685D01*
X141154399Y-138590601D01*
X141204653Y-138624179D01*
X141237260Y-138645966D01*
X141237264Y-138645967D01*
X141310321Y-138660499D01*
X141310324Y-138660500D01*
X141310326Y-138660500D01*
X143389676Y-138660500D01*
X143389677Y-138660499D01*
X143462740Y-138645966D01*
X143545601Y-138590601D01*
X143600966Y-138507740D01*
X143615500Y-138434674D01*
X143615500Y-138134500D01*
X143635185Y-138067461D01*
X143687989Y-138021706D01*
X143739500Y-138010500D01*
X143963456Y-138010500D01*
X144030495Y-138030185D01*
X144051137Y-138046819D01*
X144313181Y-138308862D01*
X144346666Y-138370185D01*
X144349500Y-138396543D01*
X144349500Y-141628645D01*
X144366743Y-141692998D01*
X144373385Y-141717785D01*
X144373387Y-141717790D01*
X144419527Y-141797708D01*
X144419531Y-141797713D01*
X144671718Y-142049899D01*
X144705203Y-142111222D01*
X144707327Y-142150832D01*
X144704500Y-142177128D01*
X144704500Y-142947870D01*
X144704501Y-142947876D01*
X144710908Y-143007483D01*
X144761202Y-143142328D01*
X144761206Y-143142335D01*
X144847452Y-143257544D01*
X144847455Y-143257547D01*
X144962664Y-143343793D01*
X144962671Y-143343797D01*
X145097517Y-143394091D01*
X145097516Y-143394091D01*
X145104444Y-143394835D01*
X145157127Y-143400500D01*
X146202872Y-143400499D01*
X146262483Y-143394091D01*
X146397331Y-143343796D01*
X146512546Y-143257546D01*
X146598796Y-143142331D01*
X146649091Y-143007483D01*
X146649090Y-143007483D01*
X146651802Y-143000215D01*
X146653255Y-143000757D01*
X146683424Y-142947772D01*
X146745334Y-142915384D01*
X146769531Y-142913000D01*
X147050469Y-142913000D01*
X147117508Y-142932685D01*
X147163263Y-142985489D01*
X147169591Y-143003951D01*
X147221202Y-143142328D01*
X147221206Y-143142335D01*
X147307452Y-143257544D01*
X147307455Y-143257547D01*
X147422664Y-143343793D01*
X147422671Y-143343797D01*
X147557517Y-143394091D01*
X147557516Y-143394091D01*
X147564444Y-143394835D01*
X147617127Y-143400500D01*
X148662872Y-143400499D01*
X148722483Y-143394091D01*
X148857331Y-143343796D01*
X148972546Y-143257546D01*
X149058796Y-143142331D01*
X149109091Y-143007483D01*
X149109090Y-143007483D01*
X149111802Y-143000215D01*
X149113255Y-143000757D01*
X149143424Y-142947772D01*
X149205334Y-142915384D01*
X149229531Y-142913000D01*
X149510469Y-142913000D01*
X149577508Y-142932685D01*
X149623263Y-142985489D01*
X149629591Y-143003951D01*
X149681202Y-143142328D01*
X149681206Y-143142335D01*
X149767452Y-143257544D01*
X149767455Y-143257547D01*
X149882664Y-143343793D01*
X149882671Y-143343797D01*
X150017517Y-143394091D01*
X150017516Y-143394091D01*
X150024444Y-143394835D01*
X150077127Y-143400500D01*
X151122872Y-143400499D01*
X151182483Y-143394091D01*
X151317331Y-143343796D01*
X151432546Y-143257546D01*
X151518796Y-143142331D01*
X151569091Y-143007483D01*
X151569090Y-143007483D01*
X151571802Y-143000215D01*
X151573255Y-143000757D01*
X151603424Y-142947772D01*
X151665334Y-142915384D01*
X151689531Y-142913000D01*
X151970469Y-142913000D01*
X152037508Y-142932685D01*
X152083263Y-142985489D01*
X152089591Y-143003951D01*
X152141202Y-143142328D01*
X152141206Y-143142335D01*
X152227452Y-143257544D01*
X152227455Y-143257547D01*
X152342664Y-143343793D01*
X152342671Y-143343797D01*
X152477517Y-143394091D01*
X152477516Y-143394091D01*
X152484444Y-143394835D01*
X152537127Y-143400500D01*
X153582872Y-143400499D01*
X153642483Y-143394091D01*
X153777331Y-143343796D01*
X153892546Y-143257546D01*
X153978796Y-143142331D01*
X154029091Y-143007483D01*
X154029090Y-143007483D01*
X154031802Y-143000215D01*
X154033255Y-143000757D01*
X154063424Y-142947772D01*
X154125334Y-142915384D01*
X154149531Y-142913000D01*
X154430469Y-142913000D01*
X154497508Y-142932685D01*
X154543263Y-142985489D01*
X154549591Y-143003951D01*
X154601202Y-143142328D01*
X154601206Y-143142335D01*
X154687452Y-143257544D01*
X154687455Y-143257547D01*
X154802664Y-143343793D01*
X154802671Y-143343797D01*
X154937517Y-143394091D01*
X154937516Y-143394091D01*
X154944444Y-143394835D01*
X154997127Y-143400500D01*
X156042872Y-143400499D01*
X156102483Y-143394091D01*
X156237331Y-143343796D01*
X156352546Y-143257546D01*
X156438796Y-143142331D01*
X156489091Y-143007483D01*
X156489090Y-143007483D01*
X156491802Y-143000215D01*
X156493255Y-143000757D01*
X156523424Y-142947772D01*
X156585334Y-142915384D01*
X156609531Y-142913000D01*
X156890469Y-142913000D01*
X156957508Y-142932685D01*
X157003263Y-142985489D01*
X157009591Y-143003951D01*
X157061202Y-143142328D01*
X157061206Y-143142335D01*
X157147452Y-143257544D01*
X157147455Y-143257547D01*
X157262664Y-143343793D01*
X157262671Y-143343797D01*
X157397517Y-143394091D01*
X157397516Y-143394091D01*
X157404444Y-143394835D01*
X157457127Y-143400500D01*
X158502872Y-143400499D01*
X158562483Y-143394091D01*
X158697331Y-143343796D01*
X158752956Y-143302155D01*
X159450000Y-143302155D01*
X159450000Y-143500000D01*
X161000000Y-143500000D01*
X161000000Y-142850000D01*
X159902155Y-142850000D01*
X159842627Y-142856401D01*
X159842620Y-142856403D01*
X159707913Y-142906645D01*
X159707906Y-142906649D01*
X159592812Y-142992809D01*
X159592809Y-142992812D01*
X159506649Y-143107906D01*
X159506645Y-143107913D01*
X159456403Y-143242620D01*
X159456401Y-143242627D01*
X159450000Y-143302155D01*
X158752956Y-143302155D01*
X158812546Y-143257546D01*
X158898796Y-143142331D01*
X158949091Y-143007483D01*
X158955500Y-142947873D01*
X158955499Y-142177128D01*
X158952673Y-142150835D01*
X158965078Y-142082076D01*
X158988278Y-142049902D01*
X159480470Y-141557712D01*
X159526614Y-141477788D01*
X159550500Y-141388643D01*
X159550500Y-141296356D01*
X159550500Y-141066916D01*
X159570185Y-140999877D01*
X159622989Y-140954122D01*
X159692147Y-140944178D01*
X159755703Y-140973203D01*
X159762181Y-140979235D01*
X159850500Y-141067554D01*
X159850505Y-141067558D01*
X159958411Y-141145955D01*
X159997006Y-141173996D01*
X160102484Y-141227740D01*
X160158360Y-141256211D01*
X160158363Y-141256212D01*
X160244476Y-141284191D01*
X160330591Y-141312171D01*
X160413429Y-141325291D01*
X160509449Y-141340500D01*
X160509454Y-141340500D01*
X162490551Y-141340500D01*
X162577259Y-141326765D01*
X162669409Y-141312171D01*
X162841639Y-141256211D01*
X163002994Y-141173996D01*
X163149501Y-141067553D01*
X163277553Y-140939501D01*
X163383996Y-140792994D01*
X163466211Y-140631639D01*
X163522171Y-140459409D01*
X163536765Y-140367259D01*
X163550500Y-140280551D01*
X163550500Y-140099448D01*
X163534019Y-139995397D01*
X163522171Y-139920591D01*
X163482827Y-139799500D01*
X163466212Y-139748363D01*
X163466211Y-139748360D01*
X163436887Y-139690809D01*
X163383996Y-139587006D01*
X163321671Y-139501222D01*
X163277558Y-139440505D01*
X163277554Y-139440500D01*
X163149499Y-139312445D01*
X163149494Y-139312441D01*
X163002997Y-139206006D01*
X163002996Y-139206005D01*
X163002994Y-139206004D01*
X162915847Y-139161600D01*
X162841639Y-139123788D01*
X162841636Y-139123787D01*
X162669410Y-139067829D01*
X162490551Y-139039500D01*
X162490546Y-139039500D01*
X160509454Y-139039500D01*
X160509449Y-139039500D01*
X160330589Y-139067829D01*
X160158363Y-139123787D01*
X160158360Y-139123788D01*
X159997002Y-139206006D01*
X159850505Y-139312441D01*
X159850500Y-139312445D01*
X159762181Y-139400765D01*
X159700858Y-139434250D01*
X159631166Y-139429266D01*
X159575233Y-139387394D01*
X159550816Y-139321930D01*
X159550500Y-139313084D01*
X159550500Y-137896543D01*
X159570185Y-137829504D01*
X159586815Y-137808866D01*
X159956277Y-137439403D01*
X160017598Y-137405920D01*
X160087289Y-137410904D01*
X160100246Y-137416599D01*
X160158361Y-137446211D01*
X160330591Y-137502171D01*
X160413429Y-137515291D01*
X160509449Y-137530500D01*
X160509454Y-137530500D01*
X162490551Y-137530500D01*
X162577259Y-137516765D01*
X162669409Y-137502171D01*
X162841639Y-137446211D01*
X163002994Y-137363996D01*
X163149501Y-137257553D01*
X163277553Y-137129501D01*
X163383996Y-136982994D01*
X163466211Y-136821639D01*
X163522171Y-136649409D01*
X163543268Y-136516209D01*
X163550500Y-136470551D01*
X163550500Y-136289448D01*
X163531120Y-136167093D01*
X163522171Y-136110591D01*
X163488669Y-136007482D01*
X163466212Y-135938363D01*
X163466211Y-135938360D01*
X163437740Y-135882484D01*
X163383996Y-135777006D01*
X163370396Y-135758287D01*
X163277558Y-135630505D01*
X163277554Y-135630500D01*
X163149499Y-135502445D01*
X163149494Y-135502441D01*
X163002997Y-135396006D01*
X163002996Y-135396005D01*
X163002994Y-135396004D01*
X162951300Y-135369664D01*
X162841639Y-135313788D01*
X162841636Y-135313787D01*
X162669410Y-135257829D01*
X162490551Y-135229500D01*
X162490546Y-135229500D01*
X160509454Y-135229500D01*
X160509449Y-135229500D01*
X160330589Y-135257829D01*
X160158363Y-135313787D01*
X160158360Y-135313788D01*
X159997002Y-135396006D01*
X159850505Y-135502441D01*
X159850500Y-135502445D01*
X159722445Y-135630500D01*
X159722441Y-135630505D01*
X159616006Y-135777002D01*
X159533788Y-135938360D01*
X159533787Y-135938363D01*
X159477829Y-136110589D01*
X159449500Y-136289448D01*
X159449500Y-136470551D01*
X159477829Y-136649410D01*
X159522297Y-136786270D01*
X159524292Y-136856111D01*
X159492047Y-136912269D01*
X158919531Y-137484786D01*
X158919525Y-137484794D01*
X158873866Y-137563879D01*
X158873864Y-137563884D01*
X158873519Y-137564481D01*
X158873384Y-137564715D01*
X158849500Y-137653856D01*
X158849500Y-141145955D01*
X158829815Y-141212994D01*
X158813181Y-141233636D01*
X158358636Y-141688181D01*
X158297313Y-141721666D01*
X158270955Y-141724500D01*
X157689044Y-141724500D01*
X157622005Y-141704815D01*
X157601363Y-141688181D01*
X157186819Y-141273637D01*
X157153334Y-141212314D01*
X157150500Y-141185956D01*
X157150500Y-140874262D01*
X157170185Y-140807223D01*
X157175000Y-140801632D01*
X157175000Y-140796591D01*
X157425000Y-140796591D01*
X157425001Y-140796591D01*
X157444626Y-140794009D01*
X157444629Y-140794008D01*
X157544508Y-140747433D01*
X157622433Y-140669508D01*
X157669009Y-140569626D01*
X157675000Y-140524122D01*
X157675000Y-140425000D01*
X157425000Y-140425000D01*
X157425000Y-140796591D01*
X157175000Y-140796591D01*
X157175000Y-140535868D01*
X157175265Y-140527759D01*
X157175497Y-140524199D01*
X157175500Y-140524179D01*
X157175499Y-140298999D01*
X157195183Y-140231961D01*
X157247987Y-140186206D01*
X157299499Y-140175000D01*
X157674999Y-140175000D01*
X157674999Y-140075885D01*
X157669007Y-140030369D01*
X157622432Y-139930491D01*
X157618938Y-139925500D01*
X157596609Y-139859294D01*
X157598896Y-139830173D01*
X157600000Y-139824625D01*
X157600000Y-139800000D01*
X156910866Y-139800000D01*
X156902755Y-139799734D01*
X156899185Y-139799500D01*
X156700816Y-139799500D01*
X156697262Y-139799734D01*
X156689151Y-139800000D01*
X156410866Y-139800000D01*
X156402755Y-139799734D01*
X156399185Y-139799500D01*
X156200816Y-139799500D01*
X156197262Y-139799734D01*
X156189151Y-139800000D01*
X155500000Y-139800000D01*
X155500000Y-139824624D01*
X155501106Y-139830185D01*
X155494877Y-139899777D01*
X155481065Y-139925495D01*
X155477566Y-139930492D01*
X155430990Y-140030373D01*
X155425000Y-140075877D01*
X155425000Y-140175000D01*
X155800500Y-140175000D01*
X155867539Y-140194685D01*
X155913294Y-140247489D01*
X155924500Y-140298999D01*
X155924500Y-140524185D01*
X155924734Y-140527741D01*
X155925000Y-140535851D01*
X155925000Y-140809002D01*
X155944684Y-140840037D01*
X155949500Y-140874260D01*
X155949500Y-141103455D01*
X155929815Y-141170494D01*
X155913181Y-141191136D01*
X155416135Y-141688181D01*
X155354812Y-141721666D01*
X155328454Y-141724500D01*
X154997130Y-141724500D01*
X154997123Y-141724501D01*
X154937516Y-141730908D01*
X154802671Y-141781202D01*
X154802664Y-141781206D01*
X154687455Y-141867452D01*
X154687452Y-141867455D01*
X154601206Y-141982664D01*
X154601202Y-141982671D01*
X154548198Y-142124785D01*
X154546744Y-142124242D01*
X154516576Y-142177228D01*
X154454666Y-142209616D01*
X154430469Y-142212000D01*
X154149531Y-142212000D01*
X154082492Y-142192315D01*
X154036737Y-142139511D01*
X154030408Y-142121048D01*
X153978797Y-141982671D01*
X153978793Y-141982664D01*
X153892547Y-141867455D01*
X153892544Y-141867452D01*
X153777335Y-141781206D01*
X153777328Y-141781202D01*
X153642482Y-141730908D01*
X153642483Y-141730908D01*
X153582883Y-141724501D01*
X153582881Y-141724500D01*
X153582873Y-141724500D01*
X153582864Y-141724500D01*
X152537129Y-141724500D01*
X152537123Y-141724501D01*
X152477516Y-141730908D01*
X152342671Y-141781202D01*
X152342664Y-141781206D01*
X152227455Y-141867452D01*
X152227452Y-141867455D01*
X152141206Y-141982664D01*
X152141202Y-141982671D01*
X152088198Y-142124785D01*
X152086744Y-142124242D01*
X152056576Y-142177228D01*
X151994666Y-142209616D01*
X151970469Y-142212000D01*
X151689531Y-142212000D01*
X151622492Y-142192315D01*
X151576737Y-142139511D01*
X151570408Y-142121048D01*
X151518797Y-141982671D01*
X151518793Y-141982664D01*
X151432547Y-141867455D01*
X151432544Y-141867452D01*
X151317335Y-141781206D01*
X151317328Y-141781202D01*
X151182482Y-141730908D01*
X151182483Y-141730908D01*
X151122883Y-141724501D01*
X151122881Y-141724500D01*
X151122873Y-141724500D01*
X151122865Y-141724500D01*
X151074500Y-141724500D01*
X151007461Y-141704815D01*
X150961706Y-141652011D01*
X150950500Y-141600500D01*
X150950500Y-140788859D01*
X150970185Y-140721820D01*
X151022989Y-140676065D01*
X151031151Y-140672683D01*
X151037778Y-140670212D01*
X151150116Y-140586116D01*
X151234212Y-140473778D01*
X151260797Y-140402500D01*
X152348130Y-140402500D01*
X152366233Y-140451038D01*
X152450242Y-140563260D01*
X152561000Y-140646172D01*
X152561000Y-140646171D01*
X153511000Y-140646171D01*
X153621757Y-140563260D01*
X153651062Y-140524114D01*
X155425001Y-140524114D01*
X155430992Y-140569630D01*
X155477567Y-140669509D01*
X155555491Y-140747433D01*
X155655370Y-140794008D01*
X155655375Y-140794009D01*
X155674998Y-140796593D01*
X155675000Y-140796592D01*
X155675000Y-140425000D01*
X155425001Y-140425000D01*
X155425001Y-140524114D01*
X153651062Y-140524114D01*
X153705766Y-140451038D01*
X153723870Y-140402500D01*
X153511000Y-140402500D01*
X153511000Y-140646171D01*
X152561000Y-140646171D01*
X152561000Y-140402500D01*
X152348130Y-140402500D01*
X151260797Y-140402500D01*
X151283251Y-140342299D01*
X151287906Y-140299001D01*
X151289499Y-140284190D01*
X151289500Y-140284173D01*
X151289500Y-139690826D01*
X151289499Y-139690809D01*
X151283251Y-139632700D01*
X151266206Y-139587002D01*
X151234212Y-139501222D01*
X151150116Y-139388884D01*
X151082612Y-139338351D01*
X151037780Y-139304789D01*
X151037778Y-139304788D01*
X151002798Y-139291741D01*
X150906299Y-139255748D01*
X150848190Y-139249500D01*
X150848174Y-139249500D01*
X150279826Y-139249500D01*
X150279809Y-139249500D01*
X150221700Y-139255748D01*
X150090219Y-139304789D01*
X149977884Y-139388884D01*
X149893789Y-139501219D01*
X149844748Y-139632700D01*
X149838500Y-139690809D01*
X149838500Y-140284190D01*
X149844748Y-140342299D01*
X149875291Y-140424185D01*
X149893788Y-140473778D01*
X149977884Y-140586116D01*
X150038691Y-140631636D01*
X150089281Y-140669508D01*
X150090222Y-140670212D01*
X150168835Y-140699533D01*
X150224767Y-140741404D01*
X150249184Y-140806868D01*
X150249500Y-140815714D01*
X150249500Y-141600500D01*
X150229815Y-141667539D01*
X150177011Y-141713294D01*
X150125502Y-141724500D01*
X150077131Y-141724500D01*
X150077123Y-141724501D01*
X150017516Y-141730908D01*
X149882671Y-141781202D01*
X149882664Y-141781206D01*
X149767455Y-141867452D01*
X149767452Y-141867455D01*
X149681206Y-141982664D01*
X149681202Y-141982671D01*
X149628198Y-142124785D01*
X149626744Y-142124242D01*
X149596576Y-142177228D01*
X149534666Y-142209616D01*
X149510469Y-142212000D01*
X149229531Y-142212000D01*
X149162492Y-142192315D01*
X149116737Y-142139511D01*
X149110408Y-142121048D01*
X149058797Y-141982671D01*
X149058793Y-141982664D01*
X148972547Y-141867455D01*
X148972544Y-141867452D01*
X148857335Y-141781206D01*
X148857328Y-141781202D01*
X148722482Y-141730908D01*
X148722483Y-141730908D01*
X148662883Y-141724501D01*
X148662881Y-141724500D01*
X148662873Y-141724500D01*
X148662865Y-141724500D01*
X147849044Y-141724500D01*
X147782005Y-141704815D01*
X147761363Y-141688181D01*
X147586819Y-141513637D01*
X147553334Y-141452314D01*
X147550500Y-141425956D01*
X147550500Y-140774262D01*
X147570185Y-140707223D01*
X147575000Y-140701632D01*
X147575000Y-140696591D01*
X147825000Y-140696591D01*
X147825001Y-140696591D01*
X147844626Y-140694009D01*
X147844629Y-140694008D01*
X147944508Y-140647433D01*
X148022433Y-140569508D01*
X148069009Y-140469626D01*
X148075000Y-140424122D01*
X148075000Y-140325000D01*
X147825000Y-140325000D01*
X147825000Y-140696591D01*
X147575000Y-140696591D01*
X147575000Y-140435868D01*
X147575265Y-140427759D01*
X147575497Y-140424199D01*
X147575500Y-140424179D01*
X147575499Y-140198999D01*
X147595183Y-140131961D01*
X147647987Y-140086206D01*
X147699499Y-140075000D01*
X148074999Y-140075000D01*
X148074999Y-139975885D01*
X148069007Y-139930369D01*
X148022432Y-139830491D01*
X148018938Y-139825500D01*
X147996609Y-139759294D01*
X147998896Y-139730173D01*
X148000000Y-139724625D01*
X148000000Y-139700000D01*
X147310866Y-139700000D01*
X147302755Y-139699734D01*
X147299185Y-139699500D01*
X147100816Y-139699500D01*
X147097262Y-139699734D01*
X147089151Y-139700000D01*
X146810866Y-139700000D01*
X146802755Y-139699734D01*
X146799185Y-139699500D01*
X146600816Y-139699500D01*
X146597262Y-139699734D01*
X146589151Y-139700000D01*
X145900000Y-139700000D01*
X145900000Y-139724624D01*
X145901106Y-139730185D01*
X145894877Y-139799777D01*
X145881065Y-139825495D01*
X145877566Y-139830492D01*
X145830990Y-139930373D01*
X145825000Y-139975877D01*
X145825000Y-140075000D01*
X146200500Y-140075000D01*
X146267539Y-140094685D01*
X146313294Y-140147489D01*
X146324500Y-140198999D01*
X146324500Y-140424185D01*
X146324734Y-140427741D01*
X146325000Y-140435851D01*
X146325000Y-140709002D01*
X146344684Y-140740037D01*
X146349500Y-140774260D01*
X146349500Y-141345955D01*
X146329815Y-141412994D01*
X146313181Y-141433636D01*
X146058636Y-141688181D01*
X145997313Y-141721666D01*
X145970955Y-141724500D01*
X145389044Y-141724500D01*
X145322005Y-141704815D01*
X145301363Y-141688181D01*
X145086819Y-141473637D01*
X145053334Y-141412314D01*
X145050500Y-141385956D01*
X145050500Y-140424114D01*
X145825001Y-140424114D01*
X145830992Y-140469630D01*
X145877567Y-140569509D01*
X145955491Y-140647433D01*
X146055370Y-140694008D01*
X146055375Y-140694009D01*
X146074998Y-140696593D01*
X146075000Y-140696592D01*
X146075000Y-140325000D01*
X145825001Y-140325000D01*
X145825001Y-140424114D01*
X145050500Y-140424114D01*
X145050500Y-139225136D01*
X146325000Y-139225136D01*
X146325000Y-139274864D01*
X146344030Y-139320807D01*
X146379193Y-139355970D01*
X146425136Y-139375000D01*
X146474864Y-139375000D01*
X146520807Y-139355970D01*
X146555970Y-139320807D01*
X146575000Y-139274864D01*
X146575000Y-139225136D01*
X147325000Y-139225136D01*
X147325000Y-139274864D01*
X147344030Y-139320807D01*
X147379193Y-139355970D01*
X147425136Y-139375000D01*
X147474864Y-139375000D01*
X147520807Y-139355970D01*
X147555970Y-139320807D01*
X147575000Y-139274864D01*
X147575000Y-139225136D01*
X147555970Y-139179193D01*
X147520807Y-139144030D01*
X147474864Y-139125000D01*
X147425136Y-139125000D01*
X147379193Y-139144030D01*
X147344030Y-139179193D01*
X147325000Y-139225136D01*
X146575000Y-139225136D01*
X146555970Y-139179193D01*
X146520807Y-139144030D01*
X146474864Y-139125000D01*
X146425136Y-139125000D01*
X146379193Y-139144030D01*
X146344030Y-139179193D01*
X146325000Y-139225136D01*
X145050500Y-139225136D01*
X145050500Y-138153858D01*
X145050500Y-138153856D01*
X145026614Y-138064712D01*
X145026611Y-138064706D01*
X144980473Y-137984794D01*
X144980470Y-137984791D01*
X144980469Y-137984788D01*
X144915212Y-137919531D01*
X144375212Y-137379530D01*
X144375211Y-137379529D01*
X144375208Y-137379527D01*
X144295290Y-137333387D01*
X144295289Y-137333386D01*
X144295288Y-137333386D01*
X144206144Y-137309500D01*
X144206143Y-137309500D01*
X143739500Y-137309500D01*
X143672461Y-137289815D01*
X143626706Y-137237011D01*
X143615500Y-137185500D01*
X143615500Y-136885323D01*
X143615499Y-136885321D01*
X143600967Y-136812264D01*
X143600966Y-136812260D01*
X143582608Y-136784785D01*
X143545601Y-136729399D01*
X143462740Y-136674034D01*
X143462739Y-136674033D01*
X143462735Y-136674032D01*
X143389677Y-136659500D01*
X143389674Y-136659500D01*
X141310326Y-136659500D01*
X141310323Y-136659500D01*
X141237264Y-136674032D01*
X141237260Y-136674033D01*
X141154399Y-136729399D01*
X141099033Y-136812260D01*
X141099032Y-136812264D01*
X141084500Y-136885321D01*
X140048495Y-136885321D01*
X140035300Y-134345321D01*
X141084500Y-134345321D01*
X141084500Y-135894678D01*
X141099032Y-135967735D01*
X141099033Y-135967739D01*
X141099034Y-135967740D01*
X141154399Y-136050601D01*
X141218766Y-136093609D01*
X141237260Y-136105966D01*
X141237264Y-136105967D01*
X141310321Y-136120499D01*
X141310324Y-136120500D01*
X141310326Y-136120500D01*
X143389676Y-136120500D01*
X143389677Y-136120499D01*
X143462740Y-136105966D01*
X143545601Y-136050601D01*
X143600966Y-135967740D01*
X143615500Y-135894674D01*
X143615500Y-134345326D01*
X143615500Y-134345323D01*
X143615499Y-134345321D01*
X143600967Y-134272264D01*
X143600966Y-134272260D01*
X143591135Y-134257547D01*
X143545601Y-134189399D01*
X143462740Y-134134034D01*
X143462739Y-134134033D01*
X143462735Y-134134032D01*
X143389677Y-134119500D01*
X143389674Y-134119500D01*
X141310326Y-134119500D01*
X141310323Y-134119500D01*
X141237264Y-134134032D01*
X141237260Y-134134033D01*
X141154399Y-134189399D01*
X141099033Y-134272260D01*
X141099032Y-134272264D01*
X141084500Y-134345321D01*
X140035300Y-134345321D01*
X140026329Y-132618310D01*
X139969327Y-121645321D01*
X141084500Y-121645321D01*
X141084500Y-123194678D01*
X141099032Y-123267735D01*
X141099033Y-123267739D01*
X141117405Y-123295235D01*
X141154399Y-123350601D01*
X141215134Y-123391182D01*
X141237260Y-123405966D01*
X141237264Y-123405967D01*
X141310321Y-123420499D01*
X141310324Y-123420500D01*
X141310326Y-123420500D01*
X143389676Y-123420500D01*
X143389677Y-123420499D01*
X143462740Y-123405966D01*
X143545601Y-123350601D01*
X143600966Y-123267740D01*
X143615500Y-123194674D01*
X143615500Y-121645326D01*
X143615500Y-121645323D01*
X143615499Y-121645321D01*
X143600967Y-121572264D01*
X143600966Y-121572260D01*
X143545601Y-121489399D01*
X143462740Y-121434034D01*
X143462739Y-121434033D01*
X143462735Y-121434032D01*
X143389677Y-121419500D01*
X143389674Y-121419500D01*
X141310326Y-121419500D01*
X141310323Y-121419500D01*
X141237264Y-121434032D01*
X141237260Y-121434033D01*
X141154399Y-121489399D01*
X141099033Y-121572260D01*
X141099032Y-121572264D01*
X141084500Y-121645321D01*
X139969327Y-121645321D01*
X139942937Y-116565321D01*
X141084500Y-116565321D01*
X141084500Y-118114678D01*
X141099032Y-118187735D01*
X141099033Y-118187739D01*
X141099034Y-118187740D01*
X141154399Y-118270601D01*
X141200087Y-118301128D01*
X141237260Y-118325966D01*
X141237264Y-118325967D01*
X141310321Y-118340499D01*
X141310324Y-118340500D01*
X141310326Y-118340500D01*
X143389676Y-118340500D01*
X143389677Y-118340499D01*
X143462740Y-118325966D01*
X143545601Y-118270601D01*
X143600966Y-118187740D01*
X143615500Y-118114674D01*
X143615500Y-116565326D01*
X143615500Y-116565323D01*
X143615499Y-116565321D01*
X143600967Y-116492264D01*
X143600966Y-116492260D01*
X143545601Y-116409399D01*
X143481228Y-116366387D01*
X143462739Y-116354033D01*
X143462735Y-116354032D01*
X143389677Y-116339500D01*
X143389674Y-116339500D01*
X141310326Y-116339500D01*
X141310323Y-116339500D01*
X141237264Y-116354032D01*
X141237260Y-116354033D01*
X141154399Y-116409399D01*
X141099033Y-116492260D01*
X141099032Y-116492264D01*
X141084500Y-116565321D01*
X139942937Y-116565321D01*
X139916548Y-111485321D01*
X141084500Y-111485321D01*
X141084500Y-113034678D01*
X141099032Y-113107735D01*
X141099033Y-113107739D01*
X141099034Y-113107740D01*
X141154399Y-113190601D01*
X141237260Y-113245966D01*
X141237264Y-113245967D01*
X141310321Y-113260499D01*
X141310324Y-113260500D01*
X141310326Y-113260500D01*
X143389676Y-113260500D01*
X143389677Y-113260499D01*
X143462740Y-113245966D01*
X143545601Y-113190601D01*
X143600966Y-113107740D01*
X143615500Y-113034674D01*
X143615500Y-111485326D01*
X143615500Y-111485323D01*
X143615499Y-111485321D01*
X143600967Y-111412264D01*
X143600966Y-111412260D01*
X143545601Y-111329399D01*
X143462740Y-111274034D01*
X143462739Y-111274033D01*
X143462735Y-111274032D01*
X143389677Y-111259500D01*
X143389674Y-111259500D01*
X141310326Y-111259500D01*
X141310323Y-111259500D01*
X141237264Y-111274032D01*
X141237260Y-111274033D01*
X141154399Y-111329399D01*
X141099033Y-111412260D01*
X141099032Y-111412264D01*
X141084500Y-111485321D01*
X139916548Y-111485321D01*
X139903248Y-108925144D01*
X139922584Y-108858003D01*
X139975149Y-108811975D01*
X140027246Y-108800500D01*
X143989295Y-108800500D01*
X144056334Y-108820185D01*
G37*
%TD.AperFunction*%
%TA.AperFunction,Conductor*%
G36*
X167142539Y-108820185D02*
G01*
X167188294Y-108872989D01*
X167199500Y-108924500D01*
X167199500Y-109216480D01*
X167179815Y-109283519D01*
X167127011Y-109329274D01*
X167057853Y-109339218D01*
X166994297Y-109310193D01*
X166972398Y-109285371D01*
X166935239Y-109229760D01*
X166852544Y-109174505D01*
X166852540Y-109174503D01*
X166779627Y-109160000D01*
X166455000Y-109160000D01*
X166455000Y-110186000D01*
X166435315Y-110253039D01*
X166382511Y-110298794D01*
X166331000Y-110310000D01*
X165005000Y-110310000D01*
X165005000Y-110334628D01*
X165019503Y-110407540D01*
X165019505Y-110407544D01*
X165031608Y-110425658D01*
X165052486Y-110492336D01*
X165034001Y-110559716D01*
X165031610Y-110563437D01*
X165019034Y-110582258D01*
X165019032Y-110582264D01*
X165004500Y-110655321D01*
X165004500Y-111604678D01*
X165019032Y-111677735D01*
X165019033Y-111677738D01*
X165031309Y-111696111D01*
X165052185Y-111762789D01*
X165033699Y-111830169D01*
X165031309Y-111833889D01*
X165019033Y-111852261D01*
X165019032Y-111852264D01*
X165004500Y-111925321D01*
X165004500Y-112048455D01*
X164984815Y-112115494D01*
X164968181Y-112136136D01*
X162619531Y-114484786D01*
X162619527Y-114484791D01*
X162573387Y-114564709D01*
X162573386Y-114564712D01*
X162549500Y-114653856D01*
X162549500Y-127803456D01*
X162529815Y-127870495D01*
X162513181Y-127891137D01*
X160941137Y-129463181D01*
X160879814Y-129496666D01*
X160853456Y-129499500D01*
X159029755Y-129499500D01*
X158962716Y-129479815D01*
X158942074Y-129463181D01*
X158850847Y-129371954D01*
X158850844Y-129371952D01*
X158850842Y-129371950D01*
X158757717Y-129324500D01*
X158737801Y-129314352D01*
X158644024Y-129299500D01*
X157555982Y-129299500D01*
X157475019Y-129312323D01*
X157462196Y-129314354D01*
X157349158Y-129371950D01*
X157349157Y-129371951D01*
X157349152Y-129371954D01*
X157259454Y-129461652D01*
X157259451Y-129461657D01*
X157201852Y-129574698D01*
X157187000Y-129668475D01*
X157187000Y-130031517D01*
X157194303Y-130077625D01*
X157201854Y-130125304D01*
X157259450Y-130238342D01*
X157259453Y-130238345D01*
X157265189Y-130246241D01*
X157263948Y-130247142D01*
X157292262Y-130298984D01*
X157287283Y-130368676D01*
X157264883Y-130403537D01*
X157265598Y-130404056D01*
X157259860Y-130411954D01*
X157217423Y-130495241D01*
X157169448Y-130546037D01*
X157101627Y-130562832D01*
X157035492Y-130540294D01*
X157019257Y-130526627D01*
X157012161Y-130519531D01*
X157012156Y-130519527D01*
X156932237Y-130473386D01*
X156927901Y-130472224D01*
X156920390Y-130470212D01*
X156920389Y-130470211D01*
X156863803Y-130455049D01*
X156843092Y-130449500D01*
X156843091Y-130449500D01*
X156754755Y-130449500D01*
X156687716Y-130429815D01*
X156667161Y-130413269D01*
X156666660Y-130412769D01*
X156633114Y-130351479D01*
X156638029Y-130281783D01*
X156660517Y-130246754D01*
X156659811Y-130246241D01*
X156665542Y-130238349D01*
X156665550Y-130238342D01*
X156723146Y-130125304D01*
X156723146Y-130125302D01*
X156723147Y-130125301D01*
X156734310Y-130054818D01*
X156738000Y-130031519D01*
X156737999Y-129668482D01*
X156723146Y-129574696D01*
X156665550Y-129461658D01*
X156665546Y-129461654D01*
X156665545Y-129461652D01*
X156575847Y-129371954D01*
X156575844Y-129371952D01*
X156575842Y-129371950D01*
X156482717Y-129324500D01*
X156462801Y-129314352D01*
X156369024Y-129299500D01*
X155280982Y-129299500D01*
X155200019Y-129312323D01*
X155187196Y-129314354D01*
X155074158Y-129371950D01*
X155074157Y-129371951D01*
X155074152Y-129371954D01*
X154982926Y-129463181D01*
X154921603Y-129496666D01*
X154895245Y-129499500D01*
X154824458Y-129499500D01*
X154757419Y-129479815D01*
X154726083Y-129450987D01*
X154704187Y-129422452D01*
X154692621Y-129407379D01*
X154577625Y-129319139D01*
X154577624Y-129319138D01*
X154577622Y-129319137D01*
X154443712Y-129263671D01*
X154443710Y-129263670D01*
X154443709Y-129263670D01*
X154355152Y-129252011D01*
X154300001Y-129244750D01*
X154299999Y-129244750D01*
X154156291Y-129263670D01*
X154156287Y-129263671D01*
X154022376Y-129319138D01*
X154022374Y-129319139D01*
X153997197Y-129338458D01*
X153932027Y-129363651D01*
X153863582Y-129349612D01*
X153813594Y-129300797D01*
X153805532Y-129283421D01*
X153770212Y-129188722D01*
X153686116Y-129076384D01*
X153618612Y-129025851D01*
X153573780Y-128992289D01*
X153573778Y-128992288D01*
X153542838Y-128980748D01*
X153442299Y-128943248D01*
X153384190Y-128937000D01*
X153384174Y-128937000D01*
X152815826Y-128937000D01*
X152815809Y-128937000D01*
X152757700Y-128943248D01*
X152626219Y-128992289D01*
X152513884Y-129076384D01*
X152429789Y-129188719D01*
X152429788Y-129188722D01*
X152409231Y-129243835D01*
X152367361Y-129299767D01*
X152301897Y-129324184D01*
X152293051Y-129324500D01*
X151392962Y-129324500D01*
X151325923Y-129304815D01*
X151280168Y-129252011D01*
X151276786Y-129243847D01*
X151270212Y-129226222D01*
X151186116Y-129113884D01*
X151091760Y-129043249D01*
X151073780Y-129029789D01*
X151073778Y-129029788D01*
X151047144Y-129019854D01*
X150942299Y-128980748D01*
X150884190Y-128974500D01*
X150884174Y-128974500D01*
X150315826Y-128974500D01*
X150315809Y-128974500D01*
X150257700Y-128980748D01*
X150126219Y-129029789D01*
X150013884Y-129113884D01*
X149929789Y-129226219D01*
X149880748Y-129357700D01*
X149874500Y-129415809D01*
X149874500Y-130084190D01*
X149880748Y-130142299D01*
X149903502Y-130203303D01*
X149928108Y-130269275D01*
X149929789Y-130273780D01*
X149948657Y-130298984D01*
X150013884Y-130386116D01*
X150085203Y-130439505D01*
X150117600Y-130463758D01*
X150126222Y-130470212D01*
X150224187Y-130506751D01*
X150230445Y-130509085D01*
X150286379Y-130550957D01*
X150310795Y-130616422D01*
X150295943Y-130684694D01*
X150246537Y-130734100D01*
X150230445Y-130741449D01*
X150126462Y-130780232D01*
X150014241Y-130864241D01*
X149930233Y-130976461D01*
X149912130Y-131025000D01*
X150951000Y-131025000D01*
X151018039Y-131044685D01*
X151063794Y-131097489D01*
X151075000Y-131149000D01*
X151075000Y-132218672D01*
X151112588Y-132237487D01*
X151163725Y-132285097D01*
X151181005Y-132352796D01*
X151158941Y-132419090D01*
X151144765Y-132436052D01*
X150942636Y-132638181D01*
X150881313Y-132671666D01*
X150854955Y-132674500D01*
X150041129Y-132674500D01*
X150041123Y-132674501D01*
X149981516Y-132680908D01*
X149846671Y-132731202D01*
X149846664Y-132731206D01*
X149731455Y-132817452D01*
X149731452Y-132817455D01*
X149645206Y-132932664D01*
X149645202Y-132932671D01*
X149594908Y-133067517D01*
X149593126Y-133075062D01*
X149590853Y-133074525D01*
X149568571Y-133128312D01*
X149511177Y-133168157D01*
X149472024Y-133174500D01*
X149152764Y-133174500D01*
X149085725Y-133154815D01*
X149039970Y-133102011D01*
X149036582Y-133093833D01*
X148985797Y-132957671D01*
X148985793Y-132957664D01*
X148899547Y-132842455D01*
X148899544Y-132842452D01*
X148784335Y-132756206D01*
X148784328Y-132756202D01*
X148649482Y-132705908D01*
X148649483Y-132705908D01*
X148589883Y-132699501D01*
X148589881Y-132699500D01*
X148589873Y-132699500D01*
X148589865Y-132699500D01*
X148574500Y-132699500D01*
X148507461Y-132679815D01*
X148461706Y-132627011D01*
X148450500Y-132575500D01*
X148450500Y-132414787D01*
X148470185Y-132347748D01*
X148522989Y-132301993D01*
X148531168Y-132298605D01*
X148573773Y-132282714D01*
X148573774Y-132282713D01*
X148573778Y-132282712D01*
X148686116Y-132198616D01*
X148770212Y-132086278D01*
X148811716Y-131975000D01*
X149912130Y-131975000D01*
X149930233Y-132023538D01*
X150014242Y-132135760D01*
X150125000Y-132218672D01*
X150125000Y-131975000D01*
X149912130Y-131975000D01*
X148811716Y-131975000D01*
X148819251Y-131954799D01*
X148825499Y-131896690D01*
X148825500Y-131896673D01*
X148825500Y-131303326D01*
X148825499Y-131303309D01*
X148819251Y-131245200D01*
X148802205Y-131199500D01*
X148770212Y-131113722D01*
X148686116Y-131001384D01*
X148600317Y-130937155D01*
X148573780Y-130917289D01*
X148573778Y-130917288D01*
X148547144Y-130907354D01*
X148442299Y-130868248D01*
X148384190Y-130862000D01*
X148384174Y-130862000D01*
X147815826Y-130862000D01*
X147815809Y-130862000D01*
X147757700Y-130868248D01*
X147626219Y-130917289D01*
X147513884Y-131001384D01*
X147429789Y-131113719D01*
X147380748Y-131245200D01*
X147374500Y-131303309D01*
X147374500Y-131896690D01*
X147380748Y-131954799D01*
X147407045Y-132025302D01*
X147429788Y-132086278D01*
X147513884Y-132198616D01*
X147626222Y-132282712D01*
X147626226Y-132282714D01*
X147668832Y-132298605D01*
X147724766Y-132340476D01*
X147749184Y-132405940D01*
X147749500Y-132414787D01*
X147749500Y-132575500D01*
X147729815Y-132642539D01*
X147677011Y-132688294D01*
X147625504Y-132699500D01*
X147594131Y-132699500D01*
X147594123Y-132699501D01*
X147534516Y-132705908D01*
X147399671Y-132756202D01*
X147399664Y-132756206D01*
X147284455Y-132842452D01*
X147284452Y-132842455D01*
X147198206Y-132957664D01*
X147198202Y-132957671D01*
X147147418Y-133093833D01*
X147105547Y-133149767D01*
X147040083Y-133174184D01*
X147031236Y-133174500D01*
X146710764Y-133174500D01*
X146643725Y-133154815D01*
X146597970Y-133102011D01*
X146594582Y-133093833D01*
X146543797Y-132957671D01*
X146543793Y-132957664D01*
X146457547Y-132842455D01*
X146457544Y-132842452D01*
X146342335Y-132756206D01*
X146342328Y-132756202D01*
X146207482Y-132705908D01*
X146207483Y-132705908D01*
X146147883Y-132699501D01*
X146147881Y-132699500D01*
X146147873Y-132699500D01*
X146147865Y-132699500D01*
X145346544Y-132699500D01*
X145279505Y-132679815D01*
X145258863Y-132663181D01*
X144570682Y-131975000D01*
X145012130Y-131975000D01*
X145030233Y-132023538D01*
X145114242Y-132135760D01*
X145225000Y-132218672D01*
X145225000Y-132218671D01*
X146175000Y-132218671D01*
X146285757Y-132135760D01*
X146369766Y-132023538D01*
X146387870Y-131975000D01*
X146175000Y-131975000D01*
X146175000Y-132218671D01*
X145225000Y-132218671D01*
X145225000Y-131975000D01*
X145012130Y-131975000D01*
X144570682Y-131975000D01*
X144186819Y-131591137D01*
X144153334Y-131529814D01*
X144150500Y-131503456D01*
X144150500Y-129415809D01*
X144974500Y-129415809D01*
X144974500Y-130084190D01*
X144980748Y-130142299D01*
X145003502Y-130203303D01*
X145028108Y-130269275D01*
X145029789Y-130273780D01*
X145048657Y-130298984D01*
X145113884Y-130386116D01*
X145185203Y-130439505D01*
X145217600Y-130463758D01*
X145226222Y-130470212D01*
X145324187Y-130506751D01*
X145330445Y-130509085D01*
X145386379Y-130550957D01*
X145410795Y-130616422D01*
X145395943Y-130684694D01*
X145346537Y-130734100D01*
X145330445Y-130741449D01*
X145226462Y-130780232D01*
X145114241Y-130864241D01*
X145030233Y-130976461D01*
X145012130Y-131025000D01*
X146387870Y-131025000D01*
X146369766Y-130976461D01*
X146285758Y-130864241D01*
X146173537Y-130780232D01*
X146069554Y-130741449D01*
X146013621Y-130699577D01*
X145989204Y-130634113D01*
X146004056Y-130565840D01*
X146053461Y-130516435D01*
X146069548Y-130509087D01*
X146173778Y-130470212D01*
X146286116Y-130386116D01*
X146370212Y-130273778D01*
X146395430Y-130206165D01*
X146437300Y-130150233D01*
X146502765Y-130125816D01*
X146511611Y-130125500D01*
X147293051Y-130125500D01*
X147360090Y-130145185D01*
X147405845Y-130197989D01*
X147409226Y-130206150D01*
X147424180Y-130246241D01*
X147429789Y-130261280D01*
X147439145Y-130273778D01*
X147513884Y-130373616D01*
X147601306Y-130439060D01*
X147623897Y-130455972D01*
X147626222Y-130457712D01*
X147718594Y-130492165D01*
X147757700Y-130506751D01*
X147815809Y-130512999D01*
X147815826Y-130513000D01*
X148384174Y-130513000D01*
X148384190Y-130512999D01*
X148442299Y-130506751D01*
X148573778Y-130457712D01*
X148686116Y-130373616D01*
X148770212Y-130261278D01*
X148819251Y-130129799D01*
X148819734Y-130125304D01*
X148825499Y-130071690D01*
X148825500Y-130071673D01*
X148825500Y-129478326D01*
X148825499Y-129478309D01*
X148819251Y-129420200D01*
X148795939Y-129357700D01*
X148770212Y-129288722D01*
X148768105Y-129285908D01*
X148748572Y-129259815D01*
X148686116Y-129176384D01*
X148602627Y-129113884D01*
X148573780Y-129092289D01*
X148573778Y-129092288D01*
X148531138Y-129076384D01*
X148442299Y-129043248D01*
X148384190Y-129037000D01*
X148384174Y-129037000D01*
X147815826Y-129037000D01*
X147815809Y-129037000D01*
X147757700Y-129043248D01*
X147626219Y-129092289D01*
X147513884Y-129176384D01*
X147429789Y-129288719D01*
X147429788Y-129288722D01*
X147409231Y-129343835D01*
X147367361Y-129399767D01*
X147301897Y-129424184D01*
X147293051Y-129424500D01*
X146530261Y-129424500D01*
X146463222Y-129404815D01*
X146417467Y-129352011D01*
X146414080Y-129343834D01*
X146370212Y-129226222D01*
X146355831Y-129207011D01*
X146286116Y-129113884D01*
X146191760Y-129043249D01*
X146173780Y-129029789D01*
X146173778Y-129029788D01*
X146147144Y-129019854D01*
X146042299Y-128980748D01*
X145984190Y-128974500D01*
X145984174Y-128974500D01*
X145415826Y-128974500D01*
X145415809Y-128974500D01*
X145357700Y-128980748D01*
X145226219Y-129029789D01*
X145113884Y-129113884D01*
X145029789Y-129226219D01*
X144980748Y-129357700D01*
X144974500Y-129415809D01*
X144150500Y-129415809D01*
X144150500Y-128374500D01*
X144170185Y-128307461D01*
X144222989Y-128261706D01*
X144274500Y-128250500D01*
X145693051Y-128250500D01*
X145760090Y-128270185D01*
X145805845Y-128322989D01*
X145809226Y-128331150D01*
X145819190Y-128357863D01*
X145829789Y-128386280D01*
X145836076Y-128394678D01*
X145913884Y-128498616D01*
X146026222Y-128582712D01*
X146118594Y-128617165D01*
X146157700Y-128631751D01*
X146215809Y-128637999D01*
X146215826Y-128638000D01*
X146784174Y-128638000D01*
X146784190Y-128637999D01*
X146842299Y-128631751D01*
X146973778Y-128582712D01*
X147086116Y-128498616D01*
X147163961Y-128394628D01*
X150845000Y-128394628D01*
X150859503Y-128467540D01*
X150859505Y-128467544D01*
X150914760Y-128550239D01*
X150997455Y-128605494D01*
X150997459Y-128605496D01*
X151070371Y-128619999D01*
X151070374Y-128620000D01*
X151095000Y-128620000D01*
X151095000Y-128070000D01*
X150845000Y-128070000D01*
X150845000Y-128394628D01*
X147163961Y-128394628D01*
X147170212Y-128386278D01*
X147219251Y-128254799D01*
X147223507Y-128215212D01*
X147225499Y-128196690D01*
X147225500Y-128196673D01*
X147225500Y-127603326D01*
X147225499Y-127603309D01*
X147219251Y-127545200D01*
X147204665Y-127506094D01*
X147170212Y-127413722D01*
X147086116Y-127301384D01*
X147018612Y-127250851D01*
X146973780Y-127217289D01*
X146973778Y-127217288D01*
X146947144Y-127207354D01*
X146842299Y-127168248D01*
X146784190Y-127162000D01*
X146784174Y-127162000D01*
X146215826Y-127162000D01*
X146215809Y-127162000D01*
X146157700Y-127168248D01*
X146026219Y-127217289D01*
X145913884Y-127301384D01*
X145829789Y-127413719D01*
X145829788Y-127413722D01*
X145809231Y-127468835D01*
X145767361Y-127524767D01*
X145701897Y-127549184D01*
X145693051Y-127549500D01*
X144274500Y-127549500D01*
X144207461Y-127529815D01*
X144161706Y-127477011D01*
X144150500Y-127425500D01*
X144150500Y-125096544D01*
X144170185Y-125029505D01*
X144186819Y-125008863D01*
X144570361Y-124625321D01*
X145080470Y-124115212D01*
X145126614Y-124035288D01*
X145150500Y-123946143D01*
X145150500Y-123853856D01*
X145150500Y-119100000D01*
X145907466Y-119100000D01*
X145930229Y-119161031D01*
X145930232Y-119161036D01*
X146014242Y-119273260D01*
X146125000Y-119356172D01*
X146125000Y-119100000D01*
X145907466Y-119100000D01*
X145150500Y-119100000D01*
X145150500Y-115499500D01*
X145170185Y-115432461D01*
X145222989Y-115386706D01*
X145274500Y-115375500D01*
X145793051Y-115375500D01*
X145860090Y-115395185D01*
X145905845Y-115447989D01*
X145909226Y-115456150D01*
X145929788Y-115511278D01*
X146013884Y-115623616D01*
X146126222Y-115707712D01*
X146126226Y-115707714D01*
X146168832Y-115723605D01*
X146224766Y-115765476D01*
X146249184Y-115830940D01*
X146249500Y-115839787D01*
X146249500Y-116035212D01*
X146229815Y-116102251D01*
X146177011Y-116148006D01*
X146168836Y-116151393D01*
X146126222Y-116167287D01*
X146126221Y-116167288D01*
X146013884Y-116251384D01*
X145929789Y-116363719D01*
X145880748Y-116495200D01*
X145874500Y-116553309D01*
X145874500Y-117246690D01*
X145880748Y-117304799D01*
X145904826Y-117369353D01*
X145929788Y-117436278D01*
X146013884Y-117548616D01*
X146126222Y-117632712D01*
X146152120Y-117642371D01*
X146163419Y-117646586D01*
X146219352Y-117688458D01*
X146243768Y-117753922D01*
X146228916Y-117822195D01*
X146179510Y-117871600D01*
X146163418Y-117878948D01*
X146126468Y-117892729D01*
X146126463Y-117892732D01*
X146014241Y-117976741D01*
X145930232Y-118088963D01*
X145930229Y-118088968D01*
X145907465Y-118149999D01*
X145907466Y-118150000D01*
X146951000Y-118150000D01*
X147018039Y-118169685D01*
X147063794Y-118222489D01*
X147075000Y-118274000D01*
X147075000Y-119356171D01*
X147185757Y-119273260D01*
X147269766Y-119161037D01*
X147271665Y-119157561D01*
X147274467Y-119154758D01*
X147275083Y-119153936D01*
X147275201Y-119154024D01*
X147321069Y-119108153D01*
X147389341Y-119093299D01*
X147454806Y-119117713D01*
X147496680Y-119173645D01*
X147504500Y-119216983D01*
X147504500Y-119224678D01*
X147519032Y-119297735D01*
X147519033Y-119297738D01*
X147519033Y-119297739D01*
X147519034Y-119297740D01*
X147531308Y-119316109D01*
X147531309Y-119316111D01*
X147552185Y-119382789D01*
X147533699Y-119450169D01*
X147531309Y-119453889D01*
X147519033Y-119472261D01*
X147519032Y-119472264D01*
X147504500Y-119545321D01*
X147504500Y-120494678D01*
X147519032Y-120567735D01*
X147519033Y-120567738D01*
X147531309Y-120586111D01*
X147552185Y-120652789D01*
X147533699Y-120720169D01*
X147531309Y-120723889D01*
X147519033Y-120742261D01*
X147519032Y-120742264D01*
X147504500Y-120815321D01*
X147504500Y-120874596D01*
X147484815Y-120941635D01*
X147442500Y-120981983D01*
X147394791Y-121009527D01*
X147394786Y-121009531D01*
X146816137Y-121588181D01*
X146754814Y-121621666D01*
X146728456Y-121624500D01*
X146215809Y-121624500D01*
X146157700Y-121630748D01*
X146026219Y-121679789D01*
X145913884Y-121763884D01*
X145829789Y-121876219D01*
X145780748Y-122007700D01*
X145774500Y-122065809D01*
X145774500Y-122734190D01*
X145780748Y-122792299D01*
X145819854Y-122897144D01*
X145829788Y-122923778D01*
X145913884Y-123036116D01*
X146026222Y-123120212D01*
X146026221Y-123120212D01*
X146129729Y-123158819D01*
X146185663Y-123200690D01*
X146210079Y-123266155D01*
X146195227Y-123334428D01*
X146145821Y-123383833D01*
X146129729Y-123391181D01*
X146026222Y-123429787D01*
X145913884Y-123513884D01*
X145829789Y-123626219D01*
X145780748Y-123757700D01*
X145774500Y-123815809D01*
X145774500Y-124484190D01*
X145780748Y-124542299D01*
X145829789Y-124673780D01*
X145838030Y-124684788D01*
X145913884Y-124786116D01*
X146004373Y-124853856D01*
X146026222Y-124870212D01*
X146026226Y-124870214D01*
X146068832Y-124886105D01*
X146124766Y-124927976D01*
X146149184Y-124993440D01*
X146149500Y-125002287D01*
X146149500Y-125260212D01*
X146129815Y-125327251D01*
X146077011Y-125373006D01*
X146068836Y-125376393D01*
X146026222Y-125392287D01*
X146026221Y-125392288D01*
X145913884Y-125476384D01*
X145829789Y-125588719D01*
X145780748Y-125720200D01*
X145774500Y-125778309D01*
X145774500Y-126371690D01*
X145780748Y-126429799D01*
X145819854Y-126534644D01*
X145829788Y-126561278D01*
X145913884Y-126673616D01*
X146026222Y-126757712D01*
X146118594Y-126792165D01*
X146157700Y-126806751D01*
X146215809Y-126812999D01*
X146215826Y-126813000D01*
X146784174Y-126813000D01*
X146784190Y-126812999D01*
X146842299Y-126806751D01*
X146973778Y-126757712D01*
X147086116Y-126673616D01*
X147170212Y-126561278D01*
X147219251Y-126429799D01*
X147225499Y-126371690D01*
X147225500Y-126371673D01*
X147225500Y-125778326D01*
X147225499Y-125778309D01*
X147219251Y-125720200D01*
X147200465Y-125669834D01*
X147170212Y-125588722D01*
X147086116Y-125476384D01*
X146973778Y-125392288D01*
X146973777Y-125392287D01*
X146931164Y-125376393D01*
X146875232Y-125334521D01*
X146850816Y-125269056D01*
X146850500Y-125260212D01*
X146850500Y-125002287D01*
X146870185Y-124935248D01*
X146922989Y-124889493D01*
X146931168Y-124886105D01*
X146973773Y-124870214D01*
X146973774Y-124870213D01*
X146973778Y-124870212D01*
X147086116Y-124786116D01*
X147170212Y-124673778D01*
X147219251Y-124542299D01*
X147220555Y-124530169D01*
X147225499Y-124484190D01*
X147225500Y-124484173D01*
X147225500Y-123815826D01*
X147225499Y-123815809D01*
X147219251Y-123757700D01*
X147199019Y-123703456D01*
X147170212Y-123626222D01*
X147086116Y-123513884D01*
X147018612Y-123463351D01*
X146973780Y-123429789D01*
X146973778Y-123429788D01*
X146870268Y-123391181D01*
X146814337Y-123349310D01*
X146789920Y-123283846D01*
X146804772Y-123215573D01*
X146854177Y-123166168D01*
X146870268Y-123158819D01*
X146973778Y-123120212D01*
X147086116Y-123036116D01*
X147170212Y-122923778D01*
X147219251Y-122792299D01*
X147225499Y-122734190D01*
X147225500Y-122734173D01*
X147225500Y-122221543D01*
X147245185Y-122154504D01*
X147261815Y-122133866D01*
X147292820Y-122102861D01*
X147354142Y-122069377D01*
X147423834Y-122074361D01*
X147479767Y-122116233D01*
X147504184Y-122181697D01*
X147504500Y-122190543D01*
X147504500Y-123034678D01*
X147519032Y-123107735D01*
X147519033Y-123107738D01*
X147519033Y-123107739D01*
X147519034Y-123107740D01*
X147531308Y-123126109D01*
X147531309Y-123126111D01*
X147552185Y-123192789D01*
X147533699Y-123260169D01*
X147531309Y-123263889D01*
X147519033Y-123282261D01*
X147519032Y-123282264D01*
X147504500Y-123355321D01*
X147504500Y-124304678D01*
X147519032Y-124377735D01*
X147519033Y-124377738D01*
X147531309Y-124396111D01*
X147552185Y-124462789D01*
X147533699Y-124530169D01*
X147531309Y-124533889D01*
X147519033Y-124552261D01*
X147519032Y-124552264D01*
X147504500Y-124625321D01*
X147504500Y-125574678D01*
X147519032Y-125647735D01*
X147519033Y-125647738D01*
X147531309Y-125666111D01*
X147552185Y-125732789D01*
X147533699Y-125800169D01*
X147531309Y-125803889D01*
X147519033Y-125822261D01*
X147519032Y-125822264D01*
X147504500Y-125895321D01*
X147504500Y-126844678D01*
X147519032Y-126917735D01*
X147519033Y-126917739D01*
X147537405Y-126945235D01*
X147574399Y-127000601D01*
X147657260Y-127055966D01*
X147657264Y-127055967D01*
X147730321Y-127070499D01*
X147730324Y-127070500D01*
X147730326Y-127070500D01*
X149279676Y-127070500D01*
X149279677Y-127070499D01*
X149352740Y-127055966D01*
X149435601Y-127000601D01*
X149490966Y-126917740D01*
X149505361Y-126845371D01*
X150845000Y-126845371D01*
X150845000Y-127170000D01*
X151095000Y-127170000D01*
X151095000Y-126620000D01*
X151995000Y-126620000D01*
X151995000Y-128620000D01*
X152019626Y-128620000D01*
X152019628Y-128619999D01*
X152092540Y-128605496D01*
X152092541Y-128605496D01*
X152110656Y-128593392D01*
X152177333Y-128572513D01*
X152244713Y-128590996D01*
X152248439Y-128593391D01*
X152267256Y-128605964D01*
X152267258Y-128605964D01*
X152267260Y-128605966D01*
X152267262Y-128605966D01*
X152267264Y-128605967D01*
X152340321Y-128620499D01*
X152340324Y-128620500D01*
X152340326Y-128620500D01*
X153289676Y-128620500D01*
X153289677Y-128620499D01*
X153362740Y-128605966D01*
X153381110Y-128593691D01*
X153447786Y-128572814D01*
X153515166Y-128591298D01*
X153518873Y-128593680D01*
X153537260Y-128605966D01*
X153537262Y-128605966D01*
X153537264Y-128605967D01*
X153610321Y-128620499D01*
X153610324Y-128620500D01*
X153610326Y-128620500D01*
X154559676Y-128620500D01*
X154559677Y-128620499D01*
X154632740Y-128605966D01*
X154651110Y-128593691D01*
X154717786Y-128572814D01*
X154785166Y-128591298D01*
X154788873Y-128593680D01*
X154807260Y-128605966D01*
X154807262Y-128605966D01*
X154807264Y-128605967D01*
X154880321Y-128620499D01*
X154880324Y-128620500D01*
X154880326Y-128620500D01*
X155829676Y-128620500D01*
X155829677Y-128620499D01*
X155902740Y-128605966D01*
X155921110Y-128593691D01*
X155987786Y-128572814D01*
X156055166Y-128591298D01*
X156058873Y-128593680D01*
X156077260Y-128605966D01*
X156077262Y-128605966D01*
X156077264Y-128605967D01*
X156150321Y-128620499D01*
X156150324Y-128620500D01*
X156150326Y-128620500D01*
X157099676Y-128620500D01*
X157099677Y-128620499D01*
X157172740Y-128605966D01*
X157191110Y-128593691D01*
X157257786Y-128572814D01*
X157325166Y-128591298D01*
X157328873Y-128593680D01*
X157347260Y-128605966D01*
X157347262Y-128605966D01*
X157347264Y-128605967D01*
X157420321Y-128620499D01*
X157420324Y-128620500D01*
X157420326Y-128620500D01*
X158369676Y-128620500D01*
X158369677Y-128620499D01*
X158442740Y-128605966D01*
X158461110Y-128593691D01*
X158527786Y-128572814D01*
X158595166Y-128591298D01*
X158598873Y-128593680D01*
X158617260Y-128605966D01*
X158617262Y-128605966D01*
X158617264Y-128605967D01*
X158690321Y-128620499D01*
X158690324Y-128620500D01*
X158690326Y-128620500D01*
X159639676Y-128620500D01*
X159639677Y-128620499D01*
X159712740Y-128605966D01*
X159731110Y-128593691D01*
X159797786Y-128572814D01*
X159865166Y-128591298D01*
X159868873Y-128593680D01*
X159887260Y-128605966D01*
X159887262Y-128605966D01*
X159887264Y-128605967D01*
X159960321Y-128620499D01*
X159960324Y-128620500D01*
X159960326Y-128620500D01*
X160909676Y-128620500D01*
X160909677Y-128620499D01*
X160982740Y-128605966D01*
X161065601Y-128550601D01*
X161120966Y-128467740D01*
X161135500Y-128394674D01*
X161135500Y-126845326D01*
X161135500Y-126845323D01*
X161135499Y-126845321D01*
X161120967Y-126772264D01*
X161120966Y-126772260D01*
X161065601Y-126689399D01*
X160982740Y-126634034D01*
X160982739Y-126634033D01*
X160982735Y-126634032D01*
X160909677Y-126619500D01*
X160909674Y-126619500D01*
X159960326Y-126619500D01*
X159960323Y-126619500D01*
X159887264Y-126634032D01*
X159887261Y-126634033D01*
X159868889Y-126646309D01*
X159802211Y-126667185D01*
X159734831Y-126648699D01*
X159731111Y-126646309D01*
X159712740Y-126634034D01*
X159712739Y-126634033D01*
X159712738Y-126634033D01*
X159712735Y-126634032D01*
X159639677Y-126619500D01*
X159639674Y-126619500D01*
X158690326Y-126619500D01*
X158690323Y-126619500D01*
X158617264Y-126634032D01*
X158617261Y-126634033D01*
X158598889Y-126646309D01*
X158532211Y-126667185D01*
X158464831Y-126648699D01*
X158461111Y-126646309D01*
X158442740Y-126634034D01*
X158442739Y-126634033D01*
X158442738Y-126634033D01*
X158442735Y-126634032D01*
X158369677Y-126619500D01*
X158369674Y-126619500D01*
X157420326Y-126619500D01*
X157420323Y-126619500D01*
X157347264Y-126634032D01*
X157347261Y-126634033D01*
X157328889Y-126646309D01*
X157262211Y-126667185D01*
X157194831Y-126648699D01*
X157191111Y-126646309D01*
X157172740Y-126634034D01*
X157172739Y-126634033D01*
X157172738Y-126634033D01*
X157172735Y-126634032D01*
X157099677Y-126619500D01*
X157099674Y-126619500D01*
X156150326Y-126619500D01*
X156150323Y-126619500D01*
X156077264Y-126634032D01*
X156077261Y-126634033D01*
X156058889Y-126646309D01*
X155992211Y-126667185D01*
X155924831Y-126648699D01*
X155921111Y-126646309D01*
X155902740Y-126634034D01*
X155902739Y-126634033D01*
X155902738Y-126634033D01*
X155902735Y-126634032D01*
X155829677Y-126619500D01*
X155829674Y-126619500D01*
X154880326Y-126619500D01*
X154880323Y-126619500D01*
X154807264Y-126634032D01*
X154807261Y-126634033D01*
X154788889Y-126646309D01*
X154722211Y-126667185D01*
X154654831Y-126648699D01*
X154651111Y-126646309D01*
X154632740Y-126634034D01*
X154632739Y-126634033D01*
X154632738Y-126634033D01*
X154632735Y-126634032D01*
X154559677Y-126619500D01*
X154559674Y-126619500D01*
X153610326Y-126619500D01*
X153610323Y-126619500D01*
X153537264Y-126634032D01*
X153537261Y-126634033D01*
X153518889Y-126646309D01*
X153452211Y-126667185D01*
X153384831Y-126648699D01*
X153381111Y-126646309D01*
X153362740Y-126634034D01*
X153362739Y-126634033D01*
X153362738Y-126634033D01*
X153362735Y-126634032D01*
X153289677Y-126619500D01*
X153289674Y-126619500D01*
X152340326Y-126619500D01*
X152340323Y-126619500D01*
X152267264Y-126634032D01*
X152267258Y-126634034D01*
X152248437Y-126646610D01*
X152181759Y-126667486D01*
X152114379Y-126649000D01*
X152110658Y-126646608D01*
X152092544Y-126634505D01*
X152092540Y-126634503D01*
X152019627Y-126620000D01*
X151995000Y-126620000D01*
X151095000Y-126620000D01*
X151070373Y-126620000D01*
X150997459Y-126634503D01*
X150997455Y-126634505D01*
X150914760Y-126689760D01*
X150859505Y-126772455D01*
X150859503Y-126772459D01*
X150845000Y-126845371D01*
X149505361Y-126845371D01*
X149505500Y-126844674D01*
X149505500Y-125895326D01*
X149505500Y-125895323D01*
X149505499Y-125895321D01*
X149490967Y-125822264D01*
X149490966Y-125822261D01*
X149490966Y-125822260D01*
X149478691Y-125803889D01*
X149457814Y-125737214D01*
X149476298Y-125669834D01*
X149478692Y-125666109D01*
X149490966Y-125647740D01*
X149505500Y-125574674D01*
X149505500Y-124625326D01*
X149505500Y-124625323D01*
X149505499Y-124625321D01*
X149490967Y-124552264D01*
X149490966Y-124552261D01*
X149490966Y-124552260D01*
X149478691Y-124533889D01*
X149457814Y-124467214D01*
X149476298Y-124399834D01*
X149478692Y-124396109D01*
X149490966Y-124377740D01*
X149505500Y-124304674D01*
X149505500Y-123355326D01*
X149505500Y-123355323D01*
X149505499Y-123355321D01*
X149490967Y-123282264D01*
X149490966Y-123282261D01*
X149490966Y-123282260D01*
X149478691Y-123263889D01*
X149457814Y-123197214D01*
X149476298Y-123129834D01*
X149478692Y-123126109D01*
X149490966Y-123107740D01*
X149505500Y-123034674D01*
X149505500Y-122085326D01*
X149505500Y-122085323D01*
X149505499Y-122085321D01*
X149490967Y-122012264D01*
X149490966Y-122012261D01*
X149490966Y-122012260D01*
X149478691Y-121993889D01*
X149457814Y-121927214D01*
X149476298Y-121859834D01*
X149478692Y-121856109D01*
X149490966Y-121837740D01*
X149505500Y-121764674D01*
X149505500Y-120815326D01*
X149505500Y-120815323D01*
X149505499Y-120815321D01*
X149490967Y-120742264D01*
X149490966Y-120742261D01*
X149490966Y-120742260D01*
X149478691Y-120723889D01*
X149457814Y-120657214D01*
X149476298Y-120589834D01*
X149478692Y-120586109D01*
X149490966Y-120567740D01*
X149505500Y-120494674D01*
X149505500Y-119545326D01*
X149505500Y-119545323D01*
X149505499Y-119545321D01*
X149490967Y-119472264D01*
X149490966Y-119472261D01*
X149490966Y-119472260D01*
X149478691Y-119453889D01*
X149457814Y-119387214D01*
X149474983Y-119324628D01*
X154225000Y-119324628D01*
X154239503Y-119397540D01*
X154239505Y-119397544D01*
X154294760Y-119480239D01*
X154377455Y-119535494D01*
X154377459Y-119535496D01*
X154450371Y-119549999D01*
X154450374Y-119550000D01*
X156075000Y-119550000D01*
X156075000Y-119301128D01*
X157075000Y-119301128D01*
X157075000Y-119550000D01*
X158699626Y-119550000D01*
X158699628Y-119549999D01*
X158772540Y-119535496D01*
X158772544Y-119535494D01*
X158855239Y-119480239D01*
X158910494Y-119397544D01*
X158910496Y-119397540D01*
X158924999Y-119324628D01*
X158925000Y-119324626D01*
X158925000Y-117700000D01*
X158676128Y-117700000D01*
X158669790Y-117715300D01*
X158677249Y-117728960D01*
X158672265Y-117798652D01*
X158643765Y-117842999D01*
X158600000Y-117886764D01*
X158600000Y-118038236D01*
X158643765Y-118082001D01*
X158677250Y-118143324D01*
X158672266Y-118213016D01*
X158643765Y-118257363D01*
X158600000Y-118301127D01*
X158600000Y-119101000D01*
X158580315Y-119168039D01*
X158527511Y-119213794D01*
X158476000Y-119225000D01*
X157676127Y-119225000D01*
X157632363Y-119268765D01*
X157571040Y-119302250D01*
X157501348Y-119297266D01*
X157457001Y-119268765D01*
X157413236Y-119225000D01*
X157261765Y-119225000D01*
X157217999Y-119268765D01*
X157156675Y-119302249D01*
X157086983Y-119297264D01*
X157085942Y-119296595D01*
X157075000Y-119301128D01*
X156075000Y-119301128D01*
X156059698Y-119294790D01*
X156046037Y-119302250D01*
X155976345Y-119297264D01*
X155932000Y-119268764D01*
X155888236Y-119225000D01*
X155736763Y-119225000D01*
X155692999Y-119268765D01*
X155631676Y-119302250D01*
X155561984Y-119297266D01*
X155517637Y-119268765D01*
X155473872Y-119225000D01*
X154674000Y-119225000D01*
X154606961Y-119205315D01*
X154561206Y-119152511D01*
X154550000Y-119101000D01*
X154550000Y-118705109D01*
X155712500Y-118705109D01*
X155712500Y-118744891D01*
X155727724Y-118781645D01*
X155755855Y-118809776D01*
X155792609Y-118825000D01*
X155832391Y-118825000D01*
X155869145Y-118809776D01*
X155897276Y-118781645D01*
X155912500Y-118744891D01*
X155912500Y-118705109D01*
X157237500Y-118705109D01*
X157237500Y-118744891D01*
X157252724Y-118781645D01*
X157280855Y-118809776D01*
X157317609Y-118825000D01*
X157357391Y-118825000D01*
X157394145Y-118809776D01*
X157422276Y-118781645D01*
X157437500Y-118744891D01*
X157437500Y-118705109D01*
X157422276Y-118668355D01*
X157394145Y-118640224D01*
X157357391Y-118625000D01*
X157317609Y-118625000D01*
X157280855Y-118640224D01*
X157252724Y-118668355D01*
X157237500Y-118705109D01*
X155912500Y-118705109D01*
X155897276Y-118668355D01*
X155869145Y-118640224D01*
X155832391Y-118625000D01*
X155792609Y-118625000D01*
X155755855Y-118640224D01*
X155727724Y-118668355D01*
X155712500Y-118705109D01*
X154550000Y-118705109D01*
X154550000Y-118301128D01*
X154506235Y-118257363D01*
X154472750Y-118196040D01*
X154477734Y-118126348D01*
X154506235Y-118082001D01*
X154549999Y-118038236D01*
X154550000Y-118038235D01*
X154550000Y-117942609D01*
X154950000Y-117942609D01*
X154950000Y-117982391D01*
X154965224Y-118019145D01*
X154993355Y-118047276D01*
X155030109Y-118062500D01*
X155069891Y-118062500D01*
X155106645Y-118047276D01*
X155134776Y-118019145D01*
X155150000Y-117982391D01*
X155150000Y-117942609D01*
X155134776Y-117905855D01*
X155115684Y-117886763D01*
X155550000Y-117886763D01*
X155550000Y-118038236D01*
X155736764Y-118225000D01*
X155888236Y-118225000D01*
X155888236Y-118224999D01*
X156075000Y-118038235D01*
X156075000Y-117942609D01*
X156475000Y-117942609D01*
X156475000Y-117982391D01*
X156490224Y-118019145D01*
X156518355Y-118047276D01*
X156555109Y-118062500D01*
X156594891Y-118062500D01*
X156631645Y-118047276D01*
X156659776Y-118019145D01*
X156675000Y-117982391D01*
X156675000Y-117942609D01*
X156659776Y-117905855D01*
X156640684Y-117886763D01*
X157075000Y-117886763D01*
X157075000Y-118038236D01*
X157261764Y-118225000D01*
X157413236Y-118225000D01*
X157413236Y-118224999D01*
X157600000Y-118038235D01*
X157600000Y-117942609D01*
X158000000Y-117942609D01*
X158000000Y-117982391D01*
X158015224Y-118019145D01*
X158043355Y-118047276D01*
X158080109Y-118062500D01*
X158119891Y-118062500D01*
X158156645Y-118047276D01*
X158184776Y-118019145D01*
X158200000Y-117982391D01*
X158200000Y-117942609D01*
X158184776Y-117905855D01*
X158156645Y-117877724D01*
X158119891Y-117862500D01*
X158080109Y-117862500D01*
X158043355Y-117877724D01*
X158015224Y-117905855D01*
X158000000Y-117942609D01*
X157600000Y-117942609D01*
X157600000Y-117886764D01*
X157413236Y-117700000D01*
X157261763Y-117700000D01*
X157075000Y-117886763D01*
X156640684Y-117886763D01*
X156631645Y-117877724D01*
X156594891Y-117862500D01*
X156555109Y-117862500D01*
X156518355Y-117877724D01*
X156490224Y-117905855D01*
X156475000Y-117942609D01*
X156075000Y-117942609D01*
X156075000Y-117886764D01*
X155888236Y-117700000D01*
X155736763Y-117700000D01*
X155550000Y-117886763D01*
X155115684Y-117886763D01*
X155106645Y-117877724D01*
X155069891Y-117862500D01*
X155030109Y-117862500D01*
X154993355Y-117877724D01*
X154965224Y-117905855D01*
X154950000Y-117942609D01*
X154550000Y-117942609D01*
X154550000Y-117886764D01*
X154506235Y-117842999D01*
X154472750Y-117781676D01*
X154477734Y-117711984D01*
X154478403Y-117710941D01*
X154473872Y-117700000D01*
X154225000Y-117700000D01*
X154225000Y-119324628D01*
X149474983Y-119324628D01*
X149476298Y-119319834D01*
X149478692Y-119316109D01*
X149490966Y-119297740D01*
X149505500Y-119224674D01*
X149505500Y-118275326D01*
X149505500Y-118275323D01*
X149505499Y-118275321D01*
X149490967Y-118202264D01*
X149490966Y-118202261D01*
X149490966Y-118202260D01*
X149478691Y-118183889D01*
X149457814Y-118117214D01*
X149476298Y-118049834D01*
X149478692Y-118046109D01*
X149490966Y-118027740D01*
X149505500Y-117954674D01*
X149505500Y-117180109D01*
X155712500Y-117180109D01*
X155712500Y-117219891D01*
X155727724Y-117256645D01*
X155755855Y-117284776D01*
X155792609Y-117300000D01*
X155832391Y-117300000D01*
X155869145Y-117284776D01*
X155897276Y-117256645D01*
X155912500Y-117219891D01*
X155912500Y-117180109D01*
X157237500Y-117180109D01*
X157237500Y-117219891D01*
X157252724Y-117256645D01*
X157280855Y-117284776D01*
X157317609Y-117300000D01*
X157357391Y-117300000D01*
X157394145Y-117284776D01*
X157422276Y-117256645D01*
X157437500Y-117219891D01*
X157437500Y-117180109D01*
X157422276Y-117143355D01*
X157394145Y-117115224D01*
X157357391Y-117100000D01*
X157317609Y-117100000D01*
X157280855Y-117115224D01*
X157252724Y-117143355D01*
X157237500Y-117180109D01*
X155912500Y-117180109D01*
X155897276Y-117143355D01*
X155869145Y-117115224D01*
X155832391Y-117100000D01*
X155792609Y-117100000D01*
X155755855Y-117115224D01*
X155727724Y-117143355D01*
X155712500Y-117180109D01*
X149505500Y-117180109D01*
X149505500Y-117005326D01*
X149505500Y-117005323D01*
X149505499Y-117005321D01*
X149490967Y-116932264D01*
X149490966Y-116932261D01*
X149490966Y-116932260D01*
X149478691Y-116913889D01*
X149457814Y-116847214D01*
X149476298Y-116779834D01*
X149478692Y-116776109D01*
X149490966Y-116757740D01*
X149505500Y-116684674D01*
X149505500Y-115735326D01*
X149505500Y-115735323D01*
X149505499Y-115735321D01*
X149490967Y-115662264D01*
X149490966Y-115662261D01*
X149490966Y-115662260D01*
X149478691Y-115643889D01*
X149457814Y-115577214D01*
X149476298Y-115509834D01*
X149478692Y-115506109D01*
X149490966Y-115487740D01*
X149505500Y-115414674D01*
X149505500Y-115075371D01*
X154225000Y-115075371D01*
X154225000Y-116700000D01*
X154473872Y-116700000D01*
X154480209Y-116684699D01*
X154472750Y-116671039D01*
X154477734Y-116601347D01*
X154506235Y-116556999D01*
X154550000Y-116513234D01*
X154550000Y-116417609D01*
X154950000Y-116417609D01*
X154950000Y-116457391D01*
X154965224Y-116494145D01*
X154993355Y-116522276D01*
X155030109Y-116537500D01*
X155069891Y-116537500D01*
X155106645Y-116522276D01*
X155134776Y-116494145D01*
X155150000Y-116457391D01*
X155150000Y-116417609D01*
X155134776Y-116380855D01*
X155115684Y-116361763D01*
X155550000Y-116361763D01*
X155550000Y-116513236D01*
X155736764Y-116700000D01*
X155888236Y-116700000D01*
X155888236Y-116699999D01*
X156075000Y-116513235D01*
X156075000Y-116417609D01*
X156475000Y-116417609D01*
X156475000Y-116457391D01*
X156490224Y-116494145D01*
X156518355Y-116522276D01*
X156555109Y-116537500D01*
X156594891Y-116537500D01*
X156631645Y-116522276D01*
X156659776Y-116494145D01*
X156675000Y-116457391D01*
X156675000Y-116417609D01*
X156659776Y-116380855D01*
X156640684Y-116361763D01*
X157075000Y-116361763D01*
X157075000Y-116513236D01*
X157261764Y-116700000D01*
X157413236Y-116700000D01*
X157413236Y-116699999D01*
X157600000Y-116513235D01*
X157600000Y-116417609D01*
X158000000Y-116417609D01*
X158000000Y-116457391D01*
X158015224Y-116494145D01*
X158043355Y-116522276D01*
X158080109Y-116537500D01*
X158119891Y-116537500D01*
X158156645Y-116522276D01*
X158184776Y-116494145D01*
X158200000Y-116457391D01*
X158200000Y-116417609D01*
X158184776Y-116380855D01*
X158156645Y-116352724D01*
X158119891Y-116337500D01*
X158080109Y-116337500D01*
X158043355Y-116352724D01*
X158015224Y-116380855D01*
X158000000Y-116417609D01*
X157600000Y-116417609D01*
X157600000Y-116361764D01*
X157413236Y-116175000D01*
X157261763Y-116175000D01*
X157075000Y-116361763D01*
X156640684Y-116361763D01*
X156631645Y-116352724D01*
X156594891Y-116337500D01*
X156555109Y-116337500D01*
X156518355Y-116352724D01*
X156490224Y-116380855D01*
X156475000Y-116417609D01*
X156075000Y-116417609D01*
X156075000Y-116361764D01*
X155888236Y-116175000D01*
X155736763Y-116175000D01*
X155550000Y-116361763D01*
X155115684Y-116361763D01*
X155106645Y-116352724D01*
X155069891Y-116337500D01*
X155030109Y-116337500D01*
X154993355Y-116352724D01*
X154965224Y-116380855D01*
X154950000Y-116417609D01*
X154550000Y-116417609D01*
X154550000Y-116361764D01*
X154506235Y-116317999D01*
X154472750Y-116256676D01*
X154477734Y-116186984D01*
X154506235Y-116142637D01*
X154549999Y-116098872D01*
X154550000Y-116098871D01*
X154550000Y-115655109D01*
X155712500Y-115655109D01*
X155712500Y-115694891D01*
X155727724Y-115731645D01*
X155755855Y-115759776D01*
X155792609Y-115775000D01*
X155832391Y-115775000D01*
X155869145Y-115759776D01*
X155897276Y-115731645D01*
X155912500Y-115694891D01*
X155912500Y-115655109D01*
X157237500Y-115655109D01*
X157237500Y-115694891D01*
X157252724Y-115731645D01*
X157280855Y-115759776D01*
X157317609Y-115775000D01*
X157357391Y-115775000D01*
X157394145Y-115759776D01*
X157422276Y-115731645D01*
X157437500Y-115694891D01*
X157437500Y-115655109D01*
X157422276Y-115618355D01*
X157394145Y-115590224D01*
X157357391Y-115575000D01*
X157317609Y-115575000D01*
X157280855Y-115590224D01*
X157252724Y-115618355D01*
X157237500Y-115655109D01*
X155912500Y-115655109D01*
X155897276Y-115618355D01*
X155869145Y-115590224D01*
X155832391Y-115575000D01*
X155792609Y-115575000D01*
X155755855Y-115590224D01*
X155727724Y-115618355D01*
X155712500Y-115655109D01*
X154550000Y-115655109D01*
X154550000Y-115299000D01*
X154569685Y-115231961D01*
X154622489Y-115186206D01*
X154674000Y-115175000D01*
X155473872Y-115175000D01*
X155473872Y-115174999D01*
X155517637Y-115131235D01*
X155578960Y-115097750D01*
X155648652Y-115102734D01*
X155692999Y-115131235D01*
X155736764Y-115175000D01*
X155888235Y-115175000D01*
X155931999Y-115131235D01*
X155993322Y-115097750D01*
X156063014Y-115102734D01*
X156064057Y-115103404D01*
X156075000Y-115098871D01*
X157075000Y-115098871D01*
X157090298Y-115105208D01*
X157103958Y-115097750D01*
X157173649Y-115102733D01*
X157217999Y-115131235D01*
X157261764Y-115175000D01*
X157413236Y-115175000D01*
X157413236Y-115174999D01*
X157457001Y-115131235D01*
X157518324Y-115097750D01*
X157588016Y-115102734D01*
X157632363Y-115131235D01*
X157676128Y-115175000D01*
X158476000Y-115175000D01*
X158543039Y-115194685D01*
X158588794Y-115247489D01*
X158600000Y-115299000D01*
X158600000Y-116098872D01*
X158643765Y-116142637D01*
X158677250Y-116203960D01*
X158672266Y-116273652D01*
X158643765Y-116317999D01*
X158600000Y-116361763D01*
X158600000Y-116513236D01*
X158643764Y-116557000D01*
X158677249Y-116618323D01*
X158672265Y-116688015D01*
X158671595Y-116689056D01*
X158676128Y-116700000D01*
X158925000Y-116700000D01*
X158925000Y-115075373D01*
X158924999Y-115075371D01*
X158910496Y-115002459D01*
X158910494Y-115002455D01*
X158855239Y-114919760D01*
X158772544Y-114864505D01*
X158772540Y-114864503D01*
X158699627Y-114850000D01*
X157075000Y-114850000D01*
X157075000Y-115098871D01*
X156075000Y-115098871D01*
X156075000Y-114850000D01*
X154450373Y-114850000D01*
X154377459Y-114864503D01*
X154377455Y-114864505D01*
X154294760Y-114919760D01*
X154239505Y-115002455D01*
X154239503Y-115002459D01*
X154225000Y-115075371D01*
X149505500Y-115075371D01*
X149505500Y-114465326D01*
X149505500Y-114465323D01*
X149505499Y-114465321D01*
X149490967Y-114392264D01*
X149490966Y-114392261D01*
X149490966Y-114392260D01*
X149478691Y-114373889D01*
X149457814Y-114307214D01*
X149476298Y-114239834D01*
X149478692Y-114236109D01*
X149490966Y-114217740D01*
X149505500Y-114144674D01*
X149505500Y-113195326D01*
X149505500Y-113195323D01*
X149505499Y-113195321D01*
X149490967Y-113122264D01*
X149490966Y-113122262D01*
X149490966Y-113122260D01*
X149478691Y-113103889D01*
X149457814Y-113037214D01*
X149476298Y-112969834D01*
X149478692Y-112966109D01*
X149490966Y-112947740D01*
X149505500Y-112874674D01*
X149505500Y-111925326D01*
X149505500Y-111925323D01*
X149505499Y-111925321D01*
X149490967Y-111852264D01*
X149490966Y-111852261D01*
X149490966Y-111852260D01*
X149478691Y-111833889D01*
X149457814Y-111767214D01*
X149476298Y-111699834D01*
X149478692Y-111696109D01*
X149490966Y-111677740D01*
X149505500Y-111604674D01*
X149505500Y-110655326D01*
X149505500Y-110655323D01*
X149505499Y-110655321D01*
X149490967Y-110582264D01*
X149490966Y-110582262D01*
X149490966Y-110582260D01*
X149490964Y-110582258D01*
X149490964Y-110582256D01*
X149478391Y-110563439D01*
X149457513Y-110496762D01*
X149475998Y-110429382D01*
X149478392Y-110425656D01*
X149490496Y-110407541D01*
X149490496Y-110407540D01*
X149504999Y-110334628D01*
X149505000Y-110334626D01*
X149505000Y-110310000D01*
X148179000Y-110310000D01*
X148111961Y-110290315D01*
X148066206Y-110237511D01*
X148055000Y-110186000D01*
X148055000Y-109410000D01*
X148955000Y-109410000D01*
X149505000Y-109410000D01*
X149505000Y-109385373D01*
X149504999Y-109385371D01*
X165005000Y-109385371D01*
X165005000Y-109410000D01*
X165555000Y-109410000D01*
X165555000Y-109160000D01*
X165230373Y-109160000D01*
X165157459Y-109174503D01*
X165157455Y-109174505D01*
X165074760Y-109229760D01*
X165019505Y-109312455D01*
X165019503Y-109312459D01*
X165005000Y-109385371D01*
X149504999Y-109385371D01*
X149490496Y-109312459D01*
X149490494Y-109312455D01*
X149435239Y-109229760D01*
X149352544Y-109174505D01*
X149352540Y-109174503D01*
X149279627Y-109160000D01*
X148955000Y-109160000D01*
X148955000Y-109410000D01*
X148055000Y-109410000D01*
X148055000Y-109160000D01*
X147730373Y-109160000D01*
X147657459Y-109174503D01*
X147657455Y-109174505D01*
X147574760Y-109229760D01*
X147552102Y-109263670D01*
X147498489Y-109308475D01*
X147429164Y-109317182D01*
X147366137Y-109287027D01*
X147329418Y-109227584D01*
X147325000Y-109194779D01*
X147325000Y-109090870D01*
X147324999Y-109090853D01*
X147318758Y-109032810D01*
X147294523Y-108967835D01*
X147289538Y-108898143D01*
X147323022Y-108836820D01*
X147384345Y-108803334D01*
X147410704Y-108800500D01*
X167075500Y-108800500D01*
X167142539Y-108820185D01*
G37*
%TD.AperFunction*%
%TD*%
M02*
