%TF.GenerationSoftware,KiCad,Pcbnew,8.0.6*%
%TF.CreationDate,2025-02-11T20:42:12+01:00*%
%TF.ProjectId,KWLcontrol,4b574c63-6f6e-4747-926f-6c2e6b696361,rev?*%
%TF.SameCoordinates,Original*%
%TF.FileFunction,Legend,Bot*%
%TF.FilePolarity,Positive*%
%FSLAX46Y46*%
G04 Gerber Fmt 4.6, Leading zero omitted, Abs format (unit mm)*
G04 Created by KiCad (PCBNEW 8.0.6) date 2025-02-11 20:42:12*
%MOMM*%
%LPD*%
G01*
G04 APERTURE LIST*
%ADD10C,0.100000*%
%ADD11C,0.152400*%
G04 APERTURE END LIST*
D10*
X131896115Y-124472419D02*
X131896115Y-123472419D01*
X131896115Y-123472419D02*
X131658020Y-123472419D01*
X131658020Y-123472419D02*
X131515163Y-123520038D01*
X131515163Y-123520038D02*
X131419925Y-123615276D01*
X131419925Y-123615276D02*
X131372306Y-123710514D01*
X131372306Y-123710514D02*
X131324687Y-123900990D01*
X131324687Y-123900990D02*
X131324687Y-124043847D01*
X131324687Y-124043847D02*
X131372306Y-124234323D01*
X131372306Y-124234323D02*
X131419925Y-124329561D01*
X131419925Y-124329561D02*
X131515163Y-124424800D01*
X131515163Y-124424800D02*
X131658020Y-124472419D01*
X131658020Y-124472419D02*
X131896115Y-124472419D01*
X130943734Y-124186704D02*
X130467544Y-124186704D01*
X131038972Y-124472419D02*
X130705639Y-123472419D01*
X130705639Y-123472419D02*
X130372306Y-124472419D01*
X130038972Y-124472419D02*
X130038972Y-123472419D01*
X130038972Y-123472419D02*
X129467544Y-124472419D01*
X129467544Y-124472419D02*
X129467544Y-123472419D01*
X128467544Y-123520038D02*
X128562782Y-123472419D01*
X128562782Y-123472419D02*
X128705639Y-123472419D01*
X128705639Y-123472419D02*
X128848496Y-123520038D01*
X128848496Y-123520038D02*
X128943734Y-123615276D01*
X128943734Y-123615276D02*
X128991353Y-123710514D01*
X128991353Y-123710514D02*
X129038972Y-123900990D01*
X129038972Y-123900990D02*
X129038972Y-124043847D01*
X129038972Y-124043847D02*
X128991353Y-124234323D01*
X128991353Y-124234323D02*
X128943734Y-124329561D01*
X128943734Y-124329561D02*
X128848496Y-124424800D01*
X128848496Y-124424800D02*
X128705639Y-124472419D01*
X128705639Y-124472419D02*
X128610401Y-124472419D01*
X128610401Y-124472419D02*
X128467544Y-124424800D01*
X128467544Y-124424800D02*
X128419925Y-124377180D01*
X128419925Y-124377180D02*
X128419925Y-124043847D01*
X128419925Y-124043847D02*
X128610401Y-124043847D01*
X127991353Y-123948609D02*
X127658020Y-123948609D01*
X127515163Y-124472419D02*
X127991353Y-124472419D01*
X127991353Y-124472419D02*
X127991353Y-123472419D01*
X127991353Y-123472419D02*
X127515163Y-123472419D01*
X126515163Y-124472419D02*
X126848496Y-123996228D01*
X127086591Y-124472419D02*
X127086591Y-123472419D01*
X127086591Y-123472419D02*
X126705639Y-123472419D01*
X126705639Y-123472419D02*
X126610401Y-123520038D01*
X126610401Y-123520038D02*
X126562782Y-123567657D01*
X126562782Y-123567657D02*
X126515163Y-123662895D01*
X126515163Y-123662895D02*
X126515163Y-123805752D01*
X126515163Y-123805752D02*
X126562782Y-123900990D01*
X126562782Y-123900990D02*
X126610401Y-123948609D01*
X126610401Y-123948609D02*
X126705639Y-123996228D01*
X126705639Y-123996228D02*
X127086591Y-123996228D01*
X125324686Y-124472419D02*
X125324686Y-123472419D01*
X125324686Y-123948609D02*
X124753258Y-123948609D01*
X124753258Y-124472419D02*
X124753258Y-123472419D01*
X124277067Y-124472419D02*
X124277067Y-123472419D01*
X123277068Y-123520038D02*
X123372306Y-123472419D01*
X123372306Y-123472419D02*
X123515163Y-123472419D01*
X123515163Y-123472419D02*
X123658020Y-123520038D01*
X123658020Y-123520038D02*
X123753258Y-123615276D01*
X123753258Y-123615276D02*
X123800877Y-123710514D01*
X123800877Y-123710514D02*
X123848496Y-123900990D01*
X123848496Y-123900990D02*
X123848496Y-124043847D01*
X123848496Y-124043847D02*
X123800877Y-124234323D01*
X123800877Y-124234323D02*
X123753258Y-124329561D01*
X123753258Y-124329561D02*
X123658020Y-124424800D01*
X123658020Y-124424800D02*
X123515163Y-124472419D01*
X123515163Y-124472419D02*
X123419925Y-124472419D01*
X123419925Y-124472419D02*
X123277068Y-124424800D01*
X123277068Y-124424800D02*
X123229449Y-124377180D01*
X123229449Y-124377180D02*
X123229449Y-124043847D01*
X123229449Y-124043847D02*
X123419925Y-124043847D01*
X122800877Y-124472419D02*
X122800877Y-123472419D01*
X122800877Y-123948609D02*
X122229449Y-123948609D01*
X122229449Y-124472419D02*
X122229449Y-123472419D01*
X121134210Y-123472419D02*
X120800877Y-124472419D01*
X120800877Y-124472419D02*
X120467544Y-123472419D01*
X119943734Y-123472419D02*
X119753258Y-123472419D01*
X119753258Y-123472419D02*
X119658020Y-123520038D01*
X119658020Y-123520038D02*
X119562782Y-123615276D01*
X119562782Y-123615276D02*
X119515163Y-123805752D01*
X119515163Y-123805752D02*
X119515163Y-124139085D01*
X119515163Y-124139085D02*
X119562782Y-124329561D01*
X119562782Y-124329561D02*
X119658020Y-124424800D01*
X119658020Y-124424800D02*
X119753258Y-124472419D01*
X119753258Y-124472419D02*
X119943734Y-124472419D01*
X119943734Y-124472419D02*
X120038972Y-124424800D01*
X120038972Y-124424800D02*
X120134210Y-124329561D01*
X120134210Y-124329561D02*
X120181829Y-124139085D01*
X120181829Y-124139085D02*
X120181829Y-123805752D01*
X120181829Y-123805752D02*
X120134210Y-123615276D01*
X120134210Y-123615276D02*
X120038972Y-123520038D01*
X120038972Y-123520038D02*
X119943734Y-123472419D01*
X118610401Y-124472419D02*
X119086591Y-124472419D01*
X119086591Y-124472419D02*
X119086591Y-123472419D01*
X118419924Y-123472419D02*
X117848496Y-123472419D01*
X118134210Y-124472419D02*
X118134210Y-123472419D01*
X117562781Y-124186704D02*
X117086591Y-124186704D01*
X117658019Y-124472419D02*
X117324686Y-123472419D01*
X117324686Y-123472419D02*
X116991353Y-124472419D01*
X116134210Y-123520038D02*
X116229448Y-123472419D01*
X116229448Y-123472419D02*
X116372305Y-123472419D01*
X116372305Y-123472419D02*
X116515162Y-123520038D01*
X116515162Y-123520038D02*
X116610400Y-123615276D01*
X116610400Y-123615276D02*
X116658019Y-123710514D01*
X116658019Y-123710514D02*
X116705638Y-123900990D01*
X116705638Y-123900990D02*
X116705638Y-124043847D01*
X116705638Y-124043847D02*
X116658019Y-124234323D01*
X116658019Y-124234323D02*
X116610400Y-124329561D01*
X116610400Y-124329561D02*
X116515162Y-124424800D01*
X116515162Y-124424800D02*
X116372305Y-124472419D01*
X116372305Y-124472419D02*
X116277067Y-124472419D01*
X116277067Y-124472419D02*
X116134210Y-124424800D01*
X116134210Y-124424800D02*
X116086591Y-124377180D01*
X116086591Y-124377180D02*
X116086591Y-124043847D01*
X116086591Y-124043847D02*
X116277067Y-124043847D01*
X115658019Y-123948609D02*
X115324686Y-123948609D01*
X115181829Y-124472419D02*
X115658019Y-124472419D01*
X115658019Y-124472419D02*
X115658019Y-123472419D01*
X115658019Y-123472419D02*
X115181829Y-123472419D01*
X166596115Y-109508833D02*
X166262782Y-109508833D01*
X166119925Y-110032643D02*
X166596115Y-110032643D01*
X166596115Y-110032643D02*
X166596115Y-109032643D01*
X166596115Y-109032643D02*
X166119925Y-109032643D01*
X165738972Y-109985024D02*
X165596115Y-110032643D01*
X165596115Y-110032643D02*
X165358020Y-110032643D01*
X165358020Y-110032643D02*
X165262782Y-109985024D01*
X165262782Y-109985024D02*
X165215163Y-109937404D01*
X165215163Y-109937404D02*
X165167544Y-109842166D01*
X165167544Y-109842166D02*
X165167544Y-109746928D01*
X165167544Y-109746928D02*
X165215163Y-109651690D01*
X165215163Y-109651690D02*
X165262782Y-109604071D01*
X165262782Y-109604071D02*
X165358020Y-109556452D01*
X165358020Y-109556452D02*
X165548496Y-109508833D01*
X165548496Y-109508833D02*
X165643734Y-109461214D01*
X165643734Y-109461214D02*
X165691353Y-109413595D01*
X165691353Y-109413595D02*
X165738972Y-109318357D01*
X165738972Y-109318357D02*
X165738972Y-109223119D01*
X165738972Y-109223119D02*
X165691353Y-109127881D01*
X165691353Y-109127881D02*
X165643734Y-109080262D01*
X165643734Y-109080262D02*
X165548496Y-109032643D01*
X165548496Y-109032643D02*
X165310401Y-109032643D01*
X165310401Y-109032643D02*
X165167544Y-109080262D01*
X164738972Y-110032643D02*
X164738972Y-109032643D01*
X164738972Y-109032643D02*
X164358020Y-109032643D01*
X164358020Y-109032643D02*
X164262782Y-109080262D01*
X164262782Y-109080262D02*
X164215163Y-109127881D01*
X164215163Y-109127881D02*
X164167544Y-109223119D01*
X164167544Y-109223119D02*
X164167544Y-109365976D01*
X164167544Y-109365976D02*
X164215163Y-109461214D01*
X164215163Y-109461214D02*
X164262782Y-109508833D01*
X164262782Y-109508833D02*
X164358020Y-109556452D01*
X164358020Y-109556452D02*
X164738972Y-109556452D01*
X163738972Y-110032643D02*
X163738972Y-109032643D01*
X163738972Y-109508833D02*
X163167544Y-109508833D01*
X163167544Y-110032643D02*
X163167544Y-109032643D01*
X162548496Y-110032643D02*
X162643734Y-109985024D01*
X162643734Y-109985024D02*
X162691353Y-109937404D01*
X162691353Y-109937404D02*
X162738972Y-109842166D01*
X162738972Y-109842166D02*
X162738972Y-109556452D01*
X162738972Y-109556452D02*
X162691353Y-109461214D01*
X162691353Y-109461214D02*
X162643734Y-109413595D01*
X162643734Y-109413595D02*
X162548496Y-109365976D01*
X162548496Y-109365976D02*
X162405639Y-109365976D01*
X162405639Y-109365976D02*
X162310401Y-109413595D01*
X162310401Y-109413595D02*
X162262782Y-109461214D01*
X162262782Y-109461214D02*
X162215163Y-109556452D01*
X162215163Y-109556452D02*
X162215163Y-109842166D01*
X162215163Y-109842166D02*
X162262782Y-109937404D01*
X162262782Y-109937404D02*
X162310401Y-109985024D01*
X162310401Y-109985024D02*
X162405639Y-110032643D01*
X162405639Y-110032643D02*
X162548496Y-110032643D01*
X161786591Y-110032643D02*
X161786591Y-109365976D01*
X161786591Y-109461214D02*
X161738972Y-109413595D01*
X161738972Y-109413595D02*
X161643734Y-109365976D01*
X161643734Y-109365976D02*
X161500877Y-109365976D01*
X161500877Y-109365976D02*
X161405639Y-109413595D01*
X161405639Y-109413595D02*
X161358020Y-109508833D01*
X161358020Y-109508833D02*
X161358020Y-110032643D01*
X161358020Y-109508833D02*
X161310401Y-109413595D01*
X161310401Y-109413595D02*
X161215163Y-109365976D01*
X161215163Y-109365976D02*
X161072306Y-109365976D01*
X161072306Y-109365976D02*
X160977067Y-109413595D01*
X160977067Y-109413595D02*
X160929448Y-109508833D01*
X160929448Y-109508833D02*
X160929448Y-110032643D01*
X160072306Y-109985024D02*
X160167544Y-110032643D01*
X160167544Y-110032643D02*
X160358020Y-110032643D01*
X160358020Y-110032643D02*
X160453258Y-109985024D01*
X160453258Y-109985024D02*
X160500877Y-109889785D01*
X160500877Y-109889785D02*
X160500877Y-109508833D01*
X160500877Y-109508833D02*
X160453258Y-109413595D01*
X160453258Y-109413595D02*
X160358020Y-109365976D01*
X160358020Y-109365976D02*
X160167544Y-109365976D01*
X160167544Y-109365976D02*
X160072306Y-109413595D01*
X160072306Y-109413595D02*
X160024687Y-109508833D01*
X160024687Y-109508833D02*
X160024687Y-109604071D01*
X160024687Y-109604071D02*
X160500877Y-109699309D01*
X166596115Y-111642587D02*
X166596115Y-110642587D01*
X166167544Y-111642587D02*
X166167544Y-111118777D01*
X166167544Y-111118777D02*
X166215163Y-111023539D01*
X166215163Y-111023539D02*
X166310401Y-110975920D01*
X166310401Y-110975920D02*
X166453258Y-110975920D01*
X166453258Y-110975920D02*
X166548496Y-111023539D01*
X166548496Y-111023539D02*
X166596115Y-111071158D01*
X165548496Y-111642587D02*
X165643734Y-111594968D01*
X165643734Y-111594968D02*
X165691353Y-111547348D01*
X165691353Y-111547348D02*
X165738972Y-111452110D01*
X165738972Y-111452110D02*
X165738972Y-111166396D01*
X165738972Y-111166396D02*
X165691353Y-111071158D01*
X165691353Y-111071158D02*
X165643734Y-111023539D01*
X165643734Y-111023539D02*
X165548496Y-110975920D01*
X165548496Y-110975920D02*
X165405639Y-110975920D01*
X165405639Y-110975920D02*
X165310401Y-111023539D01*
X165310401Y-111023539D02*
X165262782Y-111071158D01*
X165262782Y-111071158D02*
X165215163Y-111166396D01*
X165215163Y-111166396D02*
X165215163Y-111452110D01*
X165215163Y-111452110D02*
X165262782Y-111547348D01*
X165262782Y-111547348D02*
X165310401Y-111594968D01*
X165310401Y-111594968D02*
X165405639Y-111642587D01*
X165405639Y-111642587D02*
X165548496Y-111642587D01*
X164786591Y-111642587D02*
X164786591Y-110975920D01*
X164786591Y-111071158D02*
X164738972Y-111023539D01*
X164738972Y-111023539D02*
X164643734Y-110975920D01*
X164643734Y-110975920D02*
X164500877Y-110975920D01*
X164500877Y-110975920D02*
X164405639Y-111023539D01*
X164405639Y-111023539D02*
X164358020Y-111118777D01*
X164358020Y-111118777D02*
X164358020Y-111642587D01*
X164358020Y-111118777D02*
X164310401Y-111023539D01*
X164310401Y-111023539D02*
X164215163Y-110975920D01*
X164215163Y-110975920D02*
X164072306Y-110975920D01*
X164072306Y-110975920D02*
X163977067Y-111023539D01*
X163977067Y-111023539D02*
X163929448Y-111118777D01*
X163929448Y-111118777D02*
X163929448Y-111642587D01*
X163072306Y-111594968D02*
X163167544Y-111642587D01*
X163167544Y-111642587D02*
X163358020Y-111642587D01*
X163358020Y-111642587D02*
X163453258Y-111594968D01*
X163453258Y-111594968D02*
X163500877Y-111499729D01*
X163500877Y-111499729D02*
X163500877Y-111118777D01*
X163500877Y-111118777D02*
X163453258Y-111023539D01*
X163453258Y-111023539D02*
X163358020Y-110975920D01*
X163358020Y-110975920D02*
X163167544Y-110975920D01*
X163167544Y-110975920D02*
X163072306Y-111023539D01*
X163072306Y-111023539D02*
X163024687Y-111118777D01*
X163024687Y-111118777D02*
X163024687Y-111214015D01*
X163024687Y-111214015D02*
X163500877Y-111309253D01*
X161929448Y-110975920D02*
X161691353Y-111642587D01*
X161691353Y-111642587D02*
X161453258Y-110975920D01*
X160691353Y-111594968D02*
X160786591Y-111642587D01*
X160786591Y-111642587D02*
X160977067Y-111642587D01*
X160977067Y-111642587D02*
X161072305Y-111594968D01*
X161072305Y-111594968D02*
X161119924Y-111499729D01*
X161119924Y-111499729D02*
X161119924Y-111118777D01*
X161119924Y-111118777D02*
X161072305Y-111023539D01*
X161072305Y-111023539D02*
X160977067Y-110975920D01*
X160977067Y-110975920D02*
X160786591Y-110975920D01*
X160786591Y-110975920D02*
X160691353Y-111023539D01*
X160691353Y-111023539D02*
X160643734Y-111118777D01*
X160643734Y-111118777D02*
X160643734Y-111214015D01*
X160643734Y-111214015D02*
X161119924Y-111309253D01*
X160215162Y-110975920D02*
X160215162Y-111642587D01*
X160215162Y-111071158D02*
X160167543Y-111023539D01*
X160167543Y-111023539D02*
X160072305Y-110975920D01*
X160072305Y-110975920D02*
X159929448Y-110975920D01*
X159929448Y-110975920D02*
X159834210Y-111023539D01*
X159834210Y-111023539D02*
X159786591Y-111118777D01*
X159786591Y-111118777D02*
X159786591Y-111642587D01*
X159453257Y-110975920D02*
X159072305Y-110975920D01*
X159310400Y-110642587D02*
X159310400Y-111499729D01*
X159310400Y-111499729D02*
X159262781Y-111594968D01*
X159262781Y-111594968D02*
X159167543Y-111642587D01*
X159167543Y-111642587D02*
X159072305Y-111642587D01*
X158738971Y-111642587D02*
X158738971Y-110975920D01*
X158738971Y-110642587D02*
X158786590Y-110690206D01*
X158786590Y-110690206D02*
X158738971Y-110737825D01*
X158738971Y-110737825D02*
X158691352Y-110690206D01*
X158691352Y-110690206D02*
X158738971Y-110642587D01*
X158738971Y-110642587D02*
X158738971Y-110737825D01*
X158119924Y-111642587D02*
X158215162Y-111594968D01*
X158215162Y-111594968D02*
X158262781Y-111499729D01*
X158262781Y-111499729D02*
X158262781Y-110642587D01*
X157310400Y-111642587D02*
X157310400Y-111118777D01*
X157310400Y-111118777D02*
X157358019Y-111023539D01*
X157358019Y-111023539D02*
X157453257Y-110975920D01*
X157453257Y-110975920D02*
X157643733Y-110975920D01*
X157643733Y-110975920D02*
X157738971Y-111023539D01*
X157310400Y-111594968D02*
X157405638Y-111642587D01*
X157405638Y-111642587D02*
X157643733Y-111642587D01*
X157643733Y-111642587D02*
X157738971Y-111594968D01*
X157738971Y-111594968D02*
X157786590Y-111499729D01*
X157786590Y-111499729D02*
X157786590Y-111404491D01*
X157786590Y-111404491D02*
X157738971Y-111309253D01*
X157738971Y-111309253D02*
X157643733Y-111261634D01*
X157643733Y-111261634D02*
X157405638Y-111261634D01*
X157405638Y-111261634D02*
X157310400Y-111214015D01*
X156977066Y-110975920D02*
X156596114Y-110975920D01*
X156834209Y-110642587D02*
X156834209Y-111499729D01*
X156834209Y-111499729D02*
X156786590Y-111594968D01*
X156786590Y-111594968D02*
X156691352Y-111642587D01*
X156691352Y-111642587D02*
X156596114Y-111642587D01*
X156262780Y-111642587D02*
X156262780Y-110975920D01*
X156262780Y-110642587D02*
X156310399Y-110690206D01*
X156310399Y-110690206D02*
X156262780Y-110737825D01*
X156262780Y-110737825D02*
X156215161Y-110690206D01*
X156215161Y-110690206D02*
X156262780Y-110642587D01*
X156262780Y-110642587D02*
X156262780Y-110737825D01*
X155643733Y-111642587D02*
X155738971Y-111594968D01*
X155738971Y-111594968D02*
X155786590Y-111547348D01*
X155786590Y-111547348D02*
X155834209Y-111452110D01*
X155834209Y-111452110D02*
X155834209Y-111166396D01*
X155834209Y-111166396D02*
X155786590Y-111071158D01*
X155786590Y-111071158D02*
X155738971Y-111023539D01*
X155738971Y-111023539D02*
X155643733Y-110975920D01*
X155643733Y-110975920D02*
X155500876Y-110975920D01*
X155500876Y-110975920D02*
X155405638Y-111023539D01*
X155405638Y-111023539D02*
X155358019Y-111071158D01*
X155358019Y-111071158D02*
X155310400Y-111166396D01*
X155310400Y-111166396D02*
X155310400Y-111452110D01*
X155310400Y-111452110D02*
X155358019Y-111547348D01*
X155358019Y-111547348D02*
X155405638Y-111594968D01*
X155405638Y-111594968D02*
X155500876Y-111642587D01*
X155500876Y-111642587D02*
X155643733Y-111642587D01*
X154881828Y-110975920D02*
X154881828Y-111642587D01*
X154881828Y-111071158D02*
X154834209Y-111023539D01*
X154834209Y-111023539D02*
X154738971Y-110975920D01*
X154738971Y-110975920D02*
X154596114Y-110975920D01*
X154596114Y-110975920D02*
X154500876Y-111023539D01*
X154500876Y-111023539D02*
X154453257Y-111118777D01*
X154453257Y-111118777D02*
X154453257Y-111642587D01*
X153262780Y-111594968D02*
X153167542Y-111642587D01*
X153167542Y-111642587D02*
X152977066Y-111642587D01*
X152977066Y-111642587D02*
X152881828Y-111594968D01*
X152881828Y-111594968D02*
X152834209Y-111499729D01*
X152834209Y-111499729D02*
X152834209Y-111452110D01*
X152834209Y-111452110D02*
X152881828Y-111356872D01*
X152881828Y-111356872D02*
X152977066Y-111309253D01*
X152977066Y-111309253D02*
X153119923Y-111309253D01*
X153119923Y-111309253D02*
X153215161Y-111261634D01*
X153215161Y-111261634D02*
X153262780Y-111166396D01*
X153262780Y-111166396D02*
X153262780Y-111118777D01*
X153262780Y-111118777D02*
X153215161Y-111023539D01*
X153215161Y-111023539D02*
X153119923Y-110975920D01*
X153119923Y-110975920D02*
X152977066Y-110975920D01*
X152977066Y-110975920D02*
X152881828Y-111023539D01*
X152500875Y-110975920D02*
X152262780Y-111642587D01*
X152024685Y-110975920D02*
X152262780Y-111642587D01*
X152262780Y-111642587D02*
X152358018Y-111880682D01*
X152358018Y-111880682D02*
X152405637Y-111928301D01*
X152405637Y-111928301D02*
X152500875Y-111975920D01*
X151691351Y-111594968D02*
X151596113Y-111642587D01*
X151596113Y-111642587D02*
X151405637Y-111642587D01*
X151405637Y-111642587D02*
X151310399Y-111594968D01*
X151310399Y-111594968D02*
X151262780Y-111499729D01*
X151262780Y-111499729D02*
X151262780Y-111452110D01*
X151262780Y-111452110D02*
X151310399Y-111356872D01*
X151310399Y-111356872D02*
X151405637Y-111309253D01*
X151405637Y-111309253D02*
X151548494Y-111309253D01*
X151548494Y-111309253D02*
X151643732Y-111261634D01*
X151643732Y-111261634D02*
X151691351Y-111166396D01*
X151691351Y-111166396D02*
X151691351Y-111118777D01*
X151691351Y-111118777D02*
X151643732Y-111023539D01*
X151643732Y-111023539D02*
X151548494Y-110975920D01*
X151548494Y-110975920D02*
X151405637Y-110975920D01*
X151405637Y-110975920D02*
X151310399Y-111023539D01*
X150977065Y-110975920D02*
X150596113Y-110975920D01*
X150834208Y-110642587D02*
X150834208Y-111499729D01*
X150834208Y-111499729D02*
X150786589Y-111594968D01*
X150786589Y-111594968D02*
X150691351Y-111642587D01*
X150691351Y-111642587D02*
X150596113Y-111642587D01*
X149881827Y-111594968D02*
X149977065Y-111642587D01*
X149977065Y-111642587D02*
X150167541Y-111642587D01*
X150167541Y-111642587D02*
X150262779Y-111594968D01*
X150262779Y-111594968D02*
X150310398Y-111499729D01*
X150310398Y-111499729D02*
X150310398Y-111118777D01*
X150310398Y-111118777D02*
X150262779Y-111023539D01*
X150262779Y-111023539D02*
X150167541Y-110975920D01*
X150167541Y-110975920D02*
X149977065Y-110975920D01*
X149977065Y-110975920D02*
X149881827Y-111023539D01*
X149881827Y-111023539D02*
X149834208Y-111118777D01*
X149834208Y-111118777D02*
X149834208Y-111214015D01*
X149834208Y-111214015D02*
X150310398Y-111309253D01*
X149405636Y-111642587D02*
X149405636Y-110975920D01*
X149405636Y-111071158D02*
X149358017Y-111023539D01*
X149358017Y-111023539D02*
X149262779Y-110975920D01*
X149262779Y-110975920D02*
X149119922Y-110975920D01*
X149119922Y-110975920D02*
X149024684Y-111023539D01*
X149024684Y-111023539D02*
X148977065Y-111118777D01*
X148977065Y-111118777D02*
X148977065Y-111642587D01*
X148977065Y-111118777D02*
X148929446Y-111023539D01*
X148929446Y-111023539D02*
X148834208Y-110975920D01*
X148834208Y-110975920D02*
X148691351Y-110975920D01*
X148691351Y-110975920D02*
X148596112Y-111023539D01*
X148596112Y-111023539D02*
X148548493Y-111118777D01*
X148548493Y-111118777D02*
X148548493Y-111642587D01*
X146881827Y-111594968D02*
X146977065Y-111642587D01*
X146977065Y-111642587D02*
X147167541Y-111642587D01*
X147167541Y-111642587D02*
X147262779Y-111594968D01*
X147262779Y-111594968D02*
X147310398Y-111547348D01*
X147310398Y-111547348D02*
X147358017Y-111452110D01*
X147358017Y-111452110D02*
X147358017Y-111166396D01*
X147358017Y-111166396D02*
X147310398Y-111071158D01*
X147310398Y-111071158D02*
X147262779Y-111023539D01*
X147262779Y-111023539D02*
X147167541Y-110975920D01*
X147167541Y-110975920D02*
X146977065Y-110975920D01*
X146977065Y-110975920D02*
X146881827Y-111023539D01*
X146310398Y-111642587D02*
X146405636Y-111594968D01*
X146405636Y-111594968D02*
X146453255Y-111547348D01*
X146453255Y-111547348D02*
X146500874Y-111452110D01*
X146500874Y-111452110D02*
X146500874Y-111166396D01*
X146500874Y-111166396D02*
X146453255Y-111071158D01*
X146453255Y-111071158D02*
X146405636Y-111023539D01*
X146405636Y-111023539D02*
X146310398Y-110975920D01*
X146310398Y-110975920D02*
X146167541Y-110975920D01*
X146167541Y-110975920D02*
X146072303Y-111023539D01*
X146072303Y-111023539D02*
X146024684Y-111071158D01*
X146024684Y-111071158D02*
X145977065Y-111166396D01*
X145977065Y-111166396D02*
X145977065Y-111452110D01*
X145977065Y-111452110D02*
X146024684Y-111547348D01*
X146024684Y-111547348D02*
X146072303Y-111594968D01*
X146072303Y-111594968D02*
X146167541Y-111642587D01*
X146167541Y-111642587D02*
X146310398Y-111642587D01*
X145548493Y-110975920D02*
X145548493Y-111642587D01*
X145548493Y-111071158D02*
X145500874Y-111023539D01*
X145500874Y-111023539D02*
X145405636Y-110975920D01*
X145405636Y-110975920D02*
X145262779Y-110975920D01*
X145262779Y-110975920D02*
X145167541Y-111023539D01*
X145167541Y-111023539D02*
X145119922Y-111118777D01*
X145119922Y-111118777D02*
X145119922Y-111642587D01*
X144786588Y-110975920D02*
X144405636Y-110975920D01*
X144643731Y-110642587D02*
X144643731Y-111499729D01*
X144643731Y-111499729D02*
X144596112Y-111594968D01*
X144596112Y-111594968D02*
X144500874Y-111642587D01*
X144500874Y-111642587D02*
X144405636Y-111642587D01*
X144072302Y-111642587D02*
X144072302Y-110975920D01*
X144072302Y-111166396D02*
X144024683Y-111071158D01*
X144024683Y-111071158D02*
X143977064Y-111023539D01*
X143977064Y-111023539D02*
X143881826Y-110975920D01*
X143881826Y-110975920D02*
X143786588Y-110975920D01*
X143310397Y-111642587D02*
X143405635Y-111594968D01*
X143405635Y-111594968D02*
X143453254Y-111547348D01*
X143453254Y-111547348D02*
X143500873Y-111452110D01*
X143500873Y-111452110D02*
X143500873Y-111166396D01*
X143500873Y-111166396D02*
X143453254Y-111071158D01*
X143453254Y-111071158D02*
X143405635Y-111023539D01*
X143405635Y-111023539D02*
X143310397Y-110975920D01*
X143310397Y-110975920D02*
X143167540Y-110975920D01*
X143167540Y-110975920D02*
X143072302Y-111023539D01*
X143072302Y-111023539D02*
X143024683Y-111071158D01*
X143024683Y-111071158D02*
X142977064Y-111166396D01*
X142977064Y-111166396D02*
X142977064Y-111452110D01*
X142977064Y-111452110D02*
X143024683Y-111547348D01*
X143024683Y-111547348D02*
X143072302Y-111594968D01*
X143072302Y-111594968D02*
X143167540Y-111642587D01*
X143167540Y-111642587D02*
X143310397Y-111642587D01*
X142405635Y-111642587D02*
X142500873Y-111594968D01*
X142500873Y-111594968D02*
X142548492Y-111499729D01*
X142548492Y-111499729D02*
X142548492Y-110642587D01*
X166738972Y-112252531D02*
X166405639Y-113252531D01*
X166405639Y-113252531D02*
X166072306Y-112252531D01*
X165215163Y-113252531D02*
X165786591Y-113252531D01*
X165500877Y-113252531D02*
X165500877Y-112252531D01*
X165500877Y-112252531D02*
X165596115Y-112395388D01*
X165596115Y-112395388D02*
X165691353Y-112490626D01*
X165691353Y-112490626D02*
X165786591Y-112538245D01*
X166596115Y-114862475D02*
X166596115Y-113862475D01*
X166596115Y-113862475D02*
X166358020Y-113862475D01*
X166358020Y-113862475D02*
X166215163Y-113910094D01*
X166215163Y-113910094D02*
X166119925Y-114005332D01*
X166119925Y-114005332D02*
X166072306Y-114100570D01*
X166072306Y-114100570D02*
X166024687Y-114291046D01*
X166024687Y-114291046D02*
X166024687Y-114433903D01*
X166024687Y-114433903D02*
X166072306Y-114624379D01*
X166072306Y-114624379D02*
X166119925Y-114719617D01*
X166119925Y-114719617D02*
X166215163Y-114814856D01*
X166215163Y-114814856D02*
X166358020Y-114862475D01*
X166358020Y-114862475D02*
X166596115Y-114862475D01*
X165596115Y-114862475D02*
X165596115Y-114195808D01*
X165596115Y-114386284D02*
X165548496Y-114291046D01*
X165548496Y-114291046D02*
X165500877Y-114243427D01*
X165500877Y-114243427D02*
X165405639Y-114195808D01*
X165405639Y-114195808D02*
X165310401Y-114195808D01*
X164977067Y-114767236D02*
X164929448Y-114814856D01*
X164929448Y-114814856D02*
X164977067Y-114862475D01*
X164977067Y-114862475D02*
X165024686Y-114814856D01*
X165024686Y-114814856D02*
X164977067Y-114767236D01*
X164977067Y-114767236D02*
X164977067Y-114862475D01*
X163738972Y-114862475D02*
X163738972Y-113862475D01*
X163738972Y-113862475D02*
X163405639Y-114576760D01*
X163405639Y-114576760D02*
X163072306Y-113862475D01*
X163072306Y-113862475D02*
X163072306Y-114862475D01*
X162167544Y-114862475D02*
X162167544Y-114338665D01*
X162167544Y-114338665D02*
X162215163Y-114243427D01*
X162215163Y-114243427D02*
X162310401Y-114195808D01*
X162310401Y-114195808D02*
X162500877Y-114195808D01*
X162500877Y-114195808D02*
X162596115Y-114243427D01*
X162167544Y-114814856D02*
X162262782Y-114862475D01*
X162262782Y-114862475D02*
X162500877Y-114862475D01*
X162500877Y-114862475D02*
X162596115Y-114814856D01*
X162596115Y-114814856D02*
X162643734Y-114719617D01*
X162643734Y-114719617D02*
X162643734Y-114624379D01*
X162643734Y-114624379D02*
X162596115Y-114529141D01*
X162596115Y-114529141D02*
X162500877Y-114481522D01*
X162500877Y-114481522D02*
X162262782Y-114481522D01*
X162262782Y-114481522D02*
X162167544Y-114433903D01*
X161691353Y-114862475D02*
X161691353Y-114195808D01*
X161691353Y-114386284D02*
X161643734Y-114291046D01*
X161643734Y-114291046D02*
X161596115Y-114243427D01*
X161596115Y-114243427D02*
X161500877Y-114195808D01*
X161500877Y-114195808D02*
X161405639Y-114195808D01*
X161215162Y-114195808D02*
X160834210Y-114195808D01*
X161072305Y-113862475D02*
X161072305Y-114719617D01*
X161072305Y-114719617D02*
X161024686Y-114814856D01*
X161024686Y-114814856D02*
X160929448Y-114862475D01*
X160929448Y-114862475D02*
X160834210Y-114862475D01*
X160500876Y-114862475D02*
X160500876Y-114195808D01*
X160500876Y-113862475D02*
X160548495Y-113910094D01*
X160548495Y-113910094D02*
X160500876Y-113957713D01*
X160500876Y-113957713D02*
X160453257Y-113910094D01*
X160453257Y-113910094D02*
X160500876Y-113862475D01*
X160500876Y-113862475D02*
X160500876Y-113957713D01*
X160024686Y-114195808D02*
X160024686Y-114862475D01*
X160024686Y-114291046D02*
X159977067Y-114243427D01*
X159977067Y-114243427D02*
X159881829Y-114195808D01*
X159881829Y-114195808D02*
X159738972Y-114195808D01*
X159738972Y-114195808D02*
X159643734Y-114243427D01*
X159643734Y-114243427D02*
X159596115Y-114338665D01*
X159596115Y-114338665D02*
X159596115Y-114862475D01*
X158405638Y-114814856D02*
X158262781Y-114862475D01*
X158262781Y-114862475D02*
X158024686Y-114862475D01*
X158024686Y-114862475D02*
X157929448Y-114814856D01*
X157929448Y-114814856D02*
X157881829Y-114767236D01*
X157881829Y-114767236D02*
X157834210Y-114671998D01*
X157834210Y-114671998D02*
X157834210Y-114576760D01*
X157834210Y-114576760D02*
X157881829Y-114481522D01*
X157881829Y-114481522D02*
X157929448Y-114433903D01*
X157929448Y-114433903D02*
X158024686Y-114386284D01*
X158024686Y-114386284D02*
X158215162Y-114338665D01*
X158215162Y-114338665D02*
X158310400Y-114291046D01*
X158310400Y-114291046D02*
X158358019Y-114243427D01*
X158358019Y-114243427D02*
X158405638Y-114148189D01*
X158405638Y-114148189D02*
X158405638Y-114052951D01*
X158405638Y-114052951D02*
X158358019Y-113957713D01*
X158358019Y-113957713D02*
X158310400Y-113910094D01*
X158310400Y-113910094D02*
X158215162Y-113862475D01*
X158215162Y-113862475D02*
X157977067Y-113862475D01*
X157977067Y-113862475D02*
X157834210Y-113910094D01*
X156977067Y-114814856D02*
X157072305Y-114862475D01*
X157072305Y-114862475D02*
X157262781Y-114862475D01*
X157262781Y-114862475D02*
X157358019Y-114814856D01*
X157358019Y-114814856D02*
X157405638Y-114767236D01*
X157405638Y-114767236D02*
X157453257Y-114671998D01*
X157453257Y-114671998D02*
X157453257Y-114386284D01*
X157453257Y-114386284D02*
X157405638Y-114291046D01*
X157405638Y-114291046D02*
X157358019Y-114243427D01*
X157358019Y-114243427D02*
X157262781Y-114195808D01*
X157262781Y-114195808D02*
X157072305Y-114195808D01*
X157072305Y-114195808D02*
X156977067Y-114243427D01*
X156548495Y-114862475D02*
X156548495Y-113862475D01*
X156119924Y-114862475D02*
X156119924Y-114338665D01*
X156119924Y-114338665D02*
X156167543Y-114243427D01*
X156167543Y-114243427D02*
X156262781Y-114195808D01*
X156262781Y-114195808D02*
X156405638Y-114195808D01*
X156405638Y-114195808D02*
X156500876Y-114243427D01*
X156500876Y-114243427D02*
X156548495Y-114291046D01*
X155215162Y-114195808D02*
X155215162Y-114862475D01*
X155643733Y-114195808D02*
X155643733Y-114719617D01*
X155643733Y-114719617D02*
X155596114Y-114814856D01*
X155596114Y-114814856D02*
X155500876Y-114862475D01*
X155500876Y-114862475D02*
X155358019Y-114862475D01*
X155358019Y-114862475D02*
X155262781Y-114814856D01*
X155262781Y-114814856D02*
X155215162Y-114767236D01*
X155596114Y-113862475D02*
X155548495Y-113910094D01*
X155548495Y-113910094D02*
X155596114Y-113957713D01*
X155596114Y-113957713D02*
X155643733Y-113910094D01*
X155643733Y-113910094D02*
X155596114Y-113862475D01*
X155596114Y-113862475D02*
X155596114Y-113957713D01*
X155215162Y-113862475D02*
X155167543Y-113910094D01*
X155167543Y-113910094D02*
X155215162Y-113957713D01*
X155215162Y-113957713D02*
X155262781Y-113910094D01*
X155262781Y-113910094D02*
X155215162Y-113862475D01*
X155215162Y-113862475D02*
X155215162Y-113957713D01*
X154881828Y-114195808D02*
X154500876Y-114195808D01*
X154738971Y-113862475D02*
X154738971Y-114719617D01*
X154738971Y-114719617D02*
X154691352Y-114814856D01*
X154691352Y-114814856D02*
X154596114Y-114862475D01*
X154596114Y-114862475D02*
X154500876Y-114862475D01*
X154262780Y-114195808D02*
X153738971Y-114195808D01*
X153738971Y-114195808D02*
X154262780Y-114862475D01*
X154262780Y-114862475D02*
X153738971Y-114862475D01*
X166596115Y-116472419D02*
X166596115Y-115805752D01*
X166596115Y-115900990D02*
X166548496Y-115853371D01*
X166548496Y-115853371D02*
X166453258Y-115805752D01*
X166453258Y-115805752D02*
X166310401Y-115805752D01*
X166310401Y-115805752D02*
X166215163Y-115853371D01*
X166215163Y-115853371D02*
X166167544Y-115948609D01*
X166167544Y-115948609D02*
X166167544Y-116472419D01*
X166167544Y-115948609D02*
X166119925Y-115853371D01*
X166119925Y-115853371D02*
X166024687Y-115805752D01*
X166024687Y-115805752D02*
X165881830Y-115805752D01*
X165881830Y-115805752D02*
X165786591Y-115853371D01*
X165786591Y-115853371D02*
X165738972Y-115948609D01*
X165738972Y-115948609D02*
X165738972Y-116472419D01*
X165310401Y-116424800D02*
X165215163Y-116472419D01*
X165215163Y-116472419D02*
X165024687Y-116472419D01*
X165024687Y-116472419D02*
X164929449Y-116424800D01*
X164929449Y-116424800D02*
X164881830Y-116329561D01*
X164881830Y-116329561D02*
X164881830Y-116281942D01*
X164881830Y-116281942D02*
X164929449Y-116186704D01*
X164929449Y-116186704D02*
X165024687Y-116139085D01*
X165024687Y-116139085D02*
X165167544Y-116139085D01*
X165167544Y-116139085D02*
X165262782Y-116091466D01*
X165262782Y-116091466D02*
X165310401Y-115996228D01*
X165310401Y-115996228D02*
X165310401Y-115948609D01*
X165310401Y-115948609D02*
X165262782Y-115853371D01*
X165262782Y-115853371D02*
X165167544Y-115805752D01*
X165167544Y-115805752D02*
X165024687Y-115805752D01*
X165024687Y-115805752D02*
X164929449Y-115853371D01*
X163834211Y-115996228D02*
X163881830Y-115948609D01*
X163881830Y-115948609D02*
X163977068Y-115900990D01*
X163977068Y-115900990D02*
X164072306Y-115900990D01*
X164072306Y-115900990D02*
X164167544Y-115948609D01*
X164167544Y-115948609D02*
X164215163Y-115996228D01*
X164215163Y-115996228D02*
X164262782Y-116091466D01*
X164262782Y-116091466D02*
X164262782Y-116186704D01*
X164262782Y-116186704D02*
X164215163Y-116281942D01*
X164215163Y-116281942D02*
X164167544Y-116329561D01*
X164167544Y-116329561D02*
X164072306Y-116377180D01*
X164072306Y-116377180D02*
X163977068Y-116377180D01*
X163977068Y-116377180D02*
X163881830Y-116329561D01*
X163881830Y-116329561D02*
X163834211Y-116281942D01*
X163834211Y-115900990D02*
X163834211Y-116281942D01*
X163834211Y-116281942D02*
X163786592Y-116329561D01*
X163786592Y-116329561D02*
X163738973Y-116329561D01*
X163738973Y-116329561D02*
X163643734Y-116281942D01*
X163643734Y-116281942D02*
X163596115Y-116186704D01*
X163596115Y-116186704D02*
X163596115Y-115948609D01*
X163596115Y-115948609D02*
X163691354Y-115805752D01*
X163691354Y-115805752D02*
X163834211Y-115710514D01*
X163834211Y-115710514D02*
X164024687Y-115662895D01*
X164024687Y-115662895D02*
X164215163Y-115710514D01*
X164215163Y-115710514D02*
X164358020Y-115805752D01*
X164358020Y-115805752D02*
X164453258Y-115948609D01*
X164453258Y-115948609D02*
X164500877Y-116139085D01*
X164500877Y-116139085D02*
X164453258Y-116329561D01*
X164453258Y-116329561D02*
X164358020Y-116472419D01*
X164358020Y-116472419D02*
X164215163Y-116567657D01*
X164215163Y-116567657D02*
X164024687Y-116615276D01*
X164024687Y-116615276D02*
X163834211Y-116567657D01*
X163834211Y-116567657D02*
X163691354Y-116472419D01*
X163167544Y-116472419D02*
X163167544Y-115805752D01*
X163167544Y-115900990D02*
X163119925Y-115853371D01*
X163119925Y-115853371D02*
X163024687Y-115805752D01*
X163024687Y-115805752D02*
X162881830Y-115805752D01*
X162881830Y-115805752D02*
X162786592Y-115853371D01*
X162786592Y-115853371D02*
X162738973Y-115948609D01*
X162738973Y-115948609D02*
X162738973Y-116472419D01*
X162738973Y-115948609D02*
X162691354Y-115853371D01*
X162691354Y-115853371D02*
X162596116Y-115805752D01*
X162596116Y-115805752D02*
X162453259Y-115805752D01*
X162453259Y-115805752D02*
X162358020Y-115853371D01*
X162358020Y-115853371D02*
X162310401Y-115948609D01*
X162310401Y-115948609D02*
X162310401Y-116472419D01*
X161881830Y-116424800D02*
X161786592Y-116472419D01*
X161786592Y-116472419D02*
X161596116Y-116472419D01*
X161596116Y-116472419D02*
X161500878Y-116424800D01*
X161500878Y-116424800D02*
X161453259Y-116329561D01*
X161453259Y-116329561D02*
X161453259Y-116281942D01*
X161453259Y-116281942D02*
X161500878Y-116186704D01*
X161500878Y-116186704D02*
X161596116Y-116139085D01*
X161596116Y-116139085D02*
X161738973Y-116139085D01*
X161738973Y-116139085D02*
X161834211Y-116091466D01*
X161834211Y-116091466D02*
X161881830Y-115996228D01*
X161881830Y-115996228D02*
X161881830Y-115948609D01*
X161881830Y-115948609D02*
X161834211Y-115853371D01*
X161834211Y-115853371D02*
X161738973Y-115805752D01*
X161738973Y-115805752D02*
X161596116Y-115805752D01*
X161596116Y-115805752D02*
X161500878Y-115853371D01*
X160596116Y-116424800D02*
X160691354Y-116472419D01*
X160691354Y-116472419D02*
X160881830Y-116472419D01*
X160881830Y-116472419D02*
X160977068Y-116424800D01*
X160977068Y-116424800D02*
X161024687Y-116377180D01*
X161024687Y-116377180D02*
X161072306Y-116281942D01*
X161072306Y-116281942D02*
X161072306Y-115996228D01*
X161072306Y-115996228D02*
X161024687Y-115900990D01*
X161024687Y-115900990D02*
X160977068Y-115853371D01*
X160977068Y-115853371D02*
X160881830Y-115805752D01*
X160881830Y-115805752D02*
X160691354Y-115805752D01*
X160691354Y-115805752D02*
X160596116Y-115853371D01*
X160167544Y-116472419D02*
X160167544Y-115472419D01*
X159738973Y-116472419D02*
X159738973Y-115948609D01*
X159738973Y-115948609D02*
X159786592Y-115853371D01*
X159786592Y-115853371D02*
X159881830Y-115805752D01*
X159881830Y-115805752D02*
X160024687Y-115805752D01*
X160024687Y-115805752D02*
X160119925Y-115853371D01*
X160119925Y-115853371D02*
X160167544Y-115900990D01*
X158834211Y-115805752D02*
X158834211Y-116472419D01*
X159262782Y-115805752D02*
X159262782Y-116329561D01*
X159262782Y-116329561D02*
X159215163Y-116424800D01*
X159215163Y-116424800D02*
X159119925Y-116472419D01*
X159119925Y-116472419D02*
X158977068Y-116472419D01*
X158977068Y-116472419D02*
X158881830Y-116424800D01*
X158881830Y-116424800D02*
X158834211Y-116377180D01*
X157977068Y-116424800D02*
X158072306Y-116472419D01*
X158072306Y-116472419D02*
X158262782Y-116472419D01*
X158262782Y-116472419D02*
X158358020Y-116424800D01*
X158358020Y-116424800D02*
X158405639Y-116329561D01*
X158405639Y-116329561D02*
X158405639Y-115948609D01*
X158405639Y-115948609D02*
X158358020Y-115853371D01*
X158358020Y-115853371D02*
X158262782Y-115805752D01*
X158262782Y-115805752D02*
X158072306Y-115805752D01*
X158072306Y-115805752D02*
X157977068Y-115853371D01*
X157977068Y-115853371D02*
X157929449Y-115948609D01*
X157929449Y-115948609D02*
X157929449Y-116043847D01*
X157929449Y-116043847D02*
X158405639Y-116139085D01*
X157643734Y-115805752D02*
X157262782Y-115805752D01*
X157500877Y-115472419D02*
X157500877Y-116329561D01*
X157500877Y-116329561D02*
X157453258Y-116424800D01*
X157453258Y-116424800D02*
X157358020Y-116472419D01*
X157358020Y-116472419D02*
X157262782Y-116472419D01*
X157024686Y-115805752D02*
X156500877Y-115805752D01*
X156500877Y-115805752D02*
X157024686Y-116472419D01*
X157024686Y-116472419D02*
X156500877Y-116472419D01*
X156119924Y-116377180D02*
X156072305Y-116424800D01*
X156072305Y-116424800D02*
X156119924Y-116472419D01*
X156119924Y-116472419D02*
X156167543Y-116424800D01*
X156167543Y-116424800D02*
X156119924Y-116377180D01*
X156119924Y-116377180D02*
X156119924Y-116472419D01*
X155215163Y-116424800D02*
X155310401Y-116472419D01*
X155310401Y-116472419D02*
X155500877Y-116472419D01*
X155500877Y-116472419D02*
X155596115Y-116424800D01*
X155596115Y-116424800D02*
X155643734Y-116377180D01*
X155643734Y-116377180D02*
X155691353Y-116281942D01*
X155691353Y-116281942D02*
X155691353Y-115996228D01*
X155691353Y-115996228D02*
X155643734Y-115900990D01*
X155643734Y-115900990D02*
X155596115Y-115853371D01*
X155596115Y-115853371D02*
X155500877Y-115805752D01*
X155500877Y-115805752D02*
X155310401Y-115805752D01*
X155310401Y-115805752D02*
X155215163Y-115853371D01*
X154643734Y-116472419D02*
X154738972Y-116424800D01*
X154738972Y-116424800D02*
X154786591Y-116377180D01*
X154786591Y-116377180D02*
X154834210Y-116281942D01*
X154834210Y-116281942D02*
X154834210Y-115996228D01*
X154834210Y-115996228D02*
X154786591Y-115900990D01*
X154786591Y-115900990D02*
X154738972Y-115853371D01*
X154738972Y-115853371D02*
X154643734Y-115805752D01*
X154643734Y-115805752D02*
X154500877Y-115805752D01*
X154500877Y-115805752D02*
X154405639Y-115853371D01*
X154405639Y-115853371D02*
X154358020Y-115900990D01*
X154358020Y-115900990D02*
X154310401Y-115996228D01*
X154310401Y-115996228D02*
X154310401Y-116281942D01*
X154310401Y-116281942D02*
X154358020Y-116377180D01*
X154358020Y-116377180D02*
X154405639Y-116424800D01*
X154405639Y-116424800D02*
X154500877Y-116472419D01*
X154500877Y-116472419D02*
X154643734Y-116472419D01*
X153881829Y-116472419D02*
X153881829Y-115805752D01*
X153881829Y-115900990D02*
X153834210Y-115853371D01*
X153834210Y-115853371D02*
X153738972Y-115805752D01*
X153738972Y-115805752D02*
X153596115Y-115805752D01*
X153596115Y-115805752D02*
X153500877Y-115853371D01*
X153500877Y-115853371D02*
X153453258Y-115948609D01*
X153453258Y-115948609D02*
X153453258Y-116472419D01*
X153453258Y-115948609D02*
X153405639Y-115853371D01*
X153405639Y-115853371D02*
X153310401Y-115805752D01*
X153310401Y-115805752D02*
X153167544Y-115805752D01*
X153167544Y-115805752D02*
X153072305Y-115853371D01*
X153072305Y-115853371D02*
X153024686Y-115948609D01*
X153024686Y-115948609D02*
X153024686Y-116472419D01*
X166896115Y-140672419D02*
X166896115Y-139672419D01*
X166896115Y-139672419D02*
X166515163Y-139672419D01*
X166515163Y-139672419D02*
X166419925Y-139720038D01*
X166419925Y-139720038D02*
X166372306Y-139767657D01*
X166372306Y-139767657D02*
X166324687Y-139862895D01*
X166324687Y-139862895D02*
X166324687Y-140005752D01*
X166324687Y-140005752D02*
X166372306Y-140100990D01*
X166372306Y-140100990D02*
X166419925Y-140148609D01*
X166419925Y-140148609D02*
X166515163Y-140196228D01*
X166515163Y-140196228D02*
X166896115Y-140196228D01*
X165991353Y-139672419D02*
X165753258Y-140672419D01*
X165753258Y-140672419D02*
X165562782Y-139958133D01*
X165562782Y-139958133D02*
X165372306Y-140672419D01*
X165372306Y-140672419D02*
X165134211Y-139672419D01*
X164753258Y-140672419D02*
X164753258Y-139672419D01*
X164753258Y-139672419D02*
X164419925Y-140386704D01*
X164419925Y-140386704D02*
X164086592Y-139672419D01*
X164086592Y-139672419D02*
X164086592Y-140672419D01*
X131419925Y-114472419D02*
X131896115Y-114472419D01*
X131896115Y-114472419D02*
X131896115Y-113472419D01*
X129610401Y-113424800D02*
X130467543Y-114710514D01*
X128515162Y-114472419D02*
X128515162Y-113472419D01*
X128515162Y-113472419D02*
X128134210Y-113472419D01*
X128134210Y-113472419D02*
X128038972Y-113520038D01*
X128038972Y-113520038D02*
X127991353Y-113567657D01*
X127991353Y-113567657D02*
X127943734Y-113662895D01*
X127943734Y-113662895D02*
X127943734Y-113805752D01*
X127943734Y-113805752D02*
X127991353Y-113900990D01*
X127991353Y-113900990D02*
X128038972Y-113948609D01*
X128038972Y-113948609D02*
X128134210Y-113996228D01*
X128134210Y-113996228D02*
X128515162Y-113996228D01*
X127515162Y-114472419D02*
X127515162Y-113472419D01*
X127086591Y-114472419D02*
X127086591Y-113948609D01*
X127086591Y-113948609D02*
X127134210Y-113853371D01*
X127134210Y-113853371D02*
X127229448Y-113805752D01*
X127229448Y-113805752D02*
X127372305Y-113805752D01*
X127372305Y-113805752D02*
X127467543Y-113853371D01*
X127467543Y-113853371D02*
X127515162Y-113900990D01*
X126181829Y-114472419D02*
X126181829Y-113948609D01*
X126181829Y-113948609D02*
X126229448Y-113853371D01*
X126229448Y-113853371D02*
X126324686Y-113805752D01*
X126324686Y-113805752D02*
X126515162Y-113805752D01*
X126515162Y-113805752D02*
X126610400Y-113853371D01*
X126181829Y-114424800D02*
X126277067Y-114472419D01*
X126277067Y-114472419D02*
X126515162Y-114472419D01*
X126515162Y-114472419D02*
X126610400Y-114424800D01*
X126610400Y-114424800D02*
X126658019Y-114329561D01*
X126658019Y-114329561D02*
X126658019Y-114234323D01*
X126658019Y-114234323D02*
X126610400Y-114139085D01*
X126610400Y-114139085D02*
X126515162Y-114091466D01*
X126515162Y-114091466D02*
X126277067Y-114091466D01*
X126277067Y-114091466D02*
X126181829Y-114043847D01*
X125753257Y-114424800D02*
X125658019Y-114472419D01*
X125658019Y-114472419D02*
X125467543Y-114472419D01*
X125467543Y-114472419D02*
X125372305Y-114424800D01*
X125372305Y-114424800D02*
X125324686Y-114329561D01*
X125324686Y-114329561D02*
X125324686Y-114281942D01*
X125324686Y-114281942D02*
X125372305Y-114186704D01*
X125372305Y-114186704D02*
X125467543Y-114139085D01*
X125467543Y-114139085D02*
X125610400Y-114139085D01*
X125610400Y-114139085D02*
X125705638Y-114091466D01*
X125705638Y-114091466D02*
X125753257Y-113996228D01*
X125753257Y-113996228D02*
X125753257Y-113948609D01*
X125753257Y-113948609D02*
X125705638Y-113853371D01*
X125705638Y-113853371D02*
X125610400Y-113805752D01*
X125610400Y-113805752D02*
X125467543Y-113805752D01*
X125467543Y-113805752D02*
X125372305Y-113853371D01*
X124515162Y-114424800D02*
X124610400Y-114472419D01*
X124610400Y-114472419D02*
X124800876Y-114472419D01*
X124800876Y-114472419D02*
X124896114Y-114424800D01*
X124896114Y-114424800D02*
X124943733Y-114329561D01*
X124943733Y-114329561D02*
X124943733Y-113948609D01*
X124943733Y-113948609D02*
X124896114Y-113853371D01*
X124896114Y-113853371D02*
X124800876Y-113805752D01*
X124800876Y-113805752D02*
X124610400Y-113805752D01*
X124610400Y-113805752D02*
X124515162Y-113853371D01*
X124515162Y-113853371D02*
X124467543Y-113948609D01*
X124467543Y-113948609D02*
X124467543Y-114043847D01*
X124467543Y-114043847D02*
X124943733Y-114139085D01*
X131896115Y-117372419D02*
X131896115Y-116372419D01*
X131896115Y-116372419D02*
X131324687Y-117372419D01*
X131324687Y-117372419D02*
X131324687Y-116372419D01*
X129372306Y-116324800D02*
X130229448Y-117610514D01*
X128277067Y-117372419D02*
X128277067Y-116372419D01*
X128277067Y-116372419D02*
X127705639Y-117372419D01*
X127705639Y-117372419D02*
X127705639Y-116372419D01*
X126848496Y-117324800D02*
X126943734Y-117372419D01*
X126943734Y-117372419D02*
X127134210Y-117372419D01*
X127134210Y-117372419D02*
X127229448Y-117324800D01*
X127229448Y-117324800D02*
X127277067Y-117229561D01*
X127277067Y-117229561D02*
X127277067Y-116848609D01*
X127277067Y-116848609D02*
X127229448Y-116753371D01*
X127229448Y-116753371D02*
X127134210Y-116705752D01*
X127134210Y-116705752D02*
X126943734Y-116705752D01*
X126943734Y-116705752D02*
X126848496Y-116753371D01*
X126848496Y-116753371D02*
X126800877Y-116848609D01*
X126800877Y-116848609D02*
X126800877Y-116943847D01*
X126800877Y-116943847D02*
X127277067Y-117039085D01*
X125943734Y-116705752D02*
X125943734Y-117372419D01*
X126372305Y-116705752D02*
X126372305Y-117229561D01*
X126372305Y-117229561D02*
X126324686Y-117324800D01*
X126324686Y-117324800D02*
X126229448Y-117372419D01*
X126229448Y-117372419D02*
X126086591Y-117372419D01*
X126086591Y-117372419D02*
X125991353Y-117324800D01*
X125991353Y-117324800D02*
X125943734Y-117277180D01*
X125610400Y-116705752D02*
X125229448Y-116705752D01*
X125467543Y-116372419D02*
X125467543Y-117229561D01*
X125467543Y-117229561D02*
X125419924Y-117324800D01*
X125419924Y-117324800D02*
X125324686Y-117372419D01*
X125324686Y-117372419D02*
X125229448Y-117372419D01*
X124896114Y-117372419D02*
X124896114Y-116705752D01*
X124896114Y-116896228D02*
X124848495Y-116800990D01*
X124848495Y-116800990D02*
X124800876Y-116753371D01*
X124800876Y-116753371D02*
X124705638Y-116705752D01*
X124705638Y-116705752D02*
X124610400Y-116705752D01*
X123848495Y-117372419D02*
X123848495Y-116848609D01*
X123848495Y-116848609D02*
X123896114Y-116753371D01*
X123896114Y-116753371D02*
X123991352Y-116705752D01*
X123991352Y-116705752D02*
X124181828Y-116705752D01*
X124181828Y-116705752D02*
X124277066Y-116753371D01*
X123848495Y-117324800D02*
X123943733Y-117372419D01*
X123943733Y-117372419D02*
X124181828Y-117372419D01*
X124181828Y-117372419D02*
X124277066Y-117324800D01*
X124277066Y-117324800D02*
X124324685Y-117229561D01*
X124324685Y-117229561D02*
X124324685Y-117134323D01*
X124324685Y-117134323D02*
X124277066Y-117039085D01*
X124277066Y-117039085D02*
X124181828Y-116991466D01*
X124181828Y-116991466D02*
X123943733Y-116991466D01*
X123943733Y-116991466D02*
X123848495Y-116943847D01*
X123229447Y-117372419D02*
X123324685Y-117324800D01*
X123324685Y-117324800D02*
X123372304Y-117229561D01*
X123372304Y-117229561D02*
X123372304Y-116372419D01*
X131896115Y-110972419D02*
X131896115Y-109972419D01*
X131419925Y-110972419D02*
X131419925Y-109972419D01*
X131419925Y-109972419D02*
X130848497Y-110972419D01*
X130848497Y-110972419D02*
X130848497Y-109972419D01*
X130372306Y-110877180D02*
X130324687Y-110924800D01*
X130324687Y-110924800D02*
X130372306Y-110972419D01*
X130372306Y-110972419D02*
X130419925Y-110924800D01*
X130419925Y-110924800D02*
X130372306Y-110877180D01*
X130372306Y-110877180D02*
X130372306Y-110972419D01*
X130372306Y-110353371D02*
X130324687Y-110400990D01*
X130324687Y-110400990D02*
X130372306Y-110448609D01*
X130372306Y-110448609D02*
X130419925Y-110400990D01*
X130419925Y-110400990D02*
X130372306Y-110353371D01*
X130372306Y-110353371D02*
X130372306Y-110448609D01*
X128991354Y-110400990D02*
X129086592Y-110353371D01*
X129086592Y-110353371D02*
X129134211Y-110305752D01*
X129134211Y-110305752D02*
X129181830Y-110210514D01*
X129181830Y-110210514D02*
X129181830Y-110162895D01*
X129181830Y-110162895D02*
X129134211Y-110067657D01*
X129134211Y-110067657D02*
X129086592Y-110020038D01*
X129086592Y-110020038D02*
X128991354Y-109972419D01*
X128991354Y-109972419D02*
X128800878Y-109972419D01*
X128800878Y-109972419D02*
X128705640Y-110020038D01*
X128705640Y-110020038D02*
X128658021Y-110067657D01*
X128658021Y-110067657D02*
X128610402Y-110162895D01*
X128610402Y-110162895D02*
X128610402Y-110210514D01*
X128610402Y-110210514D02*
X128658021Y-110305752D01*
X128658021Y-110305752D02*
X128705640Y-110353371D01*
X128705640Y-110353371D02*
X128800878Y-110400990D01*
X128800878Y-110400990D02*
X128991354Y-110400990D01*
X128991354Y-110400990D02*
X129086592Y-110448609D01*
X129086592Y-110448609D02*
X129134211Y-110496228D01*
X129134211Y-110496228D02*
X129181830Y-110591466D01*
X129181830Y-110591466D02*
X129181830Y-110781942D01*
X129181830Y-110781942D02*
X129134211Y-110877180D01*
X129134211Y-110877180D02*
X129086592Y-110924800D01*
X129086592Y-110924800D02*
X128991354Y-110972419D01*
X128991354Y-110972419D02*
X128800878Y-110972419D01*
X128800878Y-110972419D02*
X128705640Y-110924800D01*
X128705640Y-110924800D02*
X128658021Y-110877180D01*
X128658021Y-110877180D02*
X128610402Y-110781942D01*
X128610402Y-110781942D02*
X128610402Y-110591466D01*
X128610402Y-110591466D02*
X128658021Y-110496228D01*
X128658021Y-110496228D02*
X128705640Y-110448609D01*
X128705640Y-110448609D02*
X128800878Y-110400990D01*
X127705640Y-109972419D02*
X128181830Y-109972419D01*
X128181830Y-109972419D02*
X128229449Y-110448609D01*
X128229449Y-110448609D02*
X128181830Y-110400990D01*
X128181830Y-110400990D02*
X128086592Y-110353371D01*
X128086592Y-110353371D02*
X127848497Y-110353371D01*
X127848497Y-110353371D02*
X127753259Y-110400990D01*
X127753259Y-110400990D02*
X127705640Y-110448609D01*
X127705640Y-110448609D02*
X127658021Y-110543847D01*
X127658021Y-110543847D02*
X127658021Y-110781942D01*
X127658021Y-110781942D02*
X127705640Y-110877180D01*
X127705640Y-110877180D02*
X127753259Y-110924800D01*
X127753259Y-110924800D02*
X127848497Y-110972419D01*
X127848497Y-110972419D02*
X128086592Y-110972419D01*
X128086592Y-110972419D02*
X128181830Y-110924800D01*
X128181830Y-110924800D02*
X128229449Y-110877180D01*
X126467544Y-110591466D02*
X125705640Y-110591466D01*
X124562782Y-109972419D02*
X123943735Y-109972419D01*
X123943735Y-109972419D02*
X124277068Y-110353371D01*
X124277068Y-110353371D02*
X124134211Y-110353371D01*
X124134211Y-110353371D02*
X124038973Y-110400990D01*
X124038973Y-110400990D02*
X123991354Y-110448609D01*
X123991354Y-110448609D02*
X123943735Y-110543847D01*
X123943735Y-110543847D02*
X123943735Y-110781942D01*
X123943735Y-110781942D02*
X123991354Y-110877180D01*
X123991354Y-110877180D02*
X124038973Y-110924800D01*
X124038973Y-110924800D02*
X124134211Y-110972419D01*
X124134211Y-110972419D02*
X124419925Y-110972419D01*
X124419925Y-110972419D02*
X124515163Y-110924800D01*
X124515163Y-110924800D02*
X124562782Y-110877180D01*
X123324687Y-109972419D02*
X123229449Y-109972419D01*
X123229449Y-109972419D02*
X123134211Y-110020038D01*
X123134211Y-110020038D02*
X123086592Y-110067657D01*
X123086592Y-110067657D02*
X123038973Y-110162895D01*
X123038973Y-110162895D02*
X122991354Y-110353371D01*
X122991354Y-110353371D02*
X122991354Y-110591466D01*
X122991354Y-110591466D02*
X123038973Y-110781942D01*
X123038973Y-110781942D02*
X123086592Y-110877180D01*
X123086592Y-110877180D02*
X123134211Y-110924800D01*
X123134211Y-110924800D02*
X123229449Y-110972419D01*
X123229449Y-110972419D02*
X123324687Y-110972419D01*
X123324687Y-110972419D02*
X123419925Y-110924800D01*
X123419925Y-110924800D02*
X123467544Y-110877180D01*
X123467544Y-110877180D02*
X123515163Y-110781942D01*
X123515163Y-110781942D02*
X123562782Y-110591466D01*
X123562782Y-110591466D02*
X123562782Y-110353371D01*
X123562782Y-110353371D02*
X123515163Y-110162895D01*
X123515163Y-110162895D02*
X123467544Y-110067657D01*
X123467544Y-110067657D02*
X123419925Y-110020038D01*
X123419925Y-110020038D02*
X123324687Y-109972419D01*
X122086592Y-109972419D02*
X122562782Y-109972419D01*
X122562782Y-109972419D02*
X122610401Y-110448609D01*
X122610401Y-110448609D02*
X122562782Y-110400990D01*
X122562782Y-110400990D02*
X122467544Y-110353371D01*
X122467544Y-110353371D02*
X122229449Y-110353371D01*
X122229449Y-110353371D02*
X122134211Y-110400990D01*
X122134211Y-110400990D02*
X122086592Y-110448609D01*
X122086592Y-110448609D02*
X122038973Y-110543847D01*
X122038973Y-110543847D02*
X122038973Y-110781942D01*
X122038973Y-110781942D02*
X122086592Y-110877180D01*
X122086592Y-110877180D02*
X122134211Y-110924800D01*
X122134211Y-110924800D02*
X122229449Y-110972419D01*
X122229449Y-110972419D02*
X122467544Y-110972419D01*
X122467544Y-110972419D02*
X122562782Y-110924800D01*
X122562782Y-110924800D02*
X122610401Y-110877180D01*
X120991353Y-109972419D02*
X120658020Y-110972419D01*
X120658020Y-110972419D02*
X120324687Y-109972419D01*
X119848496Y-110972419D02*
X119943734Y-110924800D01*
X119943734Y-110924800D02*
X119991353Y-110877180D01*
X119991353Y-110877180D02*
X120038972Y-110781942D01*
X120038972Y-110781942D02*
X120038972Y-110496228D01*
X120038972Y-110496228D02*
X119991353Y-110400990D01*
X119991353Y-110400990D02*
X119943734Y-110353371D01*
X119943734Y-110353371D02*
X119848496Y-110305752D01*
X119848496Y-110305752D02*
X119705639Y-110305752D01*
X119705639Y-110305752D02*
X119610401Y-110353371D01*
X119610401Y-110353371D02*
X119562782Y-110400990D01*
X119562782Y-110400990D02*
X119515163Y-110496228D01*
X119515163Y-110496228D02*
X119515163Y-110781942D01*
X119515163Y-110781942D02*
X119562782Y-110877180D01*
X119562782Y-110877180D02*
X119610401Y-110924800D01*
X119610401Y-110924800D02*
X119705639Y-110972419D01*
X119705639Y-110972419D02*
X119848496Y-110972419D01*
X118943734Y-110972419D02*
X119038972Y-110924800D01*
X119038972Y-110924800D02*
X119086591Y-110829561D01*
X119086591Y-110829561D02*
X119086591Y-109972419D01*
X118705638Y-110305752D02*
X118324686Y-110305752D01*
X118562781Y-109972419D02*
X118562781Y-110829561D01*
X118562781Y-110829561D02*
X118515162Y-110924800D01*
X118515162Y-110924800D02*
X118419924Y-110972419D01*
X118419924Y-110972419D02*
X118324686Y-110972419D01*
X117277066Y-110686704D02*
X116800876Y-110686704D01*
X117372304Y-110972419D02*
X117038971Y-109972419D01*
X117038971Y-109972419D02*
X116705638Y-110972419D01*
X115800876Y-110877180D02*
X115848495Y-110924800D01*
X115848495Y-110924800D02*
X115991352Y-110972419D01*
X115991352Y-110972419D02*
X116086590Y-110972419D01*
X116086590Y-110972419D02*
X116229447Y-110924800D01*
X116229447Y-110924800D02*
X116324685Y-110829561D01*
X116324685Y-110829561D02*
X116372304Y-110734323D01*
X116372304Y-110734323D02*
X116419923Y-110543847D01*
X116419923Y-110543847D02*
X116419923Y-110400990D01*
X116419923Y-110400990D02*
X116372304Y-110210514D01*
X116372304Y-110210514D02*
X116324685Y-110115276D01*
X116324685Y-110115276D02*
X116229447Y-110020038D01*
X116229447Y-110020038D02*
X116086590Y-109972419D01*
X116086590Y-109972419D02*
X115991352Y-109972419D01*
X115991352Y-109972419D02*
X115848495Y-110020038D01*
X115848495Y-110020038D02*
X115800876Y-110067657D01*
X131896115Y-120472419D02*
X131896115Y-119472419D01*
X131896115Y-119472419D02*
X131515163Y-119472419D01*
X131515163Y-119472419D02*
X131419925Y-119520038D01*
X131419925Y-119520038D02*
X131372306Y-119567657D01*
X131372306Y-119567657D02*
X131324687Y-119662895D01*
X131324687Y-119662895D02*
X131324687Y-119805752D01*
X131324687Y-119805752D02*
X131372306Y-119900990D01*
X131372306Y-119900990D02*
X131419925Y-119948609D01*
X131419925Y-119948609D02*
X131515163Y-119996228D01*
X131515163Y-119996228D02*
X131896115Y-119996228D01*
X130896115Y-119948609D02*
X130562782Y-119948609D01*
X130419925Y-120472419D02*
X130896115Y-120472419D01*
X130896115Y-120472419D02*
X130896115Y-119472419D01*
X130896115Y-119472419D02*
X130419925Y-119472419D01*
X128515163Y-119424800D02*
X129372305Y-120710514D01*
X127419924Y-119948609D02*
X127086591Y-119948609D01*
X126943734Y-120472419D02*
X127419924Y-120472419D01*
X127419924Y-120472419D02*
X127419924Y-119472419D01*
X127419924Y-119472419D02*
X126943734Y-119472419D01*
X126086591Y-120472419D02*
X126086591Y-119948609D01*
X126086591Y-119948609D02*
X126134210Y-119853371D01*
X126134210Y-119853371D02*
X126229448Y-119805752D01*
X126229448Y-119805752D02*
X126419924Y-119805752D01*
X126419924Y-119805752D02*
X126515162Y-119853371D01*
X126086591Y-120424800D02*
X126181829Y-120472419D01*
X126181829Y-120472419D02*
X126419924Y-120472419D01*
X126419924Y-120472419D02*
X126515162Y-120424800D01*
X126515162Y-120424800D02*
X126562781Y-120329561D01*
X126562781Y-120329561D02*
X126562781Y-120234323D01*
X126562781Y-120234323D02*
X126515162Y-120139085D01*
X126515162Y-120139085D02*
X126419924Y-120091466D01*
X126419924Y-120091466D02*
X126181829Y-120091466D01*
X126181829Y-120091466D02*
X126086591Y-120043847D01*
X125610400Y-120472419D02*
X125610400Y-119805752D01*
X125610400Y-119996228D02*
X125562781Y-119900990D01*
X125562781Y-119900990D02*
X125515162Y-119853371D01*
X125515162Y-119853371D02*
X125419924Y-119805752D01*
X125419924Y-119805752D02*
X125324686Y-119805752D01*
X125134209Y-119805752D02*
X124753257Y-119805752D01*
X124991352Y-119472419D02*
X124991352Y-120329561D01*
X124991352Y-120329561D02*
X124943733Y-120424800D01*
X124943733Y-120424800D02*
X124848495Y-120472419D01*
X124848495Y-120472419D02*
X124753257Y-120472419D01*
X124419923Y-120472419D02*
X124419923Y-119472419D01*
X123991352Y-120472419D02*
X123991352Y-119948609D01*
X123991352Y-119948609D02*
X124038971Y-119853371D01*
X124038971Y-119853371D02*
X124134209Y-119805752D01*
X124134209Y-119805752D02*
X124277066Y-119805752D01*
X124277066Y-119805752D02*
X124372304Y-119853371D01*
X124372304Y-119853371D02*
X124419923Y-119900990D01*
X166372306Y-136972419D02*
X166943734Y-136972419D01*
X166658020Y-136972419D02*
X166658020Y-135972419D01*
X166658020Y-135972419D02*
X166753258Y-136115276D01*
X166753258Y-136115276D02*
X166848496Y-136210514D01*
X166848496Y-136210514D02*
X166943734Y-136258133D01*
X165991353Y-136067657D02*
X165943734Y-136020038D01*
X165943734Y-136020038D02*
X165848496Y-135972419D01*
X165848496Y-135972419D02*
X165610401Y-135972419D01*
X165610401Y-135972419D02*
X165515163Y-136020038D01*
X165515163Y-136020038D02*
X165467544Y-136067657D01*
X165467544Y-136067657D02*
X165419925Y-136162895D01*
X165419925Y-136162895D02*
X165419925Y-136258133D01*
X165419925Y-136258133D02*
X165467544Y-136400990D01*
X165467544Y-136400990D02*
X166038972Y-136972419D01*
X166038972Y-136972419D02*
X165419925Y-136972419D01*
X165134210Y-135972419D02*
X164800877Y-136972419D01*
X164800877Y-136972419D02*
X164467544Y-135972419D01*
X166372306Y-143420038D02*
X166467544Y-143372419D01*
X166467544Y-143372419D02*
X166610401Y-143372419D01*
X166610401Y-143372419D02*
X166753258Y-143420038D01*
X166753258Y-143420038D02*
X166848496Y-143515276D01*
X166848496Y-143515276D02*
X166896115Y-143610514D01*
X166896115Y-143610514D02*
X166943734Y-143800990D01*
X166943734Y-143800990D02*
X166943734Y-143943847D01*
X166943734Y-143943847D02*
X166896115Y-144134323D01*
X166896115Y-144134323D02*
X166848496Y-144229561D01*
X166848496Y-144229561D02*
X166753258Y-144324800D01*
X166753258Y-144324800D02*
X166610401Y-144372419D01*
X166610401Y-144372419D02*
X166515163Y-144372419D01*
X166515163Y-144372419D02*
X166372306Y-144324800D01*
X166372306Y-144324800D02*
X166324687Y-144277180D01*
X166324687Y-144277180D02*
X166324687Y-143943847D01*
X166324687Y-143943847D02*
X166515163Y-143943847D01*
X165896115Y-144372419D02*
X165896115Y-143372419D01*
X165896115Y-143372419D02*
X165324687Y-144372419D01*
X165324687Y-144372419D02*
X165324687Y-143372419D01*
X164848496Y-144372419D02*
X164848496Y-143372419D01*
X164848496Y-143372419D02*
X164610401Y-143372419D01*
X164610401Y-143372419D02*
X164467544Y-143420038D01*
X164467544Y-143420038D02*
X164372306Y-143515276D01*
X164372306Y-143515276D02*
X164324687Y-143610514D01*
X164324687Y-143610514D02*
X164277068Y-143800990D01*
X164277068Y-143800990D02*
X164277068Y-143943847D01*
X164277068Y-143943847D02*
X164324687Y-144134323D01*
X164324687Y-144134323D02*
X164372306Y-144229561D01*
X164372306Y-144229561D02*
X164467544Y-144324800D01*
X164467544Y-144324800D02*
X164610401Y-144372419D01*
X164610401Y-144372419D02*
X164848496Y-144372419D01*
D11*
%TO.C,J4*%
X113273000Y-112822999D02*
X113273000Y-113368762D01*
X113273000Y-115431242D02*
X113273000Y-116368761D01*
X113273000Y-118431241D02*
X113273000Y-119368760D01*
D10*
X113273000Y-121431240D02*
X113273000Y-121977002D01*
D11*
X113273000Y-121431240D02*
X113273000Y-121977002D01*
X113273000Y-121977002D02*
X120927000Y-121977002D01*
D10*
X114100000Y-121900002D02*
X113273000Y-121431240D01*
D11*
X120927000Y-112822999D02*
X113273000Y-112822999D01*
X120927000Y-113368762D02*
X120927000Y-112822999D01*
X120927000Y-116368761D02*
X120927000Y-115431242D01*
X120927000Y-119368760D02*
X120927000Y-118431241D01*
X120927000Y-121977002D02*
X120927000Y-121431240D01*
%TD*%
M02*
